<?xml version="1.0" encoding="utf-8"?>
<!-- Generator: Adobe Illustrator 17.0.0, SVG Export Plug-In . SVG Version: 6.00 Build 0)  -->
<!DOCTYPE svg PUBLIC "-//W3C//DTD SVG 1.1//EN" "http://www.w3.org/Graphics/SVG/1.1/DTD/svg11.dtd">
<svg version="1.1" id="Capa_1" xmlns="http://www.w3.org/2000/svg" xmlns:xlink="http://www.w3.org/1999/xlink" x="0px" y="0px"
	 width="284.929px" height="284.929px" viewBox="0 0 284.929 284.929" enable-background="new 0 0 284.929 284.929"
	 xml:space="preserve">
<g>
	<path fill="#7a368e" stroke="#7a368e" stroke-width="17" stroke-miterlimit="10" d="M265.303,84.437l-12.559-12.558
		c-1.673-1.677-3.601-2.513-5.78-2.513c-2.174,0-4.101,0.836-5.774,2.513l-98.724,98.719l-98.72-98.716
		c-1.674-1.677-3.601-2.513-5.778-2.513c-2.178,0-4.104,0.836-5.778,2.513L19.634,84.441c-1.677,1.673-2.513,3.6-2.513,5.778
		c0,2.176,0.838,4.103,2.513,5.776l117.054,117.057c1.673,1.674,3.601,2.511,5.778,2.511s4.101-0.837,5.773-2.511L265.303,95.994
		c1.673-1.674,2.505-3.601,2.505-5.776C267.808,88.041,266.977,86.114,265.303,84.437z"/>
</g>
</svg>
