<?xml version="1.0" encoding="utf-8"?>
<!-- Generator: Adobe Illustrator 17.0.0, SVG Export Plug-In . SVG Version: 6.00 Build 0)  -->
<!DOCTYPE svg PUBLIC "-//W3C//DTD SVG 1.1//EN" "http://www.w3.org/Graphics/SVG/1.1/DTD/svg11.dtd">
<svg version="1.1" id="Capa_1" xmlns="http://www.w3.org/2000/svg" xmlns:xlink="http://www.w3.org/1999/xlink" x="0px" y="0px"
	 width="284.929px" height="284.929px" viewBox="0 0 284.929 284.929" enable-background="new 0 0 284.929 284.929"
	 xml:space="preserve">
<g>
	<path fill="#FFFFFF" stroke="#FFFFFF" stroke-width="17" stroke-miterlimit="10" d="M200.492,265.303l12.558-12.559
		c1.677-1.673,2.513-3.601,2.513-5.78c0-2.174-0.836-4.101-2.513-5.774l-98.719-98.724l98.716-98.72
		c1.677-1.674,2.513-3.601,2.513-5.778c0-2.178-0.836-4.104-2.513-5.778l-12.559-12.556c-1.673-1.677-3.6-2.513-5.778-2.513
		c-2.176,0-4.103,0.838-5.776,2.513L71.877,136.688c-1.674,1.673-2.511,3.601-2.511,5.778s0.837,4.101,2.511,5.773l117.058,117.064
		c1.674,1.673,3.601,2.505,5.776,2.505C196.888,267.808,198.815,266.977,200.492,265.303z"/>
</g>
</svg>
