<?xml version="1.0" encoding="utf-8"?>
<!-- Generator: Adobe Illustrator 17.0.0, SVG Export Plug-In . SVG Version: 6.00 Build 0)  -->
<!DOCTYPE svg PUBLIC "-//W3C//DTD SVG 1.1//EN" "http://www.w3.org/Graphics/SVG/1.1/DTD/svg11.dtd">
<svg version="1.1" id="rounded_gradient_lines" xmlns="http://www.w3.org/2000/svg" xmlns:xlink="http://www.w3.org/1999/xlink"
	 x="0px" y="0px" width="720.891px" height="273.371px" viewBox="0 0 720.891 273.371" enable-background="new 0 0 720.891 273.371"
	 xml:space="preserve">
<g>
	<g>
		<polygon fill="#462B7E" points="368.93,205.78 368.93,208.878 446.04,222.153 446.04,218.724 		"/>
	</g>
	<g>
		<rect x="375.658" y="207.696" fill="#462B7E" width="9.608" height="25.129"/>
	</g>
	<g>
		<rect x="388.038" y="208.805" fill="#462B7E" width="7.391" height="23.651"/>
	</g>
	<g>
		<rect x="397.344" y="210.629" fill="#462B7E" width="7.391" height="21.826"/>
	</g>
	<g>
		<rect x="406.651" y="212.222" fill="#462B7E" width="6.174" height="20.234"/>
	</g>
	<g>
		<rect x="413.945" y="213.815" fill="#462B7E" width="6.174" height="18.64"/>
	</g>
	<g>
		<rect x="420.82" y="215.073" fill="#462B7E" width="5.922" height="17.383"/>
	</g>
	<g>
		<rect x="427.443" y="216.554" fill="#462B7E" width="4.915" height="15.902"/>
	</g>
	<g>
		<rect x="432.67" y="217.847" fill="#462B7E" width="5.043" height="14.609"/>
	</g>
	<g>
		<rect x="438.381" y="218.848" fill="#462B7E" width="4.121" height="13.608"/>
	</g>
	<g>
		<polygon fill="#462B7E" points="447.271,232.456 443.15,232.456 443.15,219.908 447.271,219.908 500.376,231.683 		"/>
	</g>
	<g>
		<rect x="358.664" y="206.426" fill="#462B7E" width="2.677" height="26.371"/>
	</g>
	<g>
		<rect x="361.21" y="229.683" fill="#462B7E" width="16.257" height="3.147"/>
	</g>
	<g>
		
			<line fill="none" stroke="#2C2A6B" stroke-width="0.75" stroke-miterlimit="10" x1="310.627" y1="133.137" x2="350.156" y2="194.291"/>
		
			<line fill="none" stroke="#2C2A6B" stroke-width="0.75" stroke-miterlimit="10" x1="310.697" y1="137.604" x2="346.869" y2="193.544"/>
		
			<line fill="none" stroke="#2C2A6B" stroke-width="0.75" stroke-miterlimit="10" x1="310.768" y1="142.07" x2="343.582" y2="192.797"/>
		
			<line fill="none" stroke="#2C2A6B" stroke-width="0.75" stroke-miterlimit="10" x1="310.839" y1="146.536" x2="340.295" y2="192.05"/>
		
			<line fill="none" stroke="#2C2A6B" stroke-width="0.75" stroke-miterlimit="10" x1="310.91" y1="151.003" x2="337.008" y2="191.303"/>
		
			<line fill="none" stroke="#2C2A6B" stroke-width="0.75" stroke-miterlimit="10" x1="310.981" y1="155.469" x2="333.721" y2="190.556"/>
		
			<line fill="none" stroke="#2C2A6B" stroke-width="0.75" stroke-miterlimit="10" x1="311.051" y1="159.936" x2="330.435" y2="189.809"/>
		
			<line fill="none" stroke="#2C2A6B" stroke-width="0.75" stroke-miterlimit="10" x1="311.122" y1="164.402" x2="327.148" y2="189.062"/>
		
			<line fill="none" stroke="#2C2A6B" stroke-width="0.75" stroke-miterlimit="10" x1="311.193" y1="168.869" x2="323.861" y2="188.315"/>
		
			<line fill="none" stroke="#2C2A6B" stroke-width="0.75" stroke-miterlimit="10" x1="311.264" y1="173.335" x2="320.574" y2="187.568"/>
		
			<line fill="none" stroke="#2C2A6B" stroke-width="0.75" stroke-miterlimit="10" x1="311.334" y1="177.801" x2="317.287" y2="186.821"/>
		
			<line fill="none" stroke="#2C2A6B" stroke-width="0.75" stroke-miterlimit="10" x1="311.405" y1="182.268" x2="314" y2="186.074"/>
	</g>
	<g>
		
			<line fill="none" stroke="#2C2A6B" stroke-width="0.75" stroke-miterlimit="10" x1="340.295" y1="131.148" x2="381.295" y2="201.211"/>
		
			<line fill="none" stroke="#2C2A6B" stroke-width="0.75" stroke-miterlimit="10" x1="340.413" y1="136.416" x2="377.922" y2="200.456"/>
		
			<line fill="none" stroke="#2C2A6B" stroke-width="0.75" stroke-miterlimit="10" x1="340.531" y1="141.685" x2="374.548" y2="199.701"/>
		
			<line fill="none" stroke="#2C2A6B" stroke-width="0.75" stroke-miterlimit="10" x1="340.649" y1="146.953" x2="371.175" y2="198.946"/>
		
			<line fill="none" stroke="#2C2A6B" stroke-width="0.75" stroke-miterlimit="10" x1="340.767" y1="152.222" x2="367.801" y2="198.191"/>
		
			<line fill="none" stroke="#2C2A6B" stroke-width="0.75" stroke-miterlimit="10" x1="340.885" y1="157.49" x2="364.428" y2="197.436"/>
		
			<line fill="none" stroke="#2C2A6B" stroke-width="0.75" stroke-miterlimit="10" x1="341.003" y1="162.759" x2="361.055" y2="196.681"/>
		
			<line fill="none" stroke="#2C2A6B" stroke-width="0.75" stroke-miterlimit="10" x1="341.121" y1="168.027" x2="357.681" y2="195.926"/>
		
			<line fill="none" stroke="#2C2A6B" stroke-width="0.75" stroke-miterlimit="10" x1="341.239" y1="173.296" x2="354.308" y2="195.172"/>
		
			<line fill="none" stroke="#2C2A6B" stroke-width="0.75" stroke-miterlimit="10" x1="341.357" y1="178.564" x2="350.934" y2="194.417"/>
		
			<line fill="none" stroke="#2C2A6B" stroke-width="0.75" stroke-miterlimit="10" x1="341.475" y1="183.833" x2="347.561" y2="193.662"/>
		
			<line fill="none" stroke="#2C2A6B" stroke-width="0.75" stroke-miterlimit="10" x1="341.593" y1="189.101" x2="344.188" y2="192.907"/>
	</g>
	<g>
		
			<line fill="none" stroke="#2C2A6B" stroke-width="0.75" stroke-miterlimit="10" x1="308.205" y1="132.878" x2="245.907" y2="172.259"/>
		
			<line fill="none" stroke="#2C2A6B" stroke-width="0.75" stroke-miterlimit="10" x1="308.189" y1="137.305" x2="251.233" y2="173.334"/>
		
			<line fill="none" stroke="#2C2A6B" stroke-width="0.75" stroke-miterlimit="10" x1="308.173" y1="141.732" x2="256.558" y2="174.409"/>
		
			<line fill="none" stroke="#2C2A6B" stroke-width="0.75" stroke-miterlimit="10" x1="308.158" y1="146.159" x2="261.883" y2="175.484"/>
		
			<line fill="none" stroke="#2C2A6B" stroke-width="0.75" stroke-miterlimit="10" x1="308.142" y1="150.586" x2="267.208" y2="176.559"/>
		
			<line fill="none" stroke="#2C2A6B" stroke-width="0.75" stroke-miterlimit="10" x1="308.126" y1="155.013" x2="272.534" y2="177.634"/>
		
			<line fill="none" stroke="#2C2A6B" stroke-width="0.75" stroke-miterlimit="10" x1="308.11" y1="159.44" x2="277.859" y2="178.709"/>
		
			<line fill="none" stroke="#2C2A6B" stroke-width="0.75" stroke-miterlimit="10" x1="308.095" y1="163.867" x2="283.184" y2="179.784"/>
		
			<line fill="none" stroke="#2C2A6B" stroke-width="0.75" stroke-miterlimit="10" x1="308.079" y1="168.294" x2="288.51" y2="180.859"/>
		
			<line fill="none" stroke="#2C2A6B" stroke-width="0.75" stroke-miterlimit="10" x1="308.063" y1="172.722" x2="293.835" y2="181.934"/>
		
			<line fill="none" stroke="#2C2A6B" stroke-width="0.75" stroke-miterlimit="10" x1="308.047" y1="177.149" x2="299.16" y2="183.009"/>
		
			<line fill="none" stroke="#2C2A6B" stroke-width="0.75" stroke-miterlimit="10" x1="308.032" y1="181.576" x2="304.485" y2="184.084"/>
	</g>
	<g>
		<polygon fill="#462B7E" points="309.301,185.48 306.946,185.48 307.64,129.058 309.301,129.058 		"/>
	</g>
	<g>
		<path fill="#462B7E" d="M306.355,193.879l-1.481,39.892l33.098-0.261v-39.631H306.355z M336.754,227.065h-24.65v-23.343
			l12.281-3.484l12.368,1.655V227.065z"/>
	</g>
	<g>
		<polygon fill="#462B7E" points="340.719,233.504 336.736,233.504 336.736,125.461 339.19,125.187 340.625,125.471 		"/>
	</g>
	<g>
		<line fill="none" stroke="#2C2A6B" stroke-miterlimit="10" x1="90.618" y1="44.607" x2="197.225" y2="163.924"/>
		<line fill="none" stroke="#2C2A6B" stroke-miterlimit="10" x1="89.22" y1="53.254" x2="186.508" y2="162.191"/>
		<line fill="none" stroke="#2C2A6B" stroke-miterlimit="10" x1="87.822" y1="61.902" x2="175.791" y2="160.457"/>
		<line fill="none" stroke="#2C2A6B" stroke-miterlimit="10" x1="86.425" y1="70.55" x2="165.075" y2="158.724"/>
		<line fill="none" stroke="#2C2A6B" stroke-miterlimit="10" x1="85.027" y1="79.198" x2="154.358" y2="156.991"/>
		<line fill="none" stroke="#2C2A6B" stroke-miterlimit="10" x1="83.629" y1="87.846" x2="143.642" y2="155.257"/>
		<line fill="none" stroke="#2C2A6B" stroke-miterlimit="10" x1="82.231" y1="96.493" x2="132.925" y2="153.524"/>
		<line fill="none" stroke="#2C2A6B" stroke-miterlimit="10" x1="80.833" y1="105.141" x2="122.209" y2="151.791"/>
		<line fill="none" stroke="#2C2A6B" stroke-miterlimit="10" x1="79.436" y1="113.789" x2="111.492" y2="150.058"/>
		<line fill="none" stroke="#2C2A6B" stroke-miterlimit="10" x1="78.038" y1="122.437" x2="100.776" y2="148.324"/>
		<line fill="none" stroke="#2C2A6B" stroke-miterlimit="10" x1="76.64" y1="131.085" x2="90.059" y2="146.591"/>
		<line fill="none" stroke="#2C2A6B" stroke-miterlimit="10" x1="75.242" y1="139.732" x2="79.342" y2="144.858"/>
	</g>
	<g>
		<line fill="none" stroke="#2C2A6B" stroke-miterlimit="10" x1="137.046" y1="33.858" x2="264.825" y2="177.237"/>
		<line fill="none" stroke="#2C2A6B" stroke-miterlimit="10" x1="136.012" y1="43.707" x2="253.107" y2="174.871"/>
		<line fill="none" stroke="#2C2A6B" stroke-miterlimit="10" x1="134.979" y1="53.556" x2="241.389" y2="172.505"/>
		<line fill="none" stroke="#2C2A6B" stroke-miterlimit="10" x1="133.945" y1="63.404" x2="229.671" y2="170.14"/>
		<line fill="none" stroke="#2C2A6B" stroke-miterlimit="10" x1="132.911" y1="73.253" x2="217.953" y2="167.774"/>
		<line fill="none" stroke="#2C2A6B" stroke-miterlimit="10" x1="131.877" y1="83.101" x2="206.235" y2="165.408"/>
		<line fill="none" stroke="#2C2A6B" stroke-miterlimit="10" x1="130.844" y1="92.95" x2="194.517" y2="163.042"/>
		<line fill="none" stroke="#2C2A6B" stroke-miterlimit="10" x1="129.81" y1="102.798" x2="182.798" y2="160.676"/>
		<line fill="none" stroke="#2C2A6B" stroke-miterlimit="10" x1="128.776" y1="112.647" x2="171.08" y2="158.31"/>
		<line fill="none" stroke="#2C2A6B" stroke-miterlimit="10" x1="127.743" y1="122.495" x2="159.362" y2="155.945"/>
		<line fill="none" stroke="#2C2A6B" stroke-miterlimit="10" x1="126.709" y1="132.344" x2="147.644" y2="153.579"/>
		<line fill="none" stroke="#2C2A6B" stroke-miterlimit="10" x1="125.675" y1="142.193" x2="135.926" y2="151.213"/>
	</g>
	<g>
		<line fill="none" stroke="#2C2A6B" stroke-miterlimit="10" x1="83.064" y1="38.028" x2="-303.046" y2="75.013"/>
		<line fill="none" stroke="#2C2A6B" stroke-miterlimit="10" x1="81.428" y1="46.185" x2="-271.755" y2="80.443"/>
		<line fill="none" stroke="#2C2A6B" stroke-miterlimit="10" x1="79.792" y1="54.342" x2="-240.465" y2="85.873"/>
		<line fill="none" stroke="#2C2A6B" stroke-miterlimit="10" x1="78.155" y1="62.499" x2="-209.174" y2="91.303"/>
		<line fill="none" stroke="#2C2A6B" stroke-miterlimit="10" x1="76.519" y1="70.657" x2="-177.883" y2="96.733"/>
		<line fill="none" stroke="#2C2A6B" stroke-miterlimit="10" x1="74.883" y1="78.814" x2="-146.592" y2="102.163"/>
		<line fill="none" stroke="#2C2A6B" stroke-miterlimit="10" x1="73.246" y1="86.971" x2="-115.301" y2="107.593"/>
		<line fill="none" stroke="#2C2A6B" stroke-miterlimit="10" x1="71.61" y1="95.129" x2="-84.01" y2="113.023"/>
		<line fill="none" stroke="#2C2A6B" stroke-miterlimit="10" x1="69.974" y1="103.286" x2="-52.719" y2="118.453"/>
		<line fill="none" stroke="#2C2A6B" stroke-miterlimit="10" x1="68.337" y1="111.443" x2="-21.428" y2="123.883"/>
		<line fill="none" stroke="#2C2A6B" stroke-miterlimit="10" x1="66.701" y1="119.601" x2="9.863" y2="129.313"/>
		<line fill="none" stroke="#2C2A6B" stroke-miterlimit="10" x1="65.065" y1="127.758" x2="41.154" y2="134.743"/>
	</g>
	<g>
		<polygon fill="#462B7E" points="63.005,137.663 66.369,137.902 85.509,36.092 83.186,36.459 		"/>
	</g>
	<g>
		<polygon fill="#462B7E" points="90.275,37.331 83.126,36.704 81.887,28.657 84.365,27.037 92.848,11.31 91.704,29.134 
			93.134,31.803 		"/>
	</g>
	<g>
		<polygon fill="#654098" points="92.572,36.514 85.509,36.092 66.369,137.902 77.747,140.065 		"/>
	</g>
	<g>
		<line fill="none" stroke="#2C2A6B" stroke-miterlimit="10" x1="130.801" y1="33.126" x2="-289.558" y2="77.788"/>
		<line fill="none" stroke="#2C2A6B" stroke-miterlimit="10" x1="129.398" y1="42.538" x2="-253.678" y2="83.96"/>
		<line fill="none" stroke="#2C2A6B" stroke-miterlimit="10" x1="127.995" y1="51.95" x2="-217.798" y2="90.132"/>
		<line fill="none" stroke="#2C2A6B" stroke-miterlimit="10" x1="126.593" y1="61.362" x2="-181.919" y2="96.304"/>
		<line fill="none" stroke="#2C2A6B" stroke-miterlimit="10" x1="125.19" y1="70.774" x2="-146.039" y2="102.475"/>
		<line fill="none" stroke="#2C2A6B" stroke-miterlimit="10" x1="123.787" y1="80.186" x2="-110.159" y2="108.647"/>
		<line fill="none" stroke="#2C2A6B" stroke-miterlimit="10" x1="122.385" y1="89.598" x2="-74.279" y2="114.819"/>
		<line fill="none" stroke="#2C2A6B" stroke-miterlimit="10" x1="120.982" y1="99.009" x2="-38.399" y2="120.991"/>
		<line fill="none" stroke="#2C2A6B" stroke-miterlimit="10" x1="119.579" y1="108.421" x2="-2.519" y2="127.162"/>
		<line fill="none" stroke="#2C2A6B" stroke-miterlimit="10" x1="118.177" y1="117.833" x2="33.361" y2="133.334"/>
		<line fill="none" stroke="#2C2A6B" stroke-miterlimit="10" x1="116.774" y1="127.245" x2="69.241" y2="139.506"/>
		<line fill="none" stroke="#2C2A6B" stroke-miterlimit="10" x1="115.371" y1="136.657" x2="105.121" y2="145.678"/>
	</g>
	<g>
		<polygon fill="#654098" points="143.036,21.362 134.072,17.8 133.94,27.703 139.703,27.913 		"/>
	</g>
	<g>
		<polygon fill="#462B7E" points="139.627,0 133.4,14.487 130.064,17.632 139.246,18.077 		"/>
	</g>
	<g>
		<polygon fill="#654098" points="141.025,18.172 143.036,21.362 134.072,17.8 135.274,15.821 139.627,0 		"/>
	</g>
	<g>
		<polygon fill="#654098" points="92.572,36.514 85.414,36.514 84.937,27.895 86.653,26.846 92.848,11.31 93.992,28.943 
			95.422,31.612 		"/>
	</g>
	<g>
		<polygon fill="#462B7E" points="111.308,145.924 115.852,146.776 133.94,27.703 134.072,17.8 130.064,17.632 131.144,27.545 		"/>
	</g>
	<g>
		<path fill="#462B7E" d="M59.051,154.004l-16.083,83.337l63.875-1.359l8.082-82.654L59.051,154.004z M98.878,222.707l-33.189,1.328
			l7.302-48.789l19.914-5.974l13.608,2.655L98.878,222.707z"/>
	</g>
	<g>
		<path fill="#462B7E" d="M499.528,231.38c-201.845-41.422-634.747-105.983-817.344-127.2V82.896
			C-129.134,107.539,299.263,181.884,499.528,231.38z"/>
	</g>
	<g>
		<polygon fill="#654098" points="65.689,223.702 56.064,224.034 62.701,176.241 72.99,175.246 		"/>
	</g>
	<g>
		<polygon fill="#654098" points="117.132,234.987 106.843,235.982 114.925,153.328 133.948,27.442 139.703,27.913 		"/>
	</g>
	<g>
		<polygon fill="#654098" points="344.014,233.342 340.719,233.482 340.165,201.078 340.276,191.287 339.391,125.24 
			340.655,125.425 342.267,191.508 343.097,201.521 		"/>
	</g>
	<g>
		<polygon fill="#462B7E" points="335.298,123.138 336.736,125.461 339.391,125.24 339.428,122.921 		"/>
	</g>
	<g>
		<polygon fill="#654098" points="340.655,125.425 339.385,125.304 339.428,122.921 338.506,112.269 341.369,123.039 		"/>
	</g>
	<g>
		<polygon fill="#462B7E" points="338.506,112.269 335.298,123.138 339.428,122.921 		"/>
	</g>
	<g>
		<polygon fill="#654098" points="312.761,227.103 309.752,227.587 309.752,204.331 312.104,203.722 		"/>
	</g>
	<g>
		<rect x="309.189" y="129.058" fill="#654098" width="2.356" height="56.423"/>
	</g>
	<g>
		
			<line fill="none" stroke="#2C2A6B" stroke-width="0.75" stroke-miterlimit="10" x1="337.614" y1="130.629" x2="269.973" y2="177.164"/>
		
			<line fill="none" stroke="#2C2A6B" stroke-width="0.75" stroke-miterlimit="10" x1="337.685" y1="135.819" x2="275.87" y2="178.352"/>
		
			<line fill="none" stroke="#2C2A6B" stroke-width="0.75" stroke-miterlimit="10" x1="337.755" y1="141.009" x2="281.768" y2="179.539"/>
		
			<line fill="none" stroke="#2C2A6B" stroke-width="0.75" stroke-miterlimit="10" x1="337.826" y1="146.198" x2="287.666" y2="180.727"/>
		
			<line fill="none" stroke="#2C2A6B" stroke-width="0.75" stroke-miterlimit="10" x1="337.897" y1="151.388" x2="293.563" y2="181.914"/>
		
			<line fill="none" stroke="#2C2A6B" stroke-width="0.75" stroke-miterlimit="10" x1="337.968" y1="156.578" x2="299.461" y2="183.101"/>
		
			<line fill="none" stroke="#2C2A6B" stroke-width="0.75" stroke-miterlimit="10" x1="338.038" y1="161.768" x2="305.358" y2="184.289"/>
		
			<line fill="none" stroke="#2C2A6B" stroke-width="0.75" stroke-miterlimit="10" x1="338.109" y1="166.958" x2="311.256" y2="185.476"/>
		
			<line fill="none" stroke="#2C2A6B" stroke-width="0.75" stroke-miterlimit="10" x1="338.18" y1="172.148" x2="317.153" y2="186.663"/>
		
			<line fill="none" stroke="#2C2A6B" stroke-width="0.75" stroke-miterlimit="10" x1="338.251" y1="177.337" x2="323.051" y2="187.851"/>
		
			<line fill="none" stroke="#2C2A6B" stroke-width="0.75" stroke-miterlimit="10" x1="338.322" y1="182.527" x2="328.948" y2="189.038"/>
		
			<line fill="none" stroke="#2C2A6B" stroke-width="0.75" stroke-miterlimit="10" x1="338.392" y1="187.717" x2="334.846" y2="190.226"/>
	</g>
	<g>
		<polygon fill="#462B7E" points="306.764,126.146 307.64,129.058 309.189,129.058 309.47,126.146 310.087,124.673 310.046,116.127 
			308.055,124.59 		"/>
	</g>
	<g>
		<polygon fill="#654098" points="312.415,126.146 311.538,129.058 309.189,129.058 308.511,126.333 309.507,124.964 
			310.046,116.127 311.415,125.005 		"/>
	</g>
	<g>
		<path fill="#654098" d="M484.862,227.853c0,0-406.3-89.47-802.678-144.957l-15.101-17.839
			C-155.937,95.215,318.123,179.445,484.862,227.853z"/>
	</g>
	<g>
		<polygon fill="#462B7E" points="359.415,206.997 370.589,205.448 370.257,206.665 360.19,209.984 		"/>
	</g>
	<g>
		<polygon fill="#462B7E" points="353.552,202.793 355.543,205.448 364.504,205.227 		"/>
	</g>
	<g>
		<rect x="359.392" y="205.091" fill="#462B7E" width="1.259" height="2.647"/>
	</g>
</g>
<rect x="-0.774" y="229.178" fill="#4279B2" width="721.555" height="44.193"/>
<polygon fill="#5F3493" points="-0.774,254.517 -0.774,229.178 713.447,229.178 "/>
<polygon fill="#432870" points="-0.774,244.777 -0.774,229.178 713.447,229.178 "/>
</svg>
