<?xml version="1.0" encoding="utf-8"?>
<!-- Generator: Adobe Illustrator 17.0.0, SVG Export Plug-In . SVG Version: 6.00 Build 0)  -->
<!DOCTYPE svg PUBLIC "-//W3C//DTD SVG 1.1//EN" "http://www.w3.org/Graphics/SVG/1.1/DTD/svg11.dtd">
<svg version="1.1" id="rounded_gradient_lines" xmlns="http://www.w3.org/2000/svg" xmlns:xlink="http://www.w3.org/1999/xlink"
	 x="0px" y="0px" width="205.572px" height="300px" viewBox="0 0 205.572 300" enable-background="new 0 0 205.572 300"
	 xml:space="preserve">
<g>
	<g>
		<defs>
			<path id="SVGID_1_" d="M134.358,20.49L31.013,123.66c-3.008,3.003-7.881,2.999-10.884-0.009l0,0
				c-3.003-3.008-2.999-7.881,0.009-10.884L123.483,9.597c3.008-3.003,7.881-2.999,10.884,0.009v0
				C137.371,12.614,137.367,17.487,134.358,20.49z"/>
		</defs>
		<clipPath id="SVGID_2_">
			<use xlink:href="#SVGID_1_"  overflow="visible"/>
		</clipPath>
		<polygon clip-path="url(#SVGID_2_)" fill="#F6A55F" points="17.125,119.688 22.417,126.663 17.125,126.663 		"/>
		<polygon clip-path="url(#SVGID_2_)" fill="#F6A55F" points="17.125,117.936 23.746,126.663 22.417,126.663 17.125,119.688 		"/>
		<polygon clip-path="url(#SVGID_2_)" fill="#F7A55F" points="17.125,116.184 25.075,126.663 23.746,126.663 17.125,117.936 		"/>
		<polygon clip-path="url(#SVGID_2_)" fill="#F7A45F" points="17.125,114.432 26.404,126.663 25.075,126.663 17.125,116.184 		"/>
		<polygon clip-path="url(#SVGID_2_)" fill="#F7A35F" points="17.125,112.68 27.733,126.663 26.404,126.663 17.125,114.432 		"/>
		<polygon clip-path="url(#SVGID_2_)" fill="#F7A35F" points="17.125,110.927 29.062,126.663 27.733,126.663 17.125,112.68 		"/>
		<polygon clip-path="url(#SVGID_2_)" fill="#F7A25E" points="17.125,109.175 30.303,126.547 30.15,126.663 29.062,126.663 
			17.125,110.927 		"/>
		<polygon clip-path="url(#SVGID_2_)" fill="#F6A15F" points="17.125,107.423 31.145,125.905 30.303,126.547 17.125,109.175 		"/>
		<polygon clip-path="url(#SVGID_2_)" fill="#F6A05F" points="17.125,105.671 31.988,125.263 31.145,125.905 17.125,107.423 		"/>
		<polygon clip-path="url(#SVGID_2_)" fill="#F6A05F" points="17.125,103.919 32.83,124.622 31.988,125.263 17.125,105.671 		"/>
		<polygon clip-path="url(#SVGID_2_)" fill="#F69F5F" points="17.125,102.167 33.672,123.98 32.83,124.622 17.125,103.919 		"/>
		<polygon clip-path="url(#SVGID_2_)" fill="#F69E5E" points="17.125,100.415 34.515,123.338 33.672,123.98 17.125,102.167 		"/>
		<polygon clip-path="url(#SVGID_2_)" fill="#F69E5F" points="17.125,98.662 35.357,122.696 34.515,123.338 17.125,100.415 		"/>
		<polygon clip-path="url(#SVGID_2_)" fill="#F69D5F" points="17.125,96.91 36.199,122.054 35.357,122.696 17.125,98.662 		"/>
		<polygon clip-path="url(#SVGID_2_)" fill="#F69C5F" points="17.125,95.158 37.042,121.413 36.199,122.054 17.125,96.91 		"/>
		<polygon clip-path="url(#SVGID_2_)" fill="#F69B5E" points="17.125,93.406 37.884,120.771 37.042,121.413 17.125,95.158 		"/>
		<polygon clip-path="url(#SVGID_2_)" fill="#F69B5E" points="17.125,91.654 38.726,120.129 37.884,120.771 17.125,93.406 		"/>
		<polygon clip-path="url(#SVGID_2_)" fill="#F59A5E" points="17.125,89.902 39.568,119.487 38.726,120.129 17.125,91.654 		"/>
		<polygon clip-path="url(#SVGID_2_)" fill="#F5995F" points="17.125,88.29 17.193,88.239 40.411,118.845 39.568,119.487 
			17.125,89.902 		"/>
		
			<rect x="28.694" y="84.013" transform="matrix(-0.7954 0.6061 -0.6061 -0.7954 115.0276 167.6119)" clip-path="url(#SVGID_2_)" fill="#F5995E" width="1.059" height="38.417"/>
		
			<rect x="29.536" y="83.371" transform="matrix(-0.7954 0.6061 -0.6061 -0.7954 116.1501 165.9501)" clip-path="url(#SVGID_2_)" fill="#F5985E" width="1.059" height="38.417"/>
		
			<rect x="30.378" y="82.729" transform="matrix(-0.7954 0.606 -0.606 -0.7954 117.2711 164.2906)" clip-path="url(#SVGID_2_)" fill="#F5975E" width="1.059" height="38.417"/>
		
			<rect x="31.22" y="82.087" transform="matrix(-0.7954 0.6061 -0.6061 -0.7954 118.3967 162.6246)" clip-path="url(#SVGID_2_)" fill="#F5965E" width="1.059" height="38.417"/>
		
			<rect x="32.063" y="81.446" transform="matrix(-0.7954 0.6061 -0.6061 -0.7954 119.5207 160.9608)" clip-path="url(#SVGID_2_)" fill="#F5965E" width="1.059" height="38.417"/>
		
			<rect x="32.905" y="80.804" transform="matrix(-0.7954 0.6061 -0.6061 -0.7954 120.6433 159.299)" clip-path="url(#SVGID_2_)" fill="#F5955E" width="1.059" height="38.417"/>
		
			<rect x="33.747" y="80.162" transform="matrix(-0.7954 0.606 -0.606 -0.7954 121.7645 157.6395)" clip-path="url(#SVGID_2_)" fill="#F5945E" width="1.059" height="38.417"/>
		
			<rect x="34.59" y="79.52" transform="matrix(-0.7954 0.6061 -0.6061 -0.7954 122.8899 155.9734)" clip-path="url(#SVGID_2_)" fill="#F5945E" width="1.059" height="38.417"/>
		
			<rect x="35.432" y="78.879" transform="matrix(-0.7954 0.606 -0.606 -0.7954 124.0111 154.314)" clip-path="url(#SVGID_2_)" fill="#F4935E" width="1.059" height="38.417"/>
		
			<rect x="36.274" y="78.237" transform="matrix(-0.7954 0.6061 -0.6061 -0.7954 125.1393 152.6436)" clip-path="url(#SVGID_2_)" fill="#F4925E" width="1.059" height="38.417"/>
		
			<rect x="37.117" y="77.595" transform="matrix(-0.7954 0.606 -0.606 -0.7954 126.2578 150.9884)" clip-path="url(#SVGID_2_)" fill="#F4925E" width="1.059" height="38.417"/>
		
			<rect x="37.959" y="76.953" transform="matrix(-0.7954 0.6061 -0.6061 -0.7954 127.3832 149.3224)" clip-path="url(#SVGID_2_)" fill="#F4915E" width="1.059" height="38.417"/>
		
			<rect x="38.801" y="76.311" transform="matrix(-0.7954 0.606 -0.606 -0.7954 128.5045 147.6629)" clip-path="url(#SVGID_2_)" fill="#F4905E" width="1.059" height="38.417"/>
		
			<rect x="39.644" y="75.67" transform="matrix(-0.7954 0.6061 -0.6061 -0.7954 129.6298 145.9968)" clip-path="url(#SVGID_2_)" fill="#F4905D" width="1.059" height="38.417"/>
		
			<rect x="40.486" y="75.028" transform="matrix(-0.7954 0.6061 -0.6061 -0.7954 130.7536 144.3331)" clip-path="url(#SVGID_2_)" fill="#F48F5D" width="1.059" height="38.417"/>
		
			<rect x="41.328" y="74.386" transform="matrix(-0.7954 0.6061 -0.6061 -0.7954 131.8764 142.6713)" clip-path="url(#SVGID_2_)" fill="#F48E5E" width="1.059" height="38.417"/>
		
			<rect x="42.17" y="73.744" transform="matrix(-0.7954 0.606 -0.606 -0.7954 132.9979 141.0119)" clip-path="url(#SVGID_2_)" fill="#F48D5E" width="1.059" height="38.417"/>
		
			<rect x="43.013" y="73.102" transform="matrix(-0.7954 0.6061 -0.6061 -0.7954 134.123 139.3457)" clip-path="url(#SVGID_2_)" fill="#F48D5D" width="1.059" height="38.417"/>
		
			<rect x="43.855" y="72.461" transform="matrix(-0.7954 0.6061 -0.6061 -0.7954 135.2468 137.6819)" clip-path="url(#SVGID_2_)" fill="#F48C5D" width="1.059" height="38.417"/>
		
			<rect x="44.697" y="71.819" transform="matrix(-0.7954 0.6061 -0.6061 -0.7954 136.3696 136.0202)" clip-path="url(#SVGID_2_)" fill="#F48B5D" width="1.059" height="38.417"/>
		
			<rect x="45.54" y="71.177" transform="matrix(-0.7954 0.606 -0.606 -0.7954 137.4912 134.3608)" clip-path="url(#SVGID_2_)" fill="#F58B5D" width="1.059" height="38.417"/>
		
			<rect x="46.382" y="70.535" transform="matrix(-0.7954 0.6061 -0.6061 -0.7954 138.6162 132.6946)" clip-path="url(#SVGID_2_)" fill="#F58A5D" width="1.059" height="38.417"/>
		
			<rect x="47.224" y="69.893" transform="matrix(-0.7954 0.606 -0.606 -0.7954 139.7379 131.0353)" clip-path="url(#SVGID_2_)" fill="#F58A5D" width="1.059" height="38.417"/>
		
			<rect x="48.066" y="69.252" transform="matrix(-0.7954 0.6061 -0.6061 -0.7954 140.8648 129.3646)" clip-path="url(#SVGID_2_)" fill="#F5895D" width="1.059" height="38.417"/>
		
			<rect x="48.909" y="68.61" transform="matrix(-0.7954 0.606 -0.606 -0.7954 141.9846 127.7098)" clip-path="url(#SVGID_2_)" fill="#F5885D" width="1.059" height="38.417"/>
		
			<rect x="49.751" y="67.968" transform="matrix(-0.7954 0.6061 -0.6061 -0.7954 143.1094 126.0436)" clip-path="url(#SVGID_2_)" fill="#F4875D" width="1.059" height="38.417"/>
		
			<rect x="50.593" y="67.326" transform="matrix(-0.7954 0.606 -0.606 -0.7954 144.2312 124.3843)" clip-path="url(#SVGID_2_)" fill="#F4875D" width="1.059" height="38.417"/>
		
			<rect x="51.436" y="66.684" transform="matrix(-0.7954 0.6061 -0.6061 -0.7954 145.3578 122.7134)" clip-path="url(#SVGID_2_)" fill="#F4865D" width="1.059" height="38.417"/>
		
			<rect x="52.278" y="66.043" transform="matrix(-0.7954 0.606 -0.606 -0.7954 146.4779 121.0587)" clip-path="url(#SVGID_2_)" fill="#F4855D" width="1.059" height="38.417"/>
		
			<rect x="53.12" y="65.401" transform="matrix(-0.7954 0.6061 -0.6061 -0.7954 147.6026 119.3925)" clip-path="url(#SVGID_2_)" fill="#F4855C" width="1.059" height="38.417"/>
		
			<rect x="53.963" y="64.759" transform="matrix(-0.7954 0.606 -0.606 -0.7954 148.7246 117.7332)" clip-path="url(#SVGID_2_)" fill="#F4845C" width="1.059" height="38.417"/>
		
			<rect x="54.805" y="64.117" transform="matrix(-0.7954 0.606 -0.606 -0.7954 149.848 116.0704)" clip-path="url(#SVGID_2_)" fill="#F4835D" width="1.059" height="38.417"/>
		
			<rect x="55.647" y="63.476" transform="matrix(-0.7954 0.6061 -0.6061 -0.7954 150.9741 114.3995)" clip-path="url(#SVGID_2_)" fill="#F4825D" width="1.059" height="38.417"/>
		
			<rect x="56.489" y="62.834" transform="matrix(-0.7954 0.606 -0.606 -0.7954 152.0947 112.7449)" clip-path="url(#SVGID_2_)" fill="#F4825C" width="1.059" height="38.417"/>
		
			<rect x="57.332" y="62.192" transform="matrix(-0.7954 0.6061 -0.6061 -0.7954 153.2191 111.0786)" clip-path="url(#SVGID_2_)" fill="#F4815C" width="1.059" height="38.417"/>
		
			<rect x="58.174" y="61.55" transform="matrix(-0.7954 0.606 -0.606 -0.7954 154.3413 109.4194)" clip-path="url(#SVGID_2_)" fill="#F4805C" width="1.059" height="38.417"/>
		
			<rect x="59.016" y="60.908" transform="matrix(-0.7954 0.6061 -0.6061 -0.7954 155.4657 107.7531)" clip-path="url(#SVGID_2_)" fill="#F3805C" width="1.059" height="38.417"/>
		
			<rect x="59.859" y="60.267" transform="matrix(-0.7954 0.6061 -0.6061 -0.7954 156.5893 106.0892)" clip-path="url(#SVGID_2_)" fill="#F3805C" width="1.059" height="38.417"/>
		
			<rect x="60.701" y="59.625" transform="matrix(-0.7954 0.6061 -0.6061 -0.7954 157.7123 104.4275)" clip-path="url(#SVGID_2_)" fill="#F37F5C" width="1.059" height="38.417"/>
		
			<rect x="61.543" y="58.983" transform="matrix(-0.7954 0.606 -0.606 -0.7954 158.8347 102.7684)" clip-path="url(#SVGID_2_)" fill="#F37E5C" width="1.059" height="38.417"/>
		
			<rect x="62.386" y="58.341" transform="matrix(-0.7954 0.6061 -0.6061 -0.7954 159.9589 101.102)" clip-path="url(#SVGID_2_)" fill="#F37E5C" width="1.059" height="38.417"/>
		
			<rect x="63.228" y="57.699" transform="matrix(-0.7954 0.6061 -0.6061 -0.7954 161.0825 99.4381)" clip-path="url(#SVGID_2_)" fill="#F37D5C" width="1.059" height="38.417"/>
		
			<rect x="64.07" y="57.058" transform="matrix(-0.7954 0.6061 -0.6061 -0.7954 162.2052 97.7778)" clip-path="url(#SVGID_2_)" fill="#F37C5C" width="1.059" height="38.417"/>
		
			<rect x="64.912" y="56.416" transform="matrix(-0.7954 0.6061 -0.6061 -0.7954 163.3283 96.1164)" clip-path="url(#SVGID_2_)" fill="#F37C5C" width="1.059" height="38.417"/>
		
			<rect x="65.755" y="55.774" transform="matrix(-0.7954 0.6061 -0.6061 -0.7954 164.4525 94.4494)" clip-path="url(#SVGID_2_)" fill="#F37B5C" width="1.059" height="38.417"/>
		
			<rect x="66.597" y="55.132" transform="matrix(-0.7954 0.6061 -0.6061 -0.7954 165.5749 92.7908)" clip-path="url(#SVGID_2_)" fill="#F37A5B" width="1.059" height="38.417"/>
		
			<rect x="67.439" y="54.49" transform="matrix(-0.7954 0.6061 -0.6061 -0.7954 166.6989 91.1244)" clip-path="url(#SVGID_2_)" fill="#F3795B" width="1.059" height="38.417"/>
		
			<rect x="68.282" y="53.849" transform="matrix(-0.7954 0.6061 -0.6061 -0.7954 167.8216 89.4653)" clip-path="url(#SVGID_2_)" fill="#F3795B" width="1.059" height="38.417"/>
		
			<rect x="69.124" y="53.207" transform="matrix(-0.7954 0.6061 -0.6061 -0.7954 168.9455 87.7988)" clip-path="url(#SVGID_2_)" fill="#F3785B" width="1.059" height="38.417"/>
		
			<rect x="69.966" y="52.565" transform="matrix(-0.7954 0.6061 -0.6061 -0.7954 170.0682 86.1397)" clip-path="url(#SVGID_2_)" fill="#F2775B" width="1.059" height="38.417"/>
		
			<rect x="70.809" y="51.923" transform="matrix(-0.7954 0.6061 -0.6061 -0.7954 171.1922 84.4727)" clip-path="url(#SVGID_2_)" fill="#F2765B" width="1.059" height="38.417"/>
		
			<rect x="71.651" y="51.282" transform="matrix(-0.7954 0.606 -0.606 -0.7954 172.3149 82.8144)" clip-path="url(#SVGID_2_)" fill="#F2765B" width="1.059" height="38.417"/>
		
			<rect x="72.493" y="50.64" transform="matrix(-0.7954 0.6061 -0.6061 -0.7954 173.4387 81.1477)" clip-path="url(#SVGID_2_)" fill="#F2755B" width="1.059" height="38.417"/>
		
			<rect x="73.335" y="49.998" transform="matrix(-0.7954 0.6061 -0.6061 -0.7954 174.5615 79.4886)" clip-path="url(#SVGID_2_)" fill="#F2745B" width="1.059" height="38.417"/>
		
			<rect x="74.178" y="49.356" transform="matrix(-0.7954 0.6061 -0.6061 -0.7954 175.6853 77.8221)" clip-path="url(#SVGID_2_)" fill="#F2735B" width="1.059" height="38.417"/>
		
			<rect x="75.02" y="48.714" transform="matrix(-0.7954 0.6061 -0.6061 -0.7954 176.8082 76.1632)" clip-path="url(#SVGID_2_)" fill="#F2735B" width="1.059" height="38.417"/>
		
			<rect x="75.862" y="48.073" transform="matrix(-0.7954 0.6061 -0.6061 -0.7954 177.9318 74.4966)" clip-path="url(#SVGID_2_)" fill="#F2725A" width="1.059" height="38.417"/>
		
			<rect x="76.705" y="47.431" transform="matrix(-0.7954 0.6061 -0.6061 -0.7954 179.0549 72.8372)" clip-path="url(#SVGID_2_)" fill="#F2715A" width="1.059" height="38.417"/>
		
			<rect x="77.547" y="46.789" transform="matrix(-0.7954 0.6061 -0.6061 -0.7954 180.1784 71.1711)" clip-path="url(#SVGID_2_)" fill="#F26F5A" width="1.059" height="38.417"/>
		
			<rect x="78.409" y="46.207" transform="matrix(-0.7954 0.6061 -0.6061 -0.7954 181.1972 69.666)" clip-path="url(#SVGID_2_)" fill="#F26F5A" width="0.862" height="38.417"/>
		
			<rect x="79.095" y="45.684" transform="matrix(-0.7954 0.6061 -0.6061 -0.7954 182.112 68.312)" clip-path="url(#SVGID_2_)" fill="#F26F59" width="0.862" height="38.417"/>
		
			<rect x="79.781" y="45.162" transform="matrix(-0.7954 0.6061 -0.6061 -0.7954 183.0269 66.9532)" clip-path="url(#SVGID_2_)" fill="#F26F59" width="0.862" height="38.417"/>
		
			<rect x="80.467" y="44.639" transform="matrix(-0.7954 0.6061 -0.6061 -0.7954 183.9415 65.6039)" clip-path="url(#SVGID_2_)" fill="#F26F58" width="0.862" height="38.417"/>
		
			<rect x="81.153" y="44.116" transform="matrix(-0.7954 0.6061 -0.6061 -0.7954 184.8562 64.2481)" clip-path="url(#SVGID_2_)" fill="#F26E58" width="0.862" height="38.417"/>
		
			<rect x="81.839" y="43.594" transform="matrix(-0.7954 0.6061 -0.6061 -0.7954 185.771 62.8965)" clip-path="url(#SVGID_2_)" fill="#F26E57" width="0.862" height="38.417"/>
		
			<rect x="82.525" y="43.071" transform="matrix(-0.7954 0.6061 -0.6061 -0.7954 186.6858 61.5377)" clip-path="url(#SVGID_2_)" fill="#F26E56" width="0.862" height="38.417"/>
		
			<rect x="83.211" y="42.548" transform="matrix(-0.7954 0.6061 -0.6061 -0.7954 187.6004 60.1885)" clip-path="url(#SVGID_2_)" fill="#F06D56" width="0.862" height="38.417"/>
		
			<rect x="83.897" y="42.026" transform="matrix(-0.7954 0.6061 -0.6061 -0.7954 188.5152 58.8345)" clip-path="url(#SVGID_2_)" fill="#F06D55" width="0.862" height="38.417"/>
		
			<rect x="84.583" y="41.503" transform="matrix(-0.7954 0.6061 -0.6061 -0.7954 189.4299 57.4757)" clip-path="url(#SVGID_2_)" fill="#F06D55" width="0.862" height="38.417"/>
		
			<rect x="85.268" y="40.981" transform="matrix(-0.7954 0.6061 -0.6061 -0.7954 190.3447 56.1264)" clip-path="url(#SVGID_2_)" fill="#F06D54" width="0.862" height="38.417"/>
		
			<rect x="85.954" y="40.458" transform="matrix(-0.7954 0.6061 -0.6061 -0.7954 191.2594 54.7723)" clip-path="url(#SVGID_2_)" fill="#F06D53" width="0.862" height="38.417"/>
		
			<rect x="86.64" y="39.935" transform="matrix(-0.7954 0.6061 -0.6061 -0.7954 192.174 53.4136)" clip-path="url(#SVGID_2_)" fill="#F06D53" width="0.862" height="38.417"/>
		
			<rect x="87.326" y="39.413" transform="matrix(-0.7954 0.6061 -0.6061 -0.7954 193.0885 52.0581)" clip-path="url(#SVGID_2_)" fill="#EF6C52" width="0.862" height="38.417"/>
		
			<rect x="88.012" y="38.89" transform="matrix(-0.7954 0.6061 -0.6061 -0.7954 194.0037 50.7104)" clip-path="url(#SVGID_2_)" fill="#EF6C52" width="0.862" height="38.417"/>
		
			<rect x="88.698" y="38.367" transform="matrix(-0.7954 0.6061 -0.6061 -0.7954 194.9181 49.3515)" clip-path="url(#SVGID_2_)" fill="#EF6C51" width="0.862" height="38.417"/>
		
			<rect x="89.384" y="37.845" transform="matrix(-0.7954 0.6061 -0.6061 -0.7954 195.8331 48.0024)" clip-path="url(#SVGID_2_)" fill="#EF6C51" width="0.862" height="38.417"/>
		
			<rect x="90.07" y="37.322" transform="matrix(-0.7954 0.6061 -0.6061 -0.7954 196.7479 46.6483)" clip-path="url(#SVGID_2_)" fill="#EF6B50" width="0.862" height="38.417"/>
		
			<rect x="90.756" y="36.8" transform="matrix(-0.7954 0.6061 -0.6061 -0.7954 197.6622 45.2895)" clip-path="url(#SVGID_2_)" fill="#EF6B4F" width="0.862" height="38.417"/>
		
			<rect x="91.441" y="36.277" transform="matrix(-0.7954 0.6061 -0.6061 -0.7954 198.5774 43.9403)" clip-path="url(#SVGID_2_)" fill="#EF6B4F" width="0.862" height="38.417"/>
		
			<rect x="92.127" y="35.754" transform="matrix(-0.7954 0.6061 -0.6061 -0.7954 199.4922 42.5863)" clip-path="url(#SVGID_2_)" fill="#EE6A4E" width="0.862" height="38.417"/>
		
			<rect x="92.813" y="35.232" transform="matrix(-0.7954 0.606 -0.606 -0.7954 200.407 41.2324)" clip-path="url(#SVGID_2_)" fill="#EE6A4D" width="0.862" height="38.417"/>
		
			<rect x="93.499" y="34.709" transform="matrix(-0.7954 0.6061 -0.6061 -0.7954 201.3211 39.8733)" clip-path="url(#SVGID_2_)" fill="#EE6A4D" width="0.862" height="38.417"/>
		
			<rect x="94.185" y="34.187" transform="matrix(-0.7954 0.6061 -0.6061 -0.7954 202.2364 38.5241)" clip-path="url(#SVGID_2_)" fill="#EE6A4C" width="0.862" height="38.417"/>
		
			<rect x="94.871" y="33.664" transform="matrix(-0.7954 0.6061 -0.6061 -0.7954 203.1502 37.1638)" clip-path="url(#SVGID_2_)" fill="#EE694B" width="0.862" height="38.417"/>
		
			<rect x="95.557" y="33.141" transform="matrix(-0.7954 0.6061 -0.6061 -0.7954 204.0652 35.8112)" clip-path="url(#SVGID_2_)" fill="#EE694B" width="0.862" height="38.417"/>
		
			<rect x="96.243" y="32.619" transform="matrix(-0.7954 0.6061 -0.6061 -0.7954 204.9806 34.4622)" clip-path="url(#SVGID_2_)" fill="#ED694A" width="0.862" height="38.417"/>
		
			<rect x="96.929" y="32.096" transform="matrix(-0.7954 0.6061 -0.6061 -0.7954 205.8954 33.1082)" clip-path="url(#SVGID_2_)" fill="#EC684A" width="0.862" height="38.417"/>
		
			<rect x="97.615" y="31.573" transform="matrix(-0.7954 0.6061 -0.6061 -0.7954 206.8093 31.7492)" clip-path="url(#SVGID_2_)" fill="#EC6849" width="0.862" height="38.417"/>
		
			<rect x="98.3" y="31.051" transform="matrix(-0.7954 0.6061 -0.6061 -0.7954 207.7249 30.4002)" clip-path="url(#SVGID_2_)" fill="#EC6848" width="0.862" height="38.417"/>
		
			<rect x="98.986" y="30.528" transform="matrix(-0.7954 0.6061 -0.6061 -0.7954 208.6396 29.0462)" clip-path="url(#SVGID_2_)" fill="#ED6848" width="0.862" height="38.417"/>
		
			<rect x="99.672" y="30.006" transform="matrix(-0.7954 0.6061 -0.6061 -0.7954 209.5534 27.6871)" clip-path="url(#SVGID_2_)" fill="#EC6747" width="0.862" height="38.417"/>
		
			<rect x="100.358" y="29.483" transform="matrix(-0.7954 0.6061 -0.6061 -0.7954 210.4691 26.3381)" clip-path="url(#SVGID_2_)" fill="#EC6746" width="0.862" height="38.417"/>
		
			<rect x="101.044" y="28.96" transform="matrix(-0.7954 0.6061 -0.6061 -0.7954 211.3839 24.9841)" clip-path="url(#SVGID_2_)" fill="#EC6746" width="0.862" height="38.417"/>
		
			<rect x="101.73" y="28.438" transform="matrix(-0.7954 0.6061 -0.6061 -0.7954 212.2976 23.625)" clip-path="url(#SVGID_2_)" fill="#EB6645" width="0.862" height="38.417"/>
		
			<rect x="102.416" y="27.915" transform="matrix(-0.7954 0.6061 -0.6061 -0.7954 213.2119 22.2695)" clip-path="url(#SVGID_2_)" fill="#EB6645" width="0.862" height="38.417"/>
		
			<rect x="103.102" y="27.392" transform="matrix(-0.7954 0.606 -0.606 -0.7954 214.1281 20.9222)" clip-path="url(#SVGID_2_)" fill="#EB6644" width="0.862" height="38.417"/>
		
			<rect x="103.788" y="26.87" transform="matrix(-0.7954 0.6061 -0.6061 -0.7954 215.0428 19.5679)" clip-path="url(#SVGID_2_)" fill="#EB6543" width="0.862" height="38.417"/>
		
			<rect x="104.474" y="26.347" transform="matrix(-0.7954 0.6061 -0.6061 -0.7954 215.9564 18.2089)" clip-path="url(#SVGID_2_)" fill="#EB6543" width="0.862" height="38.417"/>
		
			<rect x="105.159" y="25.825" transform="matrix(-0.7954 0.6061 -0.6061 -0.7954 216.8723 16.86)" clip-path="url(#SVGID_2_)" fill="#EB6542" width="0.862" height="38.417"/>
		
			<rect x="105.845" y="25.302" transform="matrix(-0.7954 0.6061 -0.6061 -0.7954 217.7871 15.506)" clip-path="url(#SVGID_2_)" fill="#EA6441" width="0.862" height="38.417"/>
		
			<rect x="106.531" y="24.779" transform="matrix(-0.7954 0.6061 -0.6061 -0.7954 218.7005 14.1469)" clip-path="url(#SVGID_2_)" fill="#EA6441" width="0.862" height="38.417"/>
		
			<rect x="107.217" y="24.257" transform="matrix(-0.7954 0.6061 -0.6061 -0.7954 219.6166 12.798)" clip-path="url(#SVGID_2_)" fill="#EA6440" width="0.862" height="38.417"/>
		
			<rect x="107.903" y="23.734" transform="matrix(-0.7954 0.6061 -0.6061 -0.7954 220.5313 11.444)" clip-path="url(#SVGID_2_)" fill="#EA643F" width="0.862" height="38.417"/>
		
			<rect x="108.589" y="23.211" transform="matrix(-0.7954 0.6061 -0.6061 -0.7954 221.4446 10.0848)" clip-path="url(#SVGID_2_)" fill="#EA633F" width="0.862" height="38.417"/>
		
			<rect x="109.275" y="22.689" transform="matrix(-0.7954 0.6061 -0.6061 -0.7954 222.3588 8.7292)" clip-path="url(#SVGID_2_)" fill="#EA633E" width="0.862" height="38.417"/>
		
			<rect x="109.961" y="22.166" transform="matrix(-0.7954 0.6061 -0.6061 -0.7954 223.2756 7.3819)" clip-path="url(#SVGID_2_)" fill="#EA633E" width="0.862" height="38.417"/>
		
			<rect x="110.647" y="21.644" transform="matrix(-0.7954 0.6061 -0.6061 -0.7954 224.1887 6.0227)" clip-path="url(#SVGID_2_)" fill="#EA623D" width="0.862" height="38.417"/>
		
			<rect x="111.332" y="21.121" transform="matrix(-0.7954 0.6061 -0.6061 -0.7954 225.105 4.6739)" clip-path="url(#SVGID_2_)" fill="#EA623C" width="0.862" height="38.417"/>
		
			<rect x="112.018" y="20.598" transform="matrix(-0.7954 0.6061 -0.6061 -0.7954 226.0198 3.3199)" clip-path="url(#SVGID_2_)" fill="#EA623C" width="0.862" height="38.417"/>
		
			<rect x="112.704" y="20.076" transform="matrix(-0.7954 0.6061 -0.6061 -0.7954 226.9329 1.9606)" clip-path="url(#SVGID_2_)" fill="#EA623B" width="0.862" height="38.417"/>
		
			<rect x="113.39" y="19.553" transform="matrix(-0.7954 0.606 -0.606 -0.7954 227.8494 0.612)" clip-path="url(#SVGID_2_)" fill="#EA623A" width="0.862" height="38.417"/>
		
			<rect x="114.076" y="19.031" transform="matrix(-0.7954 0.6061 -0.6061 -0.7954 228.7639 -0.7423)" clip-path="url(#SVGID_2_)" fill="#E9623A" width="0.862" height="38.417"/>
		
			<rect x="114.762" y="18.508" transform="matrix(-0.7954 0.6061 -0.6061 -0.7954 229.6788 -2.0962)" clip-path="url(#SVGID_2_)" fill="#E96239" width="0.862" height="38.417"/>
		
			<rect x="115.448" y="17.985" transform="matrix(-0.7954 0.6061 -0.6061 -0.7954 230.5917 -3.4555)" clip-path="url(#SVGID_2_)" fill="#E96139" width="0.862" height="38.417"/>
		
			<rect x="116.134" y="17.463" transform="matrix(-0.7954 0.6061 -0.6061 -0.7954 231.5083 -4.8042)" clip-path="url(#SVGID_2_)" fill="#E96138" width="0.862" height="38.417"/>
		
			<rect x="116.82" y="16.94" transform="matrix(-0.7954 0.6061 -0.6061 -0.7954 232.4205 -6.1651)" clip-path="url(#SVGID_2_)" fill="#E96137" width="0.862" height="38.417"/>
		
			<rect x="117.506" y="16.417" transform="matrix(-0.7954 0.6061 -0.6061 -0.7954 233.3358 -7.5176)" clip-path="url(#SVGID_2_)" fill="#E96037" width="0.862" height="38.417"/>
		
			<rect x="118.191" y="15.895" transform="matrix(-0.7954 0.6061 -0.6061 -0.7954 234.2525 -8.8663)" clip-path="url(#SVGID_2_)" fill="#E86036" width="0.862" height="38.417"/>
		
			<rect x="118.877" y="15.372" transform="matrix(-0.7954 0.6061 -0.6061 -0.7954 235.1673 -10.2203)" clip-path="url(#SVGID_2_)" fill="#E86036" width="0.862" height="38.417"/>
		
			<rect x="119.563" y="14.85" transform="matrix(-0.7954 0.6061 -0.6061 -0.7954 236.08 -11.5796)" clip-path="url(#SVGID_2_)" fill="#E85F35" width="0.862" height="38.417"/>
		
			<rect x="120.249" y="14.327" transform="matrix(-0.7954 0.6061 -0.6061 -0.7954 236.9967 -12.9283)" clip-path="url(#SVGID_2_)" fill="#E85F34" width="0.862" height="38.417"/>
		
			<rect x="120.935" y="13.804" transform="matrix(-0.7954 0.6061 -0.6061 -0.7954 237.9115 -14.2823)" clip-path="url(#SVGID_2_)" fill="#E85F34" width="0.862" height="38.417"/>
		
			<rect x="121.621" y="13.282" transform="matrix(-0.7954 0.6061 -0.6061 -0.7954 238.8241 -15.6417)" clip-path="url(#SVGID_2_)" fill="#E85F33" width="0.862" height="38.417"/>
		
			<rect x="122.307" y="12.759" transform="matrix(-0.7954 0.6061 -0.6061 -0.7954 239.741 -16.9903)" clip-path="url(#SVGID_2_)" fill="#E85E33" width="0.862" height="38.417"/>
		
			<rect x="122.993" y="12.236" transform="matrix(-0.7954 0.606 -0.606 -0.7954 240.6558 -18.3441)" clip-path="url(#SVGID_2_)" fill="#E75E32" width="0.862" height="38.417"/>
		
			<rect x="123.679" y="11.714" transform="matrix(-0.7954 0.6061 -0.6061 -0.7954 241.5652 -19.7108)" clip-path="url(#SVGID_2_)" fill="#E75E32" width="0.862" height="38.417"/>
		
			<rect x="124.365" y="11.191" transform="matrix(-0.7954 0.6061 -0.6061 -0.7954 242.4851 -21.0527)" clip-path="url(#SVGID_2_)" fill="#E75D31" width="0.862" height="38.417"/>
		<polygon clip-path="url(#SVGID_2_)" fill="#E75D31" points="113.53,14.835 114.216,14.312 137.371,44.836 137.371,44.967 
			136.748,45.442 		"/>
		<polygon clip-path="url(#SVGID_2_)" fill="#E75D30" points="114.216,14.312 114.902,13.79 137.371,43.409 137.371,44.836 		"/>
		<polygon clip-path="url(#SVGID_2_)" fill="#E75D2F" points="114.902,13.79 115.588,13.267 137.371,41.983 137.371,43.409 		"/>
		<polygon clip-path="url(#SVGID_2_)" fill="#E65C2F" points="115.588,13.267 116.273,12.744 137.371,40.556 137.371,41.983 		"/>
		<polygon clip-path="url(#SVGID_2_)" fill="#E65C2E" points="116.273,12.744 116.959,12.222 137.371,39.129 137.371,40.556 		"/>
		<polygon clip-path="url(#SVGID_2_)" fill="#E65C2E" points="116.959,12.222 117.645,11.699 137.371,37.702 137.371,39.129 		"/>
		<polygon clip-path="url(#SVGID_2_)" fill="#E65B2D" points="117.645,11.699 118.331,11.177 137.371,36.275 137.371,37.702 		"/>
		<polygon clip-path="url(#SVGID_2_)" fill="#E65B2D" points="118.331,11.177 119.017,10.654 137.371,34.849 137.371,36.275 		"/>
		<polygon clip-path="url(#SVGID_2_)" fill="#E65B2C" points="119.017,10.654 119.703,10.131 137.371,33.422 137.371,34.849 		"/>
		<polygon clip-path="url(#SVGID_2_)" fill="#E65A2B" points="119.703,10.131 120.389,9.609 137.371,31.995 137.371,33.422 		"/>
		<polygon clip-path="url(#SVGID_2_)" fill="#E55A2B" points="120.389,9.609 121.075,9.086 137.371,30.568 137.371,31.995 		"/>
		<polygon clip-path="url(#SVGID_2_)" fill="#E55A2A" points="121.075,9.086 121.761,8.563 137.371,29.141 137.371,30.568 		"/>
		<polygon clip-path="url(#SVGID_2_)" fill="#E55A2A" points="121.761,8.563 122.447,8.041 137.371,27.715 137.371,29.141 		"/>
		<polygon clip-path="url(#SVGID_2_)" fill="#E55A29" points="122.447,8.041 123.132,7.518 137.371,26.288 137.371,27.715 		"/>
		<polygon clip-path="url(#SVGID_2_)" fill="#E55A29" points="123.132,7.518 123.818,6.996 137.371,24.861 137.371,26.288 		"/>
		<polygon clip-path="url(#SVGID_2_)" fill="#E55A28" points="123.818,6.996 124.346,6.594 124.596,6.594 137.371,23.434 
			137.371,24.861 		"/>
		<polygon clip-path="url(#SVGID_2_)" fill="#E55928" points="125.678,6.594 137.371,22.007 137.371,23.434 124.596,6.594 		"/>
		<polygon clip-path="url(#SVGID_2_)" fill="#E55928" points="126.761,6.594 137.371,20.581 137.371,22.007 125.678,6.594 		"/>
		<polygon clip-path="url(#SVGID_2_)" fill="#E55927" points="127.843,6.594 137.371,19.154 137.371,20.581 126.761,6.594 		"/>
		<polygon clip-path="url(#SVGID_2_)" fill="#E55827" points="128.925,6.594 137.371,17.727 137.371,19.154 127.843,6.594 		"/>
		<polygon clip-path="url(#SVGID_2_)" fill="#E55826" points="130.008,6.594 137.371,16.3 137.371,17.727 128.925,6.594 		"/>
		<polygon clip-path="url(#SVGID_2_)" fill="#E55826" points="131.09,6.594 137.371,14.873 137.371,16.3 130.008,6.594 		"/>
		<polygon clip-path="url(#SVGID_2_)" fill="#E45726" points="132.172,6.594 137.371,13.446 137.371,14.873 131.09,6.594 		"/>
		<polygon clip-path="url(#SVGID_2_)" fill="#E45726" points="137.371,13.446 132.172,6.594 137.371,6.594 		"/>
	</g>
</g>
<g>
	<g>
		<defs>
			<path id="SVGID_3_" d="M199.535,75.362L93.452,181.265c-3.115,3.11-8.162,3.106-11.272-0.01l0,0
				c-3.11-3.115-3.106-8.162,0.01-11.272L188.272,64.08c3.115-3.11,8.162-3.106,11.272,0.01l0,0
				C202.655,67.205,202.65,72.252,199.535,75.362z"/>
		</defs>
		<clipPath id="SVGID_4_">
			<use xlink:href="#SVGID_3_"  overflow="visible"/>
		</clipPath>
		<polygon clip-path="url(#SVGID_4_)" fill="#0094C1" points="79.069,177.285 84.46,184.375 79.069,184.375 		"/>
		<polygon clip-path="url(#SVGID_4_)" fill="#0094C1" points="79.069,175.604 85.738,184.375 84.46,184.375 79.069,177.285 		"/>
		<polygon clip-path="url(#SVGID_4_)" fill="#0294C0" points="79.069,173.923 87.016,184.375 85.738,184.375 79.069,175.604 		"/>
		<polygon clip-path="url(#SVGID_4_)" fill="#0B94C0" points="79.069,172.241 88.294,184.375 87.016,184.375 79.069,173.923 		"/>
		<polygon clip-path="url(#SVGID_4_)" fill="#0A95C0" points="79.069,170.56 89.573,184.375 88.294,184.375 79.069,172.241 		"/>
		<polygon clip-path="url(#SVGID_4_)" fill="#1195BF" points="79.069,168.879 90.851,184.375 89.573,184.375 79.069,170.56 		"/>
		<polygon clip-path="url(#SVGID_4_)" fill="#1095BF" points="79.069,167.198 92.129,184.375 90.851,184.375 79.069,168.879 		"/>
		<polygon clip-path="url(#SVGID_4_)" fill="#1695BE" points="79.069,165.516 93.069,183.931 92.485,184.375 92.129,184.375 
			79.069,167.198 		"/>
		<polygon clip-path="url(#SVGID_4_)" fill="#1596BE" points="79.069,163.835 93.879,183.315 93.069,183.931 79.069,165.516 		"/>
		<polygon clip-path="url(#SVGID_4_)" fill="#1A96BE" points="79.069,162.154 94.689,182.699 93.879,183.315 79.069,163.835 		"/>
		<polygon clip-path="url(#SVGID_4_)" fill="#1B96BD" points="79.069,160.473 95.499,182.083 94.689,182.699 79.069,162.154 		"/>
		<polygon clip-path="url(#SVGID_4_)" fill="#1E97BD" points="79.069,158.791 96.309,181.467 95.499,182.083 79.069,160.473 		"/>
		<polygon clip-path="url(#SVGID_4_)" fill="#1E97BC" points="79.069,157.11 97.119,180.852 96.309,181.467 79.069,158.791 		"/>
		<polygon clip-path="url(#SVGID_4_)" fill="#2197BC" points="79.069,155.429 97.929,180.236 97.119,180.852 79.069,157.11 		"/>
		<polygon clip-path="url(#SVGID_4_)" fill="#2197BC" points="79.069,153.748 98.739,179.62 97.929,180.236 79.069,155.429 		"/>
		<polygon clip-path="url(#SVGID_4_)" fill="#2498BB" points="79.069,152.067 99.549,179.004 98.739,179.62 79.069,153.748 		"/>
		<polygon clip-path="url(#SVGID_4_)" fill="#2798BB" points="79.069,150.385 100.359,178.388 99.549,179.004 79.069,152.067 		"/>
		<polygon clip-path="url(#SVGID_4_)" fill="#2798BA" points="79.069,148.704 101.169,177.772 100.359,178.388 79.069,150.385 		"/>
		<polygon clip-path="url(#SVGID_4_)" fill="#2A99BA" points="79.069,147.023 101.979,177.157 101.169,177.772 79.069,148.704 		"/>
		<polygon clip-path="url(#SVGID_4_)" fill="#2A99BA" points="79.069,145.342 102.789,176.541 101.979,177.157 79.069,147.023 		"/>
		<polygon clip-path="url(#SVGID_4_)" fill="#2C9AB9" points="79.069,144.729 79.584,144.338 103.599,175.925 102.789,176.541 
			79.069,145.342 		"/>
		
			<rect x="91.488" y="139.984" transform="matrix(-0.7961 0.6052 -0.6052 -0.7961 261.96 231.3737)" clip-path="url(#SVGID_4_)" fill="#2C9AB9" width="1.018" height="39.68"/>
		
			<rect x="92.298" y="139.368" transform="matrix(-0.796 0.6053 -0.6053 -0.796 263.0449 229.7706)" clip-path="url(#SVGID_4_)" fill="#2E9AB9" width="1.017" height="39.68"/>
		
			<rect x="93.108" y="138.752" transform="matrix(-0.7961 0.6052 -0.6052 -0.7961 264.1206 228.1898)" clip-path="url(#SVGID_4_)" fill="#2F9AB8" width="1.018" height="39.68"/>
		
			<rect x="93.918" y="138.136" transform="matrix(-0.7961 0.6052 -0.6052 -0.7961 265.2063 226.5849)" clip-path="url(#SVGID_4_)" fill="#319AB8" width="1.018" height="39.68"/>
		
			<rect x="94.728" y="137.52" transform="matrix(-0.796 0.6053 -0.6053 -0.796 266.291 224.982)" clip-path="url(#SVGID_4_)" fill="#319BB7" width="1.017" height="39.68"/>
		
			<rect x="95.538" y="136.904" transform="matrix(-0.7961 0.6052 -0.6052 -0.7961 267.3705 223.3923)" clip-path="url(#SVGID_4_)" fill="#349BB6" width="1.018" height="39.68"/>
		
			<rect x="96.348" y="136.289" transform="matrix(-0.7961 0.6052 -0.6052 -0.7961 268.4492 221.8047)" clip-path="url(#SVGID_4_)" fill="#339BB6" width="1.018" height="39.68"/>
		
			<rect x="97.158" y="135.673" transform="matrix(-0.796 0.6053 -0.6053 -0.796 269.5372 220.1932)" clip-path="url(#SVGID_4_)" fill="#369CB6" width="1.017" height="39.68"/>
		
			<rect x="97.968" y="135.057" transform="matrix(-0.7961 0.6052 -0.6052 -0.7961 270.6168 218.6035)" clip-path="url(#SVGID_4_)" fill="#379CB5" width="1.018" height="39.68"/>
		
			<rect x="98.778" y="134.441" transform="matrix(-0.7961 0.6052 -0.6052 -0.7961 271.6957 217.0159)" clip-path="url(#SVGID_4_)" fill="#389CB5" width="1.018" height="39.68"/>
		
			<rect x="99.588" y="133.825" transform="matrix(-0.796 0.6053 -0.6053 -0.796 272.7834 215.4043)" clip-path="url(#SVGID_4_)" fill="#3A9DB4" width="1.017" height="39.68"/>
		
			<rect x="100.398" y="133.209" transform="matrix(-0.7961 0.6052 -0.6052 -0.7961 273.8631 213.8147)" clip-path="url(#SVGID_4_)" fill="#3A9DB4" width="1.018" height="39.68"/>
		
			<rect x="101.208" y="132.594" transform="matrix(-0.7961 0.6052 -0.6052 -0.7961 274.9422 212.2272)" clip-path="url(#SVGID_4_)" fill="#3C9DB3" width="1.018" height="39.68"/>
		
			<rect x="102.018" y="131.978" transform="matrix(-0.796 0.6053 -0.6053 -0.796 276.0296 210.6154)" clip-path="url(#SVGID_4_)" fill="#3B9EB3" width="1.017" height="39.68"/>
		
			<rect x="102.828" y="131.362" transform="matrix(-0.7961 0.6052 -0.6052 -0.7961 277.1094 209.0259)" clip-path="url(#SVGID_4_)" fill="#3E9EB3" width="1.018" height="39.68"/>
		
			<rect x="103.638" y="130.746" transform="matrix(-0.7961 0.6052 -0.6052 -0.7961 278.1915 207.4295)" clip-path="url(#SVGID_4_)" fill="#3D9EB2" width="1.018" height="39.68"/>
		
			<rect x="104.448" y="130.13" transform="matrix(-0.7961 0.6052 -0.6052 -0.7961 279.2729 205.8354)" clip-path="url(#SVGID_4_)" fill="#3F9EB2" width="1.017" height="39.68"/>
		
			<rect x="105.258" y="129.515" transform="matrix(-0.7961 0.6052 -0.6052 -0.7961 280.3557 204.2371)" clip-path="url(#SVGID_4_)" fill="#3F9FB2" width="1.018" height="39.68"/>
		
			<rect x="106.068" y="128.899" transform="matrix(-0.7961 0.6052 -0.6052 -0.7961 281.4378 202.6407)" clip-path="url(#SVGID_4_)" fill="#419FB1" width="1.018" height="39.68"/>
		
			<rect x="106.878" y="128.283" transform="matrix(-0.7961 0.6052 -0.6052 -0.7961 282.5193 201.0466)" clip-path="url(#SVGID_4_)" fill="#419FB0" width="1.017" height="39.68"/>
		
			<rect x="107.688" y="127.667" transform="matrix(-0.7961 0.6052 -0.6052 -0.7961 283.602 199.4482)" clip-path="url(#SVGID_4_)" fill="#43A0B0" width="1.018" height="39.68"/>
		
			<rect x="108.498" y="127.051" transform="matrix(-0.7961 0.6052 -0.6052 -0.7961 284.6841 197.8519)" clip-path="url(#SVGID_4_)" fill="#43A0B0" width="1.018" height="39.68"/>
		
			<rect x="109.308" y="126.435" transform="matrix(-0.796 0.6053 -0.6053 -0.796 285.7681 196.2488)" clip-path="url(#SVGID_4_)" fill="#45A0AF" width="1.017" height="39.68"/>
		
			<rect x="110.118" y="125.82" transform="matrix(-0.7961 0.6052 -0.6052 -0.7961 286.8458 194.6683)" clip-path="url(#SVGID_4_)" fill="#46A1AF" width="1.018" height="39.68"/>
		
			<rect x="110.928" y="125.204" transform="matrix(-0.7961 0.6052 -0.6052 -0.7961 287.9305 193.0631)" clip-path="url(#SVGID_4_)" fill="#46A1AF" width="1.018" height="39.68"/>
		
			<rect x="111.738" y="124.588" transform="matrix(-0.796 0.6053 -0.6053 -0.796 289.0143 191.46)" clip-path="url(#SVGID_4_)" fill="#48A1AE" width="1.017" height="39.68"/>
		
			<rect x="112.548" y="123.972" transform="matrix(-0.7961 0.6052 -0.6052 -0.7961 290.0922 189.8795)" clip-path="url(#SVGID_4_)" fill="#48A1AD" width="1.018" height="39.68"/>
		
			<rect x="113.358" y="123.356" transform="matrix(-0.796 0.6053 -0.6053 -0.796 291.1784 188.2677)" clip-path="url(#SVGID_4_)" fill="#49A2AD" width="1.017" height="39.68"/>
		
			<rect x="114.168" y="122.741" transform="matrix(-0.7961 0.6052 -0.6052 -0.7961 292.2588 186.678)" clip-path="url(#SVGID_4_)" fill="#4AA2AD" width="1.018" height="39.68"/>
		
			<rect x="114.978" y="122.125" transform="matrix(-0.7961 0.6052 -0.6052 -0.7961 293.3409 185.0817)" clip-path="url(#SVGID_4_)" fill="#4BA3AC" width="1.018" height="39.68"/>
		
			<rect x="115.788" y="121.509" transform="matrix(-0.7961 0.6052 -0.6052 -0.7961 294.4225 183.4873)" clip-path="url(#SVGID_4_)" fill="#4BA3AC" width="1.017" height="39.68"/>
		
			<rect x="116.598" y="120.893" transform="matrix(-0.7961 0.6052 -0.6052 -0.7961 295.5051 181.8892)" clip-path="url(#SVGID_4_)" fill="#4CA3AB" width="1.018" height="39.68"/>
		
			<rect x="117.408" y="120.277" transform="matrix(-0.7961 0.6052 -0.6052 -0.7961 296.5872 180.2929)" clip-path="url(#SVGID_4_)" fill="#4DA3AB" width="1.018" height="39.68"/>
		
			<rect x="118.218" y="119.661" transform="matrix(-0.7961 0.6052 -0.6052 -0.7961 297.6688 178.6988)" clip-path="url(#SVGID_4_)" fill="#4EA4AA" width="1.017" height="39.68"/>
		
			<rect x="119.028" y="119.046" transform="matrix(-0.7961 0.6052 -0.6052 -0.7961 298.7514 177.1003)" clip-path="url(#SVGID_4_)" fill="#4EA4A9" width="1.018" height="39.68"/>
		
			<rect x="119.838" y="118.43" transform="matrix(-0.7961 0.6052 -0.6052 -0.7961 299.8335 175.5041)" clip-path="url(#SVGID_4_)" fill="#50A4A9" width="1.018" height="39.68"/>
		
			<rect x="120.648" y="117.814" transform="matrix(-0.7961 0.6052 -0.6052 -0.7961 300.9151 173.9099)" clip-path="url(#SVGID_4_)" fill="#50A5A8" width="1.017" height="39.68"/>
		
			<rect x="121.458" y="117.198" transform="matrix(-0.7961 0.6052 -0.6052 -0.7961 301.9977 172.3115)" clip-path="url(#SVGID_4_)" fill="#51A5A8" width="1.018" height="39.68"/>
		
			<rect x="122.268" y="116.582" transform="matrix(-0.7961 0.6052 -0.6052 -0.7961 303.0798 170.7152)" clip-path="url(#SVGID_4_)" fill="#52A6A8" width="1.018" height="39.68"/>
		
			<rect x="123.078" y="115.967" transform="matrix(-0.796 0.6053 -0.6053 -0.796 304.1631 169.112)" clip-path="url(#SVGID_4_)" fill="#52A6A7" width="1.017" height="39.68"/>
		
			<rect x="123.888" y="115.351" transform="matrix(-0.7961 0.6052 -0.6052 -0.7961 305.2423 167.5318)" clip-path="url(#SVGID_4_)" fill="#54A6A6" width="1.018" height="39.68"/>
		
			<rect x="124.698" y="114.735" transform="matrix(-0.7961 0.6052 -0.6052 -0.7961 306.3261 165.9264)" clip-path="url(#SVGID_4_)" fill="#54A6A6" width="1.018" height="39.68"/>
		
			<rect x="125.508" y="114.119" transform="matrix(-0.796 0.6053 -0.6053 -0.796 307.4094 164.3231)" clip-path="url(#SVGID_4_)" fill="#55A6A5" width="1.017" height="39.68"/>
		
			<rect x="126.318" y="113.503" transform="matrix(-0.7961 0.6052 -0.6052 -0.7961 308.4888 162.7431)" clip-path="url(#SVGID_4_)" fill="#55A7A5" width="1.018" height="39.68"/>
		
			<rect x="127.128" y="112.887" transform="matrix(-0.7961 0.6052 -0.6052 -0.7961 309.5724 161.1376)" clip-path="url(#SVGID_4_)" fill="#57A7A4" width="1.018" height="39.68"/>
		
			<rect x="127.938" y="112.272" transform="matrix(-0.796 0.6053 -0.6053 -0.796 310.6556 159.5343)" clip-path="url(#SVGID_4_)" fill="#56A8A4" width="1.017" height="39.68"/>
		
			<rect x="128.748" y="111.656" transform="matrix(-0.7961 0.6052 -0.6052 -0.7961 311.7366 157.945)" clip-path="url(#SVGID_4_)" fill="#58A8A4" width="1.018" height="39.68"/>
		
			<rect x="129.558" y="111.04" transform="matrix(-0.7961 0.6052 -0.6052 -0.7961 312.8174 156.358)" clip-path="url(#SVGID_4_)" fill="#58A8A3" width="1.018" height="39.68"/>
		
			<rect x="130.368" y="110.424" transform="matrix(-0.796 0.6053 -0.6053 -0.796 313.9017 154.7454)" clip-path="url(#SVGID_4_)" fill="#59A9A3" width="1.017" height="39.68"/>
		
			<rect x="131.178" y="109.808" transform="matrix(-0.7961 0.6052 -0.6052 -0.7961 314.9829 153.1562)" clip-path="url(#SVGID_4_)" fill="#59A8A2" width="1.018" height="39.68"/>
		
			<rect x="131.988" y="109.193" transform="matrix(-0.7961 0.6052 -0.6052 -0.7961 316.0647 151.5621)" clip-path="url(#SVGID_4_)" fill="#5BA9A2" width="1.017" height="39.68"/>
		
			<rect x="132.798" y="108.577" transform="matrix(-0.7961 0.6052 -0.6052 -0.7961 317.147 149.9637)" clip-path="url(#SVGID_4_)" fill="#5BA9A1" width="1.018" height="39.68"/>
		
			<rect x="133.608" y="107.961" transform="matrix(-0.7961 0.6052 -0.6052 -0.7961 318.2292 148.3674)" clip-path="url(#SVGID_4_)" fill="#5CAAA1" width="1.018" height="39.68"/>
		
			<rect x="134.418" y="107.345" transform="matrix(-0.796 0.6053 -0.6053 -0.796 319.3121 146.7639)" clip-path="url(#SVGID_4_)" fill="#5CAAA0" width="1.017" height="39.68"/>
		
			<rect x="135.228" y="106.729" transform="matrix(-0.7961 0.6052 -0.6052 -0.7961 320.3924 145.1842)" clip-path="url(#SVGID_4_)" fill="#5DAAA0" width="1.018" height="39.68"/>
		
			<rect x="136.038" y="106.113" transform="matrix(-0.7961 0.6052 -0.6052 -0.7961 321.4755 143.5786)" clip-path="url(#SVGID_4_)" fill="#5FAB9F" width="1.018" height="39.68"/>
		
			<rect x="136.848" y="105.498" transform="matrix(-0.796 0.6053 -0.6053 -0.796 322.5582 141.9754)" clip-path="url(#SVGID_4_)" fill="#5FAB9F" width="1.017" height="39.68"/>
		
			<rect x="137.658" y="104.882" transform="matrix(-0.7961 0.6052 -0.6052 -0.7961 323.6388 140.3954)" clip-path="url(#SVGID_4_)" fill="#60AB9E" width="1.018" height="39.68"/>
		
			<rect x="138.468" y="104.266" transform="matrix(-0.7961 0.6052 -0.6052 -0.7961 324.7218 138.7897)" clip-path="url(#SVGID_4_)" fill="#60AB9E" width="1.018" height="39.68"/>
		
			<rect x="139.278" y="103.65" transform="matrix(-0.796 0.6053 -0.6053 -0.796 325.8044 137.1859)" clip-path="url(#SVGID_4_)" fill="#61AC9D" width="1.017" height="39.68"/>
		
			<rect x="140.088" y="103.034" transform="matrix(-0.7961 0.6052 -0.6052 -0.7961 326.886 135.5972)" clip-path="url(#SVGID_4_)" fill="#61AC9D" width="1.018" height="39.68"/>
		
			<rect x="140.898" y="102.419" transform="matrix(-0.7961 0.6052 -0.6052 -0.7961 327.9675 134.0103)" clip-path="url(#SVGID_4_)" fill="#63AC9C" width="1.018" height="39.68"/>
		
			<rect x="141.708" y="101.803" transform="matrix(-0.796 0.6053 -0.6053 -0.796 329.0506 132.3974)" clip-path="url(#SVGID_4_)" fill="#62AD9C" width="1.017" height="39.68"/>
		
			<rect x="142.518" y="101.187" transform="matrix(-0.7961 0.6052 -0.6052 -0.7961 330.1322 130.8083)" clip-path="url(#SVGID_4_)" fill="#64AD9B" width="1.018" height="39.68"/>
		
			<rect x="143.328" y="100.571" transform="matrix(-0.7961 0.6052 -0.6052 -0.7961 331.2139 129.2215)" clip-path="url(#SVGID_4_)" fill="#64AE9B" width="1.018" height="39.68"/>
		
			<rect x="144.138" y="99.955" transform="matrix(-0.796 0.6053 -0.6053 -0.796 332.2968 127.6085)" clip-path="url(#SVGID_4_)" fill="#65AE9A" width="1.017" height="39.68"/>
		
			<rect x="144.948" y="99.339" transform="matrix(-0.7961 0.6052 -0.6052 -0.7961 333.3786 126.0195)" clip-path="url(#SVGID_4_)" fill="#65AE99" width="1.018" height="39.68"/>
		
			<rect x="145.758" y="98.724" transform="matrix(-0.7961 0.6052 -0.6052 -0.7961 334.4604 124.4328)" clip-path="url(#SVGID_4_)" fill="#66AE99" width="1.018" height="39.68"/>
		
			<rect x="146.568" y="98.108" transform="matrix(-0.796 0.6053 -0.6053 -0.796 335.543 122.8197)" clip-path="url(#SVGID_4_)" fill="#66AE99" width="1.017" height="39.68"/>
		
			<rect x="147.378" y="97.492" transform="matrix(-0.7961 0.6052 -0.6052 -0.7961 336.6248 121.2307)" clip-path="url(#SVGID_4_)" fill="#67AF98" width="1.018" height="39.68"/>
		
			<rect x="148.188" y="96.876" transform="matrix(-0.7961 0.6052 -0.6052 -0.7961 337.707 119.6344)" clip-path="url(#SVGID_4_)" fill="#67AF98" width="1.018" height="39.68"/>
		
			<rect x="148.998" y="96.26" transform="matrix(-0.7961 0.6052 -0.6052 -0.7961 338.7891 118.0404)" clip-path="url(#SVGID_4_)" fill="#68B097" width="1.017" height="39.68"/>
		
			<rect x="149.808" y="95.645" transform="matrix(-0.7961 0.6052 -0.6052 -0.7961 339.8712 116.4419)" clip-path="url(#SVGID_4_)" fill="#69B097" width="1.018" height="39.68"/>
		
			<rect x="150.618" y="95.029" transform="matrix(-0.7961 0.6052 -0.6052 -0.7961 340.9533 114.8456)" clip-path="url(#SVGID_4_)" fill="#6AB096" width="1.018" height="39.68"/>
		
			<rect x="151.428" y="94.413" transform="matrix(-0.7961 0.6052 -0.6052 -0.7961 342.0354 113.2516)" clip-path="url(#SVGID_4_)" fill="#6AB096" width="1.017" height="39.68"/>
		
			<rect x="152.238" y="93.797" transform="matrix(-0.7961 0.6052 -0.6052 -0.7961 343.1174 111.653)" clip-path="url(#SVGID_4_)" fill="#6BB195" width="1.018" height="39.68"/>
		
			<rect x="153.048" y="93.181" transform="matrix(-0.796 0.6053 -0.6053 -0.796 344.1995 110.0494)" clip-path="url(#SVGID_4_)" fill="#6CB194" width="1.017" height="39.68"/>
		
			<rect x="153.858" y="92.565" transform="matrix(-0.7961 0.6052 -0.6052 -0.7961 345.2816 108.4605)" clip-path="url(#SVGID_4_)" fill="#6CB193" width="1.018" height="39.68"/>
		
			<rect x="154.668" y="91.95" transform="matrix(-0.7961 0.6052 -0.6052 -0.7961 346.364 106.8739)" clip-path="url(#SVGID_4_)" fill="#6DB293" width="1.018" height="39.68"/>
		
			<rect x="155.478" y="91.334" transform="matrix(-0.796 0.6053 -0.6053 -0.796 347.4457 105.2606)" clip-path="url(#SVGID_4_)" fill="#6DB292" width="1.017" height="39.68"/>
		
			<rect x="156.288" y="90.718" transform="matrix(-0.7961 0.6052 -0.6052 -0.7961 348.5279 103.6717)" clip-path="url(#SVGID_4_)" fill="#6FB292" width="1.018" height="39.68"/>
		
			<rect x="157.098" y="90.102" transform="matrix(-0.7961 0.6052 -0.6052 -0.7961 349.6105 102.0851)" clip-path="url(#SVGID_4_)" fill="#6FB391" width="1.018" height="39.68"/>
		
			<rect x="157.908" y="89.486" transform="matrix(-0.796 0.6053 -0.6053 -0.796 350.6918 100.4717)" clip-path="url(#SVGID_4_)" fill="#70B391" width="1.017" height="39.68"/>
		
			<rect x="158.718" y="88.871" transform="matrix(-0.7961 0.6052 -0.6052 -0.7961 351.7742 98.8829)" clip-path="url(#SVGID_4_)" fill="#70B490" width="1.018" height="39.68"/>
		
			<rect x="159.528" y="88.255" transform="matrix(-0.7961 0.6052 -0.6052 -0.7961 352.8564 97.2865)" clip-path="url(#SVGID_4_)" fill="#71B490" width="1.018" height="39.68"/>
		
			<rect x="160.338" y="87.639" transform="matrix(-0.7961 0.6052 -0.6052 -0.7961 353.9386 95.693)" clip-path="url(#SVGID_4_)" fill="#71B48F" width="1.017" height="39.68"/>
		
			<rect x="161.148" y="87.023" transform="matrix(-0.7961 0.6052 -0.6052 -0.7961 355.0206 94.094)" clip-path="url(#SVGID_4_)" fill="#72B58F" width="1.018" height="39.68"/>
		
			<rect x="161.958" y="86.407" transform="matrix(-0.7961 0.6052 -0.6052 -0.7961 356.1027 92.4977)" clip-path="url(#SVGID_4_)" fill="#72B48E" width="1.018" height="39.68"/>
		
			<rect x="162.768" y="85.791" transform="matrix(-0.7961 0.6052 -0.6052 -0.7961 357.1849 90.9034)" clip-path="url(#SVGID_4_)" fill="#73B58E" width="1.017" height="39.68"/>
		
			<rect x="163.578" y="85.176" transform="matrix(-0.7961 0.6052 -0.6052 -0.7961 358.2668 89.3052)" clip-path="url(#SVGID_4_)" fill="#73B58D" width="1.018" height="39.68"/>
		
			<rect x="164.388" y="84.56" transform="matrix(-0.7961 0.6052 -0.6052 -0.7961 359.349 87.7089)" clip-path="url(#SVGID_4_)" fill="#74B68D" width="1.018" height="39.68"/>
		
			<rect x="165.198" y="83.944" transform="matrix(-0.796 0.6053 -0.6053 -0.796 360.4304 86.1051)" clip-path="url(#SVGID_4_)" fill="#75B68C" width="1.017" height="39.68"/>
		
			<rect x="166.008" y="83.328" transform="matrix(-0.7961 0.6052 -0.6052 -0.7961 361.5141 84.5262)" clip-path="url(#SVGID_4_)" fill="#76B68C" width="1.018" height="39.68"/>
		
			<rect x="166.818" y="82.712" transform="matrix(-0.7961 0.6052 -0.6052 -0.7961 362.5953 82.9201)" clip-path="url(#SVGID_4_)" fill="#76B78B" width="1.018" height="39.68"/>
		
			<rect x="167.628" y="82.096" transform="matrix(-0.796 0.6053 -0.6053 -0.796 363.6766 81.3162)" clip-path="url(#SVGID_4_)" fill="#77B78B" width="1.017" height="39.68"/>
		
			<rect x="168.438" y="81.481" transform="matrix(-0.7961 0.6052 -0.6052 -0.7961 364.7606 79.7374)" clip-path="url(#SVGID_4_)" fill="#77B78A" width="1.018" height="39.68"/>
		
			<rect x="169.248" y="80.865" transform="matrix(-0.7961 0.6052 -0.6052 -0.7961 365.8416 78.1312)" clip-path="url(#SVGID_4_)" fill="#78B889" width="1.018" height="39.68"/>
		
			<rect x="170.058" y="80.249" transform="matrix(-0.796 0.6053 -0.6053 -0.796 366.9228 76.5274)" clip-path="url(#SVGID_4_)" fill="#78B889" width="1.017" height="39.68"/>
		
			<rect x="170.868" y="79.633" transform="matrix(-0.7961 0.6052 -0.6052 -0.7961 368.007 74.9487)" clip-path="url(#SVGID_4_)" fill="#79B888" width="1.018" height="39.68"/>
		
			<rect x="171.678" y="79.017" transform="matrix(-0.7961 0.6052 -0.6052 -0.7961 369.0879 73.3424)" clip-path="url(#SVGID_4_)" fill="#79B888" width="1.018" height="39.68"/>
		
			<rect x="172.488" y="78.402" transform="matrix(-0.796 0.6053 -0.6053 -0.796 370.169 71.7385)" clip-path="url(#SVGID_4_)" fill="#7AB987" width="1.017" height="39.68"/>
		
			<rect x="173.298" y="77.786" transform="matrix(-0.7961 0.6052 -0.6052 -0.7961 371.252 70.1499)" clip-path="url(#SVGID_4_)" fill="#7BB987" width="1.018" height="39.68"/>
		
			<rect x="174.108" y="77.17" transform="matrix(-0.7961 0.6052 -0.6052 -0.7961 372.3345 68.5559)" clip-path="url(#SVGID_4_)" fill="#7BBA86" width="1.017" height="39.68"/>
		
			<rect x="174.918" y="76.554" transform="matrix(-0.7961 0.6052 -0.6052 -0.7961 373.4162 66.9574)" clip-path="url(#SVGID_4_)" fill="#7CBA86" width="1.018" height="39.68"/>
		
			<rect x="175.728" y="75.938" transform="matrix(-0.7961 0.6052 -0.6052 -0.7961 374.4984 65.361)" clip-path="url(#SVGID_4_)" fill="#7CBA85" width="1.018" height="39.68"/>
		
			<rect x="176.538" y="75.323" transform="matrix(-0.7961 0.6052 -0.6052 -0.7961 375.5808 63.7672)" clip-path="url(#SVGID_4_)" fill="#7DBB84" width="1.017" height="39.68"/>
		
			<rect x="177.348" y="74.707" transform="matrix(-0.7961 0.6052 -0.6052 -0.7961 376.6625 62.1685)" clip-path="url(#SVGID_4_)" fill="#7DBB84" width="1.018" height="39.68"/>
		
			<rect x="178.158" y="74.091" transform="matrix(-0.7961 0.6052 -0.6052 -0.7961 377.7447 60.5722)" clip-path="url(#SVGID_4_)" fill="#7EBC83" width="1.018" height="39.68"/>
		
			<rect x="178.968" y="73.475" transform="matrix(-0.796 0.6053 -0.6053 -0.796 378.8254 58.9682)" clip-path="url(#SVGID_4_)" fill="#7FBC83" width="1.017" height="39.68"/>
		
			<rect x="179.778" y="72.859" transform="matrix(-0.7961 0.6052 -0.6052 -0.7961 379.9106 57.3898)" clip-path="url(#SVGID_4_)" fill="#80BC82" width="1.018" height="39.68"/>
		
			<rect x="180.588" y="72.243" transform="matrix(-0.7961 0.6052 -0.6052 -0.7961 380.991 55.7834)" clip-path="url(#SVGID_4_)" fill="#80BC81" width="1.018" height="39.68"/>
		
			<rect x="181.398" y="71.628" transform="matrix(-0.796 0.6053 -0.6053 -0.796 382.0716 54.1794)" clip-path="url(#SVGID_4_)" fill="#80BD81" width="1.017" height="39.68"/>
		
			<rect x="182.208" y="71.012" transform="matrix(-0.7961 0.6052 -0.6052 -0.7961 383.1571 52.601)" clip-path="url(#SVGID_4_)" fill="#80BD80" width="1.018" height="39.68"/>
		
			<rect x="183.018" y="70.396" transform="matrix(-0.7961 0.6052 -0.6052 -0.7961 384.2373 50.9945)" clip-path="url(#SVGID_4_)" fill="#81BD80" width="1.018" height="39.68"/>
		
			<rect x="183.828" y="69.78" transform="matrix(-0.796 0.6052 -0.6052 -0.796 385.3179 49.391)" clip-path="url(#SVGID_4_)" fill="#81BE80" width="1.017" height="39.68"/>
		
			<rect x="184.638" y="69.164" transform="matrix(-0.7961 0.6052 -0.6052 -0.7961 386.4014 47.802)" clip-path="url(#SVGID_4_)" fill="#82BE7F" width="1.018" height="39.68"/>
		
			<rect x="185.448" y="68.548" transform="matrix(-0.7961 0.6052 -0.6052 -0.7961 387.4857 46.2159)" clip-path="url(#SVGID_4_)" fill="#82BE7F" width="1.018" height="39.68"/>
		
			<rect x="186.258" y="67.933" transform="matrix(-0.796 0.6053 -0.6053 -0.796 388.5639 44.6012)" clip-path="url(#SVGID_4_)" fill="#83BF7E" width="1.017" height="39.68"/>
		
			<rect x="187.068" y="67.317" transform="matrix(-0.7961 0.6052 -0.6052 -0.7961 389.6477 43.0132)" clip-path="url(#SVGID_4_)" fill="#83BF7D" width="1.018" height="39.68"/>
		
			<rect x="187.878" y="66.701" transform="matrix(-0.7961 0.6052 -0.6052 -0.7961 390.7321 41.4272)" clip-path="url(#SVGID_4_)" fill="#84C07D" width="1.018" height="39.68"/>
		
			<rect x="188.688" y="66.085" transform="matrix(-0.796 0.6053 -0.6053 -0.796 391.8102 39.8128)" clip-path="url(#SVGID_4_)" fill="#84C07D" width="1.017" height="39.68"/>
		
			<rect x="189.498" y="65.469" transform="matrix(-0.7961 0.6052 -0.6052 -0.7961 392.8941 38.2244)" clip-path="url(#SVGID_4_)" fill="#85C07C" width="1.018" height="39.68"/>
		<polygon clip-path="url(#SVGID_4_)" fill="#85C17C" points="178.404,69.208 179.214,68.592 202.655,99.423 202.655,100.616 
			202.419,100.795 		"/>
		<polygon clip-path="url(#SVGID_4_)" fill="#86C17B" points="179.214,68.592 180.024,67.976 202.655,97.742 202.655,99.423 		"/>
		<polygon clip-path="url(#SVGID_4_)" fill="#86C17A" points="180.024,67.976 180.834,67.36 202.655,96.061 202.655,97.742 		"/>
		<polygon clip-path="url(#SVGID_4_)" fill="#87C27A" points="180.834,67.36 181.644,66.744 202.655,94.38 202.655,96.061 		"/>
		<polygon clip-path="url(#SVGID_4_)" fill="#88C279" points="181.644,66.744 182.454,66.129 202.655,92.699 202.655,94.38 		"/>
		<polygon clip-path="url(#SVGID_4_)" fill="#89C278" points="182.454,66.129 183.264,65.513 202.655,91.017 202.655,92.699 		"/>
		<polygon clip-path="url(#SVGID_4_)" fill="#89C277" points="183.264,65.513 184.074,64.897 202.655,89.336 202.655,91.017 		"/>
		<polygon clip-path="url(#SVGID_4_)" fill="#8AC377" points="184.074,64.897 184.884,64.281 202.655,87.655 202.655,89.336 		"/>
		<polygon clip-path="url(#SVGID_4_)" fill="#8AC376" points="184.884,64.281 185.694,63.665 202.655,85.974 202.655,87.655 		"/>
		<polygon clip-path="url(#SVGID_4_)" fill="#8BC475" points="185.694,63.665 186.504,63.049 202.655,84.292 202.655,85.974 		"/>
		<polygon clip-path="url(#SVGID_4_)" fill="#8BC475" points="186.504,63.049 187.314,62.434 202.655,82.611 202.655,84.292 		"/>
		<polygon clip-path="url(#SVGID_4_)" fill="#8CC574" points="187.314,62.434 188.124,61.818 202.655,80.93 202.655,82.611 		"/>
		<polygon clip-path="url(#SVGID_4_)" fill="#8CC573" points="188.124,61.818 188.934,61.202 202.655,79.249 202.655,80.93 		"/>
		<polygon clip-path="url(#SVGID_4_)" fill="#8DC672" points="188.934,61.202 189.239,60.97 190.036,60.97 202.655,77.567 
			202.655,79.249 		"/>
		<polygon clip-path="url(#SVGID_4_)" fill="#8DC572" points="191.314,60.97 202.655,75.886 202.655,77.567 190.036,60.97 		"/>
		<polygon clip-path="url(#SVGID_4_)" fill="#8EC771" points="192.593,60.97 202.655,74.205 202.655,75.886 191.314,60.97 		"/>
		<polygon clip-path="url(#SVGID_4_)" fill="#8EC770" points="193.871,60.97 202.655,72.524 202.655,74.205 192.593,60.97 		"/>
		<polygon clip-path="url(#SVGID_4_)" fill="#8FC76F" points="195.149,60.97 202.655,70.843 202.655,72.524 193.871,60.97 		"/>
		<polygon clip-path="url(#SVGID_4_)" fill="#8FC76F" points="202.655,70.843 195.149,60.97 202.655,60.97 		"/>
	</g>
</g>
<g>
	<g>
		<defs>
			<path id="SVGID_5_" d="M99.459,204.301l-86.888,86.74c-2.155,2.152-5.647,2.149-7.799-0.007h0
				c-2.152-2.155-2.149-5.647,0.007-7.799l86.888-86.74c2.155-2.152,5.647-2.149,7.799,0.007l0,0
				C101.618,198.657,101.615,202.149,99.459,204.301z"/>
		</defs>
		<clipPath id="SVGID_6_">
			<use xlink:href="#SVGID_5_"  overflow="visible"/>
		</clipPath>
		<polygon clip-path="url(#SVGID_6_)" fill="#00ABD4" points="2.621,287.082 7.058,293.193 2.621,293.193 		"/>
		<polygon clip-path="url(#SVGID_6_)" fill="#00ABD4" points="2.621,286.091 7.778,293.193 7.058,293.193 2.621,287.082 		"/>
		<polygon clip-path="url(#SVGID_6_)" fill="#00AAD4" points="2.621,285.099 8.497,293.193 7.778,293.193 2.621,286.091 		"/>
		<polygon clip-path="url(#SVGID_6_)" fill="#04A9D3" points="2.621,284.108 9.217,293.193 8.497,293.193 2.621,285.099 		"/>
		<polygon clip-path="url(#SVGID_6_)" fill="#0BA8D2" points="2.621,283.116 9.937,293.193 9.217,293.193 2.621,284.108 		"/>
		<polygon clip-path="url(#SVGID_6_)" fill="#10A7D1" points="2.621,282.125 10.657,293.193 9.937,293.193 2.621,283.116 		"/>
		<polygon clip-path="url(#SVGID_6_)" fill="#1AA7D1" points="2.621,281.133 11.377,293.193 10.657,293.193 2.621,282.125 		"/>
		<polygon clip-path="url(#SVGID_6_)" fill="#1DA6D0" points="2.621,280.142 12.014,293.079 11.87,293.193 11.377,293.193 
			2.621,281.133 		"/>
		<polygon clip-path="url(#SVGID_6_)" fill="#20A4CF" points="2.621,279.15 12.471,292.717 12.014,293.079 2.621,280.142 		"/>
		<polygon clip-path="url(#SVGID_6_)" fill="#22A3CE" points="2.621,278.159 12.929,292.355 12.471,292.717 2.621,279.15 		"/>
		<polygon clip-path="url(#SVGID_6_)" fill="#26A3CE" points="2.621,277.167 13.386,291.994 12.929,292.355 2.621,278.159 		"/>
		<polygon clip-path="url(#SVGID_6_)" fill="#29A2CD" points="2.621,276.176 13.843,291.632 13.386,291.994 2.621,277.167 		"/>
		<polygon clip-path="url(#SVGID_6_)" fill="#2AA1CD" points="2.621,275.184 14.301,291.27 13.843,291.632 2.621,276.176 		"/>
		<polygon clip-path="url(#SVGID_6_)" fill="#2CA0CC" points="2.621,274.193 14.758,290.909 14.301,291.27 2.621,275.184 		"/>
		<polygon clip-path="url(#SVGID_6_)" fill="#2E9FCB" points="2.621,273.201 15.215,290.547 14.758,290.909 2.621,274.193 		"/>
		<polygon clip-path="url(#SVGID_6_)" fill="#319FCB" points="2.621,272.21 15.673,290.186 15.215,290.547 2.621,273.201 		"/>
		<polygon clip-path="url(#SVGID_6_)" fill="#329ECA" points="2.621,271.218 16.13,289.824 15.673,290.186 2.621,272.21 		"/>
		<polygon clip-path="url(#SVGID_6_)" fill="#349DCA" points="2.621,270.227 16.588,289.462 16.13,289.824 2.621,271.218 		"/>
		<polygon clip-path="url(#SVGID_6_)" fill="#359CC9" points="2.621,269.235 17.045,289.101 16.588,289.462 2.621,270.227 		"/>
		<polygon clip-path="url(#SVGID_6_)" fill="#379AC8" points="2.621,268.244 17.502,288.739 17.045,289.101 2.621,269.235 		"/>
		<polygon clip-path="url(#SVGID_6_)" fill="#399AC8" points="2.621,267.252 17.96,288.378 17.502,288.739 2.621,268.244 		"/>
		<polygon clip-path="url(#SVGID_6_)" fill="#3B99C7" points="2.621,266.261 18.417,288.016 17.96,288.378 2.621,267.252 		"/>
		<polygon clip-path="url(#SVGID_6_)" fill="#3C98C7" points="2.621,265.305 2.637,265.292 18.874,287.654 18.417,288.016 
			2.621,266.261 		"/>
		<polygon clip-path="url(#SVGID_6_)" fill="#3D97C6" points="2.637,265.292 3.095,264.93 19.332,287.293 18.874,287.654 		"/>
		<polygon clip-path="url(#SVGID_6_)" fill="#3E96C6" points="3.095,264.93 3.552,264.569 19.789,286.931 19.332,287.293 		"/>
		<polygon clip-path="url(#SVGID_6_)" fill="#4096C5" points="3.552,264.569 4.009,264.207 20.246,286.569 19.789,286.931 		"/>
		<polygon clip-path="url(#SVGID_6_)" fill="#4294C4" points="4.009,264.207 4.467,263.846 20.704,286.208 20.246,286.569 		"/>
		<polygon clip-path="url(#SVGID_6_)" fill="#4393C3" points="4.467,263.846 4.924,263.484 21.161,285.846 20.704,286.208 		"/>
		<polygon clip-path="url(#SVGID_6_)" fill="#4393C3" points="4.924,263.484 5.381,263.122 21.618,285.485 21.161,285.846 		"/>
		<polygon clip-path="url(#SVGID_6_)" fill="#4492C2" points="5.381,263.122 5.839,262.761 22.076,285.123 21.618,285.485 		"/>
		<polygon clip-path="url(#SVGID_6_)" fill="#4791C1" points="5.839,262.761 6.296,262.399 22.533,284.761 22.076,285.123 		"/>
		<polygon clip-path="url(#SVGID_6_)" fill="#4790C1" points="6.296,262.399 6.753,262.038 22.99,284.4 22.533,284.761 		"/>
		<polygon clip-path="url(#SVGID_6_)" fill="#488FC0" points="6.753,262.038 7.211,261.676 23.448,284.038 22.99,284.4 		"/>
		<polygon clip-path="url(#SVGID_6_)" fill="#498EC0" points="7.211,261.676 7.668,261.314 23.905,283.677 23.448,284.038 		"/>
		<polygon clip-path="url(#SVGID_6_)" fill="#498EBF" points="7.668,261.314 8.125,260.953 24.362,283.315 23.905,283.677 		"/>
		<polygon clip-path="url(#SVGID_6_)" fill="#4B8DBF" points="8.125,260.953 8.583,260.591 24.82,282.953 24.362,283.315 		"/>
		<polygon clip-path="url(#SVGID_6_)" fill="#4C8CBE" points="8.583,260.591 9.04,260.23 25.277,282.592 24.82,282.953 		"/>
		<polygon clip-path="url(#SVGID_6_)" fill="#4D8BBE" points="9.04,260.23 9.497,259.868 25.734,282.23 25.277,282.592 		"/>
		<polygon clip-path="url(#SVGID_6_)" fill="#4D8ABD" points="9.497,259.868 9.955,259.506 26.192,281.869 25.734,282.23 		"/>
		<polygon clip-path="url(#SVGID_6_)" fill="#4E8ABC" points="9.955,259.506 10.412,259.145 26.649,281.507 26.192,281.869 		"/>
		<polygon clip-path="url(#SVGID_6_)" fill="#5089BC" points="10.412,259.145 10.869,258.783 27.106,281.145 26.649,281.507 		"/>
		<polygon clip-path="url(#SVGID_6_)" fill="#5188BB" points="10.869,258.783 11.327,258.421 27.564,280.784 27.106,281.145 		"/>
		<polygon clip-path="url(#SVGID_6_)" fill="#5187BA" points="11.327,258.421 11.784,258.06 28.021,280.422 27.564,280.784 		"/>
		<polygon clip-path="url(#SVGID_6_)" fill="#5286BA" points="11.784,258.06 12.241,257.698 28.478,280.061 28.021,280.422 		"/>
		<polygon clip-path="url(#SVGID_6_)" fill="#5285B9" points="12.241,257.698 12.699,257.337 28.936,279.699 28.478,280.061 		"/>
		<polygon clip-path="url(#SVGID_6_)" fill="#5485B9" points="12.699,257.337 13.156,256.975 29.393,279.337 28.936,279.699 		"/>
		<polygon clip-path="url(#SVGID_6_)" fill="#5584B8" points="13.156,256.975 13.613,256.613 29.851,278.976 29.393,279.337 		"/>
		<polygon clip-path="url(#SVGID_6_)" fill="#5583B8" points="13.613,256.613 14.071,256.252 30.308,278.614 29.851,278.976 		"/>
		<polygon clip-path="url(#SVGID_6_)" fill="#5682B7" points="14.071,256.252 14.528,255.89 30.765,278.252 30.308,278.614 		"/>
		<polygon clip-path="url(#SVGID_6_)" fill="#5681B7" points="14.528,255.89 14.986,255.529 31.223,277.891 30.765,278.252 		"/>
		<polygon clip-path="url(#SVGID_6_)" fill="#5881B6" points="14.986,255.529 15.443,255.167 31.68,277.529 31.223,277.891 		"/>
		<polygon clip-path="url(#SVGID_6_)" fill="#5880B6" points="15.443,255.167 15.9,254.805 32.137,277.168 31.68,277.529 		"/>
		<polygon clip-path="url(#SVGID_6_)" fill="#5880B5" points="15.9,254.805 16.358,254.444 32.595,276.806 32.137,277.168 		"/>
		<polygon clip-path="url(#SVGID_6_)" fill="#597FB5" points="16.358,254.444 16.815,254.082 33.052,276.444 32.595,276.806 		"/>
		<polygon clip-path="url(#SVGID_6_)" fill="#597EB4" points="16.815,254.082 17.272,253.721 33.509,276.083 33.052,276.444 		"/>
		<polygon clip-path="url(#SVGID_6_)" fill="#5A7EB4" points="17.272,253.721 17.73,253.359 33.967,275.721 33.509,276.083 		"/>
		<polygon clip-path="url(#SVGID_6_)" fill="#5B7DB3" points="17.73,253.359 18.187,252.997 34.424,275.36 33.967,275.721 		"/>
		<polygon clip-path="url(#SVGID_6_)" fill="#5B7DB3" points="18.187,252.997 18.644,252.636 34.881,274.998 34.424,275.36 		"/>
		<polygon clip-path="url(#SVGID_6_)" fill="#5C7BB2" points="18.644,252.636 19.102,252.274 35.339,274.636 34.881,274.998 		"/>
		<polygon clip-path="url(#SVGID_6_)" fill="#5C7BB2" points="19.102,252.274 19.559,251.912 35.796,274.275 35.339,274.636 		"/>
		<polygon clip-path="url(#SVGID_6_)" fill="#5D7AB1" points="19.559,251.912 20.016,251.551 36.253,273.913 35.796,274.275 		"/>
		<polygon clip-path="url(#SVGID_6_)" fill="#5D79B1" points="20.016,251.551 20.474,251.189 36.711,273.552 36.253,273.913 		"/>
		<polygon clip-path="url(#SVGID_6_)" fill="#5E79B0" points="20.474,251.189 20.931,250.828 37.168,273.19 36.711,273.552 		"/>
		<polygon clip-path="url(#SVGID_6_)" fill="#5F78B0" points="20.931,250.828 21.388,250.466 37.625,272.828 37.168,273.19 		"/>
		<polygon clip-path="url(#SVGID_6_)" fill="#5F77AF" points="21.388,250.466 21.846,250.104 38.083,272.467 37.625,272.828 		"/>
		<polygon clip-path="url(#SVGID_6_)" fill="#5F76AF" points="21.846,250.104 22.303,249.743 38.54,272.105 38.083,272.467 		"/>
		<polygon clip-path="url(#SVGID_6_)" fill="#6076AE" points="22.303,249.743 22.76,249.381 38.997,271.743 38.54,272.105 		"/>
		<polygon clip-path="url(#SVGID_6_)" fill="#6075AE" points="22.76,249.381 23.218,249.02 39.455,271.382 38.997,271.743 		"/>
		<polygon clip-path="url(#SVGID_6_)" fill="#6175AD" points="23.218,249.02 23.675,248.658 39.912,271.02 39.455,271.382 		"/>
		<polygon clip-path="url(#SVGID_6_)" fill="#6274AD" points="23.675,248.658 24.132,248.296 40.369,270.659 39.912,271.02 		"/>
		<polygon clip-path="url(#SVGID_6_)" fill="#6273AC" points="24.132,248.296 24.59,247.935 40.827,270.297 40.369,270.659 		"/>
		<polygon clip-path="url(#SVGID_6_)" fill="#6273AD" points="24.59,247.935 25.047,247.573 41.284,269.935 40.827,270.297 		"/>
		<polygon clip-path="url(#SVGID_6_)" fill="#6271AC" points="25.047,247.573 25.504,247.212 41.742,269.574 41.284,269.935 		"/>
		<polygon clip-path="url(#SVGID_6_)" fill="#6371AC" points="25.504,247.212 25.962,246.85 42.199,269.212 41.742,269.574 		"/>
		<polygon clip-path="url(#SVGID_6_)" fill="#6471AB" points="25.962,246.85 26.419,246.488 42.656,268.851 42.199,269.212 		"/>
		<polygon clip-path="url(#SVGID_6_)" fill="#6470AA" points="26.419,246.488 26.877,246.127 43.114,268.489 42.656,268.851 		"/>
		<polygon clip-path="url(#SVGID_6_)" fill="#646FAA" points="26.877,246.127 27.334,245.765 43.571,268.127 43.114,268.489 		"/>
		<polygon clip-path="url(#SVGID_6_)" fill="#656EAA" points="27.334,245.765 27.791,245.404 44.028,267.766 43.571,268.127 		"/>
		<polygon clip-path="url(#SVGID_6_)" fill="#656DA9" points="27.791,245.404 28.249,245.042 44.486,267.404 44.028,267.766 		"/>
		<polygon clip-path="url(#SVGID_6_)" fill="#656DA9" points="28.249,245.042 28.706,244.68 44.943,267.043 44.486,267.404 		"/>
		<polygon clip-path="url(#SVGID_6_)" fill="#666DA8" points="28.706,244.68 29.163,244.319 45.4,266.681 44.943,267.043 		"/>
		<polygon clip-path="url(#SVGID_6_)" fill="#676BA8" points="29.163,244.319 29.621,243.957 45.858,266.319 45.4,266.681 		"/>
		<polygon clip-path="url(#SVGID_6_)" fill="#676BA7" points="29.621,243.957 30.078,243.595 46.315,265.958 45.858,266.319 		"/>
		<polygon clip-path="url(#SVGID_6_)" fill="#676AA7" points="30.078,243.595 30.535,243.234 46.772,265.596 46.315,265.958 		"/>
		<polygon clip-path="url(#SVGID_6_)" fill="#676AA7" points="30.535,243.234 30.993,242.872 47.23,265.234 46.772,265.596 		"/>
		<polygon clip-path="url(#SVGID_6_)" fill="#6769A7" points="30.993,242.872 31.45,242.511 47.687,264.873 47.23,265.234 		"/>
		<polygon clip-path="url(#SVGID_6_)" fill="#6868A6" points="31.45,242.511 31.907,242.149 48.144,264.511 47.687,264.873 		"/>
		<polygon clip-path="url(#SVGID_6_)" fill="#6968A6" points="31.907,242.149 32.365,241.787 48.602,264.15 48.144,264.511 		"/>
		<polygon clip-path="url(#SVGID_6_)" fill="#6967A6" points="32.365,241.787 32.822,241.426 49.059,263.788 48.602,264.15 		"/>
		<polygon clip-path="url(#SVGID_6_)" fill="#6966A5" points="32.822,241.426 33.279,241.064 49.516,263.426 49.059,263.788 		"/>
		<polygon clip-path="url(#SVGID_6_)" fill="#6966A5" points="33.279,241.064 33.737,240.703 49.974,263.065 49.516,263.426 		"/>
		<polygon clip-path="url(#SVGID_6_)" fill="#6A65A4" points="33.737,240.703 34.194,240.341 50.431,262.703 49.974,263.065 		"/>
		<polygon clip-path="url(#SVGID_6_)" fill="#6A65A4" points="34.194,240.341 34.651,239.979 50.888,262.342 50.431,262.703 		"/>
		<polygon clip-path="url(#SVGID_6_)" fill="#6B64A4" points="34.651,239.979 35.109,239.618 51.346,261.98 50.888,262.342 		"/>
		<polygon clip-path="url(#SVGID_6_)" fill="#6B63A3" points="35.109,239.618 35.566,239.256 51.803,261.618 51.346,261.98 		"/>
		<polygon clip-path="url(#SVGID_6_)" fill="#6B63A3" points="35.566,239.256 36.023,238.895 52.26,261.257 51.803,261.618 		"/>
		<polygon clip-path="url(#SVGID_6_)" fill="#6C62A2" points="36.023,238.895 36.481,238.533 52.718,260.895 52.26,261.257 		"/>
		<polygon clip-path="url(#SVGID_6_)" fill="#6C61A2" points="36.481,238.533 36.938,238.171 53.175,260.534 52.718,260.895 		"/>
		<polygon clip-path="url(#SVGID_6_)" fill="#6C61A2" points="36.938,238.171 37.395,237.81 53.632,260.172 53.175,260.534 		"/>
		<polygon clip-path="url(#SVGID_6_)" fill="#6C60A1" points="37.395,237.81 37.853,237.448 54.09,259.81 53.632,260.172 		"/>
		<polygon clip-path="url(#SVGID_6_)" fill="#6C5FA1" points="37.853,237.448 38.31,237.086 54.547,259.449 54.09,259.81 		"/>
		<polygon clip-path="url(#SVGID_6_)" fill="#6D5FA1" points="38.31,237.086 38.767,236.725 55.005,259.087 54.547,259.449 		"/>
		<polygon clip-path="url(#SVGID_6_)" fill="#6D5EA0" points="38.767,236.725 39.225,236.363 55.462,258.725 55.005,259.087 		"/>
		<polygon clip-path="url(#SVGID_6_)" fill="#6E5EA0" points="39.225,236.363 39.682,236.002 55.919,258.364 55.462,258.725 		"/>
		<polygon clip-path="url(#SVGID_6_)" fill="#6E5DA0" points="39.682,236.002 40.139,235.64 56.377,258.002 55.919,258.364 		"/>
		<polygon clip-path="url(#SVGID_6_)" fill="#6E5C9F" points="40.139,235.64 40.597,235.278 56.834,257.641 56.377,258.002 		"/>
		<polygon clip-path="url(#SVGID_6_)" fill="#6E5C9F" points="40.597,235.278 41.054,234.917 57.291,257.279 56.834,257.641 		"/>
		<polygon clip-path="url(#SVGID_6_)" fill="#6E5B9F" points="41.054,234.917 41.512,234.555 57.749,256.917 57.291,257.279 		"/>
		<polygon clip-path="url(#SVGID_6_)" fill="#6F5B9E" points="41.512,234.555 41.969,234.194 58.206,256.556 57.749,256.917 		"/>
		<polygon clip-path="url(#SVGID_6_)" fill="#6F599E" points="41.969,234.194 42.426,233.832 58.663,256.194 58.206,256.556 		"/>
		<polygon clip-path="url(#SVGID_6_)" fill="#6F599D" points="42.426,233.832 42.884,233.47 59.121,255.833 58.663,256.194 		"/>
		<polygon clip-path="url(#SVGID_6_)" fill="#70589D" points="42.884,233.47 43.341,233.109 59.578,255.471 59.121,255.833 		"/>
		<polygon clip-path="url(#SVGID_6_)" fill="#70589C" points="43.341,233.109 43.798,232.747 60.035,255.109 59.578,255.471 		"/>
		<polygon clip-path="url(#SVGID_6_)" fill="#70579C" points="43.798,232.747 44.256,232.385 60.493,254.748 60.035,255.109 		"/>
		<polygon clip-path="url(#SVGID_6_)" fill="#70569C" points="44.256,232.385 44.713,232.024 60.95,254.386 60.493,254.748 		"/>
		<polygon clip-path="url(#SVGID_6_)" fill="#70569B" points="44.713,232.024 45.17,231.662 61.407,254.025 60.95,254.386 		"/>
		<polygon clip-path="url(#SVGID_6_)" fill="#71559B" points="45.17,231.662 45.628,231.301 61.865,253.663 61.407,254.025 		"/>
		<polygon clip-path="url(#SVGID_6_)" fill="#71559B" points="45.628,231.301 46.085,230.939 62.322,253.301 61.865,253.663 		"/>
		<polygon clip-path="url(#SVGID_6_)" fill="#71549B" points="46.085,230.939 46.542,230.577 62.779,252.94 62.322,253.301 		"/>
		<polygon clip-path="url(#SVGID_6_)" fill="#72539B" points="46.542,230.577 47,230.216 63.237,252.578 62.779,252.94 		"/>
		<polygon clip-path="url(#SVGID_6_)" fill="#72539A" points="47,230.216 47.457,229.854 63.694,252.216 63.237,252.578 		"/>
		<polygon clip-path="url(#SVGID_6_)" fill="#72529A" points="47.457,229.854 47.914,229.493 64.151,251.855 63.694,252.216 		"/>
		<polygon clip-path="url(#SVGID_6_)" fill="#72529A" points="47.914,229.493 48.372,229.131 64.609,251.493 64.151,251.855 		"/>
		<polygon clip-path="url(#SVGID_6_)" fill="#725199" points="48.372,229.131 48.829,228.769 65.066,251.132 64.609,251.493 		"/>
		<polygon clip-path="url(#SVGID_6_)" fill="#725099" points="48.829,228.769 49.286,228.408 65.523,250.77 65.066,251.132 		"/>
		<polygon clip-path="url(#SVGID_6_)" fill="#735099" points="49.286,228.408 49.744,228.046 65.981,250.408 65.523,250.77 		"/>
		<polygon clip-path="url(#SVGID_6_)" fill="#734F98" points="49.744,228.046 50.201,227.685 66.438,250.047 65.981,250.408 		"/>
		<polygon clip-path="url(#SVGID_6_)" fill="#734F98" points="50.201,227.685 50.658,227.323 66.895,249.685 66.438,250.047 		"/>
		<polygon clip-path="url(#SVGID_6_)" fill="#734E98" points="50.658,227.323 51.116,226.961 67.353,249.324 66.895,249.685 		"/>
		<polygon clip-path="url(#SVGID_6_)" fill="#744E98" points="51.116,226.961 51.573,226.6 67.81,248.962 67.353,249.324 		"/>
		<polygon clip-path="url(#SVGID_6_)" fill="#744D97" points="51.573,226.6 52.03,226.238 68.267,248.6 67.81,248.962 		"/>
		<polygon clip-path="url(#SVGID_6_)" fill="#744C97" points="52.03,226.238 52.488,225.877 68.725,248.239 68.267,248.6 		"/>
		<polygon clip-path="url(#SVGID_6_)" fill="#744C97" points="52.488,225.877 52.945,225.515 69.182,247.877 68.725,248.239 		"/>
		<polygon clip-path="url(#SVGID_6_)" fill="#744B96" points="52.945,225.515 53.402,225.153 69.64,247.516 69.182,247.877 		"/>
		<polygon clip-path="url(#SVGID_6_)" fill="#754A96" points="53.402,225.153 53.86,224.792 70.097,247.154 69.64,247.516 		"/>
		<polygon clip-path="url(#SVGID_6_)" fill="#754A96" points="53.86,224.792 54.317,224.43 70.554,246.792 70.097,247.154 		"/>
		<polygon clip-path="url(#SVGID_6_)" fill="#754A96" points="54.317,224.43 54.774,224.068 71.012,246.431 70.554,246.792 		"/>
		<polygon clip-path="url(#SVGID_6_)" fill="#754995" points="54.774,224.068 55.232,223.707 71.469,246.069 71.012,246.431 		"/>
		<polygon clip-path="url(#SVGID_6_)" fill="#754895" points="55.232,223.707 55.689,223.345 71.926,245.708 71.469,246.069 		"/>
		<polygon clip-path="url(#SVGID_6_)" fill="#754895" points="55.689,223.345 56.147,222.984 72.384,245.346 71.926,245.708 		"/>
		<polygon clip-path="url(#SVGID_6_)" fill="#754795" points="56.147,222.984 56.604,222.622 72.841,244.984 72.384,245.346 		"/>
		<polygon clip-path="url(#SVGID_6_)" fill="#754795" points="56.604,222.622 57.061,222.26 73.298,244.623 72.841,244.984 		"/>
		<polygon clip-path="url(#SVGID_6_)" fill="#754694" points="57.061,222.26 57.519,221.899 73.756,244.261 73.298,244.623 		"/>
		<polygon clip-path="url(#SVGID_6_)" fill="#764694" points="57.519,221.899 57.976,221.537 74.213,243.899 73.756,244.261 		"/>
		<polygon clip-path="url(#SVGID_6_)" fill="#764594" points="57.976,221.537 58.433,221.176 74.67,243.538 74.213,243.899 		"/>
		<polygon clip-path="url(#SVGID_6_)" fill="#774493" points="58.433,221.176 58.891,220.814 75.128,243.176 74.67,243.538 		"/>
		<polygon clip-path="url(#SVGID_6_)" fill="#774493" points="58.891,220.814 59.348,220.452 75.585,242.815 75.128,243.176 		"/>
		<polygon clip-path="url(#SVGID_6_)" fill="#774393" points="59.348,220.452 59.805,220.091 76.042,242.453 75.585,242.815 		"/>
		<polygon clip-path="url(#SVGID_6_)" fill="#774393" points="59.805,220.091 60.263,219.729 76.5,242.091 76.042,242.453 		"/>
		<polygon clip-path="url(#SVGID_6_)" fill="#774292" points="60.263,219.729 60.72,219.368 76.957,241.73 76.5,242.091 		"/>
		<polygon clip-path="url(#SVGID_6_)" fill="#774292" points="60.72,219.368 61.177,219.006 77.414,241.368 76.957,241.73 		"/>
		<polygon clip-path="url(#SVGID_6_)" fill="#774192" points="61.177,219.006 61.635,218.644 77.872,241.007 77.414,241.368 		"/>
		<polygon clip-path="url(#SVGID_6_)" fill="#774192" points="61.635,218.644 62.092,218.283 78.329,240.645 77.872,241.007 		"/>
		<polygon clip-path="url(#SVGID_6_)" fill="#774192" points="62.092,218.283 62.549,217.921 78.786,240.283 78.329,240.645 		"/>
		<polygon clip-path="url(#SVGID_6_)" fill="#774091" points="62.549,217.921 63.007,217.559 79.244,239.922 78.786,240.283 		"/>
		<polygon clip-path="url(#SVGID_6_)" fill="#773F91" points="63.007,217.559 63.464,217.198 79.701,239.56 79.244,239.922 		"/>
		<polygon clip-path="url(#SVGID_6_)" fill="#783E91" points="63.464,217.198 63.921,216.836 80.158,239.199 79.701,239.56 		"/>
		<polygon clip-path="url(#SVGID_6_)" fill="#783E91" points="63.921,216.836 64.379,216.475 80.616,238.837 80.158,239.199 		"/>
		<polygon clip-path="url(#SVGID_6_)" fill="#783E90" points="64.379,216.475 64.836,216.113 81.073,238.475 80.616,238.837 		"/>
		<polygon clip-path="url(#SVGID_6_)" fill="#783D90" points="64.836,216.113 65.293,215.751 81.53,238.114 81.073,238.475 		"/>
		<polygon clip-path="url(#SVGID_6_)" fill="#783D90" points="65.293,215.751 65.751,215.39 81.988,237.752 81.53,238.114 		"/>
		<polygon clip-path="url(#SVGID_6_)" fill="#783C90" points="65.751,215.39 66.208,215.028 82.445,237.39 81.988,237.752 		"/>
		<polygon clip-path="url(#SVGID_6_)" fill="#783C90" points="66.208,215.028 66.666,214.667 82.902,237.029 82.445,237.39 		"/>
		<polygon clip-path="url(#SVGID_6_)" fill="#793B8F" points="66.666,214.667 67.123,214.305 83.36,236.667 82.902,237.029 		"/>
		<polygon clip-path="url(#SVGID_6_)" fill="#793B8F" points="67.123,214.305 67.58,213.943 83.817,236.306 83.36,236.667 		"/>
		<polygon clip-path="url(#SVGID_6_)" fill="#793B8F" points="67.58,213.943 68.038,213.582 84.275,235.944 83.817,236.306 		"/>
		<polygon clip-path="url(#SVGID_6_)" fill="#793A8F" points="68.038,213.582 68.495,213.22 84.732,235.582 84.275,235.944 		"/>
		<polygon clip-path="url(#SVGID_6_)" fill="#793A8F" points="68.495,213.22 68.952,212.859 85.189,235.221 84.732,235.582 		"/>
		<polygon clip-path="url(#SVGID_6_)" fill="#79398F" points="68.952,212.859 69.41,212.497 85.647,234.859 85.189,235.221 		"/>
		<polygon clip-path="url(#SVGID_6_)" fill="#79388F" points="69.41,212.497 69.867,212.135 86.104,234.498 85.647,234.859 		"/>
		<polygon clip-path="url(#SVGID_6_)" fill="#7A388F" points="69.867,212.135 70.324,211.774 86.561,234.136 86.104,234.498 		"/>
		<polygon clip-path="url(#SVGID_6_)" fill="#7A378E" points="70.324,211.774 70.782,211.412 87.019,233.774 86.561,234.136 		"/>
		<polygon clip-path="url(#SVGID_6_)" fill="#7A378E" points="70.782,211.412 71.239,211.051 87.476,233.413 87.019,233.774 		"/>
		<polygon clip-path="url(#SVGID_6_)" fill="#7A368E" points="71.239,211.051 71.696,210.689 87.933,233.051 87.476,233.413 		"/>
		<polygon clip-path="url(#SVGID_6_)" fill="#7A368E" points="71.696,210.689 72.154,210.327 88.391,232.69 87.933,233.051 		"/>
		<polygon clip-path="url(#SVGID_6_)" fill="#7A368E" points="72.154,210.327 72.611,209.966 88.848,232.328 88.391,232.69 		"/>
		<polygon clip-path="url(#SVGID_6_)" fill="#7A368E" points="72.611,209.966 73.068,209.604 89.305,231.966 88.848,232.328 		"/>
		<polygon clip-path="url(#SVGID_6_)" fill="#7A358D" points="73.068,209.604 73.526,209.242 89.763,231.605 89.305,231.966 		"/>
		<polygon clip-path="url(#SVGID_6_)" fill="#7A358D" points="73.526,209.242 73.983,208.881 90.22,231.243 89.763,231.605 		"/>
		<polygon clip-path="url(#SVGID_6_)" fill="#7A348D" points="73.983,208.881 74.44,208.519 90.677,230.882 90.22,231.243 		"/>
		<polygon clip-path="url(#SVGID_6_)" fill="#7A348D" points="74.44,208.519 74.898,208.158 91.135,230.52 90.677,230.882 		"/>
		<polygon clip-path="url(#SVGID_6_)" fill="#7A338D" points="74.898,208.158 75.355,207.796 91.592,230.158 91.135,230.52 		"/>
		<polygon clip-path="url(#SVGID_6_)" fill="#7A338D" points="75.355,207.796 75.812,207.434 92.049,229.797 91.592,230.158 		"/>
		<polygon clip-path="url(#SVGID_6_)" fill="#7A328C" points="75.812,207.434 76.27,207.073 92.507,229.435 92.049,229.797 		"/>
		<polygon clip-path="url(#SVGID_6_)" fill="#7A328C" points="76.27,207.073 76.727,206.711 92.964,229.073 92.507,229.435 		"/>
		<polygon clip-path="url(#SVGID_6_)" fill="#7A328C" points="76.727,206.711 77.184,206.35 93.421,228.712 92.964,229.073 		"/>
		<polygon clip-path="url(#SVGID_6_)" fill="#7A318C" points="77.184,206.35 77.642,205.988 93.879,228.35 93.421,228.712 		"/>
		<polygon clip-path="url(#SVGID_6_)" fill="#7B318C" points="77.642,205.988 78.099,205.626 94.336,227.989 93.879,228.35 		"/>
		<polygon clip-path="url(#SVGID_6_)" fill="#7B308C" points="78.099,205.626 78.556,205.265 94.794,227.627 94.336,227.989 		"/>
		<polygon clip-path="url(#SVGID_6_)" fill="#7B308C" points="78.556,205.265 79.014,204.903 95.251,227.265 94.794,227.627 		"/>
		<polygon clip-path="url(#SVGID_6_)" fill="#7B308C" points="79.014,204.903 79.471,204.542 95.708,226.904 95.251,227.265 		"/>
		<polygon clip-path="url(#SVGID_6_)" fill="#7B308B" points="79.471,204.542 79.928,204.18 96.166,226.542 95.708,226.904 		"/>
		<polygon clip-path="url(#SVGID_6_)" fill="#7B308B" points="79.928,204.18 80.386,203.818 96.623,226.18 96.166,226.542 		"/>
		<polygon clip-path="url(#SVGID_6_)" fill="#7B308B" points="80.386,203.818 80.843,203.457 97.08,225.819 96.623,226.18 		"/>
		<polygon clip-path="url(#SVGID_6_)" fill="#7B2F8B" points="80.843,203.457 81.301,203.095 97.538,225.457 97.08,225.819 		"/>
		<polygon clip-path="url(#SVGID_6_)" fill="#7B2F8B" points="81.301,203.095 81.758,202.733 97.995,225.096 97.538,225.457 		"/>
		<polygon clip-path="url(#SVGID_6_)" fill="#7B2F8B" points="81.758,202.733 82.215,202.372 98.452,224.734 97.995,225.096 		"/>
		<polygon clip-path="url(#SVGID_6_)" fill="#7B2E8B" points="82.215,202.372 82.673,202.01 98.91,224.372 98.452,224.734 		"/>
		<polygon clip-path="url(#SVGID_6_)" fill="#7B2E8B" points="82.673,202.01 83.13,201.649 99.367,224.011 98.91,224.372 		"/>
		<polygon clip-path="url(#SVGID_6_)" fill="#7B2E8B" points="83.13,201.649 83.587,201.287 99.824,223.649 99.367,224.011 		"/>
		<polygon clip-path="url(#SVGID_6_)" fill="#7B2D8A" points="83.587,201.287 84.045,200.925 100.282,223.288 99.824,223.649 		"/>
		<polygon clip-path="url(#SVGID_6_)" fill="#7B2D8A" points="84.045,200.925 84.502,200.564 100.739,222.926 100.282,223.288 		"/>
		<polygon clip-path="url(#SVGID_6_)" fill="#7B2D8A" points="84.502,200.564 84.959,200.202 101.196,222.564 100.739,222.926 		"/>
		<polygon clip-path="url(#SVGID_6_)" fill="#7B2D8A" points="84.959,200.202 85.417,199.841 101.618,222.153 101.618,222.231 
			101.196,222.564 		"/>
		<polygon clip-path="url(#SVGID_6_)" fill="#7B2C8A" points="85.417,199.841 85.874,199.479 101.618,221.162 101.618,222.153 		"/>
		<polygon clip-path="url(#SVGID_6_)" fill="#7B2C8A" points="85.874,199.479 86.331,199.117 101.618,220.17 101.618,221.162 		"/>
		<polygon clip-path="url(#SVGID_6_)" fill="#7B2C8A" points="86.331,199.117 86.789,198.756 101.618,219.179 101.618,220.17 		"/>
		<polygon clip-path="url(#SVGID_6_)" fill="#7B2C8A" points="86.789,198.756 87.246,198.394 101.618,218.187 101.618,219.179 		"/>
		<polygon clip-path="url(#SVGID_6_)" fill="#7B2B8A" points="87.246,198.394 87.703,198.032 101.618,217.196 101.618,218.187 		"/>
		<polygon clip-path="url(#SVGID_6_)" fill="#7B2B8A" points="87.703,198.032 88.161,197.671 101.618,216.204 101.618,217.196 		"/>
		<polygon clip-path="url(#SVGID_6_)" fill="#7B2B8A" points="88.161,197.671 88.618,197.309 101.618,215.213 101.618,216.204 		"/>
		<polygon clip-path="url(#SVGID_6_)" fill="#7B2B8A" points="88.618,197.309 89.075,196.948 101.618,214.221 101.618,215.213 		"/>
		<polygon clip-path="url(#SVGID_6_)" fill="#7B2B8A" points="89.075,196.948 89.533,196.586 101.618,213.23 101.618,214.221 		"/>
		<polygon clip-path="url(#SVGID_6_)" fill="#7B2B8A" points="89.533,196.586 89.99,196.224 101.618,212.238 101.618,213.23 		"/>
		<polygon clip-path="url(#SVGID_6_)" fill="#7C2A8A" points="89.99,196.224 90.447,195.863 101.618,211.247 101.618,212.238 		"/>
		<polygon clip-path="url(#SVGID_6_)" fill="#7C2A8A" points="90.447,195.863 90.905,195.501 101.618,210.256 101.618,211.247 		"/>
		<polygon clip-path="url(#SVGID_6_)" fill="#7C2A8A" points="90.905,195.501 91.362,195.14 101.618,209.264 101.618,210.256 		"/>
		<polygon clip-path="url(#SVGID_6_)" fill="#7C2A8A" points="91.362,195.14 91.819,194.778 101.618,208.273 101.618,209.264 		"/>
		<polygon clip-path="url(#SVGID_6_)" fill="#7C2A8A" points="91.819,194.778 92.277,194.416 101.618,207.281 101.618,208.273 		"/>
		<polygon clip-path="url(#SVGID_6_)" fill="#7C2A8A" points="92.277,194.416 92.369,194.344 92.944,194.344 101.618,206.29 
			101.618,207.281 		"/>
		<polygon clip-path="url(#SVGID_6_)" fill="#7C2A8A" points="93.664,194.344 101.618,205.298 101.618,206.29 92.944,194.344 		"/>
		<polygon clip-path="url(#SVGID_6_)" fill="#7C2A8A" points="94.384,194.344 101.618,204.307 101.618,205.298 93.664,194.344 		"/>
		<polygon clip-path="url(#SVGID_6_)" fill="#7C2A8A" points="95.104,194.344 101.618,203.315 101.618,204.307 94.384,194.344 		"/>
		<polygon clip-path="url(#SVGID_6_)" fill="#7C2A8A" points="95.823,194.344 101.618,202.324 101.618,203.315 95.104,194.344 		"/>
		<polygon clip-path="url(#SVGID_6_)" fill="#7C2A8A" points="96.543,194.344 101.618,201.332 101.618,202.324 95.823,194.344 		"/>
		<polygon clip-path="url(#SVGID_6_)" fill="#7C2A8A" points="97.263,194.344 101.618,200.341 101.618,201.332 96.543,194.344 		"/>
		<polygon clip-path="url(#SVGID_6_)" fill="#7C2A8A" points="97.983,194.344 101.618,199.349 101.618,200.341 97.263,194.344 		"/>
		<polygon clip-path="url(#SVGID_6_)" fill="#7C2A8A" points="101.618,199.349 97.983,194.344 101.618,194.344 		"/>
	</g>
</g>
<g>
	<path fill="#F5D852" d="M88.447,130.651L16.03,202.945c-2.127,2.123-5.572,2.12-7.695-0.007h0c-2.123-2.127-2.12-5.572,0.007-7.695
		l72.417-72.294c2.127-2.123,5.572-2.12,7.695,0.007l0,0C90.577,125.083,90.574,128.528,88.447,130.651z"/>
</g>
</svg>
