<?xml version="1.0" encoding="utf-8"?>
<!-- Generator: Adobe Illustrator 17.0.0, SVG Export Plug-In . SVG Version: 6.00 Build 0)  -->
<!DOCTYPE svg PUBLIC "-//W3C//DTD SVG 1.1//EN" "http://www.w3.org/Graphics/SVG/1.1/DTD/svg11.dtd">
<svg version="1.1" id="rounded_gradient_lines" xmlns="http://www.w3.org/2000/svg" xmlns:xlink="http://www.w3.org/1999/xlink"
	 x="0px" y="0px" width="300px" height="300px" viewBox="0 0 300 300" enable-background="new 0 0 300 300" xml:space="preserve">
<g>
	
		<rect x="208.723" y="-22.947" transform="matrix(-0.7071 -0.7072 0.7072 -0.7071 303.8481 275.2909)" fill="#319BB7" width="0.443" height="195.314"/>
</g>
<g>
	
		<rect x="187.837" y="48.273" transform="matrix(-0.7071 -0.7072 0.7072 -0.7071 217.8306 382.0972)" fill="#319BB7" width="0.443" height="195.314"/>
</g>
<g>
	
		<rect x="120.507" y="264.918" transform="matrix(-0.7071 -0.7072 0.7072 -0.7071 6.552 567.0553)" fill="#319BB7" width="0.443" height="34.504"/>
</g>
<g>
	<path fill="#319BB7" d="M63.661,189.432l-0.314-0.314l1.568-1.568l0.314,0.314L63.661,189.432z M68.364,184.729l-0.314-0.314
		l1.568-1.568l0.314,0.314L68.364,184.729z M73.068,180.025l-0.314-0.314l1.568-1.568l0.314,0.314L73.068,180.025z M77.771,175.322
		l-0.314-0.314l1.568-1.568l0.314,0.314L77.771,175.322z M82.474,170.618l-0.314-0.314l1.568-1.568l0.314,0.314L82.474,170.618z
		 M87.178,165.915l-0.314-0.314l1.568-1.568l0.314,0.314L87.178,165.915z M91.881,161.212l-0.314-0.314l1.568-1.568l0.314,0.314
		L91.881,161.212z M96.585,156.508l-0.314-0.314l1.568-1.568l0.314,0.314L96.585,156.508z M101.288,151.805l-0.314-0.314
		l1.568-1.568l0.314,0.314L101.288,151.805z M105.991,147.102l-0.314-0.314l1.568-1.568l0.314,0.314L105.991,147.102z
		 M110.695,142.398l-0.314-0.314l1.568-1.568l0.314,0.314L110.695,142.398z M115.398,137.695l-0.314-0.314l1.568-1.568l0.314,0.314
		L115.398,137.695z M120.101,132.992l-0.314-0.314l1.568-1.568l0.314,0.314L120.101,132.992z M124.805,128.288l-0.314-0.314
		l1.568-1.568l0.314,0.314L124.805,128.288z M129.508,123.585l-0.314-0.314l1.568-1.568l0.314,0.314L129.508,123.585z"/>
</g>
<g>
	<path fill="#319BB7" d="M34.337,278.812l-0.314-0.314l1.568-1.568l0.314,0.314L34.337,278.812z M39.04,274.109l-0.314-0.314
		l1.568-1.568l0.314,0.314L39.04,274.109z M43.744,269.405l-0.314-0.314l1.568-1.568l0.314,0.314L43.744,269.405z M48.447,264.702
		l-0.314-0.314l1.568-1.568l0.314,0.314L48.447,264.702z M53.151,259.999l-0.314-0.314l1.568-1.568l0.314,0.314L53.151,259.999z
		 M57.854,255.295l-0.314-0.314l1.568-1.568l0.314,0.314L57.854,255.295z M62.557,250.592l-0.314-0.314l1.568-1.568l0.314,0.314
		L62.557,250.592z M67.261,245.889l-0.314-0.314l1.568-1.568l0.314,0.314L67.261,245.889z M71.964,241.185l-0.314-0.314l1.568-1.568
		l0.314,0.314L71.964,241.185z M76.667,236.482l-0.314-0.314l1.568-1.568l0.314,0.314L76.667,236.482z M81.371,231.778l-0.314-0.314
		l1.568-1.568l0.314,0.314L81.371,231.778z M86.074,227.075l-0.314-0.314l1.568-1.568l0.314,0.314L86.074,227.075z M90.777,222.372
		l-0.314-0.314l1.568-1.568l0.314,0.314L90.777,222.372z M95.481,217.669l-0.314-0.314l1.568-1.568l0.314,0.314L95.481,217.669z
		 M100.184,212.965l-0.314-0.314l1.568-1.568l0.314,0.314L100.184,212.965z"/>
</g>
<g>
	<path fill="#319BB7" d="M155.389,157.76l-0.314-0.314l1.568-1.568l0.314,0.314L155.389,157.76z M160.092,153.057l-0.314-0.314
		l1.568-1.568l0.314,0.314L160.092,153.057z M164.796,148.354l-0.314-0.314l1.568-1.568l0.314,0.314L164.796,148.354z
		 M169.499,143.65l-0.314-0.314l1.568-1.568l0.314,0.314L169.499,143.65z M174.203,138.947l-0.314-0.314l1.568-1.568l0.314,0.314
		L174.203,138.947z M178.906,134.243l-0.314-0.314l1.568-1.568l0.314,0.314L178.906,134.243z M183.609,129.54l-0.314-0.314
		l1.568-1.568l0.314,0.314L183.609,129.54z M188.313,124.837l-0.314-0.314l1.568-1.568l0.314,0.314L188.313,124.837z
		 M193.016,120.133l-0.314-0.314l1.568-1.568l0.314,0.314L193.016,120.133z M197.719,115.43l-0.314-0.314l1.568-1.568l0.314,0.314
		L197.719,115.43z M202.423,110.726l-0.314-0.314l1.568-1.568l0.314,0.314L202.423,110.726z M207.126,106.023l-0.314-0.314
		l1.568-1.568l0.314,0.314L207.126,106.023z M211.829,101.32l-0.314-0.314l1.568-1.568l0.314,0.314L211.829,101.32z M216.533,96.617
		l-0.314-0.314l1.568-1.568l0.314,0.314L216.533,96.617z M221.236,91.913l-0.314-0.314l1.568-1.568l0.314,0.314L221.236,91.913z"/>
</g>
<g>
	<g>
		
			<rect x="92.762" y="94.491" transform="matrix(-0.7071 -0.7071 0.7071 -0.7071 91.5252 228.0018)" fill="#319BB7" width="0.443" height="1.109"/>
	</g>
	<g>
		<path fill="#319BB7" d="M96.634,91.709l-0.314-0.314l1.551-1.551l0.314,0.314L96.634,91.709z M101.287,87.056l-0.314-0.314
			l1.551-1.551l0.314,0.314L101.287,87.056z M105.939,82.404l-0.314-0.314l1.551-1.551l0.314,0.314L105.939,82.404z M110.592,77.751
			l-0.314-0.314l1.551-1.551l0.314,0.314L110.592,77.751z M115.245,73.098l-0.314-0.314l1.551-1.551l0.314,0.314L115.245,73.098z
			 M119.898,68.445l-0.314-0.314l1.551-1.551l0.314,0.314L119.898,68.445z M124.55,63.792l-0.314-0.314l1.551-1.551l0.314,0.314
			L124.55,63.792z M129.203,59.14l-0.314-0.314l1.551-1.551l0.314,0.314L129.203,59.14z M133.856,54.487l-0.314-0.314l1.551-1.551
			l0.314,0.314L133.856,54.487z M138.509,49.834l-0.314-0.314l1.551-1.551l0.314,0.314L138.509,49.834z M143.162,45.181
			l-0.314-0.314l1.551-1.551l0.314,0.314L143.162,45.181z M147.814,40.529l-0.314-0.314l1.551-1.551l0.314,0.314L147.814,40.529z
			 M152.467,35.876l-0.314-0.314l1.551-1.551l0.314,0.314L152.467,35.876z M157.12,31.223l-0.314-0.314l1.551-1.551l0.314,0.314
			L157.12,31.223z"/>
	</g>
	<g>
		
			<rect x="161.785" y="25.466" transform="matrix(-0.7071 -0.7071 0.7071 -0.7071 258.1639 158.975)" fill="#319BB7" width="0.443" height="1.109"/>
	</g>
</g>
<g>
	
		<rect x="114.248" y="74.546" transform="matrix(-0.7072 -0.7071 0.7071 -0.7072 117.29 269.5725)" fill="#319BB7" width="0.443" height="71.901"/>
</g>
<g>
	
		<rect x="69.732" y="47.774" transform="matrix(-0.7071 -0.7071 0.7071 -0.7071 67.0475 175.9003)" fill="#319BB7" width="0.443" height="52.58"/>
</g>
</svg>
