<?xml version="1.0" encoding="utf-8"?>
<!-- Generator: Adobe Illustrator 17.0.0, SVG Export Plug-In . SVG Version: 6.00 Build 0)  -->
<!DOCTYPE svg PUBLIC "-//W3C//DTD SVG 1.1//EN" "http://www.w3.org/Graphics/SVG/1.1/DTD/svg11.dtd">
<svg version="1.1" id="rounded_gradient_lines" xmlns="http://www.w3.org/2000/svg" xmlns:xlink="http://www.w3.org/1999/xlink"
	 x="0px" y="0px" width="346.837px" height="210.725px" viewBox="0 0 346.837 210.725" enable-background="new 0 0 346.837 210.725"
	 xml:space="preserve">
<g>
	<g>
		<g>
			<g>
				<g>
					<path fill="#00ABD4" d="M17.758,179.05v23.284H6.597v-57.729h21.282c4.721,0,8.776,1.68,12.164,5.041
						c3.358,3.386,5.039,7.454,5.039,12.2c0,4.722-1.681,8.775-5.039,12.161c-3.361,3.362-7.417,5.043-12.164,5.043H17.758z
						 M17.758,155.766v12.123h10.121c1.641,0,3.066-0.602,4.273-1.809c1.181-1.179,1.77-2.591,1.77-4.234
						c0-1.668-0.589-3.092-1.77-4.271c-1.207-1.206-2.632-1.809-4.273-1.809H17.758z"/>
				</g>
			</g>
		</g>
		<g>
			<g>
				<g>
					<path fill="#00ABD4" d="M97.285,183.63c0,5.464-1.95,10.146-5.849,14.047c-3.875,3.9-8.559,5.848-14.049,5.848
						c-5.464,0-10.148-1.949-14.046-5.848c-3.901-3.901-5.852-8.584-5.852-14.047v-39.025h11.161v39.025
						c0,2.385,0.859,4.439,2.579,6.158c1.72,1.719,3.773,2.578,6.158,2.578c2.411,0,4.464-0.859,6.158-2.578
						c1.72-1.719,2.579-3.773,2.579-6.158v-39.025h11.161V183.63z"/>
				</g>
			</g>
		</g>
		<g>
			<g>
				<g>
					<path fill="#00ABD4" d="M124.436,179.05v23.284h-11.161v-57.729h21.283c4.72,0,8.776,1.692,12.164,5.08
						c3.358,3.36,5.039,7.415,5.039,12.161c0,3.618-1.053,6.915-3.154,9.891c-2.079,2.95-4.826,5.041-8.237,6.273l10.006,24.324
						h-12.085l-9.582-23.284H124.436z M124.436,155.766v12.123h10.122c1.641,0,3.053-0.59,4.233-1.771
						c1.208-1.205,1.81-2.628,1.81-4.271c0-1.668-0.602-3.092-1.81-4.271c-1.18-1.206-2.592-1.809-4.233-1.809H124.436z"/>
				</g>
			</g>
		</g>
		<g>
			<g>
				<g>
					<path fill="#00ABD4" d="M176.484,179.05v23.284h-11.161v-57.729h21.282c4.721,0,8.776,1.68,12.164,5.041
						c3.358,3.386,5.04,7.454,5.04,12.2c0,4.722-1.681,8.775-5.04,12.161c-3.362,3.362-7.418,5.043-12.164,5.043H176.484z
						 M176.484,155.766v12.123h10.121c1.641,0,3.066-0.602,4.273-1.809c1.181-1.179,1.77-2.591,1.77-4.234
						c0-1.668-0.589-3.092-1.77-4.271c-1.207-1.206-2.632-1.809-4.273-1.809H176.484z"/>
				</g>
			</g>
		</g>
		<g>
			<g>
				<g>
					<path fill="#00ABD4" d="M250.509,149.261c3.898,3.901,5.848,8.582,5.848,14.047v2.001c0,5.492-1.951,10.186-5.848,14.087
						c-3.875,3.873-8.559,5.811-14.049,5.811c-5.464,0-10.148-1.937-14.046-5.811c-3.901-3.901-5.852-8.595-5.852-14.087v-2.001
						c0-5.465,1.951-10.146,5.852-14.047c3.898-3.9,8.582-5.85,14.046-5.85C241.95,143.411,246.634,145.361,250.509,149.261z
						 M254.664,202.333h-36.368v-11.161h36.368V202.333z M230.302,157.151c-1.717,1.72-2.579,3.771-2.579,6.158v2.001
						c0,2.413,0.862,4.479,2.579,6.196c1.694,1.694,3.746,2.541,6.158,2.541c2.411,0,4.467-0.847,6.158-2.541
						c1.72-1.717,2.579-3.783,2.579-6.196v-2.001c0-2.386-0.859-4.437-2.579-6.158c-1.691-1.693-3.746-2.54-6.158-2.54
						C234.048,154.611,231.996,155.458,230.302,157.151z"/>
				</g>
			</g>
		</g>
		<g>
			<g>
				<g>
					<path fill="#00ABD4" d="M272.002,147.799c3.283-2.924,7.171-4.388,11.661-4.388c6.799,0,12.059,3.22,15.78,9.661l-9.661,5.581
						c-1.54-2.72-3.579-4.081-6.118-4.081c-1.486,0-2.756,0.385-3.809,1.155c-1.181,0.874-1.77,2.015-1.77,3.426
						c0,1.745,0.859,3.464,2.579,5.158c1.076,1.026,3.102,2.54,6.079,4.541c1.053,0.719,1.849,1.27,2.389,1.655
						c0.921,0.641,1.73,1.232,2.424,1.769c1.77,1.362,3.23,2.709,4.385,4.043c2.951,3.387,4.428,7.26,4.428,11.622
						c0,4.414-1.707,8.134-5.118,11.161c-3.286,2.952-7.148,4.425-11.585,4.425c-6.825,0-12.111-3.231-15.855-9.697l9.658-5.58
						c1.566,2.745,3.632,4.117,6.197,4.117c1.464,0,2.72-0.385,3.773-1.155c1.178-0.872,1.77-2.026,1.77-3.464
						c0-1.719-0.871-3.424-2.618-5.118c-1.053-1.051-3.066-2.566-6.043-4.541l-1.191-0.847l-1.234-0.808
						c-0.898-0.641-1.691-1.232-2.385-1.771c-1.77-1.385-3.234-2.732-4.388-4.041c-2.951-3.411-4.424-7.286-4.424-11.623
						C266.923,154.585,268.614,150.853,272.002,147.799z"/>
				</g>
			</g>
		</g>
		<g>
			<g>
				<g>
					<path fill="#00ABD4" d="M342.408,144.605v11.161h-18.513v12.123h14.204v11.161h-14.204v12.123h18.513v11.161h-29.674v-57.729
						H342.408z"/>
				</g>
			</g>
		</g>
	</g>
</g>
<g>
	<path fill="#00ABD4" stroke="#FFFFFF" stroke-miterlimit="10" d="M69.672,129.133V129.1c-0.391,0.008-0.778,0.03-1.171,0.03
		c-32.599,0-59.025-26.402-59.025-58.97c0-32.568,26.426-58.97,59.025-58.97c0.393,0,0.78,0.022,1.171,0.03v0.013
		c12.557,0.222,24.76,4.235,36.565,12.504l45.814,36.089v-0.408l0.001,0.427l22.688,17.939c3.608,2.853,8.91,0.241,8.848-4.358
		l-0.643-47.689c-0.109-8.106,6.435-14.734,14.542-14.729l32.704,0.022l0-0.017h81.977v-0.007h26.707V5.949l-26.707,0.024v0.006
		h-82.015h-0.008h-32.857c-10.835,0-19.577,8.863-19.428,19.697l0.653,47.52c0.006,0.447-0.509,0.7-0.859,0.423l-25.609-20.279
		l0,0.052L109.07,19.562C96.743,10.987,83.642,6.358,69.672,6.162c-0.395-0.007-0.786-0.03-1.183-0.03
		c-35.38,0-64.06,28.667-64.06,64.029c0,35.362,28.681,64.029,64.06,64.029c0.397,0,0.788-0.023,1.183-0.03v0
		c25.852-0.1,51.232-17.348,59.801-44.509l-4.816-1.538C117.876,111.268,94.624,129.068,69.672,129.133z"/>
	<path fill="#00ABD4" stroke="#FFFFFF" stroke-miterlimit="10" d="M69.672,36.196c-0.246-0.005-0.486-0.037-0.733-0.037
		c-18.685,0-33.832,15.319-33.832,34.216s15.147,34.217,33.832,34.217c0.248,0,0.487-0.032,0.733-0.037
		c14.488-0.479,32.667-12.841,33.187-33.519c0,0-5.094-0.051-5.095-0.012c-0.284,18.142-16.658,28.002-28.092,28.574
		c-0.218,0.005-0.429,0.033-0.648,0.033c-15.85,0-28.699-12.983-28.699-28.998c0-16.015,12.849-28.998,28.699-28.998
		c0.219,0,0.43,0.028,0.648,0.033v-0.015c5.403-0.675,11.656,2.694,18.095,6.936l64.149,45.358v-6.054L90.737,44.496
		C84.328,40.155,77.557,36.743,69.672,36.196z"/>
	<path fill="#00ABD4" stroke="#FFFFFF" stroke-miterlimit="10" d="M97.984,38.261l53.932,38.856l31.502,22.242
		c5.572,3.934,13.264-0.048,13.269-6.869l0.043-62.197c0.002-2.975,2.414-5.386,5.389-5.386h28.038h82.011v0h26.707v-5.057h-26.707
		v-0.005h-82.011v-0.006l-27.965,0.049c-5.822,0.01-10.539,4.729-10.547,10.551l-0.089,61.746c-0.004,2.846-3.215,4.504-5.538,2.86
		l-34.101-24.141l-49.294-35.573C96.55,30.91,83.56,22.57,69.672,20.976c-0.397-0.01-0.784-0.06-1.183-0.06
		c-27.21,0-49.269,22.048-49.269,49.245c0,27.197,22.038,49.181,49.248,49.181c0.362,0,0.722-0.013,1.082-0.023v0.004
		c24.269-0.171,43.493-18.219,47.007-40.968l-5.021-0.616c-3.068,21.471-20.927,35.926-41.986,36.557v0.008
		c-0.447,0.01-0.888-0.003-1.34-0.003c-24.283,0-43.968-19.824-43.968-44.226c0-24.401,19.685-44.182,43.968-44.182
		c0.481,0,0.949,0.054,1.425,0.072l-0.002,0.219C78.531,27.007,90.859,32.911,97.984,38.261z"/>
	<path fill="#00ABD4" stroke="#FFFFFF" stroke-miterlimit="10" d="M312.168,80.4h-58.14c-5.964,0-10.817,4.858-10.817,10.83v1.877
		c0,5.972,4.853,10.83,10.819,10.83h58.133h0.004h26.709v-5.057h-26.709h-0.004h-58.133c-3.18,0-5.767-2.589-5.767-5.773V91.23
		c0-3.184,2.587-5.773,5.765-5.773h58.14v0.001h26.711v-5.057h-26.711V80.4z"/>
	<path fill="#00ABD4" stroke="#FFFFFF" stroke-miterlimit="10" d="M235.234,106.499v-60.77h-5.057v60.77
		c0,6.157,4.991,11.147,11.147,11.147h70.843v-5.057h-70.843C237.961,112.59,235.234,109.863,235.234,106.499z"/>
	<polygon fill="#00ABD4" stroke="#FFFFFF" stroke-miterlimit="10" points="245.739,66.452 245.739,71.509 312.168,71.509 
		312.168,71.51 338.875,71.51 338.875,66.453 312.168,66.453 312.168,66.452 	"/>
	<polygon fill="#00ABD4" stroke="#FFFFFF" stroke-miterlimit="10" points="230.269,126.089 230.269,131.146 307.732,131.146 
		307.732,131.147 338.875,131.147 338.875,126.09 307.732,126.09 307.732,126.089 	"/>
	<rect x="312.168" y="112.589" fill="#00ABD4" stroke="#FFFFFF" stroke-miterlimit="10" width="26.701" height="5.057"/>
	<path fill="#00ABD4" stroke="#FFFFFF" stroke-miterlimit="10" d="M312.168,33.546v0.01h-81.993l-14.664-0.008
		c-5.59,0-10.122,4.532-10.122,10.122v75.527c0,2.785-3.146,4.406-5.414,2.79l-48.059-34.097l0.017,6.082l45.056,32.106
		c5.64,4.019,13.464-0.013,13.464-6.939V43.803c0-2.867,2.324-5.19,5.19-5.19h14.531h13.03v5.921
		c0,7.184,5.844,13.029,13.028,13.029h55.935v-0.001h26.707v-5.057h-26.707v0.002h-55.935c-4.395,0-7.971-3.577-7.971-7.972v-5.921
		h63.906v-0.01h26.711v-5.057H312.168z"/>
</g>
</svg>
