<?xml version="1.0" encoding="utf-8"?>
<!-- Generator: Adobe Illustrator 17.0.0, SVG Export Plug-In . SVG Version: 6.00 Build 0)  -->
<!DOCTYPE svg PUBLIC "-//W3C//DTD SVG 1.1//EN" "http://www.w3.org/Graphics/SVG/1.1/DTD/svg11.dtd">
<svg version="1.1" id="rounded_gradient_lines" xmlns="http://www.w3.org/2000/svg" xmlns:xlink="http://www.w3.org/1999/xlink"
	 x="0px" y="0px" width="348.342px" height="211.99px" viewBox="0 0 348.342 211.99" enable-background="new 0 0 348.342 211.99"
	 xml:space="preserve">
<g>
	<g>
		<g>
			<g>
				<path fill="#00ABD4" d="M31.448,182.011v22.019H20.893v-54.591h20.125c4.464,0,8.299,1.59,11.503,4.767
					c3.176,3.202,4.765,7.049,4.765,11.537c0,4.465-1.59,8.298-4.765,11.5c-3.179,3.179-7.014,4.768-11.503,4.768H31.448z
					 M31.448,159.993v11.464h9.571c1.552,0,2.899-0.569,4.04-1.711c1.117-1.115,1.674-2.45,1.674-4.003
					c0-1.577-0.557-2.924-1.674-4.039c-1.141-1.14-2.488-1.711-4.04-1.711H31.448z"/>
			</g>
		</g>
		<g>
			<g>
				<path fill="#00ABD4" d="M91.973,149.439v44.037h17.506v10.554H81.419v-54.591H91.973z"/>
			</g>
		</g>
		<g>
			<g>
				<path fill="#00ABD4" d="M158.468,149.439l14.122,54.591h-10.881l-2.149-8.298h-14.738l-2.149,8.298h-10.881l14.122-54.591
					H158.468z M147.587,185.14h9.207l-4.622-17.796L147.587,185.14z"/>
			</g>
		</g>
		<g>
			<g>
				<path fill="#00ABD4" d="M231.551,149.439v54.591h-10.224l-15.251-30.389v30.389h-10.554v-54.591h10.228l15.214,30.389v-30.389
					H231.551z"/>
			</g>
		</g>
		<g>
			<g>
				<path fill="#00ABD4" d="M286.984,149.439v10.554h-17.506v11.464h13.432v10.554h-13.432v11.464h17.506v10.554h-28.061v-54.591
					H286.984z"/>
			</g>
		</g>
		<g>
			<g>
				<path fill="#00ABD4" d="M341.139,149.439v10.554h-10.735v44.037h-10.591v-44.037h-10.734v-10.554H341.139z"/>
			</g>
		</g>
	</g>
</g>
<g>
	<path fill="#00ABD4" stroke="#FFFFFF" stroke-miterlimit="10" d="M72.187,130.407v-0.033c-0.391,0.008-0.778,0.03-1.171,0.03
		c-32.599,0-59.025-26.402-59.025-58.97c0-32.568,26.426-58.97,59.025-58.97c0.393,0,0.78,0.022,1.171,0.03v0.013
		c12.557,0.222,24.76,4.235,36.565,12.504l45.814,36.089V60.69l0.001,0.427l22.688,17.939c3.608,2.853,8.91,0.241,8.848-4.358
		L185.46,27.01c-0.109-8.106,6.435-14.734,14.542-14.729l32.704,0.022l0-0.017h81.977v-0.006h26.707V7.222l-26.707,0.024v0.006
		h-82.015h-0.008h-32.857c-10.835,0-19.577,8.863-19.428,19.697l0.653,47.52c0.006,0.447-0.509,0.7-0.859,0.423l-25.609-20.279
		l0,0.052l-42.974-33.829C99.258,12.261,86.156,7.632,72.187,7.436c-0.395-0.007-0.786-0.03-1.183-0.03
		c-35.38,0-64.06,28.667-64.06,64.029c0,35.362,28.68,64.029,64.06,64.029c0.397,0,0.788-0.023,1.183-0.03v0
		c25.852-0.1,51.232-17.349,59.801-44.509l-4.816-1.537C120.39,112.542,97.138,130.342,72.187,130.407z"/>
	<path fill="#00ABD4" stroke="#FFFFFF" stroke-miterlimit="10" d="M72.187,37.47c-0.246-0.005-0.486-0.037-0.733-0.037
		c-18.685,0-33.832,15.319-33.832,34.216s15.147,34.217,33.832,34.217c0.247,0,0.487-0.032,0.733-0.037
		c14.488-0.479,32.667-12.841,33.187-33.519c0,0-5.094-0.051-5.095-0.012c-0.284,18.142-16.658,28.002-28.092,28.574
		c-0.218,0.005-0.429,0.033-0.648,0.033c-15.85,0-28.699-12.983-28.699-28.998c0-16.015,12.849-28.998,28.699-28.998
		c0.219,0,0.43,0.028,0.648,0.033v-0.015c5.403-0.675,11.657,2.694,18.095,6.936l64.149,45.358v-6.054L93.252,45.77
		C86.843,41.429,80.072,38.017,72.187,37.47z"/>
	<path fill="#00ABD4" stroke="#FFFFFF" stroke-miterlimit="10" d="M100.499,39.534l53.932,38.856l31.502,22.242
		c5.572,3.934,13.264-0.048,13.269-6.869l0.042-62.197c0.002-2.975,2.414-5.386,5.39-5.386h28.038h82.011v0h26.707v-5.057h-26.707
		v-0.005h-82.011v-0.006l-27.966,0.049c-5.822,0.01-10.539,4.729-10.547,10.551l-0.089,61.746c-0.004,2.846-3.215,4.504-5.538,2.86
		l-34.101-24.141l-49.294-35.573c-6.072-4.42-19.062-12.759-32.95-14.354c-0.397-0.01-0.784-0.06-1.183-0.06
		c-27.21,0-49.269,22.048-49.269,49.245c0,27.197,22.038,49.181,49.249,49.181c0.362,0,0.722-0.013,1.082-0.023v0.004
		c24.269-0.171,43.493-18.219,47.007-40.968l-5.021-0.616c-3.068,21.471-20.927,35.926-41.986,36.557v0.008
		c-0.447,0.01-0.887-0.003-1.34-0.003c-24.283,0-43.968-19.824-43.968-44.226c0-24.401,19.685-44.182,43.968-44.182
		c0.481,0,0.949,0.054,1.425,0.072l-0.002,0.219C81.046,28.281,93.374,34.185,100.499,39.534z"/>
	<path fill="#00ABD4" stroke="#FFFFFF" stroke-miterlimit="10" d="M314.682,81.674h-58.14c-5.964,0-10.817,4.858-10.817,10.83v1.877
		c0,5.972,4.853,10.83,10.819,10.83h58.132h0.005h26.709v-5.057h-26.709h-0.005h-58.132c-3.18,0-5.767-2.589-5.767-5.773v-1.877
		c0-3.184,2.587-5.773,5.765-5.773h58.14v0.001h26.711v-5.057h-26.711V81.674z"/>
	<path fill="#00ABD4" stroke="#FFFFFF" stroke-miterlimit="10" d="M237.749,107.773v-60.77h-5.057v60.77
		c0,6.157,4.991,11.147,11.147,11.147h70.843v-5.057h-70.843C240.476,113.864,237.749,111.137,237.749,107.773z"/>
	<polygon fill="#00ABD4" stroke="#FFFFFF" stroke-miterlimit="10" points="248.253,67.726 248.253,72.783 314.682,72.783 
		314.682,72.784 341.389,72.784 341.389,67.727 314.682,67.727 314.682,67.726 	"/>
	<polygon fill="#00ABD4" stroke="#FFFFFF" stroke-miterlimit="10" points="232.784,127.363 232.784,132.42 310.246,132.42 
		310.246,132.421 341.389,132.421 341.389,127.364 310.246,127.364 310.246,127.363 	"/>
	<rect x="314.683" y="113.863" fill="#00ABD4" stroke="#FFFFFF" stroke-miterlimit="10" width="26.701" height="5.057"/>
	<path fill="#00ABD4" stroke="#FFFFFF" stroke-miterlimit="10" d="M314.682,34.82v0.01h-81.993l-14.664-0.008
		c-5.59,0-10.122,4.531-10.122,10.122v75.527c0,2.785-3.146,4.406-5.414,2.79l-48.059-34.097l0.017,6.082l45.056,32.106
		c5.64,4.019,13.464-0.013,13.464-6.939V45.077c0-2.866,2.324-5.19,5.19-5.19h14.531h13.03v5.921
		c0,7.184,5.844,13.029,13.028,13.029h55.935v-0.001h26.707v-5.057h-26.707v0.002h-55.935c-4.395,0-7.971-3.577-7.971-7.972v-5.921
		h63.906v-0.01h26.711V34.82H314.682z"/>
</g>
</svg>
