<?xml version="1.0" encoding="utf-8"?>
<!-- Generator: Adobe Illustrator 17.0.0, SVG Export Plug-In . SVG Version: 6.00 Build 0)  -->
<!DOCTYPE svg PUBLIC "-//W3C//DTD SVG 1.1//EN" "http://www.w3.org/Graphics/SVG/1.1/DTD/svg11.dtd">
<svg version="1.1" id="rounded_gradient_lines" xmlns="http://www.w3.org/2000/svg" xmlns:xlink="http://www.w3.org/1999/xlink"
	 x="0px" y="0px" width="348.342px" height="211.99px" viewBox="0 0 348.342 211.99" enable-background="new 0 0 348.342 211.99"
	 xml:space="preserve">
<g>
	<g>
		<path fill="#319BB7" stroke="#FFFFFF" stroke-miterlimit="10" d="M72.189,130.143v-0.033c-0.391,0.008-0.778,0.03-1.171,0.03
			c-32.599,0-59.025-26.402-59.025-58.97s26.426-58.971,59.025-58.971c0.393,0,0.78,0.022,1.171,0.03v0.013
			c12.557,0.222,24.76,4.235,36.565,12.504l45.814,36.089v-0.408l0.001,0.427l22.688,17.939c3.608,2.853,8.91,0.241,8.848-4.358
			l-0.643-47.689c-0.109-8.106,6.435-14.734,14.542-14.729l32.704,0.022v-0.017h81.977v-0.006h26.707V6.959l-26.707,0.024v0.006
			H232.67h-0.008h-32.857c-10.835,0-19.577,8.863-19.428,19.697l0.653,47.52c0.006,0.447-0.509,0.7-0.859,0.423L154.56,54.35v0.052
			l-42.974-33.829C99.26,11.998,86.158,7.368,72.189,7.172c-0.395-0.007-0.786-0.03-1.183-0.03c-35.38,0-64.06,28.667-64.06,64.029
			S35.627,135.2,71.006,135.2c0.397,0,0.788-0.023,1.183-0.03l0,0c25.852-0.1,51.232-17.349,59.801-44.509l-4.816-1.537
			C120.392,112.278,97.141,130.079,72.189,130.143z"/>
		<path fill="#319BB7" stroke="#FFFFFF" stroke-miterlimit="10" d="M72.189,37.207c-0.246-0.005-0.486-0.037-0.733-0.037
			c-18.685,0-33.832,15.319-33.832,34.216s15.147,34.217,33.832,34.217c0.247,0,0.487-0.032,0.733-0.037
			c14.488-0.479,32.667-12.841,33.187-33.519c0,0-5.094-0.051-5.095-0.012c-0.284,18.142-16.658,28.002-28.092,28.574
			c-0.218,0.005-0.429,0.033-0.648,0.033c-15.85,0-28.699-12.983-28.699-28.999c0-16.015,12.849-28.998,28.699-28.998
			c0.219,0,0.43,0.028,0.648,0.033v-0.015c5.403-0.675,11.657,2.694,18.095,6.936l64.149,45.358v-6.055L93.254,45.507
			C86.845,41.165,80.074,37.753,72.189,37.207z"/>
		<path fill="#319BB7" stroke="#FFFFFF" stroke-miterlimit="10" d="M100.501,39.271l53.932,38.856l31.502,22.242
			c5.572,3.934,13.264-0.048,13.269-6.869l0.042-62.197c0.002-2.975,2.414-5.386,5.39-5.386h28.038h82.011l0,0h26.707V20.86h-26.707
			v-0.005h-82.011v-0.006l-27.966,0.049c-5.822,0.01-10.539,4.729-10.547,10.551l-0.089,61.746c-0.004,2.846-3.215,4.504-5.538,2.86
			l-34.101-24.141L105.139,36.34c-6.072-4.42-19.062-12.759-32.95-14.354c-0.397-0.01-0.784-0.06-1.183-0.06
			c-27.21,0-49.269,22.048-49.269,49.245s22.038,49.181,49.248,49.181c0.362,0,0.722-0.013,1.082-0.023v0.004
			c24.269-0.171,43.493-18.219,47.007-40.968l-5.021-0.616c-3.068,21.471-20.927,35.926-41.986,36.557v0.008
			c-0.447,0.01-0.887-0.003-1.34-0.003c-24.283,0-43.968-19.824-43.968-44.226c0-24.401,19.685-44.182,43.968-44.182
			c0.481,0,0.949,0.054,1.425,0.072l-0.002,0.219C81.048,28.017,93.376,33.922,100.501,39.271z"/>
		<path fill="#319BB7" stroke="#FFFFFF" stroke-miterlimit="10" d="M314.685,81.41h-58.14c-5.964,0-10.817,4.858-10.817,10.83v1.876
			c0,5.972,4.853,10.83,10.819,10.83h58.132h0.005h26.709V99.89h-26.709h-0.005h-58.132c-3.18,0-5.767-2.589-5.767-5.773V92.24
			c0-3.184,2.587-5.773,5.765-5.773h58.14v0.001h26.711v-5.057L314.685,81.41L314.685,81.41L314.685,81.41z"/>
		<path fill="#319BB7" stroke="#FFFFFF" stroke-miterlimit="10" d="M237.751,107.51V46.74h-5.057v60.77
			c0,6.156,4.991,11.147,11.147,11.147h70.843V113.6h-70.843C240.478,113.6,237.751,110.874,237.751,107.51z"/>
		<polygon fill="#319BB7" stroke="#FFFFFF" stroke-miterlimit="10" points="248.256,67.463 248.256,72.52 314.685,72.52 
			314.685,72.52 341.392,72.52 341.392,67.464 314.685,67.464 314.685,67.463 		"/>
		<rect x="314.685" y="113.599" fill="#319BB7" stroke="#FFFFFF" stroke-miterlimit="10" width="26.701" height="5.057"/>
		<path fill="#319BB7" stroke="#FFFFFF" stroke-miterlimit="10" d="M314.685,34.556v0.01h-81.993l-14.664-0.008
			c-5.59,0-10.122,4.531-10.122,10.122v75.527c0,2.785-3.146,4.406-5.414,2.79L154.433,88.9l0.017,6.082l45.056,32.106
			c5.64,4.019,13.464-0.013,13.464-6.939V44.814c0-2.867,2.324-5.19,5.19-5.19h14.531h13.03v5.921
			c0,7.184,5.844,13.029,13.028,13.029h55.935v-0.002h26.707v-5.057h-26.707v0.002h-55.935c-4.395,0-7.971-3.577-7.971-7.972v-5.921
			h63.906v-0.01h26.711v-5.057h-26.71V34.556z"/>
	</g>
	<g>
		<g>
			<g>
				<path fill="#319BB7" d="M23.652,182.448v22.583H12.827V149.04h20.641c4.578,0,8.512,1.63,11.798,4.889
					c3.257,3.284,4.888,7.229,4.888,11.833c0,4.58-1.63,8.51-4.888,11.795c-3.26,3.261-7.194,4.891-11.798,4.891H23.652z
					 M23.652,159.865v11.758h9.816c1.592,0,2.974-0.583,4.144-1.755c1.146-1.143,1.716-2.512,1.716-4.106
					c0-1.617-0.571-2.999-1.716-4.143c-1.171-1.169-2.552-1.755-4.144-1.755h-9.816V159.865z"/>
			</g>
		</g>
		<g>
			<g>
				<path fill="#319BB7" d="M105.216,149.04v10.825H87.261v11.758h13.776v10.825H87.261v11.758h17.955v10.825h-28.78V149.04H105.216
					z"/>
			</g>
		</g>
		<g>
			<g>
				<path fill="#319BB7" d="M163.334,153.556c3.781,3.784,5.672,8.324,5.672,13.624v1.941c0,5.327-1.892,9.879-5.672,13.663
					c-3.758,3.757-8.301,5.636-13.626,5.636c-5.299,0-9.842-1.879-13.623-5.636c-3.784-3.784-5.675-8.336-5.675-13.663v-1.941
					c0-5.301,1.892-9.84,5.675-13.624c3.781-3.782,8.324-5.674,13.623-5.674C155.033,147.882,159.576,149.774,163.334,153.556z
					 M167.364,205.031h-35.273v-10.825h35.273V205.031z M143.736,161.208c-1.665,1.668-2.501,3.658-2.501,5.972v1.941
					c0,2.34,0.836,4.344,2.501,6.009c1.643,1.643,3.634,2.465,5.972,2.465c2.339,0,4.332-0.822,5.972-2.465
					c1.669-1.665,2.501-3.669,2.501-6.009v-1.941c0-2.314-0.833-4.304-2.501-5.972c-1.64-1.641-3.634-2.463-5.972-2.463
					S145.379,159.567,143.736,161.208z"/>
			</g>
		</g>
		<g>
			<g>
				<path fill="#319BB7" d="M206.749,182.448v22.583h-10.825V149.04h20.641c4.578,0,8.512,1.63,11.798,4.889
					c3.257,3.284,4.888,7.229,4.888,11.833c0,4.58-1.63,8.51-4.888,11.795c-3.26,3.261-7.194,4.891-11.798,4.891H206.749z
					 M206.749,159.865v11.758h9.817c1.592,0,2.973-0.583,4.144-1.755c1.145-1.143,1.716-2.512,1.716-4.106
					c0-1.617-0.571-2.999-1.716-4.143c-1.171-1.169-2.552-1.755-4.144-1.755h-9.817V159.865z"/>
			</g>
		</g>
		<g>
			<g>
				<path fill="#319BB7" d="M270.355,149.04v45.166h17.955v10.825h-28.78V149.04H270.355z"/>
			</g>
		</g>
		<g>
			<g>
				<path fill="#319BB7" d="M341.206,149.04v10.825h-17.955v11.758h13.776v10.825h-13.776v11.758h17.955v10.825h-28.78V149.04
					H341.206z"/>
			</g>
		</g>
	</g>
</g>
</svg>
