<?xml version="1.0" encoding="utf-8"?>
<!-- Generator: Adobe Illustrator 17.0.0, SVG Export Plug-In . SVG Version: 6.00 Build 0)  -->
<!DOCTYPE svg PUBLIC "-//W3C//DTD SVG 1.1//EN" "http://www.w3.org/Graphics/SVG/1.1/DTD/svg11.dtd">
<svg version="1.1" id="rounded_gradient_lines" xmlns="http://www.w3.org/2000/svg" xmlns:xlink="http://www.w3.org/1999/xlink"
	 x="0px" y="0px" width="346.837px" height="210.725px" viewBox="0 0 346.837 210.725" enable-background="new 0 0 346.837 210.725"
	 xml:space="preserve">
<g>
	<g>
		<g>
			<g>
				<g>
					<path fill="#319BB7" d="M21.044,178.283v22.708H10.158V144.69h20.756c4.604,0,8.559,1.639,11.864,4.916
						c3.275,3.303,4.915,7.27,4.915,11.899c0,4.605-1.639,8.558-4.915,11.86c-3.278,3.279-7.234,4.918-11.864,4.918H21.044z
						 M21.044,155.575v11.823h9.871c1.601,0,2.99-0.587,4.167-1.764c1.152-1.15,1.726-2.527,1.726-4.129
						c0-1.626-0.574-3.016-1.726-4.166c-1.177-1.176-2.567-1.764-4.167-1.764L21.044,155.575L21.044,155.575z"/>
				</g>
			</g>
		</g>
		<g>
			<g>
				<g>
					<path fill="#319BB7" d="M98.606,182.75c0,5.329-1.902,9.895-5.704,13.7c-3.779,3.803-8.347,5.704-13.702,5.704
						c-5.329,0-9.897-1.901-13.699-5.704c-3.805-3.805-5.707-8.372-5.707-13.7v-38.06h10.885v38.061
						c0,2.326,0.837,4.329,2.515,6.006s3.68,2.514,6.006,2.514c2.352,0,4.353-0.837,6.005-2.514c1.678-1.676,2.515-3.68,2.515-6.006
						V144.69h10.885v38.06H98.606z"/>
				</g>
			</g>
		</g>
		<g>
			<g>
				<g>
					<path fill="#319BB7" d="M125.086,178.283v22.708H114.2V144.69h20.757c4.603,0,8.559,1.65,11.864,4.955
						c3.275,3.277,4.914,7.231,4.914,11.861c0,3.529-1.027,6.744-3.076,9.647c-2.028,2.877-4.707,4.916-8.034,6.118l9.759,23.722
						h-11.786l-9.345-22.708h-4.167V178.283z M125.086,155.575v11.823h9.872c1.601,0,2.977-0.576,4.128-1.728
						c1.178-1.176,1.765-2.563,1.765-4.166c0-1.626-0.587-3.016-1.765-4.166c-1.151-1.176-2.528-1.764-4.128-1.764h-9.872V155.575z"
						/>
				</g>
			</g>
		</g>
		<g>
			<g>
				<g>
					<path fill="#319BB7" d="M175.848,178.283v22.708h-10.885V144.69h20.756c4.604,0,8.559,1.639,11.864,4.916
						c3.275,3.303,4.915,7.27,4.915,11.899c0,4.605-1.64,8.558-4.915,11.86c-3.279,3.279-7.234,4.918-11.864,4.918H175.848z
						 M175.848,155.575v11.823h9.871c1.601,0,2.99-0.587,4.167-1.764c1.152-1.15,1.726-2.527,1.726-4.129
						c0-1.626-0.574-3.016-1.726-4.166c-1.177-1.176-2.567-1.764-4.167-1.764L175.848,155.575L175.848,155.575z"/>
				</g>
			</g>
		</g>
		<g>
			<g>
				<g>
					<path fill="#319BB7" d="M248.043,149.231c3.801,3.805,5.704,8.37,5.704,13.7v1.952c0,5.356-1.903,9.934-5.704,13.739
						c-3.779,3.778-8.348,5.667-13.702,5.667c-5.329,0-9.897-1.89-13.699-5.667c-3.805-3.804-5.708-8.383-5.708-13.739v-1.952
						c0-5.33,1.903-9.895,5.708-13.7c3.801-3.803,8.37-5.706,13.699-5.706C239.696,143.525,244.264,145.427,248.043,149.231z
						 M252.095,200.992h-35.469v-10.885h35.469V200.992z M228.335,156.925c-1.675,1.678-2.515,3.678-2.515,6.005v1.952
						c0,2.353,0.84,4.368,2.515,6.043c1.652,1.652,3.654,2.478,6.006,2.478c2.352,0,4.357-0.826,6.006-2.478
						c1.678-1.675,2.515-3.69,2.515-6.043v-1.952c0-2.327-0.837-4.328-2.515-6.005c-1.649-1.651-3.654-2.477-6.006-2.477
						C231.989,154.449,229.987,155.274,228.335,156.925z"/>
				</g>
			</g>
		</g>
		<g>
			<g>
				<g>
					<path fill="#319BB7" d="M269.004,147.805c3.202-2.852,6.994-4.279,11.373-4.279c6.632,0,11.761,3.141,15.39,9.422l-9.422,5.443
						c-1.502-2.653-3.49-3.98-5.967-3.98c-1.45,0-2.688,0.375-3.715,1.126c-1.152,0.852-1.726,1.965-1.726,3.341
						c0,1.702,0.837,3.378,2.515,5.03c1.049,1.001,3.025,2.477,5.928,4.429c1.027,0.701,1.803,1.238,2.329,1.614
						c0.898,0.626,1.687,1.201,2.364,1.726c1.726,1.329,3.151,2.642,4.276,3.943c2.878,3.303,4.318,7.08,4.318,11.335
						c0,4.305-1.665,7.933-4.992,10.885c-3.205,2.879-6.971,4.316-11.299,4.316c-6.657,0-11.812-3.152-15.463-9.457l9.419-5.442
						c1.527,2.677,3.542,4.015,6.044,4.015c1.428,0,2.653-0.375,3.68-1.126c1.149-0.85,1.726-1.976,1.726-3.378
						c0-1.676-0.85-3.34-2.553-4.992c-1.027-1.025-2.99-2.502-5.893-4.429l-1.161-0.826l-1.203-0.788
						c-0.876-0.625-1.649-1.201-2.326-1.727c-1.726-1.351-3.154-2.665-4.279-3.941c-2.878-3.327-4.315-7.106-4.315-11.336
						C264.051,154.423,265.7,150.783,269.004,147.805z"/>
				</g>
			</g>
		</g>
		<g>
			<g>
				<g>
					<path fill="#319BB7" d="M337.671,144.69v10.885h-18.056v11.823h13.853v10.885h-13.853v11.823h18.056v10.885h-28.94V144.69
						H337.671z"/>
				</g>
			</g>
		</g>
	</g>
	<g>
		<g>
			<path fill="#319BB7" d="M72.037,129.839v-0.032c-0.381,0.007-0.759,0.029-1.142,0.029c-31.793,0-57.566-25.75-57.566-57.513
				c0-31.764,25.773-57.513,57.566-57.513c0.383,0,0.761,0.021,1.142,0.029v0.012c12.247,0.216,24.148,4.13,35.661,12.195
				l44.682,35.197v-0.398l0.001,0.417l22.127,17.496c3.519,2.782,8.69,0.235,8.63-4.25l-0.627-46.51
				c-0.106-7.906,6.276-14.37,14.182-14.365l31.896,0.021v-0.016h79.951V14.63h26.047V9.698L308.54,9.722v0.006h-79.988h-0.008
				h-32.045c-10.568,0-19.094,8.644-18.948,19.211l0.637,46.346c0.006,0.435-0.496,0.683-0.838,0.412l-24.976-19.778v0.051
				l-41.912-32.993c-12.022-8.363-24.8-12.878-38.424-13.07c-0.385-0.007-0.767-0.029-1.154-0.029
				c-34.505,0-62.477,27.958-62.477,62.447s27.972,62.447,62.477,62.447c0.387,0,0.769-0.022,1.154-0.029l0,0
				c25.213-0.097,49.966-16.92,58.323-43.409l-4.697-1.5C119.049,112.415,96.372,129.776,72.037,129.839z"/>
			<path fill="#319BB7" d="M70.883,135.259c-34.719,0-62.965-28.232-62.965-62.935c0-34.702,28.246-62.934,62.965-62.934
				c0.237,0,0.471,0.008,0.706,0.016l0.457,0.013c13.395,0.188,26.414,4.615,38.694,13.156l41.145,32.389V54.96l0.79,0.575
				l24.976,19.778l-0.59-46.37c-0.071-5.242,1.916-10.185,5.597-13.917c3.682-3.733,8.597-5.788,13.839-5.788L335.075,9.21v5.908
				l-138.382,0.001c-0.003,0-0.007,0-0.01,0c-3.69,0-7.148,1.445-9.74,4.071c-2.594,2.628-3.995,6.108-3.946,9.8l0.627,46.511
				c0.03,2.265-1.213,4.294-3.245,5.295c-2.033,1-4.397,0.75-6.176-0.656l-22.309-17.66l-44.497-35.051
				C96.262,19.63,84.355,15.556,72.029,15.338l-0.479-0.026c-0.218-0.008-0.435-0.015-0.654-0.015
				c-31.473,0-57.079,25.582-57.079,57.026s25.606,57.025,57.079,57.025c0.22,0,0.439-0.008,0.657-0.015l0.972-0.022v0.036
				c23.527-0.292,46.112-17.261,52.67-39.651l0.14-0.48l5.636,1.8l-0.146,0.463c-8.094,25.657-32.268,43.648-58.786,43.75
				l-0.44,0.013C71.361,135.25,71.123,135.259,70.883,135.259z M70.883,10.365c-34.181,0-61.989,27.795-61.989,61.959
				c0,34.165,27.808,61.959,61.989,61.959c0.228,0,0.455-0.008,0.682-0.016l0.462-0.013c25.948-0.1,49.609-17.594,57.72-42.605
				l-3.759-1.2c-6.901,22.707-30,39.815-53.949,39.877l-0.489,0.001v-0.018c-0.217,0.008-0.435,0.014-0.654,0.014
				c-32.011,0-58.054-26.019-58.054-58.001s26.043-58.001,58.054-58.001c0.236,0,0.469,0.008,0.702,0.016l0.928,0.036
				c12.353,0.317,24.278,4.445,35.454,12.273l44.684,35.198h0.206v0.181l21.943,17.35c1.479,1.169,3.448,1.38,5.138,0.546
				c1.691-0.833,2.727-2.521,2.701-4.406l-0.627-46.511c-0.053-3.955,1.448-7.683,4.227-10.498
				c2.776-2.812,6.482-4.361,10.434-4.361c0.003,0,0.007,0,0.01,0l31.418,0.021l0.478-0.016l105.51-0.006v-3.956l-25.559,0.029
				H196.498c-4.979,0-9.647,1.953-13.143,5.498c-3.497,3.545-5.386,8.239-5.317,13.219l0.637,46.346
				c0.005,0.392-0.209,0.743-0.561,0.916c-0.352,0.173-0.759,0.129-1.068-0.114l-24.239-19.195l-0.735-0.531L110.16,23.363
				c-12.094-8.412-24.93-12.78-38.129-12.965l-0.474-0.014C71.332,10.373,71.108,10.365,70.883,10.365z"/>
		</g>
		<g>
			<path fill="#319BB7" d="M72.037,39.199c-0.24-0.005-0.474-0.036-0.715-0.036c-18.223,0-32.996,14.941-32.996,33.371
				s14.773,33.371,32.996,33.371c0.241,0,0.475-0.031,0.715-0.036c14.13-0.467,31.859-12.524,32.367-32.691
				c0,0-4.968-0.05-4.969-0.011c-0.277,17.694-16.246,27.31-27.398,27.868c-0.212,0.005-0.418,0.032-0.632,0.032
				c-15.459,0-27.99-12.662-27.99-28.282s12.531-28.282,27.99-28.282c0.214,0,0.42,0.028,0.632,0.032V44.52
				c5.269-0.658,11.368,2.627,17.647,6.765l62.564,44.237v-5.905L92.581,47.294C86.33,43.059,79.727,39.732,72.037,39.199z"/>
			<path fill="#319BB7" d="M71.322,106.392c-18.463,0-33.484-15.189-33.484-33.859s15.021-33.858,33.484-33.858
				c0.143,0,0.284,0.01,0.425,0.02c0.1,0.007,0.2,0.015,0.3,0.017l0.023,0.001c8.601,0.596,15.626,4.684,20.784,8.178l59.881,42.474
				v7.099L89.403,51.682c-5.695-3.752-11.675-7.152-16.878-6.723v0.059l-0.499,0.004c-0.104-0.002-0.207-0.009-0.31-0.017
				s-0.206-0.015-0.311-0.015c-15.165,0-27.502,12.468-27.502,27.794c0,15.325,12.337,27.794,27.502,27.794
				c0.105,0,0.209-0.008,0.312-0.015c0.102-0.007,0.205-0.014,0.309-0.017c10.685-0.535,26.643-9.61,26.921-27.388
				c0.007-0.524,0.007-0.524,5.461-0.469l0.495,0.005l-0.012,0.495c-0.528,20.949-19.41,32.722-32.838,33.165
				c-0.107,0.002-0.207,0.01-0.306,0.017C71.606,106.382,71.465,106.392,71.322,106.392z M71.322,39.65
				c-17.925,0-32.508,14.751-32.508,32.883s14.583,32.884,32.508,32.884c0.12,0,0.237-0.009,0.355-0.018
				c0.116-0.008,0.232-0.016,0.35-0.019c12.931-0.428,31.08-11.68,31.874-31.72c-1.387-0.013-3.18-0.028-3.989-0.02
				c-0.557,18.095-16.878,27.332-27.85,27.881c-0.101,0.002-0.189,0.009-0.275,0.015c-0.126,0.009-0.252,0.018-0.381,0.018
				c-15.703,0-28.478-12.906-28.478-28.769c0-15.864,12.775-28.77,28.478-28.77c0.129,0,0.255,0.009,0.381,0.018
				c0.05,0.004,0.1,0.008,0.15,0.01l0.041-0.007c5.609-0.695,11.956,2.874,17.976,6.841l61.808,43.702v-4.711L92.299,47.691
				c-7.499-5.08-13.759-7.55-20.285-8.005c-0.113-0.003-0.225-0.01-0.338-0.019C71.559,39.659,71.442,39.65,71.322,39.65z"/>
		</g>
		<g>
			<path fill="#319BB7" d="M99.649,41.212l52.599,37.896l30.723,21.692c5.435,3.837,12.937-0.047,12.941-6.699l0.041-60.66
				c0.002-2.902,2.355-5.253,5.256-5.253h27.345h79.984l0,0h26.047v-4.932H308.54V23.25h-79.984v-0.006l-27.274,0.048
				c-5.678,0.01-10.278,4.612-10.287,10.29l-0.087,60.22c-0.004,2.776-3.136,4.393-5.401,2.789l-33.259-23.544l-48.076-34.694
				c-5.922-4.31-18.591-12.444-32.135-13.999c-0.387-0.009-0.764-0.059-1.154-0.059c-26.538,0-48.051,21.503-48.051,48.028
				s21.494,47.966,48.032,47.966c0.353,0,0.704-0.013,1.056-0.022v0.004c23.669-0.167,42.419-17.769,45.845-39.956l-4.897-0.6
				c-2.992,20.94-20.41,35.038-40.948,35.653v0.008c-0.436,0.01-0.866-0.003-1.307-0.003c-23.683,0-42.882-19.334-42.882-43.133
				c0-23.798,19.199-43.09,42.882-43.09c0.469,0,0.925,0.053,1.39,0.07l-0.001,0.214C80.677,30.236,92.701,35.995,99.649,41.212z"/>
			<path fill="#319BB7" d="M70.863,120.778c-26.754,0-48.519-21.736-48.519-48.454c0-26.752,21.774-48.516,48.539-48.516
				c0.227,0,0.45,0.015,0.674,0.032c0.163,0.011,0.327,0.023,0.492,0.027c13.482,1.546,26.09,9.492,32.411,14.092l48.074,34.693
				l33.255,23.542c0.912,0.646,2.05,0.726,3.043,0.212c0.993-0.513,1.587-1.486,1.589-2.604l0.087-60.22
				c0.009-5.932,4.842-10.766,10.773-10.777l27.763-0.049v0.007l106.031,0.005v5.908H201.211c-2.628,0-4.767,2.138-4.769,4.766
				l-0.042,60.66c-0.002,3.31-1.758,6.194-4.697,7.716c-2.937,1.522-6.307,1.291-9.012-0.618l-30.724-21.692l-52.61-37.904
				c-6.738-5.058-18.631-10.872-27.4-11.681l-0.446-0.041l0.001-0.198c-0.034-0.002-0.068-0.004-0.102-0.007
				c-0.265-0.018-0.529-0.037-0.798-0.037c-23.376,0-42.394,19.111-42.394,42.603c0,23.515,19.018,42.645,42.394,42.645l0.486,0.003
				c0.19,0.002,0.381,0.001,0.569,0.003l0.237-0.011c20.96-0.628,37.606-15.117,40.48-35.235l0.068-0.473l5.871,0.72l-0.077,0.497
				c-3.587,23.227-23.069,40.204-46.324,40.369l-0.267,0.004C71.392,120.77,71.128,120.778,70.863,120.778z M70.883,24.783
				c-26.227,0-47.564,21.327-47.564,47.541c0,26.18,21.328,47.479,47.544,47.479c0.256,0,0.51-0.008,0.765-0.014l0.778-0.02v0.011
				c22.389-0.392,41.109-16.708,44.796-39.04l-3.923-0.481c-3.111,20.198-19.818,34.744-40.873,35.582v0.006l-0.477,0.019
				c-0.282,0.005-0.561,0.003-0.841,0l-0.476-0.003c-23.914,0-43.369-19.568-43.369-43.62c0-24.029,19.455-43.578,43.369-43.578
				c0.291,0,0.578,0.019,0.864,0.039c0.181,0.012,0.362,0.025,0.544,0.032l0.473,0.017l-0.002,0.244
				c8.9,0.976,20.716,6.772,27.448,11.825l52.594,37.892l30.719,21.69c2.401,1.695,5.393,1.901,8.002,0.549
				c2.609-1.351,4.168-3.912,4.17-6.85l0.042-60.66c0.002-3.165,2.579-5.74,5.744-5.74H334.1v-3.957l-106.031-0.01l-26.786,0.047
				c-5.395,0.01-9.791,4.408-9.8,9.803l-0.087,60.22c-0.002,1.467-0.813,2.796-2.116,3.469c-1.303,0.674-2.857,0.564-4.054-0.283
				l-33.259-23.545L103.888,38.75c-6.244-4.544-18.69-12.393-31.906-13.91c-0.137-0.001-0.315-0.014-0.493-0.026
				C71.288,24.798,71.087,24.783,70.883,24.783z"/>
		</g>
		<g>
			<path fill="#319BB7" d="M308.54,82.31h-56.704c-5.817,0-10.55,4.738-10.55,10.562v1.83c0,5.825,4.733,10.562,10.551,10.562
				h56.696h0.004h26.049v-4.932h-26.049h-0.004h-56.696c-3.102,0-5.624-2.525-5.624-5.63v-1.83c0-3.105,2.523-5.63,5.623-5.63
				h56.704v0.001h26.051v-4.932L308.54,82.31L308.54,82.31z"/>
			<path fill="#319BB7" d="M335.075,105.752h-83.237c-6.087,0-11.039-4.957-11.039-11.05v-1.83c0-6.093,4.951-11.05,11.037-11.05
				l83.242,0.001v5.907l-83.242-0.001c-2.832,0-5.135,2.307-5.135,5.143v1.83c0,2.836,2.305,5.143,5.137,5.143h83.237V105.752z
				 M251.836,82.797c-5.548,0-10.061,4.52-10.061,10.075v1.83c0,5.555,4.515,10.075,10.063,10.075H334.1v-3.957h-82.261
				c-3.371,0-6.113-2.744-6.113-6.118v-1.83c0-3.374,2.741-6.118,6.111-6.118l82.267,0.001v-3.957L251.836,82.797z"/>
		</g>
		<g>
			<path fill="#319BB7" d="M233.508,107.765V48.496h-4.932v59.268c0,6.004,4.868,10.872,10.872,10.872h69.092v-4.932h-69.092
				C236.167,113.704,233.508,111.045,233.508,107.765z"/>
			<path fill="#319BB7" d="M309.028,119.124h-69.581c-6.263,0-11.359-5.096-11.359-11.36V48.008h5.907v59.756
				c0,3.006,2.446,5.452,5.452,5.452h69.581V119.124z M229.064,48.984v58.781c0,5.726,4.658,10.385,10.383,10.385h68.606v-3.957
				h-68.606c-3.544,0-6.427-2.884-6.427-6.428V48.984H229.064z"/>
		</g>
		<g>
			<polygon fill="#319BB7" points="243.753,68.707 243.753,73.639 308.54,73.639 308.54,73.64 334.587,73.64 334.587,68.708 
				308.54,68.708 308.54,68.707 			"/>
			<path fill="#319BB7" d="M335.075,74.127l-91.81-0.001v-5.907h91.81V74.127z M244.241,73.151l89.859,0.001v-3.957h-89.859V73.151z
				"/>
		</g>
		<g>
			<rect x="308.541" y="113.703" fill="#319BB7" width="26.041" height="4.932"/>
			<path fill="#319BB7" d="M335.069,119.122h-27.016v-5.907h27.016V119.122z M309.029,118.147h25.065v-3.956h-25.065V118.147z"/>
		</g>
		<g>
			<path fill="#319BB7" d="M308.54,36.614v0.01h-79.967l-14.302-0.007c-5.452,0-9.872,4.42-9.872,9.872v73.661
				c0,2.716-3.068,4.297-5.28,2.721l-46.871-33.254l0.017,5.932l43.943,31.313c5.501,3.92,13.132-0.013,13.132-6.767V46.617
				c0-2.796,2.267-5.062,5.062-5.062h14.172h12.708v5.775c0,7.006,5.699,12.707,12.706,12.707h54.553v-0.002h26.047v-4.932H308.54
				v0.002h-54.553c-4.287,0-7.774-3.489-7.774-7.775v-5.775h62.327v-0.01h26.051v-4.932L308.54,36.614L308.54,36.614z"/>
			<path fill="#319BB7" d="M201.006,128.914c-1.777,0-3.537-0.557-5.081-1.657l-44.147-31.458l-0.02-7.129l47.643,33.802
				c0.89,0.632,1.995,0.712,2.965,0.213c0.968-0.5,1.546-1.448,1.546-2.537v-73.66c0-5.712,4.647-10.36,10.36-10.36l93.781,0.008
				l0.488-0.01h26.539v5.908l-88.378,0.01v5.287c0,4.019,3.269,7.288,7.286,7.288l81.088-0.002v5.907l-81.088,0.001
				c-7.275,0-13.193-5.919-13.193-13.195v-5.287h-26.393c-2.522,0-4.575,2.052-4.575,4.574v73.475c0,3.358-1.782,6.282-4.768,7.82
				C203.759,128.582,202.378,128.914,201.006,128.914z M152.752,95.296l43.738,31.167c2.432,1.732,5.468,1.95,8.121,0.583
				c2.654-1.369,4.239-3.968,4.239-6.954V46.617c0-3.06,2.49-5.549,5.55-5.549h27.368v6.262c0,6.738,5.481,12.22,12.218,12.22
				l80.113-0.001v-3.957l-80.113,0.002c-4.555,0-8.261-3.707-8.261-8.263v-6.262l88.378-0.01v-3.957l-119.832,0.002
				c-5.174,0-9.384,4.21-9.384,9.384v73.661c0,1.44-0.795,2.744-2.074,3.404c-1.279,0.659-2.801,0.552-3.976-0.285l-46.098-32.706
				L152.752,95.296z"/>
		</g>
	</g>
</g>
</svg>
