<?xml version="1.0" encoding="utf-8"?>
<!-- Generator: Adobe Illustrator 17.0.0, SVG Export Plug-In . SVG Version: 6.00 Build 0)  -->
<!DOCTYPE svg PUBLIC "-//W3C//DTD SVG 1.1//EN" "http://www.w3.org/Graphics/SVG/1.1/DTD/svg11.dtd">
<svg version="1.1" id="rounded_gradient_lines" xmlns="http://www.w3.org/2000/svg" xmlns:xlink="http://www.w3.org/1999/xlink"
	 x="0px" y="0px" width="599.443px" height="481.519px" viewBox="0 0 599.443 481.519" enable-background="new 0 0 599.443 481.519"
	 xml:space="preserve">
<g>
	<polygon fill="#9B7F54" points="372.726,408.751 370.251,437.081 341.683,456.244 324.94,472.294 313.791,466.039 327.414,444.634 
		341.029,435.497 347.749,398.025 	"/>
	<polygon fill="#735736" points="328.735,468.281 323.604,469.393 318.476,464.927 327.411,449.542 332.096,449.099 
		332.768,444.415 344.82,437.285 352.183,435.952 350.799,402.826 341.029,435.497 327.414,444.634 313.791,466.039 324.94,472.294 
			"/>
	<polygon fill="#735736" points="356.441,415.875 371.538,422.061 370.251,437.081 360.877,443.543 365.21,436.628 361.118,432.682 
		366.234,432.682 367.403,423.328 	"/>
	<polygon fill="#735736" points="337.664,460.48 343.919,449.331 344.807,454.462 	"/>
	<polygon fill="#C6AF91" points="-0.123,5.321 0.67,140.144 214.008,358.24 286.178,317 	"/>
	<path fill="#856943" d="M0.67,53.698l24.585,88.032c0,0,162.581,134.823,164.96,137.202c2.379,2.379,57.102,21.413,57.102,21.413
		l-46.792,11.896L-0.123,145.695L0.67,53.698z"/>
	<polygon fill="#9B7F54" points="341.381,307.352 599.443,110.007 599.443,251.175 411.692,340.367 	"/>
	<polygon fill="#856943" points="377.46,323.595 366.279,304.311 516.17,205.969 589.133,176.625 600.236,198.832 600.236,110.007 
		334.54,309.314 	"/>
	<g>
		<polygon fill="#CFB3A0" points="-35.917,110.441 -35.917,292.917 168.425,393.498 283.317,402.642 314.724,397.474 
			397.812,433.253 412.522,427.29 427.574,429.288 429.666,415.068 439.555,399.461 417.289,367.652 436.375,381.174 
			440.421,370.164 411.692,340.367 373.978,320.093 322.675,300.471 319.927,298.597 195.458,303.651 		"/>
		<polygon fill="#C6AF91" points="322.675,300.471 322.319,332.218 281.457,388.99 305.569,396.89 341.452,399.866 377.325,341.785 
			373.978,320.093 		"/>
		<polygon fill="#E3C5B5" points="373.978,320.093 377.325,341.785 337.49,406.756 374.511,423.376 398.117,409.576 416.27,367.102 
			406.476,339.2 		"/>
		<path fill="#9B7F54" d="M-35.925,230.303l178.712,142.082l40.077-12.814l13.134,20.516l17.503,6.651l67.956,2.252l24.112,7.9
			l37.932,0.243l16.399,14.008l23.235,7.6l15.686,12.161l13.7-3.611l-12.594,7.021l-72.752-31.407l-41.743,0.795l-114.893-9.144
			c0,0-206.862-101.837-206.464-101.837C-35.527,292.718-35.925,230.303-35.925,230.303z"/>
		<path fill="#9B7F54" d="M-35.917,110.441l-0.688,37.634l17.448-7.138l206.575,174.718c0,0,6.763,16.414,6.763,14.035
			c0-2.379,114.571-30.854,114.571-30.854l-113.294,4.816L-35.917,110.441z"/>
		<polygon fill="#9B7F54" points="317.207,363.611 352.315,378.184 398.117,409.576 412.522,427.29 427.574,429.288 
			428.411,423.642 413.772,424.688 401.642,411.094 400.387,404.611 379.265,393.945 356.679,374.287 318.826,362.367 
			317.363,354.42 316.526,362.158 308.997,368.222 		"/>
		<polygon fill="#9B7F54" points="429.666,415.068 406.034,389.345 364.626,361.112 331.222,345.676 324.921,348.529 
			329.795,343.655 329.438,336.641 332.694,342.748 352.145,352.572 368.6,355.047 385.539,371.777 408.753,383.907 423.81,405.657 
			429.457,408.794 439.555,399.461 		"/>
		<path fill="#9B7F54" d="M335.62,320.591c0.119,0.476,0.713,4.874,0.713,4.874l-1.07,4.399l2.259-2.021l33.05,14.742l3.923,2.853
			l23.183,12.364c0,0,14.504,7.846,14.861,7.965c0.357,0.119,2.615,3.329,2.615,3.329l3.21,2.853l21.191,27.512l-22.267-31.809
			l19.086,13.522l3.627-10.175l-4.399,6.182l-13.315-9.154l-9.511-11.651l-19.022-4.874l-18.189-15.931l-5.707,1.783l-31.624-11.889
			L335.62,320.591z"/>
		<polygon fill="#9B7F54" points="333.251,304.501 334.54,309.314 344.851,310.372 368.601,319.552 374.45,323.853 377.46,323.595 
			408.165,341.829 411.176,346.043 415.648,346.989 440.421,370.164 411.692,340.367 373.978,320.093 		"/>
	</g>
	<polygon fill="#9B7F54" points="223.509,393.249 243.912,420.027 238.174,442.98 262.641,473.984 296.537,467.992 300.515,456.225 
		301.294,439.792 310.22,397.712 	"/>
	<polygon fill="#856943" points="227.993,399.021 243.912,420.027 268.183,398.937 243.651,415.69 239.732,407.718 247.087,400.106 
			"/>
	<polygon fill="#856943" points="249.594,458.037 238.174,442.98 243.912,420.027 268.183,398.937 278.229,399.465 269.24,403.166 
		248.09,421.144 248.09,438.592 288.804,405.281 296.735,404.224 289.332,409.511 255.493,441.765 269.346,446.621 258.292,457.675 
		263.91,467.46 291.273,467.46 300.528,455.714 296.537,467.992 262.641,473.984 	"/>
	<polygon fill="#856943" points="282.112,447.915 275.324,450.976 280.017,450.668 282.554,452.843 	"/>
	<path fill="#856943" d="M268.681,444.441c0,0,14.396-8.361,14.722-8.922c0.102-0.176,8.922-31.675,8.922-31.675l5.354-2.231
		l9.368-1.338l8.922-2.231l11.205,4.86l1.733-1.737l11.153,4.015l6.692,2.231l3.569,6.246l-6.303,19.462l-16.003,8.643
		l-17.845,16.953l-15.614-9.815l-4.015,3.569l-17.845-2.231L268.681,444.441z"/>
	<polygon fill="#735736" points="327.546,421.368 318.845,426.499 326.207,426.499 	"/>
	<polygon fill="#735736" points="345.615,424.64 339.815,428.06 344.723,428.06 	"/>
	<polygon fill="#735736" points="331.115,427.614 336.915,424.194 332.007,424.194 	"/>
	<polygon fill="#856943" points="310.522,299.05 336.915,292.204 347.228,309.821 322.552,300.542 319.927,298.597 	"/>
	<path fill="#735736" d="M283.403,435.518c-0.446,1.784-7.138,7.138-7.138,7.138l3.569,5.8l14.722,0.446l-4.015,3.569l-17.845-2.231
		l-4.015-5.8L283.403,435.518z"/>
	<polygon fill="#735736" points="297.679,401.613 289.203,429.719 296.341,431.057 297.233,436.41 301.695,432.841 294.557,448.902 
		294.11,436.41 283.403,435.518 292.326,403.843 	"/>
	<polygon fill="#735736" points="325.785,405.182 315.97,401.613 309.725,403.397 305.71,433.288 306.602,439.533 299.018,447.117 
		308.832,452.917 324.001,440.872 321.77,435.518 326.231,419.458 327.57,438.195 310.171,458.717 294.557,448.902 301.695,432.841 
		307.048,400.274 315.97,398.044 	"/>
	<path fill="#735736" d="M332.477,403.843c0,1.338,1.785,6.692,1.785,6.692l-4.015,5.353l0.892,14.276l4.015,2.231l7.584-6.246
		l4.461-12.491l-7.138-8.476l6.692,2.231l3.569,6.246l-6.692,20.076l-15.614,8.03l-0.446-29.89l1.338-10.707L332.477,403.843z"/>
</g>
</svg>
