<?xml version="1.0" encoding="utf-8"?>
<!-- Generator: Adobe Illustrator 17.0.0, SVG Export Plug-In . SVG Version: 6.00 Build 0)  -->
<!DOCTYPE svg PUBLIC "-//W3C//DTD SVG 1.1//EN" "http://www.w3.org/Graphics/SVG/1.1/DTD/svg11.dtd">
<svg version="1.1" id="rounded_gradient_lines" xmlns="http://www.w3.org/2000/svg" xmlns:xlink="http://www.w3.org/1999/xlink"
	 x="0px" y="0px" width="239.361px" height="279.216px" viewBox="0 0 239.361 279.216" enable-background="new 0 0 239.361 279.216"
	 xml:space="preserve">
<g>
	<g>
		<g>
			<path fill="#0D9949" d="M3.288,200.086v-73.696c0-2.938,2.381-5.319,5.319-5.319h29.818v-3.379H6.693
				c-3.697,0-6.693,2.997-6.693,6.693V202c0,3.697,2.997,6.693,6.693,6.693h31.732v-3.288H8.607
				C5.67,205.405,3.288,203.024,3.288,200.086z"/>
		</g>
		<g>
			<path fill="#0D9949" d="M38.425,166.696c-0.085,0.002-0.167,0.013-0.253,0.013c-6.184,0-11.196-5.065-11.196-11.313
				c0-6.248,5.013-11.313,11.196-11.313c0.085,0,0.168,0.011,0.253,0.013v-2.134c-0.096-0.002-0.19-0.015-0.286-0.015
				c-7.289,0-13.199,5.976-13.199,13.349s5.909,13.349,13.199,13.349c0.097,0,0.19-0.012,0.286-0.015V166.696z"/>
		</g>
		<g>
			<path fill="#0D9949" d="M38.425,172.434c-0.191,0.006-0.378-0.001-0.57-0.001c-9.473,0-17.153-7.734-17.153-17.253
				c0-9.519,7.68-17.236,17.153-17.236c0.192,0,0.379,0.023,0.57,0.029v-1.947c-0.155-0.004-0.306-0.023-0.462-0.023
				c-10.616,0-19.221,8.601-19.221,19.212S27.34,174.4,37.955,174.4c0.156,0,0.311-0.006,0.466-0.01L38.425,172.434z"/>
		</g>
		<g>
			<path fill="#0D9949" d="M38.425,178.206c-0.152,0.003-0.303,0.012-0.457,0.012c-12.718,0-23.027-10.3-23.027-23.006
				s10.309-23.006,23.027-23.006c0.153,0,0.304,0.009,0.457,0.012v-1.973c-0.154-0.003-0.307-0.012-0.462-0.012
				c-13.802,0-24.991,11.184-24.991,24.979c0,13.796,11.189,24.979,24.991,24.979c0.155,0,0.307-0.009,0.462-0.012V178.206z"/>
		</g>
		<g>
			<g>
				<g>
					<g>
						<path fill="#0D9949" d="M22.862,188.62l-2.132,8.241h-1.896l-2.132-8.241h1.637l1.439,5.538l1.44-5.538H22.862z"/>
					</g>
					<g>
						<path fill="#0D9949" d="M28.845,193.4h-3.863v-1.33h3.863V193.4z"/>
					</g>
					<g>
						<path fill="#0D9949" d="M38.817,188.62v8.241h-1.599v-4.148l-1.698,3.901h-0.489l-1.703-3.901v4.148h-1.593v-8.241h1.549
							l1.989,4.566l1.994-4.566H38.817z"/>
					</g>
					<g>
						<path fill="#0D9949" d="M45.491,188.62l2.132,8.241H45.98l-0.324-1.253h-2.225l-0.324,1.253h-1.643l2.132-8.241H45.491z
							 M43.849,194.01h1.39l-0.698-2.687L43.849,194.01z"/>
					</g>
				</g>
			</g>
			<g>
				<g>
					<g>
						<path fill="#0D9949" d="M51.935,188.62v6.648h2.643v1.593h-4.236v-8.241H51.935z"/>
					</g>
				</g>
			</g>
			<g>
				<g>
					<g>
						<path fill="#0D9949" d="M61.22,188.62l2.132,8.241h-1.643l-0.324-1.253H59.16l-0.324,1.253h-1.643l2.132-8.241H61.22z
							 M59.577,194.01h1.39l-0.698-2.687L59.577,194.01z"/>
					</g>
				</g>
			</g>
			<g>
				<g>
					<g>
						<path fill="#0D9949" d="M70.421,188.62l-2.181,4.687v3.555h-1.593v-3.555l-2.181-4.687h1.758l1.22,2.615l1.22-2.615H70.421z"
							/>
					</g>
					<g>
						<path fill="#0D9949" d="M74.239,191.049c0,0.315,0.121,0.55,0.363,0.703c0.201,0.128,0.471,0.192,0.808,0.192
							c0.773,0,1.419,0.218,1.939,0.654c0.549,0.465,0.824,1.077,0.824,1.835c0,0.725-0.282,1.344-0.846,1.857
							c-0.546,0.494-1.185,0.742-1.917,0.742c-1.095,0-1.938-0.511-2.527-1.533l0.692-0.401l0.687-0.401
							c0.286,0.495,0.668,0.742,1.148,0.742c0.293,0,0.557-0.093,0.791-0.28c0.249-0.198,0.374-0.44,0.374-0.725
							c0-0.315-0.121-0.549-0.363-0.703c-0.201-0.128-0.469-0.192-0.802-0.192c-0.773,0-1.419-0.218-1.939-0.654
							c-0.55-0.465-0.824-1.077-0.824-1.835c0-0.725,0.282-1.342,0.846-1.852c0.546-0.498,1.185-0.747,1.918-0.747
							c1.091,0,1.934,0.513,2.527,1.539l-1.385,0.797c-0.282-0.491-0.663-0.736-1.143-0.736c-0.293,0-0.557,0.092-0.791,0.275
							C74.366,190.521,74.239,190.763,74.239,191.049L74.239,191.049z"/>
					</g>
					<g>
						<path fill="#0D9949" d="M80.996,188.62h1.599v8.241h-1.599V188.62z"/>
					</g>
					<g>
						<path fill="#0D9949" d="M89.27,188.62l2.132,8.241h-1.643l-0.324-1.253H87.21l-0.324,1.253h-1.643l2.132-8.241H89.27z
							 M87.627,194.01h1.39l-0.698-2.687L87.627,194.01z"/>
					</g>
					<g>
						<path fill="#0D9949" d="M100.686,190.049c-0.407,0-0.733,0.214-0.978,0.643l-1.379-0.802c0.557-0.96,1.342-1.44,2.357-1.44
							c0.692,0,1.264,0.22,1.714,0.659c0.454,0.443,0.681,1.006,0.681,1.687c0,0.586-0.165,1.099-0.495,1.538
							c-0.216,0.293-0.615,0.665-1.198,1.115c-0.37,0.286-0.65,0.55-0.841,0.791c-0.242,0.304-0.408,0.646-0.5,1.027h3.22v1.593
							h-4.912l0.027-1.242c0-1.238,0.678-2.381,2.033-3.429l0.082-0.066l0.088-0.066l0.181-0.143
							c0.139-0.113,0.255-0.22,0.346-0.319c0.249-0.267,0.373-0.535,0.373-0.802c0-0.245-0.073-0.432-0.22-0.561
							C101.129,190.111,100.935,190.049,100.686,190.049L100.686,190.049z"/>
					</g>
					<g>
						<path fill="#0D9949" d="M109.009,188.45c0.729,0,1.352,0.26,1.868,0.78c0.52,0.517,0.78,1.139,0.78,1.868v3.291
							c0,0.725-0.26,1.348-0.78,1.868c-0.516,0.516-1.139,0.775-1.868,0.775c-0.729,0-1.352-0.258-1.868-0.775
							c-0.52-0.52-0.78-1.143-0.78-1.868v-3.291c0-0.729,0.26-1.352,0.78-1.868C107.657,188.71,108.28,188.45,109.009,188.45
							L109.009,188.45z M109.009,190.049c-0.289,0-0.537,0.103-0.742,0.308c-0.209,0.205-0.313,0.452-0.313,0.742v3.291
							c0,0.286,0.104,0.533,0.313,0.742c0.205,0.205,0.452,0.308,0.742,0.308c0.289,0,0.536-0.103,0.742-0.308
							c0.209-0.209,0.313-0.456,0.313-0.742v-3.291c0-0.289-0.104-0.537-0.313-0.742
							C109.546,190.151,109.298,190.049,109.009,190.049L109.009,190.049z"/>
					</g>
					<g>
						<path fill="#0D9949" d="M117.915,188.62v8.241h-1.593v-6.648h-0.934v-1.593H117.915z"/>
					</g>
					<g>
						<path fill="#0D9949" d="M123.013,192.417c-0.253-0.333-0.379-0.712-0.379-1.137v-0.352c0-0.685,0.242-1.269,0.725-1.753
							c0.487-0.484,1.073-0.725,1.758-0.725c0.681,0,1.265,0.242,1.753,0.725c0.487,0.483,0.731,1.068,0.731,1.753v0.352
							c0,0.469-0.125,0.901-0.374,1.297c0.359,0.432,0.539,0.976,0.539,1.632v0.187c0,0.729-0.26,1.35-0.78,1.863
							c-0.52,0.516-1.143,0.775-1.868,0.775c-0.729,0-1.354-0.258-1.874-0.775c-0.516-0.513-0.775-1.134-0.775-1.863v-0.374
							C122.469,193.424,122.65,192.889,123.013,192.417L123.013,192.417z M126.172,194.208c0-0.333-0.09-0.57-0.269-0.709
							c-0.161-0.128-0.423-0.192-0.786-0.192c-0.242,0-0.475-0.022-0.698-0.066c-0.238,0.209-0.357,0.469-0.357,0.78v0.374
							c0,0.289,0.105,0.535,0.313,0.736c0.205,0.205,0.452,0.308,0.742,0.308c0.289,0,0.536-0.103,0.742-0.308
							c0.209-0.201,0.313-0.447,0.313-0.736V194.208z M125.117,191.714c0.264,0,0.507,0.024,0.731,0.071
							c0.106-0.154,0.159-0.322,0.159-0.505v-0.352c0-0.245-0.088-0.454-0.264-0.626c-0.176-0.172-0.385-0.258-0.626-0.258
							c-0.245,0-0.454,0.086-0.626,0.258c-0.176,0.172-0.264,0.381-0.264,0.626v0.352c0,0.158,0.113,0.275,0.341,0.352
							c0.084,0.029,0.181,0.051,0.291,0.066C124.95,191.708,125.037,191.714,125.117,191.714L125.117,191.714z"/>
					</g>
					<g>
						<path fill="#0D9949" d="M137.868,197.521h-1.593v-9.577h1.593V197.521z"/>
					</g>
					<g>
						<path fill="#0D9949" d="M149.916,188.62l2.132,8.241h-1.643l-0.324-1.253h-2.225l-0.324,1.253h-1.643l2.132-8.241H149.916z
							 M148.273,194.01h1.39l-0.698-2.687L148.273,194.01z"/>
					</g>
					<g>
						<path fill="#0D9949" d="M156.36,193.538v3.324h-1.593v-8.241h3.038c0.674,0,1.253,0.24,1.736,0.72
							c0.48,0.484,0.72,1.064,0.72,1.742c0,0.674-0.24,1.253-0.72,1.736c-0.48,0.48-1.059,0.72-1.736,0.72H156.36z M156.36,190.214
							v1.731h1.445c0.234,0,0.438-0.086,0.61-0.258c0.168-0.168,0.253-0.37,0.253-0.604c0-0.238-0.084-0.441-0.253-0.61
							c-0.172-0.172-0.376-0.258-0.61-0.258H156.36z"/>
					</g>
					<g>
						<path fill="#0D9949" d="M164.754,193.538v3.324h-1.593v-8.241h3.038c0.674,0,1.253,0.242,1.736,0.725
							c0.48,0.48,0.72,1.059,0.72,1.736c0,0.517-0.15,0.987-0.45,1.412c-0.297,0.421-0.689,0.72-1.176,0.896l1.429,3.472h-1.725
							l-1.368-3.324H164.754z M164.754,190.214v1.731h1.445c0.234,0,0.436-0.084,0.604-0.253c0.172-0.172,0.258-0.376,0.258-0.61
							c0-0.238-0.086-0.441-0.258-0.61c-0.168-0.172-0.37-0.258-0.604-0.258H164.754z"/>
					</g>
					<g>
						<path fill="#0D9949" d="M171.649,188.62h1.599v8.241h-1.599V188.62z"/>
					</g>
					<g>
						<path fill="#0D9949" d="M178.231,188.62v6.648h2.643v1.593h-4.236v-8.241H178.231z"/>
					</g>
					<g>
						<path fill="#0D9949" d="M190.02,190.049c-0.407,0-0.733,0.214-0.978,0.643l-1.379-0.802c0.557-0.96,1.342-1.44,2.357-1.44
							c0.692,0,1.264,0.22,1.714,0.659c0.454,0.443,0.681,1.006,0.681,1.687c0,0.586-0.165,1.099-0.495,1.538
							c-0.216,0.293-0.615,0.665-1.198,1.115c-0.37,0.286-0.65,0.55-0.841,0.791c-0.242,0.304-0.408,0.646-0.5,1.027h3.22v1.593
							h-4.912l0.027-1.242c0-1.238,0.678-2.381,2.033-3.429l0.082-0.066l0.088-0.066l0.181-0.143
							c0.139-0.113,0.255-0.22,0.346-0.319c0.249-0.267,0.374-0.535,0.374-0.802c0-0.245-0.073-0.432-0.22-0.561
							C190.463,190.111,190.269,190.049,190.02,190.049L190.02,190.049z"/>
					</g>
					<g>
						<path fill="#0D9949" d="M199.678,188.62l-2.148,4.703h1.362v-1.945h1.593v1.945h0.621v1.593h-0.621v1.945h-1.593v-1.945
							h-3.434v-0.896l2.467-5.401H199.678z"/>
					</g>
					<g>
						<path fill="#0D9949" d="M206.968,193.4h-3.862v-1.33h3.862V193.4z"/>
					</g>
					<g>
						<path fill="#0D9949" d="M212.209,190.049c-0.407,0-0.733,0.214-0.978,0.643l-1.379-0.802c0.557-0.96,1.343-1.44,2.357-1.44
							c0.692,0,1.264,0.22,1.714,0.659c0.454,0.443,0.681,1.006,0.681,1.687c0,0.586-0.165,1.099-0.494,1.538
							c-0.216,0.293-0.615,0.665-1.198,1.115c-0.37,0.286-0.65,0.55-0.841,0.791c-0.242,0.304-0.409,0.646-0.5,1.027h3.22v1.593
							h-4.912l0.027-1.242c0-1.238,0.678-2.381,2.033-3.429l0.082-0.066l0.088-0.066l0.181-0.143
							c0.139-0.113,0.255-0.22,0.346-0.319c0.249-0.267,0.374-0.535,0.374-0.802c0-0.245-0.073-0.432-0.22-0.561
							C212.652,190.111,212.458,190.049,212.209,190.049L212.209,190.049z"/>
					</g>
					<g>
						<path fill="#0D9949" d="M218.428,192.417c-0.253-0.333-0.379-0.712-0.379-1.137v-0.352c0-0.685,0.242-1.269,0.725-1.753
							c0.487-0.484,1.073-0.725,1.758-0.725c0.681,0,1.265,0.242,1.752,0.725c0.487,0.483,0.731,1.068,0.731,1.753v0.352
							c0,0.469-0.125,0.901-0.374,1.297c0.359,0.432,0.539,0.976,0.539,1.632v0.187c0,0.729-0.26,1.35-0.78,1.863
							c-0.52,0.516-1.143,0.775-1.868,0.775c-0.729,0-1.354-0.258-1.874-0.775c-0.516-0.513-0.775-1.134-0.775-1.863v-0.374
							C217.884,193.424,218.066,192.889,218.428,192.417L218.428,192.417z M221.587,194.208c0-0.333-0.09-0.57-0.269-0.709
							c-0.161-0.128-0.423-0.192-0.786-0.192c-0.242,0-0.475-0.022-0.698-0.066c-0.238,0.209-0.357,0.469-0.357,0.78v0.374
							c0,0.289,0.104,0.535,0.313,0.736c0.205,0.205,0.452,0.308,0.742,0.308c0.289,0,0.536-0.103,0.742-0.308
							c0.209-0.201,0.313-0.447,0.313-0.736V194.208z M220.533,191.714c0.264,0,0.507,0.024,0.731,0.071
							c0.106-0.154,0.159-0.322,0.159-0.505v-0.352c0-0.245-0.088-0.454-0.264-0.626c-0.176-0.172-0.385-0.258-0.626-0.258
							c-0.246,0-0.454,0.086-0.626,0.258c-0.176,0.172-0.264,0.381-0.264,0.626v0.352c0,0.158,0.113,0.275,0.341,0.352
							c0.084,0.029,0.181,0.051,0.291,0.066C220.366,191.708,220.452,191.714,220.533,191.714L220.533,191.714z"/>
					</g>
				</g>
			</g>
		</g>
	</g>
	<g>
		<g>
			<g>
				<g>
					<path fill="#0191B2" d="M39.097,82.457C50.349,77.402,60.345,72.239,70.381,66.5v-3.787
						c-11.364,6.576-22.679,12.332-32.629,16.743L39.097,82.457z"/>
				</g>
				<g>
					<path fill="#0191B2" d="M40.208,87.716c11.252-5.055,20.036-9.597,30.173-15.131v-3.787
						c-11.447,6.297-21.576,11.51-31.526,15.921L40.208,87.716z"/>
				</g>
				<g>
					<path fill="#0191B2" d="M41.319,92.975c11.382-5.259,18.926-8.956,29.062-14.49v-3.7
						c-11.495,6.136-20.634,10.837-30.422,15.197L41.319,92.975z"/>
				</g>
				<g>
					<rect x="38.425" y="264.999" fill="#0191B2" width="32.024" height="3.314"/>
				</g>
				<g>
					<rect x="38.425" y="270.451" fill="#0191B2" width="32.024" height="3.314"/>
				</g>
				<g>
					<rect x="38.425" y="275.902" fill="#0191B2" width="32.024" height="3.314"/>
				</g>
			</g>
			<g>
				<rect x="38.425" y="117.691" fill="#0191B2" width="32.087" height="3.379"/>
			</g>
			<g>
				<rect x="38.425" y="205.359" fill="#0191B2" width="32.087" height="3.379"/>
			</g>
		</g>
		<g>
			<path fill="#0191B2" d="M54.757,158.169c-1.197,8.376-8.164,14.016-16.38,14.262v1.961c9.468-0.067,16.968-7.108,18.338-15.983
				L54.757,158.169z"/>
		</g>
		<g>
			<path fill="#0191B2" d="M49.384,155.549c-0.111,7.078-6.499,10.924-10.96,11.147v1.934c5.652-0.187,12.744-5.01,12.947-13.077
				C51.372,155.554,49.385,155.534,49.384,155.549z"/>
		</g>
		<g>
			<path fill="#0191B2" d="M59.876,162.216c-2.65,9.048-11.746,16.001-21.498,16.004v1.961c10.102-0.018,20.029-6.753,23.377-17.365
				L59.876,162.216z"/>
		</g>
		<g>
			<path fill="#0191B2" d="M70.51,164.492l-25.026-17.695c-2.512-1.655-4.951-2.969-7.059-2.706v-2.128
				c3.076,0.213,5.717,1.544,8.218,3.238L70.51,162.13V164.492z"/>
		</g>
		<g>
			<path fill="#0191B2" d="M70.51,157.926l-21.04-15.159c-2.78-2.087-7.589-4.39-11.06-4.711l0.015-2.032
				c5.418,0.622,10.486,3.875,12.854,5.6l19.231,13.878V157.926z"/>
		</g>
		<g>
			<path fill="#0191B2" d="M38.425,132.223c4.899,0.087,9.659,1.652,14.265,4.878l17.873,14.079v-2.507l-16.768-13.2
				c-4.809-3.345-9.92-5.151-15.37-5.228V132.223z"/>
		</g>
	</g>
	<g>
		<g>
			<g>
				<g>
					<path fill="#059EB5" d="M70.381,66.5c9.734-5.512,20.423-12.294,30.69-19.547v-4.029c-9.902,7.01-19.725,13.444-30.69,19.789
						V66.5z"/>
				</g>
				<g>
					<path fill="#059EB5" d="M70.381,72.585c9.69-5.485,20.29-11.807,30.69-18.908v-3.98c-9.927,6.85-19.685,12.836-30.69,19.101
						V72.585z"/>
				</g>
				<g>
					<path fill="#059EB5" d="M70.381,78.56c12.405-6.991,20.757-11.589,30.69-18.266v-3.906c-9.78,6.559-19.575,12.266-30.69,18.384
						V78.56z"/>
				</g>
				<g>
					<path fill="#059EB5" d="M101.071,66.593c-6.916,4.318-13.896,8.318-20.944,11.967l-1.514-2.919
						c7.231-3.711,14.745-8.086,22.458-12.929V66.593z"/>
				</g>
				<g>
					<path fill="#059EB5" d="M101.071,72.118c-6.671,3.719-13.664,7.434-20.944,11.145l-1.514-2.919
						c7.421-3.883,14.911-7.881,22.458-11.974V72.118z"/>
				</g>
				<g>
					<path fill="#059EB5" d="M101.071,77.813c-6.383,3.056-12.924,5.99-20.944,10.153l-1.514-2.919
						c7.987-4.062,15.703-7.589,22.458-10.881V77.813z"/>
				</g>
				<g>
					<path fill="#059EB5" d="M101.071,83.624c-6.332,2.597-12.978,5.032-20.944,9.044l-1.514-2.919
						c7.808-3.914,15.672-6.94,22.458-9.666V83.624z"/>
				</g>
				<g>
					<path fill="#059EB5" d="M101.071,89.575c-5.075,1.748-14.002,4.366-20.944,7.796l-1.514-2.919
						c4.515-2.318,12.46-5.167,22.458-8.334V89.575z"/>
				</g>
				<g>
					<path fill="#059EB5" d="M101.071,95.661c-7.991,2.027-15.585,3.867-20.944,6.413l-1.514-2.919
						c4.433-2.294,13.494-4.594,22.458-6.893V95.661z"/>
				</g>
				<g>
					<path fill="#059EB5" d="M101.071,101.851c-8.427,1.561-16.929,3.119-20.944,4.926l-1.514-2.919
						c3.521-1.867,13.717-3.639,22.458-5.352V101.851z"/>
				</g>
				<g>
					<path fill="#059EB5" d="M101.071,108.16c-8.404,1.061-17.914,2.086-20.944,3.32l-1.513-2.919
						c3.72-1.553,13.285-2.615,22.458-3.711V108.16z"/>
				</g>
				<g>
					<rect x="70.449" y="264.999" fill="#059EB5" width="30.622" height="3.314"/>
				</g>
				<g>
					<rect x="79.37" y="259.773" fill="#059EB5" width="21.701" height="3.314"/>
				</g>
				<g>
					<rect x="79.37" y="253.731" fill="#059EB5" width="21.701" height="3.314"/>
				</g>
				<g>
					<rect x="79.37" y="247.688" fill="#059EB5" width="21.701" height="3.314"/>
				</g>
				<g>
					<rect x="79.37" y="241.646" fill="#059EB5" width="21.701" height="3.314"/>
				</g>
				<g>
					<rect x="79.37" y="235.604" fill="#059EB5" width="21.701" height="3.314"/>
				</g>
				<g>
					<rect x="79.37" y="229.561" fill="#059EB5" width="21.701" height="3.314"/>
				</g>
				<g>
					<rect x="79.37" y="223.519" fill="#059EB5" width="21.701" height="3.314"/>
				</g>
				<g>
					<rect x="79.37" y="217.477" fill="#059EB5" width="21.701" height="3.314"/>
				</g>
				<g>
					<rect x="79.37" y="211.434" fill="#059EB5" width="21.701" height="3.314"/>
				</g>
				<g>
					<rect x="70.449" y="270.451" fill="#059EB5" width="30.622" height="3.314"/>
				</g>
				<g>
					<rect x="70.449" y="275.902" fill="#059EB5" width="30.622" height="3.314"/>
				</g>
				<g>
					<path fill="#059EB5" d="M101.071,114.569c-8.652,0.507-17.595,1.01-20.944,1.613l-1.513-2.919
						c1.994-0.846,12.259-1.419,22.458-1.993V114.569z"/>
				</g>
			</g>
			<g>
				<rect x="70.512" y="117.691" fill="#059EB5" width="30.559" height="3.379"/>
			</g>
			<g>
				<rect x="70.512" y="205.359" fill="#059EB5" width="30.559" height="3.379"/>
			</g>
		</g>
		<g>
			<path fill="#059EB5" d="M101.032,130.173H88.21c-4.227,0-7.637,3.458-7.579,7.684l0.255,18.539
				c0.002,0.174-0.199,0.273-0.335,0.165l-9.991-7.911l0.003,2.537l8.851,6.998c1.407,1.113,3.476,0.094,3.452-1.7l-0.251-18.605
				c-0.043-3.162,2.51-5.748,5.673-5.746l12.758,0.009L101.032,130.173z"/>
		</g>
		<g>
			<path fill="#059EB5" d="M86.009,139.716l-0.035,24.088c-0.002,1.11-1.254,1.757-2.161,1.116l-13.304-9.418v2.424l12.29,8.677
				c2.174,1.535,5.175-0.019,5.177-2.68l0.016-24.265c0.001-1.161,0.942-2.101,2.103-2.101h10.938v-1.977l-10.91,0.019
				C87.852,135.603,86.012,137.444,86.009,139.716z"/>
		</g>
		<g>
			<path fill="#059EB5" d="M101.041,142.905v-1.973l-5.721-0.003c-2.181,0-3.949,1.768-3.949,3.949v29.465
				c0,1.086-1.227,1.719-2.112,1.088L70.51,162.13l0.007,2.373l17.577,12.525c2.2,1.568,5.253-0.005,5.253-2.707V144.93
				c0-1.118,0.906-2.025,2.025-2.025H101.041z"/>
		</g>
	</g>
	<g>
		<g>
			<path fill="none" stroke="#080607" stroke-width="3" stroke-miterlimit="10" d="M103.319,142.04"/>
		</g>
		<g>
			<path fill="none" stroke="#080607" stroke-width="3" stroke-miterlimit="10" d="M139.502,142.04"/>
		</g>
		<g>
			<path fill="none" stroke="#080607" stroke-width="3" stroke-miterlimit="10" d="M103.319,142.04"/>
		</g>
		<g>
			<path fill="none" stroke="#080607" stroke-width="3" stroke-miterlimit="10" d="M139.502,142.04"/>
		</g>
		<g>
			<path fill="#1479BE" d="M133.027,168.389h-22.681c-2.328,0-4.221-1.895-4.221-4.225v-0.732c0-2.33,1.893-4.225,4.22-4.225h22.682
				v1.973h-22.682c-1.24,0-2.249,1.01-2.249,2.252v0.732c0,1.242,1.009,2.252,2.25,2.252h22.681V168.389z"/>
		</g>
		<g>
			<path fill="#1479BE" d="M133.028,150.298h-21.822c-2.803,0-5.082-2.28-5.082-5.083v-3.175h1.973v3.175
				c0,1.715,1.395,3.11,3.109,3.11h21.822V150.298z"/>
		</g>
		<g>
			<path fill="#1479BE" d="M133.028,173.738H105.39c-2.402,0-4.349-1.947-4.349-4.349v-23.708h1.973v23.708
				c0,1.312,1.064,2.376,2.376,2.376h27.638V173.738z"/>
		</g>
		<g>
			<g>
				<rect x="107.113" y="153.766" fill="#1479BE" width="25.915" height="1.973"/>
			</g>
			<g>
				<rect x="101.187" y="177.299" fill="#1479BE" width="31.841" height="1.973"/>
			</g>
			<g>
				<g>
					<path fill="#1479BE" d="M101.071,46.92c10.894-7.711,21.6-15.922,32-24.944v-4.368c-11.112,9.669-21.758,18.052-32,25.316
						V46.92z"/>
				</g>
				<g>
					<path fill="#1479BE" d="M101.071,53.713c10.894-7.711,21.6-15.276,32-24.298v-4.282c-11.112,9.669-21.758,17.321-32,24.584
						V53.713z"/>
				</g>
				<g>
					<path fill="#1479BE" d="M101.071,60.294c11.144-7.529,21.845-14.75,32-23.418v-4.239c-11.215,9.51-21.899,17.05-32,23.752
						V60.294z"/>
				</g>
				<g>
					<path fill="#1479BE" d="M101.071,66.593c6.964-4.313,21.751-14.316,32-22.882v-4.239c-11.212,9.264-22.123,16.917-32,23.242
						V66.593z"/>
				</g>
				<g>
					<path fill="#1479BE" d="M133.071,52.624c-10.294,6.985-20.947,13.5-32,19.495V68.37c11.429-6.308,21.925-12.771,32-19.738
						V52.624z"/>
				</g>
				<g>
					<path fill="#1479BE" d="M133.071,61.367c-11.19,6.741-21.326,11.218-32,16.48v-3.68c12.751-6.202,21.893-10.576,32-16.568
						V61.367z"/>
				</g>
				<g>
					<path fill="#1479BE" d="M133.071,70.142c-9.965,4.854-21.175,9.245-32,13.482v-3.54c10.752-4.267,21.674-8.63,32-13.583V70.142
						z"/>
				</g>
				<g>
					<polygon fill="#1479BE" points="133.021,112.706 101.071,114.569 101.071,111.271 133.036,109.417 					"/>
				</g>
				<g>
					<path fill="#1479BE" d="M133.036,104.287c-9.924,1.278-20.669,2.572-31.965,3.879v-3.315
						c10.995-1.236,21.68-2.524,31.965-3.878V104.287z"/>
				</g>
				<g>
					<path fill="#1479BE" d="M133.036,95.829c-10.332,2.065-21.003,4.072-31.965,6.029v-3.351
						c10.943-1.911,21.612-3.916,31.965-6.029V95.829z"/>
				</g>
				<g>
					<path fill="#1479BE" d="M133.036,87.337c-9.575,2.742-20.386,5.52-31.965,8.322v-3.396c10.957-2.634,21.629-5.401,31.965-8.322
						V87.337z"/>
				</g>
				<g>
					<path fill="#1479BE" d="M133.036,78.787c-10.19,3.815-20.86,7.351-31.965,10.739v-3.407c11.065-3.456,21.74-7.123,31.965-10.87
						V78.787z"/>
				</g>
				<g>
					<rect x="101.071" y="264.999" fill="#1479BE" width="31.974" height="3.314"/>
				</g>
				<g>
					<rect x="101.071" y="259.773" fill="#1479BE" width="31.974" height="3.314"/>
				</g>
				<g>
					<rect x="101.071" y="253.731" fill="#1479BE" width="31.974" height="3.314"/>
				</g>
				<g>
					<rect x="101.071" y="247.688" fill="#1479BE" width="31.974" height="3.314"/>
				</g>
				<g>
					<rect x="101.071" y="241.646" fill="#1479BE" width="31.974" height="3.314"/>
				</g>
				<g>
					<rect x="101.071" y="235.604" fill="#1479BE" width="31.974" height="3.314"/>
				</g>
				<g>
					<rect x="101.071" y="229.561" fill="#1479BE" width="31.974" height="3.314"/>
				</g>
				<g>
					<rect x="101.071" y="223.519" fill="#1479BE" width="31.974" height="3.314"/>
				</g>
				<g>
					<rect x="101.071" y="217.477" fill="#1479BE" width="31.974" height="3.314"/>
				</g>
				<g>
					<rect x="101.071" y="211.434" fill="#1479BE" width="31.974" height="3.314"/>
				</g>
				<g>
					<rect x="101.071" y="270.451" fill="#1479BE" width="31.974" height="3.314"/>
				</g>
				<g>
					<rect x="101.071" y="275.902" fill="#1479BE" width="31.974" height="3.314"/>
				</g>
			</g>
			<g>
				<rect x="101.094" y="117.691" fill="#1479BE" width="31.942" height="3.379"/>
			</g>
			<g>
				<rect x="101.094" y="205.359" fill="#1479BE" width="31.942" height="3.379"/>
			</g>
		</g>
		<g>
			<rect x="101.029" y="130.173" fill="#1479BE" width="31.999" height="1.964"/>
		</g>
		<g>
			<rect x="101.034" y="135.583" fill="#1479BE" width="31.994" height="1.975"/>
		</g>
		<g>
			<rect x="101.041" y="140.932" fill="#1479BE" width="31.987" height="1.973"/>
		</g>
	</g>
	<g>
		<g>
			<g>
				<path fill="#3253A2" d="M133.071,17.608C139.324,12.192,145.614,6.327,151.959,0l2.314,2.335
					c-6.481,6.531-13.602,13.08-21.202,19.641V17.608z"/>
			</g>
			<g>
				<path fill="#3253A2" d="M133.071,25.133c6.031-5.136,12.612-11.264,19.203-17.907l2.341,2.308
					c-6.43,6.758-13.894,13.519-21.545,19.856V25.133z"/>
			</g>
			<g>
				<path fill="#3253A2" d="M133.071,32.636c6.031-5.136,12.925-11.542,19.516-18.186l2.37,2.282
					c-6.43,6.758-14.236,13.807-21.886,20.143V32.636z"/>
			</g>
			<g>
				<path fill="#3253A2" d="M133.071,39.488c6.031-5.136,14.282-12.201,20.873-18.844l2.301,2.34
					c-6.49,6.636-15.523,14.391-23.173,20.728V39.488z"/>
			</g>
			<g>
				<path fill="#3253A2" d="M133.071,48.633c7.352-5.495,14.271-10.754,20.873-17.143l2.301,2.34
					c-6.403,7.009-15.372,13.101-23.173,18.795V48.633z"/>
			</g>
			<g>
				<path fill="#3253A2" d="M133.071,57.598c8.238-4.975,14.399-8.966,20.863-15.263l2.311,2.339
					c-6.242,6.289-15.131,12.033-23.173,16.688V57.598z"/>
			</g>
			<g>
				<path fill="#3253A2" d="M133.071,66.375c8.329-4.6,14.399-6.896,20.863-13.194l2.311,2.339
					c-6.242,6.289-15.003,10.464-23.173,14.618V66.375z"/>
			</g>
			<g>
				<path fill="#3253A2" d="M133.071,75.238c8.968-3.803,13.125-5.099,20.863-11.257l2.311,2.339
					c-6.375,6.248-17.218,9.942-23.173,12.451V75.238z"/>
			</g>
			<g>
				<path fill="#3253A2" d="M133.036,83.941c8.475-2.767,12.548-3.457,20.898-9.068l2.311,2.339
					c-4.932,4.933-17.242,8.158-23.173,10.125L133.036,83.941z"/>
			</g>
			<g>
				<path fill="#3253A2" d="M133.036,92.477c12.194-2.677,18.641-4.665,20.898-6.758l2.311,2.339
					c-3.522,3.626-17.436,6.51-23.173,7.753L133.036,92.477z"/>
			</g>
			<g>
				<path fill="#3253A2" d="M133.036,100.972c10.692-1.617,18.539-2.646,20.898-4.407l2.311,2.339
					c-2.789,2.746-17.494,4.495-23.173,5.365L133.036,100.972z"/>
			</g>
			<g>
				<path fill="#3253A2" d="M133.036,109.417c9.879-0.714,17.752-1.252,20.898-2.027l2.311,2.339
					c-2.505,2.006-17.558,2.453-23.173,2.963L133.036,109.417z"/>
			</g>
			<g>
				<rect x="133.036" y="117.691" fill="#3253A2" width="30.958" height="3.379"/>
			</g>
			<g>
				<rect x="133.036" y="205.359" fill="#3253A2" width="30.958" height="3.379"/>
			</g>
			<g>
				<rect x="133.045" y="264.999" fill="#3253A2" width="30.673" height="3.314"/>
			</g>
			<g>
				<rect x="133.045" y="259.773" fill="#3253A2" width="22.045" height="3.314"/>
			</g>
			<g>
				<rect x="133.045" y="253.731" fill="#3253A2" width="22.045" height="3.314"/>
			</g>
			<g>
				<rect x="133.045" y="247.688" fill="#3253A2" width="22.045" height="3.314"/>
			</g>
			<g>
				<rect x="133.045" y="241.646" fill="#3253A2" width="22.045" height="3.314"/>
			</g>
			<g>
				<rect x="133.045" y="235.604" fill="#3253A2" width="22.045" height="3.314"/>
			</g>
			<g>
				<rect x="133.045" y="229.561" fill="#3253A2" width="22.045" height="3.314"/>
			</g>
			<g>
				<rect x="133.045" y="223.519" fill="#3253A2" width="22.045" height="3.314"/>
			</g>
			<g>
				<rect x="133.045" y="217.477" fill="#3253A2" width="22.045" height="3.314"/>
			</g>
			<g>
				<rect x="133.045" y="211.434" fill="#3253A2" width="22.045" height="3.314"/>
			</g>
			<g>
				<rect x="133.045" y="270.451" fill="#3253A2" width="30.673" height="3.314"/>
			</g>
			<g>
				<rect x="133.045" y="275.902" fill="#3253A2" width="30.673" height="3.314"/>
			</g>
		</g>
		<g>
			<rect x="133.028" y="171.765" fill="#3253A2" width="10.417" height="1.973"/>
		</g>
		<g>
			<rect x="133.027" y="177.299" fill="#3253A2" width="10.42" height="1.973"/>
		</g>
		<g>
			<rect x="133.026" y="166.416" fill="#3253A2" width="10.421" height="1.973"/>
		</g>
		<g>
			<rect x="133.028" y="159.208" fill="#3253A2" width="10.421" height="1.973"/>
		</g>
		<g>
			<rect x="133.028" y="153.766" fill="#3253A2" width="10.419" height="1.973"/>
		</g>
		<g>
			<rect x="133.028" y="148.325" fill="#3253A2" width="10.419" height="1.973"/>
		</g>
		<g>
			<rect x="133.028" y="140.928" fill="#3253A2" width="10.421" height="1.973"/>
		</g>
		<g>
			<rect x="133.028" y="135.585" fill="#3253A2" width="10.419" height="1.973"/>
		</g>
		<g>
			<polygon fill="#3253A2" points="143.447,132.135 133.028,132.135 133.028,130.171 143.447,130.162 			"/>
		</g>
	</g>
	<g>
		<g>
			<rect x="163.718" y="264.999" fill="#224185" width="33.528" height="3.314"/>
		</g>
		<g>
			<rect x="163.767" y="117.691" fill="#224185" width="33.465" height="3.379"/>
		</g>
		<g>
			<rect x="163.767" y="205.359" fill="#224185" width="33.465" height="3.379"/>
		</g>
		<g>
			<rect x="163.718" y="270.451" fill="#224185" width="33.528" height="3.314"/>
		</g>
		<g>
			<rect x="163.718" y="275.902" fill="#224185" width="33.528" height="3.314"/>
		</g>
	</g>
	<g>
		<g>
			<path fill="#282965" d="M197.246,117.691v3.379h33.789c2.783,0,5.039,2.256,5.039,5.038v74.212c0,2.783-2.256,5.039-5.039,5.039
				h-33.789v3.379h34.607c4.147,0,7.508-3.362,7.508-7.508V125.2c0-4.147-3.362-7.508-7.508-7.508H197.246z"/>
		</g>
		<g>
			<g>
				<g>
					<path fill="#282965" d="M158.095,137.778v4.546h-2.179v-11.271h4.155c0.922,0,1.713,0.328,2.375,0.984
						c0.656,0.661,0.984,1.455,0.984,2.382c0,0.922-0.328,1.713-0.984,2.374c-0.656,0.656-1.448,0.985-2.375,0.985H158.095z
						 M158.095,133.233v2.367h1.976c0.32,0,0.599-0.117,0.834-0.353c0.231-0.23,0.346-0.506,0.346-0.827
						c0-0.325-0.115-0.604-0.346-0.834c-0.236-0.235-0.514-0.353-0.834-0.353H158.095z"/>
				</g>
			</g>
			<g>
				<g>
					<path fill="#282965" d="M174.513,131.053v2.179h-3.614v2.367h2.773v2.179h-2.773v2.367h3.614v2.179h-5.793v-11.271H174.513z"/>
				</g>
			</g>
			<g>
				<g>
					<path fill="#282965" d="M186.212,131.963c0.761,0.762,1.142,1.675,1.142,2.742v0.391c0,1.072-0.381,1.989-1.142,2.75
						c-0.757,0.756-1.671,1.135-2.743,1.135c-1.067,0-1.981-0.378-2.742-1.135c-0.762-0.762-1.142-1.678-1.142-2.75v-0.391
						c0-1.067,0.381-1.981,1.142-2.742c0.761-0.761,1.676-1.142,2.742-1.142C184.541,130.82,185.455,131.201,186.212,131.963z
						 M187.023,142.324h-7.1v-2.179h7.1V142.324z M182.267,133.503c-0.335,0.336-0.503,0.736-0.503,1.202v0.391
						c0,0.471,0.168,0.874,0.503,1.21c0.331,0.331,0.731,0.496,1.202,0.496c0.471,0,0.872-0.165,1.202-0.496
						c0.336-0.335,0.503-0.739,0.503-1.21v-0.391c0-0.466-0.168-0.866-0.503-1.202c-0.33-0.331-0.731-0.496-1.202-0.496
						C182.998,133.007,182.598,133.172,182.267,133.503z"/>
				</g>
			</g>
			<g>
				<g>
					<path fill="#282965" d="M194.951,137.778v4.546h-2.179v-11.271h4.155c0.921,0,1.713,0.328,2.375,0.984
						c0.656,0.661,0.984,1.455,0.984,2.382c0,0.922-0.328,1.713-0.984,2.374c-0.656,0.656-1.448,0.985-2.375,0.985H194.951z
						 M194.951,133.233v2.367h1.976c0.32,0,0.599-0.117,0.834-0.353c0.231-0.23,0.346-0.506,0.346-0.827
						c0-0.325-0.115-0.604-0.346-0.834c-0.236-0.235-0.514-0.353-0.834-0.353H194.951z"/>
				</g>
			</g>
			<g>
				<g>
					<path fill="#282965" d="M207.754,131.053v9.092h3.614v2.179h-5.793v-11.271H207.754z"/>
				</g>
			</g>
			<g>
				<g>
					<path fill="#282965" d="M222.016,131.053v2.179h-3.614v2.367h2.773v2.179h-2.773v2.367h3.614v2.179h-5.793v-11.271H222.016z"/>
				</g>
			</g>
			<g>
				<g>
					<path fill="#282965" d="M158.095,156.244v4.546h-2.179v-11.27h4.155c0.922,0,1.713,0.328,2.375,0.984
						c0.656,0.661,0.984,1.455,0.984,2.382c0,0.922-0.328,1.713-0.984,2.374c-0.656,0.656-1.448,0.984-2.375,0.984H158.095z
						 M158.095,151.698v2.367h1.976c0.32,0,0.599-0.117,0.834-0.353c0.231-0.23,0.346-0.506,0.346-0.827
						c0-0.326-0.115-0.604-0.346-0.834c-0.236-0.235-0.514-0.353-0.834-0.353H158.095z"/>
				</g>
			</g>
			<g>
				<g>
					<path fill="#282965" d="M170.591,149.519v9.092h3.614v2.179h-5.793v-11.27H170.591z"/>
				</g>
			</g>
			<g>
				<g>
					<path fill="#282965" d="M184.319,149.519l2.916,11.27h-2.246l-0.444-1.713h-3.043l-0.444,1.713h-2.246l2.916-11.27H184.319z
						 M182.072,156.89h1.901l-0.954-3.674L182.072,156.89z"/>
				</g>
			</g>
			<g>
				<g>
					<path fill="#282965" d="M199.407,149.519v11.27h-2.111l-3.149-6.274v6.274h-2.179v-11.27h2.112l3.141,6.274v-6.274H199.407z"/>
				</g>
			</g>
			<g>
				<g>
					<path fill="#282965" d="M210.851,149.519v2.179h-3.614v2.367h2.773v2.179h-2.773v2.367h3.614v2.179h-5.793v-11.27H210.851z"/>
				</g>
			</g>
			<g>
				<g>
					<path fill="#282965" d="M222.032,149.519v2.179h-2.216v9.092h-2.187v-9.092h-2.216v-2.179H222.032z"/>
				</g>
			</g>
			<g>
				<g>
					<path fill="#282965" d="M158.095,174.709v4.546h-2.179v-11.27h4.155c0.922,0,1.713,0.328,2.375,0.984
						c0.656,0.661,0.984,1.455,0.984,2.382c0,0.922-0.328,1.713-0.984,2.374c-0.656,0.656-1.448,0.984-2.375,0.984H158.095z
						 M158.095,170.164v2.367h1.976c0.32,0,0.599-0.118,0.834-0.353c0.231-0.23,0.346-0.506,0.346-0.826
						c0-0.326-0.115-0.604-0.346-0.834c-0.236-0.235-0.514-0.353-0.834-0.353H158.095z"/>
				</g>
			</g>
			<g>
				<g>
					<path fill="#282965" d="M173.621,175.604c0,1.067-0.381,1.981-1.142,2.742c-0.757,0.761-1.671,1.142-2.743,1.142
						c-1.067,0-1.981-0.38-2.742-1.142c-0.762-0.762-1.142-1.676-1.142-2.742v-7.619h2.179v7.619c0,0.465,0.168,0.867,0.503,1.202
						c0.336,0.336,0.736,0.503,1.202,0.503c0.471,0,0.871-0.168,1.202-0.503c0.336-0.336,0.503-0.737,0.503-1.202v-7.619h2.179
						V175.604z"/>
				</g>
			</g>
			<g>
				<g>
					<path fill="#282965" d="M178.922,174.709v4.546h-2.179v-11.27h4.155c0.921,0,1.713,0.33,2.375,0.992
						c0.656,0.656,0.984,1.448,0.984,2.374c0,0.706-0.206,1.35-0.616,1.931c-0.406,0.576-0.942,0.984-1.608,1.225l1.954,4.749
						h-2.359l-1.871-4.546H178.922z M178.922,170.164v2.367h1.976c0.32,0,0.596-0.115,0.826-0.346
						c0.236-0.235,0.353-0.513,0.353-0.834c0-0.326-0.117-0.604-0.353-0.834c-0.23-0.235-0.506-0.353-0.826-0.353H178.922z"/>
				</g>
			</g>
			<g>
				<g>
					<path fill="#282965" d="M189.083,174.709v4.546h-2.179v-11.27h4.155c0.922,0,1.713,0.328,2.375,0.984
						c0.656,0.661,0.984,1.455,0.984,2.382c0,0.922-0.328,1.713-0.984,2.374c-0.656,0.656-1.448,0.984-2.375,0.984H189.083z
						 M189.083,170.164v2.367h1.976c0.32,0,0.599-0.118,0.834-0.353c0.231-0.23,0.346-0.506,0.346-0.826
						c0-0.326-0.115-0.604-0.346-0.834c-0.236-0.235-0.514-0.353-0.834-0.353H189.083z"/>
				</g>
			</g>
			<g>
				<g>
					<path fill="#282965" d="M203.535,168.894c0.761,0.762,1.142,1.675,1.142,2.742v0.391c0,1.072-0.381,1.989-1.142,2.75
						c-0.757,0.756-1.671,1.135-2.743,1.135c-1.067,0-1.981-0.378-2.742-1.135c-0.762-0.762-1.143-1.678-1.143-2.75v-0.391
						c0-1.067,0.381-1.981,1.143-2.742c0.761-0.761,1.675-1.142,2.742-1.142C201.864,167.752,202.779,168.132,203.535,168.894z
						 M204.346,179.255h-7.1v-2.179h7.1V179.255z M199.59,170.434c-0.335,0.336-0.503,0.736-0.503,1.202v0.391
						c0,0.471,0.168,0.874,0.503,1.21c0.331,0.331,0.731,0.496,1.202,0.496s0.872-0.165,1.202-0.496
						c0.336-0.335,0.503-0.739,0.503-1.21v-0.391c0-0.466-0.167-0.866-0.503-1.202c-0.33-0.331-0.731-0.496-1.202-0.496
						S199.921,170.103,199.59,170.434z"/>
				</g>
			</g>
			<g>
				<g>
					<path fill="#282965" d="M207.731,168.608c0.641-0.571,1.4-0.857,2.276-0.857c1.328,0,2.354,0.629,3.081,1.886l-1.886,1.09
						c-0.301-0.531-0.699-0.797-1.195-0.797c-0.29,0-0.538,0.075-0.744,0.226c-0.231,0.17-0.346,0.393-0.346,0.669
						c0,0.341,0.168,0.676,0.503,1.007c0.21,0.2,0.606,0.496,1.187,0.887c0.205,0.14,0.361,0.248,0.466,0.323
						c0.18,0.125,0.338,0.24,0.473,0.345c0.346,0.266,0.631,0.529,0.856,0.789c0.576,0.661,0.864,1.417,0.864,2.269
						c0,0.862-0.333,1.588-0.999,2.179c-0.641,0.576-1.395,0.864-2.262,0.864c-1.332,0-2.365-0.631-3.095-1.893l1.886-1.09
						c0.306,0.536,0.709,0.804,1.21,0.804c0.286,0,0.531-0.075,0.737-0.226c0.23-0.17,0.345-0.396,0.345-0.676
						c0-0.336-0.17-0.669-0.511-0.999c-0.205-0.205-0.599-0.501-1.18-0.887l-0.232-0.165l-0.241-0.158
						c-0.175-0.125-0.33-0.24-0.465-0.346c-0.346-0.27-0.631-0.533-0.857-0.789c-0.576-0.666-0.864-1.422-0.864-2.269
						C206.74,169.933,207.07,169.204,207.731,168.608z"/>
				</g>
			</g>
			<g>
				<g>
					<path fill="#282965" d="M221.477,167.985v2.179h-3.614v2.367h2.773v2.179h-2.773v2.367h3.614v2.179h-5.793v-11.27H221.477z"/>
				</g>
			</g>
		</g>
	</g>
</g>
</svg>
