<?xml version="1.0" encoding="utf-8"?>
<!-- Generator: Adobe Illustrator 17.0.0, SVG Export Plug-In . SVG Version: 6.00 Build 0)  -->
<!DOCTYPE svg PUBLIC "-//W3C//DTD SVG 1.1//EN" "http://www.w3.org/Graphics/SVG/1.1/DTD/svg11.dtd">
<svg version="1.1" id="rounded_gradient_lines" xmlns="http://www.w3.org/2000/svg" xmlns:xlink="http://www.w3.org/1999/xlink"
	 x="0px" y="0px" width="300px" height="300px" viewBox="0 0 300 300" enable-background="new 0 0 300 300" xml:space="preserve">
<g>
	<defs>
		<circle id="SVGID_13_" cx="-184.72" cy="150" r="124.613"/>
	</defs>
	<clipPath id="SVGID_2_">
		<use xlink:href="#SVGID_13_"  overflow="visible"/>
	</clipPath>
	
		<rect x="-200.628" y="-28.383" transform="matrix(0.7071 -0.7071 0.7071 0.7071 -111.2297 -65.6698)" clip-path="url(#SVGID_2_)" fill="#4279B2" width="131.486" height="259.629"/>
</g>
<g>
	<defs>
		<circle id="SVGID_15_" cx="-184.72" cy="150" r="124.613"/>
	</defs>
	<clipPath id="SVGID_4_">
		<use xlink:href="#SVGID_15_"  overflow="visible"/>
	</clipPath>
	
		<rect x="-200.628" y="-28.383" transform="matrix(0.7071 -0.7071 0.7071 0.7071 -111.2297 -65.6698)" clip-path="url(#SVGID_4_)" fill="#4279B2" width="131.486" height="259.629"/>
</g>
<g>
	<g>
		<polygon fill="#282965" points="198.939,293.523 150.564,245.147 102.188,293.523 		"/>
		<polygon fill="#282965" points="174.769,269.353 126.394,220.977 78.018,269.353 		"/>
		<polygon fill="#282965" points="150.603,245.186 102.227,196.811 53.851,245.186 		"/>
		<polygon fill="#282965" points="126.433,221.016 78.057,172.641 29.681,221.016 		"/>
		<polygon fill="#282965" points="102.259,196.843 53.884,148.468 5.508,196.843 		"/>
		<polygon fill="#282965" points="102.116,51.775 150.492,100.151 198.867,51.775 		"/>
		<polygon fill="#282965" points="126.286,75.945 174.662,124.321 223.037,75.945 		"/>
		<polygon fill="#282965" points="150.453,100.111 198.828,148.487 247.204,100.112 		"/>
		<polygon fill="#282965" points="174.623,124.282 222.998,172.657 271.374,124.282 		"/>
		<polygon fill="#282965" points="198.796,148.455 247.171,196.83 295.547,148.455 		"/>
		<polygon fill="#282965" points="126.286,269.353 174.662,220.977 223.037,269.353 		"/>
		<polygon fill="#282965" points="150.453,245.186 198.828,196.811 247.204,245.186 		"/>
		<polygon fill="#282965" points="174.623,221.016 222.998,172.641 271.374,221.016 		"/>
		<polygon fill="#282965" points="198.796,196.843 247.172,148.467 295.547,196.843 		"/>
		<polygon fill="#282965" points="174.769,75.945 126.394,124.321 78.018,75.945 		"/>
		<polygon fill="#282965" points="150.603,100.111 102.227,148.487 53.851,100.112 		"/>
		<polygon fill="#282965" points="126.433,124.282 78.057,172.657 29.681,124.282 		"/>
		<polygon fill="#282965" points="102.259,148.455 53.884,196.831 5.508,148.455 		"/>
		
			<rect x="65.059" y="87.183" transform="matrix(0.7071 0.7071 -0.7071 0.7071 166.1741 -55.8718)" fill="#06A6B4" width="170.942" height="170.943"/>
		
			<rect x="250.743" y="163.876" transform="matrix(0.7071 0.7071 -0.7071 0.7071 198.0961 -132.9392)" fill="#F8A55E" width="17.554" height="17.554"/>
		
			<rect x="33.287" y="163.876" transform="matrix(0.7071 0.7071 -0.7071 0.7071 134.4046 20.8248)" fill="#F8A55E" width="17.554" height="17.554"/>
		
			<rect x="133.44" y="10.52" transform="matrix(0.7071 0.7071 -0.7071 0.7071 63.6095 -98.353)" fill="#282965" width="34.174" height="34.175"/>
	</g>
	<g>
		<polygon fill="#803D96" points="63.036,207.69 98.051,172.675 63.036,137.66 		"/>
		<polygon fill="#803D96" points="80.53,190.195 115.546,155.18 80.531,120.165 		"/>
		<polygon fill="#803D96" points="98.023,172.703 133.038,137.688 98.023,102.673 		"/>
		<polygon fill="#803D96" points="115.517,155.208 150.533,120.193 115.517,85.178 		"/>
		<polygon fill="#803D96" points="133.014,137.711 168.03,102.696 133.015,67.681 		"/>
		<polygon fill="#803D96" points="238.018,137.608 203.002,172.623 238.018,207.638 		"/>
		<polygon fill="#803D96" points="220.523,155.102 185.508,190.118 220.523,225.133 		"/>
		<polygon fill="#803D96" points="203.031,172.595 168.015,207.61 203.031,242.625 		"/>
		<polygon fill="#803D96" points="185.536,190.089 150.521,225.105 185.536,260.12 		"/>
		<polygon fill="#803D96" points="168.039,207.587 133.024,242.602 168.039,277.617 		"/>
		<polygon fill="#803D96" points="80.53,155.102 115.546,190.118 80.531,225.133 		"/>
		<polygon fill="#803D96" points="98.023,172.595 133.038,207.61 98.023,242.625 		"/>
		<polygon fill="#803D96" points="115.517,190.089 150.533,225.105 115.518,260.12 		"/>
		<polygon fill="#803D96" points="133.014,207.587 168.03,242.602 133.015,277.617 		"/>
		<polygon fill="#803D96" points="220.523,190.196 185.508,155.18 220.523,120.165 		"/>
		<polygon fill="#803D96" points="203.031,172.703 168.015,137.688 203.03,102.673 		"/>
		<polygon fill="#803D96" points="185.536,155.209 150.521,120.193 185.536,85.178 		"/>
		<polygon fill="#803D96" points="168.039,137.711 133.024,102.696 168.039,67.681 		"/>
	</g>
	
		<rect x="88.557" y="110.68" transform="matrix(0.7071 0.7071 -0.7071 0.7071 166.1713 -55.8709)" fill="#F8A55E" width="123.942" height="123.942"/>
	<g>
		<g>
			<polygon fill="#FFFFFF" points="104.807,116.498 150.522,162.213 196.237,116.498 			"/>
		</g>
		<g>
			<polygon fill="#FFFFFF" points="196.243,228.625 150.528,182.91 104.813,228.624 			"/>
		</g>
		<g>
			
				<rect x="135.633" y="210.426" transform="matrix(-0.7071 -0.7071 0.7071 -0.7071 97.6404 491.1192)" fill="#1CA3AB" width="29.802" height="29.824"/>
		</g>
		<g>
			<polygon fill="#F2735A" points="171.633,225.347 150.542,204.256 129.452,225.347 			"/>
		</g>
		<g>
			<polygon fill="#F2735A" points="161.095,214.809 140.005,193.719 118.914,214.809 			"/>
		</g>
		<g>
			<polygon fill="#F2735A" points="150.559,204.273 129.469,183.183 108.378,204.273 			"/>
		</g>
		<g>
			<polygon fill="#F2735A" points="140.022,193.736 118.931,172.645 97.841,193.736 			"/>
		</g>
		<g>
			<polygon fill="#F2735A" points="129.483,183.197 108.393,162.107 87.302,183.197 			"/>
		</g>
		<g>
			
				<rect x="143.077" y="228.434" transform="matrix(-0.7071 -0.7071 0.7071 -0.7071 90.1708 509.1165)" fill="#F0E811" width="14.899" height="14.899"/>
		</g>
		<g>
			
				<rect x="135.618" y="105.048" transform="matrix(0.7071 0.7071 -0.7071 0.7071 128.9107 -71.2974)" fill="#1CA3AB" width="29.802" height="29.824"/>
		</g>
		<g>
			<polygon fill="#F2735A" points="129.421,119.951 150.511,141.042 171.601,119.951 			"/>
		</g>
		<g>
			<polygon fill="#1CA3AB" points="104.79,116.502 111.514,123.226 118.238,116.502 			"/>
		</g>
		<g>
			<polygon fill="#1CA3AB" points="182.736,116.502 189.46,123.226 196.184,116.502 			"/>
		</g>
		<g>
			<polygon fill="#1CA3AB" points="196.263,228.59 189.539,221.866 182.815,228.59 			"/>
		</g>
		<g>
			<polygon fill="#1CA3AB" points="118.317,228.588 111.594,221.864 104.87,228.588 			"/>
		</g>
		<g>
			<polygon fill="#F2735A" points="139.958,130.489 161.048,151.579 182.139,130.489 			"/>
		</g>
		<g>
			<polygon fill="#F2735A" points="150.494,141.025 171.584,162.115 192.675,141.025 			"/>
		</g>
		<g>
			<polygon fill="#F2735A" points="161.031,151.562 182.122,172.653 203.212,151.562 			"/>
		</g>
		<g>
			<polygon fill="#F2735A" points="171.57,162.101 192.661,183.191 213.751,162.101 			"/>
		</g>
		<g>
			<polygon fill="#F2735A" points="139.958,214.809 161.048,193.719 182.139,214.809 			"/>
		</g>
		<g>
			<polygon fill="#F2735A" points="150.494,204.273 171.584,183.183 192.675,204.273 			"/>
		</g>
		<g>
			<polygon fill="#F2735A" points="161.031,193.736 182.122,172.645 203.212,193.736 			"/>
		</g>
		<g>
			<polygon fill="#F2735A" points="171.57,183.197 192.661,162.106 213.751,183.197 			"/>
		</g>
		<g>
			<polygon fill="#F2735A" points="161.095,130.489 140.005,151.579 118.914,130.489 			"/>
		</g>
		<g>
			<polygon fill="#F2735A" points="150.559,141.025 129.469,162.115 108.378,141.025 			"/>
		</g>
		<g>
			<polygon fill="#F2735A" points="140.022,151.562 118.931,172.653 97.841,151.562 			"/>
		</g>
		<g>
			<polygon fill="#F2735A" points="129.483,162.101 108.393,183.191 87.302,162.101 			"/>
		</g>
		<g>
			<g>
				<defs>
					
						<rect id="SVGID_42_" x="113.265" y="135.388" transform="matrix(0.7071 0.7071 -0.7071 0.7071 166.1714 -55.8709)" width="74.526" height="74.526"/>
				</defs>
				<clipPath id="SVGID_6_">
					<use xlink:href="#SVGID_42_"  overflow="visible"/>
				</clipPath>
				<rect x="97.83" y="119.953" clip-path="url(#SVGID_6_)" fill="#F5D952" width="105.396" height="105.396"/>
				<circle clip-path="url(#SVGID_6_)" fill="#F5D952" cx="150.528" cy="172.651" r="52.698"/>
				<circle clip-path="url(#SVGID_6_)" fill="#F5D952" cx="150.528" cy="172.651" r="52.516"/>
				<circle clip-path="url(#SVGID_6_)" fill="#F5D952" cx="150.528" cy="172.651" r="52.334"/>
				<circle clip-path="url(#SVGID_6_)" fill="#F5D952" cx="150.528" cy="172.651" r="52.152"/>
				<circle clip-path="url(#SVGID_6_)" fill="#F5D952" cx="150.528" cy="172.651" r="51.97"/>
				<circle clip-path="url(#SVGID_6_)" fill="#F5D952" cx="150.528" cy="172.651" r="51.788"/>
				<circle clip-path="url(#SVGID_6_)" fill="#F5D952" cx="150.528" cy="172.651" r="51.606"/>
				<circle clip-path="url(#SVGID_6_)" fill="#F5D952" cx="150.528" cy="172.651" r="51.424"/>
				<circle clip-path="url(#SVGID_6_)" fill="#F5D952" cx="150.528" cy="172.651" r="51.242"/>
				<circle clip-path="url(#SVGID_6_)" fill="#F5D952" cx="150.528" cy="172.651" r="51.06"/>
				<circle clip-path="url(#SVGID_6_)" fill="#F5D952" cx="150.528" cy="172.651" r="50.878"/>
				<circle clip-path="url(#SVGID_6_)" fill="#F5D952" cx="150.528" cy="172.651" r="50.696"/>
				<circle clip-path="url(#SVGID_6_)" fill="#F5D952" cx="150.528" cy="172.651" r="50.514"/>
				<circle clip-path="url(#SVGID_6_)" fill="#F5D952" cx="150.528" cy="172.651" r="50.332"/>
				<circle clip-path="url(#SVGID_6_)" fill="#F5D952" cx="150.528" cy="172.651" r="50.15"/>
				<circle clip-path="url(#SVGID_6_)" fill="#F5D953" cx="150.528" cy="172.651" r="49.968"/>
				<circle clip-path="url(#SVGID_6_)" fill="#F5D953" cx="150.528" cy="172.651" r="49.786"/>
				<circle clip-path="url(#SVGID_6_)" fill="#F5D953" cx="150.528" cy="172.651" r="49.604"/>
				<circle clip-path="url(#SVGID_6_)" fill="#F5D953" cx="150.528" cy="172.651" r="49.422"/>
				<circle clip-path="url(#SVGID_6_)" fill="#F5D953" cx="150.528" cy="172.651" r="49.24"/>
				<circle clip-path="url(#SVGID_6_)" fill="#F5D953" cx="150.528" cy="172.651" r="49.058"/>
				<circle clip-path="url(#SVGID_6_)" fill="#F5D953" cx="150.528" cy="172.651" r="48.876"/>
				<circle clip-path="url(#SVGID_6_)" fill="#F5D954" cx="150.528" cy="172.651" r="48.695"/>
				<circle clip-path="url(#SVGID_6_)" fill="#F5D954" cx="150.528" cy="172.651" r="48.513"/>
				<circle clip-path="url(#SVGID_6_)" fill="#F5D954" cx="150.528" cy="172.651" r="48.331"/>
				<circle clip-path="url(#SVGID_6_)" fill="#F5D954" cx="150.528" cy="172.651" r="48.149"/>
				<circle clip-path="url(#SVGID_6_)" fill="#F5D954" cx="150.528" cy="172.651" r="47.967"/>
				<circle clip-path="url(#SVGID_6_)" fill="#F5D955" cx="150.528" cy="172.651" r="47.785"/>
				<circle clip-path="url(#SVGID_6_)" fill="#F5D955" cx="150.528" cy="172.651" r="47.603"/>
				<circle clip-path="url(#SVGID_6_)" fill="#F5D955" cx="150.528" cy="172.651" r="47.421"/>
				<circle clip-path="url(#SVGID_6_)" fill="#F5D955" cx="150.528" cy="172.651" r="47.239"/>
				<circle clip-path="url(#SVGID_6_)" fill="#F5D956" cx="150.528" cy="172.651" r="47.057"/>
				<circle clip-path="url(#SVGID_6_)" fill="#F5D956" cx="150.528" cy="172.651" r="46.875"/>
				<circle clip-path="url(#SVGID_6_)" fill="#F5D956" cx="150.528" cy="172.651" r="46.693"/>
				<circle clip-path="url(#SVGID_6_)" fill="#F5D956" cx="150.528" cy="172.651" r="46.511"/>
				<circle clip-path="url(#SVGID_6_)" fill="#F5DA58" cx="150.528" cy="172.651" r="46.329"/>
				<circle clip-path="url(#SVGID_6_)" fill="#F5DA58" cx="150.528" cy="172.651" r="46.147"/>
				<circle clip-path="url(#SVGID_6_)" fill="#F5DA58" cx="150.528" cy="172.651" r="45.965"/>
				<circle clip-path="url(#SVGID_6_)" fill="#F5DA59" cx="150.528" cy="172.651" r="45.783"/>
				<circle clip-path="url(#SVGID_6_)" fill="#F5DA59" cx="150.528" cy="172.651" r="45.601"/>
				<circle clip-path="url(#SVGID_6_)" fill="#F5DA59" cx="150.528" cy="172.651" r="45.419"/>
				<circle clip-path="url(#SVGID_6_)" fill="#F5DA5A" cx="150.528" cy="172.651" r="45.237"/>
				<circle clip-path="url(#SVGID_6_)" fill="#F5DA5A" cx="150.528" cy="172.651" r="45.055"/>
				<circle clip-path="url(#SVGID_6_)" fill="#F5DA5A" cx="150.528" cy="172.651" r="44.873"/>
				<circle clip-path="url(#SVGID_6_)" fill="#F5DA5B" cx="150.528" cy="172.651" r="44.691"/>
				<circle clip-path="url(#SVGID_6_)" fill="#F5DA5B" cx="150.528" cy="172.651" r="44.509"/>
				<circle clip-path="url(#SVGID_6_)" fill="#F5DA5C" cx="150.528" cy="172.651" r="44.327"/>
				<circle clip-path="url(#SVGID_6_)" fill="#F5DA5C" cx="150.528" cy="172.651" r="44.145"/>
				<circle clip-path="url(#SVGID_6_)" fill="#F5DA5C" cx="150.528" cy="172.651" r="43.963"/>
				<circle clip-path="url(#SVGID_6_)" fill="#F5DA5D" cx="150.528" cy="172.651" r="43.781"/>
				<circle clip-path="url(#SVGID_6_)" fill="#F5DA5D" cx="150.528" cy="172.651" r="43.599"/>
				<circle clip-path="url(#SVGID_6_)" fill="#F5DA5E" cx="150.528" cy="172.651" r="43.417"/>
				<circle clip-path="url(#SVGID_6_)" fill="#F5DA5E" cx="150.528" cy="172.651" r="43.235"/>
				<circle clip-path="url(#SVGID_6_)" fill="#F5DA5F" cx="150.528" cy="172.651" r="43.053"/>
				<circle clip-path="url(#SVGID_6_)" fill="#F5DA5F" cx="150.528" cy="172.651" r="42.871"/>
				<circle clip-path="url(#SVGID_6_)" fill="#F6DC60" cx="150.528" cy="172.651" r="42.689"/>
				<circle clip-path="url(#SVGID_6_)" fill="#F6DC60" cx="150.528" cy="172.651" r="42.507"/>
				<circle clip-path="url(#SVGID_6_)" fill="#F6DC61" cx="150.528" cy="172.651" r="42.325"/>
				<circle clip-path="url(#SVGID_6_)" fill="#F6DC61" cx="150.528" cy="172.651" r="42.143"/>
				<circle clip-path="url(#SVGID_6_)" fill="#F5DC62" cx="150.528" cy="172.651" r="41.961"/>
				<circle clip-path="url(#SVGID_6_)" fill="#F5DC62" cx="150.528" cy="172.651" r="41.779"/>
				<circle clip-path="url(#SVGID_6_)" fill="#F5DC63" cx="150.528" cy="172.651" r="41.597"/>
				<circle clip-path="url(#SVGID_6_)" fill="#F5DC63" cx="150.528" cy="172.651" r="41.415"/>
				<circle clip-path="url(#SVGID_6_)" fill="#F5DC64" cx="150.528" cy="172.651" r="41.233"/>
				<circle clip-path="url(#SVGID_6_)" fill="#F5DC65" cx="150.528" cy="172.651" r="41.051"/>
				<circle clip-path="url(#SVGID_6_)" fill="#F5DC65" cx="150.528" cy="172.651" r="40.87"/>
				<circle clip-path="url(#SVGID_6_)" fill="#F5DC66" cx="150.528" cy="172.651" r="40.688"/>
				<circle clip-path="url(#SVGID_6_)" fill="#F5DC66" cx="150.528" cy="172.651" r="40.506"/>
				<circle clip-path="url(#SVGID_6_)" fill="#F5DC67" cx="150.528" cy="172.651" r="40.324"/>
				<circle clip-path="url(#SVGID_6_)" fill="#F5DD68" cx="150.528" cy="172.651" r="40.142"/>
				<circle clip-path="url(#SVGID_6_)" fill="#F5DD68" cx="150.528" cy="172.651" r="39.96"/>
				<circle clip-path="url(#SVGID_6_)" fill="#F5DD69" cx="150.528" cy="172.651" r="39.778"/>
				<circle clip-path="url(#SVGID_6_)" fill="#F5DD6A" cx="150.528" cy="172.651" r="39.596"/>
				<circle clip-path="url(#SVGID_6_)" fill="#F5DD6A" cx="150.528" cy="172.651" r="39.414"/>
				<circle clip-path="url(#SVGID_6_)" fill="#F5DD6A" cx="150.528" cy="172.651" r="39.232"/>
				<circle clip-path="url(#SVGID_6_)" fill="#F5DD6B" cx="150.528" cy="172.651" r="39.05"/>
				<circle clip-path="url(#SVGID_6_)" fill="#F5DD6B" cx="150.528" cy="172.651" r="38.868"/>
				<circle clip-path="url(#SVGID_6_)" fill="#F5DD6C" cx="150.528" cy="172.651" r="38.686"/>
				<circle clip-path="url(#SVGID_6_)" fill="#F5DD6D" cx="150.528" cy="172.651" r="38.504"/>
				<circle clip-path="url(#SVGID_6_)" fill="#F5DD6E" cx="150.528" cy="172.651" r="38.322"/>
				<circle clip-path="url(#SVGID_6_)" fill="#F5DD6E" cx="150.528" cy="172.651" r="38.14"/>
				<circle clip-path="url(#SVGID_6_)" fill="#F6DE6F" cx="150.528" cy="172.651" r="37.958"/>
				<circle clip-path="url(#SVGID_6_)" fill="#F6DE70" cx="150.528" cy="172.651" r="37.776"/>
				<circle clip-path="url(#SVGID_6_)" fill="#F6DE71" cx="150.528" cy="172.651" r="37.594"/>
				<circle clip-path="url(#SVGID_6_)" fill="#F6DE72" cx="150.528" cy="172.651" r="37.412"/>
				<circle clip-path="url(#SVGID_6_)" fill="#F6DE72" cx="150.528" cy="172.651" r="37.23"/>
				<circle clip-path="url(#SVGID_6_)" fill="#F6DE73" cx="150.528" cy="172.651" r="37.048"/>
				<circle clip-path="url(#SVGID_6_)" fill="#F6DE73" cx="150.528" cy="172.651" r="36.866"/>
				<circle clip-path="url(#SVGID_6_)" fill="#F6DE74" cx="150.528" cy="172.651" r="36.684"/>
				<circle clip-path="url(#SVGID_6_)" fill="#F6DE75" cx="150.528" cy="172.651" r="36.502"/>
				<circle clip-path="url(#SVGID_6_)" fill="#F6DF76" cx="150.528" cy="172.651" r="36.32"/>
				<circle clip-path="url(#SVGID_6_)" fill="#F6DF76" cx="150.528" cy="172.651" r="36.138"/>
				<circle clip-path="url(#SVGID_6_)" fill="#F6DF77" cx="150.528" cy="172.651" r="35.956"/>
				<circle clip-path="url(#SVGID_6_)" fill="#F6DF78" cx="150.528" cy="172.651" r="35.774"/>
				<circle clip-path="url(#SVGID_6_)" fill="#F6DF79" cx="150.528" cy="172.651" r="35.592"/>
				<circle clip-path="url(#SVGID_6_)" fill="#F6DF79" cx="150.528" cy="172.651" r="35.41"/>
				<circle clip-path="url(#SVGID_6_)" fill="#F6DF7A" cx="150.528" cy="172.651" r="35.228"/>
				<circle clip-path="url(#SVGID_6_)" fill="#F6DF7B" cx="150.528" cy="172.651" r="35.046"/>
				<circle clip-path="url(#SVGID_6_)" fill="#F6DF7C" cx="150.528" cy="172.651" r="34.864"/>
				<circle clip-path="url(#SVGID_6_)" fill="#F7E07D" cx="150.528" cy="172.651" r="34.682"/>
				<circle clip-path="url(#SVGID_6_)" fill="#F7E07D" cx="150.528" cy="172.651" r="34.5"/>
				<circle clip-path="url(#SVGID_6_)" fill="#F7E07E" cx="150.528" cy="172.651" r="34.318"/>
				<circle clip-path="url(#SVGID_6_)" fill="#F7E07F" cx="150.528" cy="172.651" r="34.136"/>
				<circle clip-path="url(#SVGID_6_)" fill="#F7E080" cx="150.528" cy="172.651" r="33.954"/>
				<circle clip-path="url(#SVGID_6_)" fill="#F7E180" cx="150.528" cy="172.651" r="33.772"/>
				<circle clip-path="url(#SVGID_6_)" fill="#F7E180" cx="150.528" cy="172.651" r="33.59"/>
				<circle clip-path="url(#SVGID_6_)" fill="#F7E181" cx="150.528" cy="172.651" r="33.408"/>
				<circle clip-path="url(#SVGID_6_)" fill="#F7E182" cx="150.528" cy="172.651" r="33.226"/>
				<circle clip-path="url(#SVGID_6_)" fill="#F7E183" cx="150.528" cy="172.651" r="33.045"/>
				<circle clip-path="url(#SVGID_6_)" fill="#F7E184" cx="150.528" cy="172.651" r="32.863"/>
				<circle clip-path="url(#SVGID_6_)" fill="#F7E184" cx="150.528" cy="172.651" r="32.681"/>
				<circle clip-path="url(#SVGID_6_)" fill="#F7E285" cx="150.528" cy="172.651" r="32.499"/>
				<circle clip-path="url(#SVGID_6_)" fill="#F7E286" cx="150.528" cy="172.651" r="32.317"/>
				<circle clip-path="url(#SVGID_6_)" fill="#F7E287" cx="150.528" cy="172.651" r="32.135"/>
				<circle clip-path="url(#SVGID_6_)" fill="#F7E287" cx="150.528" cy="172.651" r="31.953"/>
				<circle clip-path="url(#SVGID_6_)" fill="#F8E388" cx="150.528" cy="172.651" r="31.771"/>
				<circle clip-path="url(#SVGID_6_)" fill="#F8E38A" cx="150.528" cy="172.651" r="31.589"/>
				<circle clip-path="url(#SVGID_6_)" fill="#F8E38B" cx="150.528" cy="172.651" r="31.407"/>
				<circle clip-path="url(#SVGID_6_)" fill="#F8E38B" cx="150.528" cy="172.651" r="31.225"/>
				<circle clip-path="url(#SVGID_6_)" fill="#F8E38C" cx="150.528" cy="172.651" r="31.043"/>
				<circle clip-path="url(#SVGID_6_)" fill="#F8E38D" cx="150.528" cy="172.651" r="30.861"/>
				<circle clip-path="url(#SVGID_6_)" fill="#F7E38E" cx="150.528" cy="172.651" r="30.679"/>
				<circle clip-path="url(#SVGID_6_)" fill="#F7E48F" cx="150.528" cy="172.651" r="30.497"/>
				<circle clip-path="url(#SVGID_6_)" fill="#F7E490" cx="150.528" cy="172.651" r="30.315"/>
				<circle clip-path="url(#SVGID_6_)" fill="#F7E491" cx="150.528" cy="172.651" r="30.133"/>
				<circle clip-path="url(#SVGID_6_)" fill="#F7E491" cx="150.528" cy="172.651" r="29.951"/>
				<circle clip-path="url(#SVGID_6_)" fill="#F7E493" cx="150.528" cy="172.651" r="29.769"/>
				<circle clip-path="url(#SVGID_6_)" fill="#F7E494" cx="150.528" cy="172.651" r="29.587"/>
				<circle clip-path="url(#SVGID_6_)" fill="#F8E595" cx="150.528" cy="172.651" r="29.405"/>
				<circle clip-path="url(#SVGID_6_)" fill="#F8E595" cx="150.528" cy="172.651" r="29.223"/>
				<circle clip-path="url(#SVGID_6_)" fill="#F8E597" cx="150.528" cy="172.651" r="29.041"/>
				<circle clip-path="url(#SVGID_6_)" fill="#F8E598" cx="150.528" cy="172.651" r="28.859"/>
				<circle clip-path="url(#SVGID_6_)" fill="#F8E698" cx="150.528" cy="172.651" r="28.677"/>
				<circle clip-path="url(#SVGID_6_)" fill="#F8E69A" cx="150.528" cy="172.651" r="28.495"/>
				<circle clip-path="url(#SVGID_6_)" fill="#F8E69B" cx="150.528" cy="172.651" r="28.313"/>
				<circle clip-path="url(#SVGID_6_)" fill="#F8E69C" cx="150.528" cy="172.651" r="28.131"/>
				<circle clip-path="url(#SVGID_6_)" fill="#F8E79D" cx="150.528" cy="172.651" r="27.949"/>
				<circle clip-path="url(#SVGID_6_)" fill="#F8E79E" cx="150.528" cy="172.651" r="27.767"/>
				<circle clip-path="url(#SVGID_6_)" fill="#F8E79F" cx="150.528" cy="172.651" r="27.585"/>
				<circle clip-path="url(#SVGID_6_)" fill="#F8E7A0" cx="150.528" cy="172.651" r="27.403"/>
				<circle clip-path="url(#SVGID_6_)" fill="#F9E8A1" cx="150.528" cy="172.651" r="27.221"/>
				<circle clip-path="url(#SVGID_6_)" fill="#F9E8A3" cx="150.528" cy="172.651" r="27.039"/>
				<circle clip-path="url(#SVGID_6_)" fill="#F9E8A3" cx="150.528" cy="172.651" r="26.857"/>
				<circle clip-path="url(#SVGID_6_)" fill="#F9E8A5" cx="150.528" cy="172.651" r="26.675"/>
				<circle clip-path="url(#SVGID_6_)" fill="#F9E8A6" cx="150.528" cy="172.651" r="26.493"/>
				<circle clip-path="url(#SVGID_6_)" fill="#F9E8A7" cx="150.528" cy="172.651" r="26.311"/>
				<circle clip-path="url(#SVGID_6_)" fill="#F9E9A8" cx="150.528" cy="172.651" r="26.129"/>
				<circle clip-path="url(#SVGID_6_)" fill="#F9E9A9" cx="150.528" cy="172.651" r="25.947"/>
				<circle clip-path="url(#SVGID_6_)" fill="#F9E9AB" cx="150.528" cy="172.651" r="25.765"/>
				<circle clip-path="url(#SVGID_6_)" fill="#F9E9AB" cx="150.528" cy="172.651" r="25.583"/>
				<circle clip-path="url(#SVGID_6_)" fill="#F9E9AD" cx="150.528" cy="172.651" r="25.401"/>
				<circle clip-path="url(#SVGID_6_)" fill="#FAEBAE" cx="150.528" cy="172.651" r="25.22"/>
				<circle clip-path="url(#SVGID_6_)" fill="#FAEBB0" cx="150.528" cy="172.651" r="25.038"/>
				<circle clip-path="url(#SVGID_6_)" fill="#FAEBB1" cx="150.528" cy="172.651" r="24.856"/>
				<circle clip-path="url(#SVGID_6_)" fill="#FAEBB2" cx="150.528" cy="172.651" r="24.674"/>
				<circle clip-path="url(#SVGID_6_)" fill="#FAEBB3" cx="150.528" cy="172.651" r="24.492"/>
				<circle clip-path="url(#SVGID_6_)" fill="#FAECB4" cx="150.528" cy="172.651" r="24.31"/>
				<circle clip-path="url(#SVGID_6_)" fill="#FAECB6" cx="150.528" cy="172.651" r="24.128"/>
				<circle clip-path="url(#SVGID_6_)" fill="#F9ECB7" cx="150.528" cy="172.651" r="23.946"/>
				<circle clip-path="url(#SVGID_6_)" fill="#F9ECB8" cx="150.528" cy="172.651" r="23.764"/>
				<circle clip-path="url(#SVGID_6_)" fill="#F9ECBA" cx="150.528" cy="172.651" r="23.582"/>
				<circle clip-path="url(#SVGID_6_)" fill="#FBEDBB" cx="150.528" cy="172.651" r="23.4"/>
				<circle clip-path="url(#SVGID_6_)" fill="#FAEEBC" cx="150.528" cy="172.651" r="23.218"/>
				<circle clip-path="url(#SVGID_6_)" fill="#FAEEBE" cx="150.528" cy="172.651" r="23.036"/>
				<circle clip-path="url(#SVGID_6_)" fill="#FAEEBF" cx="150.528" cy="172.651" r="22.854"/>
				<circle clip-path="url(#SVGID_6_)" fill="#FAEEC0" cx="150.528" cy="172.651" r="22.672"/>
				<circle clip-path="url(#SVGID_6_)" fill="#FAEFC2" cx="150.528" cy="172.651" r="22.49"/>
				<circle clip-path="url(#SVGID_6_)" fill="#FAEFC3" cx="150.528" cy="172.651" r="22.308"/>
				<circle clip-path="url(#SVGID_6_)" fill="#FAEFC4" cx="150.528" cy="172.651" r="22.126"/>
				<circle clip-path="url(#SVGID_6_)" fill="#FAEFC6" cx="150.528" cy="172.651" r="21.944"/>
				<circle clip-path="url(#SVGID_6_)" fill="#FBF0C8" cx="150.528" cy="172.651" r="21.762"/>
				<circle clip-path="url(#SVGID_6_)" fill="#FBF0C8" cx="150.528" cy="172.651" r="21.58"/>
				<circle clip-path="url(#SVGID_6_)" fill="#FBF1CA" cx="150.528" cy="172.651" r="21.398"/>
				<circle clip-path="url(#SVGID_6_)" fill="#FBF1CB" cx="150.528" cy="172.651" r="21.216"/>
				<circle clip-path="url(#SVGID_6_)" fill="#FBF1CD" cx="150.528" cy="172.651" r="21.034"/>
				<circle clip-path="url(#SVGID_6_)" fill="#FBF2CE" cx="150.528" cy="172.651" r="20.852"/>
				<circle clip-path="url(#SVGID_6_)" fill="#FBF2CF" cx="150.528" cy="172.651" r="20.67"/>
				<circle clip-path="url(#SVGID_6_)" fill="#FBF2D1" cx="150.528" cy="172.651" r="20.488"/>
				<circle clip-path="url(#SVGID_6_)" fill="#FBF2D2" cx="150.528" cy="172.651" r="20.306"/>
				<circle clip-path="url(#SVGID_6_)" fill="#FCF4D4" cx="150.528" cy="172.651" r="20.124"/>
				<circle clip-path="url(#SVGID_6_)" fill="#FCF4D6" cx="150.528" cy="172.651" r="19.942"/>
				<circle clip-path="url(#SVGID_6_)" fill="#FCF4D6" cx="150.528" cy="172.651" r="19.76"/>
				<circle clip-path="url(#SVGID_6_)" fill="#FCF4D8" cx="150.528" cy="172.651" r="19.578"/>
				<circle clip-path="url(#SVGID_6_)" fill="#FCF4D9" cx="150.528" cy="172.651" r="19.396"/>
				<circle clip-path="url(#SVGID_6_)" fill="#FCF5DB" cx="150.528" cy="172.651" r="19.214"/>
				<circle clip-path="url(#SVGID_6_)" fill="#FCF5DD" cx="150.528" cy="172.651" r="19.032"/>
				<circle clip-path="url(#SVGID_6_)" fill="#FCF5DE" cx="150.528" cy="172.651" r="18.85"/>
				<circle clip-path="url(#SVGID_6_)" fill="#FCF5E0" cx="150.528" cy="172.651" r="18.668"/>
				<circle clip-path="url(#SVGID_6_)" fill="#FDF7E2" cx="150.528" cy="172.651" r="18.486"/>
				<circle clip-path="url(#SVGID_6_)" fill="#FDF7E3" cx="150.528" cy="172.651" r="18.304"/>
				<circle clip-path="url(#SVGID_6_)" fill="#FDF7E5" cx="150.528" cy="172.651" r="18.122"/>
				<circle clip-path="url(#SVGID_6_)" fill="#FDF7E6" cx="150.528" cy="172.651" r="17.94"/>
				<circle clip-path="url(#SVGID_6_)" fill="#FDF9E9" cx="150.528" cy="172.651" r="17.758"/>
				<circle clip-path="url(#SVGID_6_)" fill="#FDF9EA" cx="150.528" cy="172.651" r="17.576"/>
				<circle clip-path="url(#SVGID_6_)" fill="#FDF9EC" cx="150.528" cy="172.651" r="17.395"/>
				<circle clip-path="url(#SVGID_6_)" fill="#FDF9ED" cx="150.528" cy="172.651" r="17.213"/>
				<circle clip-path="url(#SVGID_6_)" fill="#FFFBEF" cx="150.528" cy="172.651" r="17.031"/>
				<circle clip-path="url(#SVGID_6_)" fill="#FFFBF1" cx="150.528" cy="172.651" r="16.849"/>
				<circle clip-path="url(#SVGID_6_)" fill="#FFFCF3" cx="150.528" cy="172.651" r="16.667"/>
				<circle clip-path="url(#SVGID_6_)" fill="#FFFCF4" cx="150.528" cy="172.651" r="16.485"/>
				<circle clip-path="url(#SVGID_6_)" fill="#FFFDF7" cx="150.528" cy="172.651" r="16.303"/>
				<circle clip-path="url(#SVGID_6_)" fill="#FFFFF9" cx="150.528" cy="172.651" r="16.121"/>
				<circle clip-path="url(#SVGID_6_)" fill="#FFFFFB" cx="150.528" cy="172.651" r="15.939"/>
				<circle clip-path="url(#SVGID_6_)" fill="#FFFFFF" cx="150.528" cy="172.651" r="15.757"/>
			</g>
		</g>
		<g>
			
				<rect x="209.87" y="168.824" transform="matrix(0.7071 0.7071 -0.7071 0.7071 184.6729 -100.5378)" fill="#1CA3AB" width="7.653" height="7.653"/>
		</g>
		<g>
			
				<rect x="83.529" y="168.824" transform="matrix(0.7071 0.7071 -0.7071 0.7071 147.6685 -11.2013)" fill="#1CA3AB" width="7.653" height="7.653"/>
		</g>
		<g>
			
				<rect x="143.077" y="101.965" transform="matrix(0.7071 0.7071 -0.7071 0.7071 121.456 -74.3915)" fill="#F0E811" width="14.899" height="14.899"/>
		</g>
	</g>
	<g>
		<g>
			<g>
				<path fill="#0D9949" d="M123.114,182.786v-17.989c0-0.717,0.581-1.298,1.298-1.298h7.278v-0.825h-7.746
					c-0.902,0-1.634,0.731-1.634,1.634v18.946c0,0.902,0.731,1.634,1.634,1.634h7.746v-0.803h-7.278
					C123.695,184.084,123.114,183.503,123.114,182.786z"/>
			</g>
			<g>
				<path fill="#0D9949" d="M131.691,174.636c-0.021,0-0.041,0.003-0.062,0.003c-1.509,0-2.733-1.236-2.733-2.762
					s1.224-2.761,2.733-2.761c0.021,0,0.041,0.003,0.062,0.003v-0.521c-0.023-0.001-0.046-0.004-0.07-0.004
					c-1.779,0-3.222,1.459-3.222,3.258s1.442,3.258,3.222,3.258c0.024,0,0.046-0.003,0.07-0.004V174.636z"/>
			</g>
			<g>
				<path fill="#0D9949" d="M131.691,176.036c-0.047,0.002-0.092,0-0.139,0c-2.312,0-4.187-1.888-4.187-4.212
					c0-2.324,1.875-4.207,4.187-4.207c0.047,0,0.093,0.006,0.139,0.007v-0.475c-0.038-0.001-0.075-0.006-0.113-0.006
					c-2.591,0-4.692,2.1-4.692,4.69c0,2.59,2.099,4.683,4.69,4.683c0.038,0,0.076-0.002,0.114-0.002L131.691,176.036z"/>
			</g>
			<g>
				<path fill="#0D9949" d="M131.691,177.445c-0.037,0.001-0.074,0.003-0.111,0.003c-3.104,0-5.621-2.514-5.621-5.616
					s2.517-5.616,5.621-5.616c0.037,0,0.074,0.002,0.111,0.003v-0.482c-0.038-0.001-0.075-0.003-0.113-0.003
					c-3.369,0-6.1,2.73-6.1,6.097c0,3.368,2.731,6.097,6.1,6.097c0.038,0,0.075-0.002,0.113-0.003V177.445z"/>
			</g>
			<g>
				<g>
					<g>
						<g>
							<path fill="#0D9949" d="M127.892,179.987l-0.52,2.012h-0.463l-0.52-2.012h0.4l0.351,1.352l0.351-1.352H127.892z"/>
						</g>
						<g>
							<path fill="#0D9949" d="M129.353,181.154h-0.943v-0.325h0.943V181.154z"/>
						</g>
						<g>
							<path fill="#0D9949" d="M131.787,179.987v2.012h-0.39v-1.013l-0.414,0.952h-0.119l-0.416-0.952v1.013h-0.389v-2.012h0.378
								l0.486,1.114l0.487-1.114H131.787z"/>
						</g>
						<g>
							<path fill="#0D9949" d="M133.416,179.987l0.52,2.012h-0.401l-0.079-0.306h-0.543l-0.079,0.306h-0.401l0.52-2.012H133.416z
								 M133.015,181.303h0.339l-0.17-0.656L133.015,181.303z"/>
						</g>
					</g>
				</g>
				<g>
					<g>
						<g>
							<path fill="#0D9949" d="M134.989,179.987v1.623h0.645v0.389H134.6v-2.012H134.989z"/>
						</g>
					</g>
				</g>
				<g>
					<g>
						<g>
							<path fill="#0D9949" d="M137.255,179.987l0.52,2.012h-0.401l-0.079-0.306h-0.543l-0.079,0.306h-0.401l0.52-2.012H137.255z
								 M136.854,181.303h0.339l-0.17-0.656L136.854,181.303z"/>
						</g>
					</g>
				</g>
				<g>
					<g>
						<g>
							<path fill="#0D9949" d="M139.501,179.987l-0.532,1.144v0.868h-0.389v-0.868l-0.532-1.144h0.429l0.298,0.638l0.298-0.638
								H139.501z"/>
						</g>
						<g>
							<path fill="#0D9949" d="M140.433,180.58c0,0.077,0.03,0.134,0.089,0.172c0.049,0.031,0.115,0.047,0.197,0.047
								c0.189,0,0.346,0.053,0.473,0.16c0.134,0.114,0.201,0.263,0.201,0.448c0,0.177-0.069,0.328-0.207,0.453
								c-0.133,0.121-0.289,0.181-0.468,0.181c-0.267,0-0.473-0.125-0.617-0.374l0.169-0.098l0.168-0.098
								c0.07,0.121,0.163,0.181,0.28,0.181c0.072,0,0.136-0.023,0.193-0.068c0.061-0.048,0.091-0.107,0.091-0.177
								c0-0.077-0.03-0.134-0.089-0.172c-0.049-0.031-0.114-0.047-0.196-0.047c-0.189,0-0.346-0.053-0.473-0.16
								c-0.134-0.114-0.201-0.263-0.201-0.448c0-0.177,0.069-0.328,0.207-0.452c0.133-0.122,0.289-0.182,0.468-0.182
								c0.266,0,0.472,0.125,0.617,0.376l-0.338,0.194c-0.069-0.12-0.162-0.18-0.279-0.18c-0.072,0-0.136,0.022-0.193,0.067
								C140.464,180.451,140.433,180.51,140.433,180.58L140.433,180.58z"/>
						</g>
						<g>
							<path fill="#0D9949" d="M142.083,179.987h0.39v2.012h-0.39V179.987z"/>
						</g>
						<g>
							<path fill="#0D9949" d="M144.102,179.987l0.52,2.012h-0.401l-0.079-0.306h-0.543l-0.079,0.306h-0.401l0.52-2.012H144.102z
								 M143.701,181.303h0.339l-0.17-0.656L143.701,181.303z"/>
						</g>
						<g>
							<path fill="#0D9949" d="M146.889,180.336c-0.099,0-0.179,0.052-0.239,0.157l-0.337-0.196
								c0.136-0.234,0.328-0.351,0.575-0.351c0.169,0,0.308,0.054,0.418,0.161c0.111,0.108,0.166,0.245,0.166,0.412
								c0,0.143-0.04,0.268-0.121,0.375c-0.053,0.072-0.15,0.162-0.292,0.272c-0.09,0.07-0.159,0.134-0.205,0.193
								c-0.059,0.074-0.1,0.158-0.122,0.251h0.786v0.389h-1.199l0.007-0.303c0-0.302,0.165-0.581,0.496-0.837l0.02-0.016
								l0.021-0.016l0.044-0.035c0.034-0.028,0.062-0.054,0.085-0.078c0.061-0.065,0.091-0.131,0.091-0.196
								c0-0.06-0.018-0.105-0.054-0.137C146.997,180.351,146.95,180.336,146.889,180.336L146.889,180.336z"/>
						</g>
						<g>
							<path fill="#0D9949" d="M148.921,179.945c0.178,0,0.33,0.064,0.456,0.19c0.127,0.126,0.19,0.278,0.19,0.456v0.803
								c0,0.177-0.063,0.329-0.19,0.456c-0.126,0.126-0.278,0.189-0.456,0.189c-0.178,0-0.33-0.063-0.456-0.189
								c-0.127-0.127-0.19-0.279-0.19-0.456v-0.803c0-0.178,0.063-0.33,0.19-0.456C148.591,180.009,148.743,179.945,148.921,179.945
								L148.921,179.945z M148.921,180.336c-0.071,0-0.131,0.025-0.181,0.075c-0.051,0.05-0.076,0.11-0.076,0.181v0.803
								c0,0.07,0.025,0.13,0.076,0.181c0.05,0.05,0.11,0.075,0.181,0.075c0.071,0,0.131-0.025,0.181-0.075
								c0.051-0.051,0.076-0.111,0.076-0.181v-0.803c0-0.071-0.025-0.131-0.076-0.181
								C149.051,180.361,148.991,180.336,148.921,180.336L148.921,180.336z"/>
						</g>
						<g>
							<path fill="#0D9949" d="M151.094,179.987v2.012h-0.389v-1.623h-0.228v-0.389H151.094z"/>
						</g>
						<g>
							<path fill="#0D9949" d="M152.339,180.914c-0.062-0.081-0.093-0.174-0.093-0.278v-0.086c0-0.167,0.059-0.31,0.177-0.428
								c0.119-0.118,0.262-0.177,0.429-0.177c0.166,0,0.309,0.059,0.428,0.177c0.119,0.118,0.178,0.261,0.178,0.428v0.086
								c0,0.114-0.03,0.22-0.091,0.317c0.088,0.105,0.131,0.238,0.131,0.398v0.046c0,0.178-0.064,0.329-0.19,0.455
								c-0.127,0.126-0.279,0.189-0.456,0.189c-0.178,0-0.33-0.063-0.457-0.189c-0.126-0.125-0.189-0.277-0.189-0.455v-0.091
								C152.206,181.16,152.25,181.029,152.339,180.914L152.339,180.914z M153.11,181.351c0-0.081-0.022-0.139-0.066-0.173
								c-0.039-0.031-0.103-0.047-0.192-0.047c-0.059,0-0.116-0.005-0.17-0.016c-0.058,0.051-0.087,0.114-0.087,0.19v0.091
								c0,0.071,0.026,0.131,0.076,0.18c0.05,0.05,0.11,0.075,0.181,0.075c0.071,0,0.131-0.025,0.181-0.075
								c0.051-0.049,0.076-0.109,0.076-0.18V181.351z M152.852,180.742c0.064,0,0.124,0.006,0.178,0.017
								c0.026-0.038,0.039-0.079,0.039-0.123v-0.086c0-0.06-0.021-0.111-0.064-0.153c-0.043-0.042-0.094-0.063-0.153-0.063
								c-0.06,0-0.111,0.021-0.153,0.063c-0.043,0.042-0.064,0.093-0.064,0.153v0.086c0,0.038,0.028,0.067,0.083,0.086
								c0.021,0.007,0.044,0.013,0.071,0.016C152.812,180.741,152.833,180.742,152.852,180.742L152.852,180.742z"/>
						</g>
						<g>
							<path fill="#0D9949" d="M155.965,182.16h-0.389v-2.338h0.389V182.16z"/>
						</g>
						<g>
							<path fill="#0D9949" d="M158.906,179.987l0.52,2.012h-0.401l-0.079-0.306h-0.543l-0.079,0.306h-0.401l0.52-2.012H158.906z
								 M158.505,181.303h0.339l-0.17-0.656L158.505,181.303z"/>
						</g>
						<g>
							<path fill="#0D9949" d="M160.479,181.187v0.811h-0.389v-2.012h0.742c0.165,0,0.306,0.059,0.424,0.176
								c0.117,0.118,0.176,0.26,0.176,0.425c0,0.165-0.059,0.306-0.176,0.424c-0.117,0.117-0.258,0.176-0.424,0.176H160.479z
								 M160.479,180.376v0.422h0.353c0.057,0,0.107-0.021,0.149-0.063c0.041-0.041,0.062-0.09,0.062-0.148
								c0-0.058-0.021-0.108-0.062-0.149c-0.042-0.042-0.092-0.063-0.149-0.063H160.479z"/>
						</g>
						<g>
							<path fill="#0D9949" d="M162.528,181.187v0.811h-0.389v-2.012h0.742c0.165,0,0.306,0.059,0.424,0.177
								c0.117,0.117,0.176,0.258,0.176,0.424c0,0.126-0.037,0.241-0.11,0.345c-0.072,0.103-0.168,0.176-0.287,0.219l0.349,0.848
								h-0.421l-0.334-0.811H162.528z M162.528,180.376v0.422h0.353c0.057,0,0.106-0.021,0.148-0.062
								c0.042-0.042,0.063-0.092,0.063-0.149c0-0.058-0.021-0.108-0.063-0.149c-0.041-0.042-0.09-0.063-0.148-0.063H162.528z"/>
						</g>
						<g>
							<path fill="#0D9949" d="M164.211,179.987h0.39v2.012h-0.39V179.987z"/>
						</g>
						<g>
							<path fill="#0D9949" d="M165.817,179.987v1.623h0.645v0.389h-1.034v-2.012H165.817z"/>
						</g>
						<g>
							<path fill="#0D9949" d="M168.695,180.336c-0.099,0-0.179,0.052-0.239,0.157l-0.337-0.196
								c0.136-0.234,0.328-0.351,0.575-0.351c0.169,0,0.308,0.054,0.418,0.161c0.111,0.108,0.166,0.245,0.166,0.412
								c0,0.143-0.04,0.268-0.121,0.375c-0.053,0.072-0.15,0.162-0.292,0.272c-0.09,0.07-0.159,0.134-0.205,0.193
								c-0.059,0.074-0.1,0.158-0.122,0.251h0.786v0.389h-1.199l0.007-0.303c0-0.302,0.165-0.581,0.496-0.837l0.02-0.016
								l0.021-0.016l0.044-0.035c0.034-0.028,0.062-0.054,0.084-0.078c0.061-0.065,0.091-0.131,0.091-0.196
								c0-0.06-0.018-0.105-0.054-0.137C168.803,180.351,168.756,180.336,168.695,180.336L168.695,180.336z"/>
						</g>
						<g>
							<path fill="#0D9949" d="M171.053,179.987l-0.524,1.148h0.333v-0.475h0.389v0.475h0.152v0.389h-0.152v0.475h-0.389v-0.475
								h-0.838v-0.219l0.602-1.318H171.053z"/>
						</g>
						<g>
							<path fill="#0D9949" d="M172.832,181.154h-0.943v-0.325h0.943V181.154z"/>
						</g>
						<g>
							<path fill="#0D9949" d="M174.111,180.336c-0.099,0-0.179,0.052-0.239,0.157l-0.337-0.196
								c0.136-0.234,0.328-0.351,0.575-0.351c0.169,0,0.308,0.054,0.418,0.161c0.111,0.108,0.166,0.245,0.166,0.412
								c0,0.143-0.04,0.268-0.121,0.375c-0.053,0.072-0.15,0.162-0.292,0.272c-0.09,0.07-0.159,0.134-0.205,0.193
								c-0.059,0.074-0.1,0.158-0.122,0.251h0.786v0.389h-1.199l0.007-0.303c0-0.302,0.165-0.581,0.496-0.837l0.02-0.016
								l0.021-0.016l0.044-0.035c0.034-0.028,0.062-0.054,0.084-0.078c0.061-0.065,0.091-0.131,0.091-0.196
								c0-0.06-0.018-0.105-0.054-0.137C174.22,180.351,174.172,180.336,174.111,180.336L174.111,180.336z"/>
						</g>
						<g>
							<path fill="#0D9949" d="M175.63,180.914c-0.062-0.081-0.093-0.174-0.093-0.278v-0.086c0-0.167,0.059-0.31,0.177-0.428
								c0.119-0.118,0.262-0.177,0.429-0.177c0.166,0,0.309,0.059,0.428,0.177c0.119,0.118,0.178,0.261,0.178,0.428v0.086
								c0,0.114-0.03,0.22-0.091,0.317c0.088,0.105,0.131,0.238,0.131,0.398v0.046c0,0.178-0.064,0.329-0.19,0.455
								c-0.127,0.126-0.279,0.189-0.456,0.189c-0.178,0-0.33-0.063-0.457-0.189c-0.126-0.125-0.189-0.277-0.189-0.455v-0.091
								C175.497,181.16,175.541,181.029,175.63,180.914L175.63,180.914z M176.401,181.351c0-0.081-0.022-0.139-0.066-0.173
								c-0.039-0.031-0.103-0.047-0.192-0.047c-0.059,0-0.116-0.005-0.17-0.016c-0.058,0.051-0.087,0.114-0.087,0.19v0.091
								c0,0.071,0.025,0.131,0.076,0.18c0.05,0.05,0.11,0.075,0.181,0.075c0.071,0,0.131-0.025,0.181-0.075
								c0.051-0.049,0.076-0.109,0.076-0.18V181.351z M176.143,180.742c0.064,0,0.124,0.006,0.178,0.017
								c0.026-0.038,0.039-0.079,0.039-0.123v-0.086c0-0.06-0.021-0.111-0.064-0.153c-0.043-0.042-0.094-0.063-0.153-0.063
								c-0.06,0-0.111,0.021-0.153,0.063c-0.043,0.042-0.064,0.093-0.064,0.153v0.086c0,0.038,0.028,0.067,0.083,0.086
								c0.021,0.007,0.044,0.013,0.071,0.016C176.102,180.741,176.123,180.742,176.143,180.742L176.143,180.742z"/>
						</g>
					</g>
				</g>
			</g>
		</g>
		<g>
			<g>
				<g>
					<g>
						<path fill="#0191B2" d="M131.855,154.073c2.747-1.234,5.186-2.494,7.636-3.895v-0.924c-2.774,1.605-5.536,3.01-7.965,4.087
							L131.855,154.073z"/>
					</g>
					<g>
						<path fill="#0191B2" d="M132.126,155.357c2.747-1.234,4.891-2.343,7.365-3.693v-0.924c-2.794,1.537-5.267,2.809-7.695,3.886
							L132.126,155.357z"/>
					</g>
					<g>
						<path fill="#0191B2" d="M132.397,156.64c2.778-1.284,4.62-2.186,7.094-3.537V152.2c-2.806,1.498-5.037,2.645-7.426,3.71
							L132.397,156.64z"/>
					</g>
					<g>
						<rect x="131.691" y="198.631" fill="#0191B2" width="7.817" height="0.809"/>
					</g>
					<g>
						<rect x="131.691" y="199.962" fill="#0191B2" width="7.817" height="0.809"/>
					</g>
					<g>
						<rect x="131.691" y="201.292" fill="#0191B2" width="7.817" height="0.809"/>
					</g>
				</g>
				<g>
					<rect x="131.691" y="162.673" fill="#0191B2" width="7.832" height="0.825"/>
				</g>
				<g>
					<rect x="131.691" y="184.073" fill="#0191B2" width="7.832" height="0.825"/>
				</g>
			</g>
			<g>
				<path fill="#0191B2" d="M135.678,172.554c-0.292,2.045-1.993,3.421-3.998,3.481v0.479c2.311-0.016,4.142-1.735,4.476-3.901
					L135.678,172.554z"/>
			</g>
			<g>
				<path fill="#0191B2" d="M134.366,171.914c-0.027,1.728-1.586,2.667-2.675,2.721v0.472c1.38-0.046,3.111-1.223,3.16-3.192
					C134.851,171.916,134.366,171.911,134.366,171.914z"/>
			</g>
			<g>
				<path fill="#0191B2" d="M136.927,173.542c-0.647,2.209-2.867,3.906-5.248,3.906v0.479c2.466-0.004,4.889-1.648,5.706-4.239
					L136.927,173.542z"/>
			</g>
			<g>
				<path fill="#0191B2" d="M139.523,174.097l-6.109-4.319c-0.613-0.404-1.209-0.725-1.723-0.661v-0.519
					c0.751,0.052,1.396,0.377,2.006,0.79l5.826,4.132V174.097z"/>
			</g>
			<g>
				<path fill="#0191B2" d="M139.523,172.495l-5.136-3.7c-0.678-0.509-1.852-1.072-2.7-1.15l0.004-0.496
					c1.323,0.152,2.56,0.946,3.138,1.367l4.694,3.388V172.495z"/>
			</g>
			<g>
				<path fill="#0191B2" d="M131.691,166.221c1.196,0.021,2.358,0.403,3.482,1.191l4.363,3.437v-0.612l-4.093-3.222
					c-1.174-0.817-2.421-1.257-3.752-1.276V166.221z"/>
			</g>
		</g>
		<g>
			<g>
				<g>
					<g>
						<path fill="#059EB5" d="M139.492,150.178c2.376-1.346,4.985-3.001,7.491-4.771v-0.983c-2.417,1.711-4.815,3.282-7.491,4.83
							V150.178z"/>
					</g>
					<g>
						<path fill="#059EB5" d="M139.492,151.663c2.365-1.339,4.953-2.882,7.491-4.615v-0.972c-2.423,1.672-4.805,3.133-7.491,4.663
							V151.663z"/>
					</g>
					<g>
						<path fill="#059EB5" d="M139.492,153.122c3.028-1.706,5.067-2.829,7.491-4.459v-0.953c-2.387,1.601-4.778,2.994-7.491,4.488
							V153.122z"/>
					</g>
					<g>
						<path fill="#059EB5" d="M146.983,150.2c-1.688,1.054-3.392,2.03-5.112,2.921l-0.37-0.712c1.765-0.906,3.599-1.974,5.482-3.156
							V150.2z"/>
					</g>
					<g>
						<path fill="#059EB5" d="M146.983,151.549c-1.628,0.908-3.335,1.815-5.112,2.72l-0.37-0.712
							c1.811-0.948,3.64-1.924,5.482-2.923V151.549z"/>
					</g>
					<g>
						<path fill="#059EB5" d="M146.983,152.939c-1.558,0.746-3.155,1.462-5.112,2.478l-0.37-0.712
							c1.95-0.991,3.833-1.852,5.482-2.656V152.939z"/>
					</g>
					<g>
						<path fill="#059EB5" d="M146.983,154.358c-1.546,0.634-3.168,1.228-5.112,2.208l-0.37-0.712
							c1.906-0.955,3.826-1.694,5.482-2.359V154.358z"/>
					</g>
					<g>
						<path fill="#059EB5" d="M146.983,155.81c-1.239,0.427-3.418,1.066-5.112,1.903l-0.37-0.712
							c1.102-0.566,3.041-1.261,5.482-2.034V155.81z"/>
					</g>
					<g>
						<path fill="#059EB5" d="M146.983,157.296c-1.951,0.495-3.804,0.944-5.112,1.565l-0.37-0.712
							c1.082-0.56,3.294-1.121,5.482-1.683V157.296z"/>
					</g>
					<g>
						<path fill="#059EB5" d="M146.983,158.807c-2.057,0.381-4.132,0.761-5.112,1.202l-0.37-0.712
							c0.86-0.456,3.348-0.888,5.482-1.307V158.807z"/>
					</g>
					<g>
						<path fill="#059EB5" d="M146.983,160.347c-2.051,0.259-4.373,0.509-5.113,0.81l-0.369-0.712
							c0.908-0.379,3.243-0.638,5.482-0.906V160.347z"/>
					</g>
					<g>
						<rect x="139.508" y="198.631" fill="#059EB5" width="7.475" height="0.809"/>
					</g>
					<g>
						<rect x="141.686" y="197.355" fill="#059EB5" width="5.297" height="0.809"/>
					</g>
					<g>
						<rect x="141.686" y="195.88" fill="#059EB5" width="5.297" height="0.809"/>
					</g>
					<g>
						<rect x="141.686" y="194.406" fill="#059EB5" width="5.297" height="0.809"/>
					</g>
					<g>
						<rect x="141.686" y="192.931" fill="#059EB5" width="5.297" height="0.809"/>
					</g>
					<g>
						<rect x="141.686" y="191.456" fill="#059EB5" width="5.297" height="0.809"/>
					</g>
					<g>
						<rect x="141.686" y="189.981" fill="#059EB5" width="5.297" height="0.809"/>
					</g>
					<g>
						<rect x="141.686" y="188.506" fill="#059EB5" width="5.297" height="0.809"/>
					</g>
					<g>
						<rect x="141.686" y="187.031" fill="#059EB5" width="5.297" height="0.809"/>
					</g>
					<g>
						<rect x="141.686" y="185.556" fill="#059EB5" width="5.297" height="0.809"/>
					</g>
					<g>
						<rect x="139.508" y="199.962" fill="#059EB5" width="7.475" height="0.809"/>
					</g>
					<g>
						<rect x="139.508" y="201.292" fill="#059EB5" width="7.475" height="0.809"/>
					</g>
					<g>
						<path fill="#059EB5" d="M146.983,161.911c-2.112,0.124-4.295,0.246-5.113,0.394l-0.369-0.712
							c0.487-0.207,2.992-0.346,5.482-0.487V161.911z"/>
					</g>
				</g>
				<g>
					<rect x="139.523" y="162.673" fill="#059EB5" width="7.459" height="0.825"/>
				</g>
				<g>
					<rect x="139.523" y="184.073" fill="#059EB5" width="7.459" height="0.825"/>
				</g>
			</g>
			<g>
				<path fill="#059EB5" d="M146.973,165.72h-3.13c-1.032,0-1.864,0.844-1.85,1.876l0.062,4.525c0.001,0.043-0.048,0.067-0.082,0.04
					l-2.439-1.931l0.001,0.619l2.161,1.708c0.344,0.272,0.849,0.023,0.843-0.415l-0.061-4.541c-0.01-0.772,0.613-1.403,1.385-1.403
					l3.114,0.002L146.973,165.72z"/>
			</g>
			<g>
				<path fill="#059EB5" d="M143.306,168.05l-0.008,5.88c0,0.271-0.306,0.429-0.527,0.272l-3.247-2.299v0.592l3,2.118
					c0.531,0.375,1.263-0.005,1.264-0.654l0.004-5.923c0-0.283,0.23-0.513,0.513-0.513h2.67v-0.483l-2.663,0.005
					C143.756,167.046,143.307,167.495,143.306,168.05z"/>
			</g>
			<g>
				<path fill="#059EB5" d="M146.975,168.828v-0.482l-1.396-0.001c-0.532,0-0.964,0.432-0.964,0.964v7.192
					c0,0.265-0.3,0.42-0.516,0.266l-4.577-3.247l0.002,0.579l4.291,3.057c0.537,0.383,1.282-0.001,1.282-0.661v-7.174
					c0-0.273,0.221-0.494,0.494-0.494H146.975z"/>
			</g>
		</g>
		<g>
			<g>
				<path fill="none" stroke="#080607" stroke-width="3" stroke-miterlimit="10" d="M147.532,168.617"/>
			</g>
			<g>
				<path fill="none" stroke="#080607" stroke-width="3" stroke-miterlimit="10" d="M156.364,168.617"/>
			</g>
			<g>
				<path fill="none" stroke="#080607" stroke-width="3" stroke-miterlimit="10" d="M147.532,168.617"/>
			</g>
			<g>
				<path fill="none" stroke="#080607" stroke-width="3" stroke-miterlimit="10" d="M156.364,168.617"/>
			</g>
			<g>
				<path fill="#1479BE" d="M154.783,175.049h-5.536c-0.568,0-1.03-0.463-1.03-1.031v-0.179c0-0.569,0.462-1.031,1.03-1.031h5.537
					v0.482h-5.537c-0.303,0-0.549,0.247-0.549,0.55v0.179c0,0.303,0.246,0.55,0.549,0.55h5.536V175.049z"/>
			</g>
			<g>
				<path fill="#1479BE" d="M154.783,170.633h-5.327c-0.684,0-1.241-0.557-1.241-1.241v-0.775h0.482v0.775
					c0,0.419,0.34,0.759,0.759,0.759h5.327V170.633z"/>
			</g>
			<g>
				<path fill="#1479BE" d="M154.783,176.354h-6.746c-0.586,0-1.062-0.475-1.062-1.062v-5.787h0.482v5.787
					c0,0.32,0.26,0.58,0.58,0.58h6.746V176.354z"/>
			</g>
			<g>
				<g>
					<rect x="148.458" y="171.479" fill="#1479BE" width="6.326" height="0.482"/>
				</g>
				<g>
					<rect x="147.011" y="177.224" fill="#1479BE" width="7.772" height="0.482"/>
				</g>
				<g>
					<g>
						<path fill="#1479BE" d="M146.983,145.398c2.659-1.882,5.272-3.887,7.811-6.089v-1.066c-2.712,2.36-5.311,4.407-7.811,6.18
							V145.398z"/>
					</g>
					<g>
						<path fill="#1479BE" d="M146.983,147.056c2.659-1.882,5.272-3.729,7.811-5.931v-1.045c-2.712,2.36-5.311,4.228-7.811,6.001
							V147.056z"/>
					</g>
					<g>
						<path fill="#1479BE" d="M146.983,148.663c2.72-1.838,5.332-3.601,7.811-5.716v-1.035c-2.737,2.321-5.346,4.162-7.811,5.798
							V148.663z"/>
					</g>
					<g>
						<path fill="#1479BE" d="M146.983,150.2c1.7-1.053,5.309-3.494,7.811-5.586v-1.035c-2.737,2.261-5.4,4.13-7.811,5.673V150.2z"
							/>
					</g>
					<g>
						<path fill="#1479BE" d="M154.794,146.791c-2.513,1.705-5.113,3.295-7.811,4.759v-0.915c2.79-1.54,5.352-3.117,7.811-4.818
							V146.791z"/>
					</g>
					<g>
						<path fill="#1479BE" d="M154.794,148.925c-2.731,1.645-5.206,2.738-7.811,4.023v-0.898c3.112-1.514,5.344-2.582,7.811-4.044
							V148.925z"/>
					</g>
					<g>
						<path fill="#1479BE" d="M154.794,151.067c-2.433,1.185-5.169,2.257-7.811,3.291v-0.864c2.625-1.042,5.291-2.107,7.811-3.316
							V151.067z"/>
					</g>
					<g>
						<polygon fill="#1479BE" points="154.782,161.456 146.983,161.911 146.983,161.106 154.785,160.654 						"/>
					</g>
					<g>
						<path fill="#1479BE" d="M154.785,159.401c-2.423,0.312-5.045,0.628-7.803,0.947v-0.809c2.684-0.302,5.292-0.616,7.803-0.947
							V159.401z"/>
					</g>
					<g>
						<path fill="#1479BE" d="M154.785,157.337c-2.522,0.504-5.127,0.994-7.803,1.472v-0.818c2.671-0.466,5.276-0.956,7.803-1.472
							V157.337z"/>
					</g>
					<g>
						<path fill="#1479BE" d="M154.785,155.264c-2.337,0.669-4.976,1.347-7.803,2.031v-0.829c2.675-0.643,5.28-1.318,7.803-2.031
							V155.264z"/>
					</g>
					<g>
						<path fill="#1479BE" d="M154.785,153.177c-2.487,0.931-5.092,1.794-7.803,2.621v-0.832c2.701-0.844,5.307-1.739,7.803-2.653
							V153.177z"/>
					</g>
					<g>
						<rect x="146.983" y="198.631" fill="#1479BE" width="7.805" height="0.809"/>
					</g>
					<g>
						<rect x="146.983" y="197.355" fill="#1479BE" width="7.805" height="0.809"/>
					</g>
					<g>
						<rect x="146.983" y="195.88" fill="#1479BE" width="7.805" height="0.809"/>
					</g>
					<g>
						<rect x="146.983" y="194.406" fill="#1479BE" width="7.805" height="0.809"/>
					</g>
					<g>
						<rect x="146.983" y="192.931" fill="#1479BE" width="7.805" height="0.809"/>
					</g>
					<g>
						<rect x="146.983" y="191.456" fill="#1479BE" width="7.805" height="0.809"/>
					</g>
					<g>
						<rect x="146.983" y="189.981" fill="#1479BE" width="7.805" height="0.809"/>
					</g>
					<g>
						<rect x="146.983" y="188.506" fill="#1479BE" width="7.805" height="0.809"/>
					</g>
					<g>
						<rect x="146.983" y="187.031" fill="#1479BE" width="7.805" height="0.809"/>
					</g>
					<g>
						<rect x="146.983" y="185.556" fill="#1479BE" width="7.805" height="0.809"/>
					</g>
					<g>
						<rect x="146.983" y="199.962" fill="#1479BE" width="7.805" height="0.809"/>
					</g>
					<g>
						<rect x="146.983" y="201.292" fill="#1479BE" width="7.805" height="0.809"/>
					</g>
				</g>
				<g>
					<rect x="146.988" y="162.673" fill="#1479BE" width="7.797" height="0.825"/>
				</g>
				<g>
					<rect x="146.988" y="184.073" fill="#1479BE" width="7.797" height="0.825"/>
				</g>
			</g>
			<g>
				<rect x="146.972" y="165.72" fill="#1479BE" width="7.811" height="0.479"/>
			</g>
			<g>
				<rect x="146.974" y="167.041" fill="#1479BE" width="7.81" height="0.482"/>
			</g>
			<g>
				<rect x="146.975" y="168.346" fill="#1479BE" width="7.808" height="0.482"/>
			</g>
		</g>
		<g>
			<g>
				<g>
					<path fill="#3253A2" d="M154.794,138.243c1.526-1.322,3.062-2.754,4.611-4.298l0.565,0.57c-1.582,1.594-3.32,3.193-5.175,4.794
						V138.243z"/>
				</g>
				<g>
					<path fill="#3253A2" d="M154.794,140.08c1.472-1.254,3.079-2.749,4.688-4.371l0.572,0.563c-1.57,1.65-3.392,3.3-5.259,4.847
						V140.08z"/>
				</g>
				<g>
					<path fill="#3253A2" d="M154.794,141.912c1.472-1.254,3.155-2.817,4.764-4.439l0.579,0.557c-1.57,1.65-3.475,3.37-5.342,4.917
						V141.912z"/>
				</g>
				<g>
					<path fill="#3253A2" d="M154.794,143.584c1.472-1.254,3.486-2.978,5.095-4.6l0.562,0.571c-1.584,1.62-3.789,3.513-5.657,5.06
						V143.584z"/>
				</g>
				<g>
					<path fill="#3253A2" d="M154.794,145.816c1.795-1.341,3.484-2.625,5.095-4.185l0.562,0.571
						c-1.563,1.711-3.752,3.198-5.657,4.588V145.816z"/>
				</g>
				<g>
					<path fill="#3253A2" d="M154.794,148.005c2.011-1.214,3.515-2.189,5.093-3.726l0.564,0.571
						c-1.524,1.535-3.693,2.937-5.657,4.073V148.005z"/>
				</g>
				<g>
					<path fill="#3253A2" d="M154.794,150.147c2.033-1.123,3.515-1.683,5.093-3.221l0.564,0.571
						c-1.524,1.535-3.662,2.554-5.657,3.568V150.147z"/>
				</g>
				<g>
					<path fill="#3253A2" d="M154.794,152.311c2.189-0.928,3.204-1.245,5.093-2.748l0.564,0.571
						c-1.556,1.525-4.203,2.427-5.657,3.039V152.311z"/>
				</g>
				<g>
					<path fill="#3253A2" d="M154.785,154.435c2.069-0.675,3.063-0.844,5.101-2.214l0.564,0.571
						c-1.204,1.204-4.209,1.991-5.657,2.471L154.785,154.435z"/>
				</g>
				<g>
					<path fill="#3253A2" d="M154.785,156.519c2.976-0.654,4.55-1.139,5.101-1.65l0.564,0.571c-0.86,0.885-4.256,1.589-5.657,1.893
						L154.785,156.519z"/>
				</g>
				<g>
					<path fill="#3253A2" d="M154.785,158.592c2.61-0.395,4.525-0.646,5.101-1.076l0.564,0.571c-0.681,0.67-4.27,1.097-5.657,1.31
						L154.785,158.592z"/>
				</g>
				<g>
					<path fill="#3253A2" d="M154.785,160.654c2.412-0.174,4.333-0.306,5.101-0.495l0.564,0.571
						c-0.611,0.49-4.286,0.599-5.657,0.723L154.785,160.654z"/>
				</g>
				<g>
					<rect x="154.785" y="162.673" fill="#3253A2" width="7.557" height="0.825"/>
				</g>
				<g>
					<rect x="154.785" y="184.073" fill="#3253A2" width="7.557" height="0.825"/>
				</g>
				<g>
					<rect x="154.788" y="198.631" fill="#3253A2" width="7.487" height="0.809"/>
				</g>
				<g>
					<rect x="154.788" y="197.355" fill="#3253A2" width="5.381" height="0.809"/>
				</g>
				<g>
					<rect x="154.788" y="195.88" fill="#3253A2" width="5.381" height="0.809"/>
				</g>
				<g>
					<rect x="154.788" y="194.406" fill="#3253A2" width="5.381" height="0.809"/>
				</g>
				<g>
					<rect x="154.788" y="192.931" fill="#3253A2" width="5.381" height="0.809"/>
				</g>
				<g>
					<rect x="154.788" y="191.456" fill="#3253A2" width="5.381" height="0.809"/>
				</g>
				<g>
					<rect x="154.788" y="189.981" fill="#3253A2" width="5.381" height="0.809"/>
				</g>
				<g>
					<rect x="154.788" y="188.506" fill="#3253A2" width="5.381" height="0.809"/>
				</g>
				<g>
					<rect x="154.788" y="187.031" fill="#3253A2" width="5.381" height="0.809"/>
				</g>
				<g>
					<rect x="154.788" y="185.556" fill="#3253A2" width="5.381" height="0.809"/>
				</g>
				<g>
					<rect x="154.788" y="199.962" fill="#3253A2" width="7.487" height="0.809"/>
				</g>
				<g>
					<rect x="154.788" y="201.292" fill="#3253A2" width="7.487" height="0.809"/>
				</g>
			</g>
			<g>
				<rect x="154.784" y="175.873" fill="#3253A2" width="2.543" height="0.482"/>
			</g>
			<g>
				<rect x="154.783" y="177.224" fill="#3253A2" width="2.543" height="0.482"/>
			</g>
			<g>
				<rect x="154.783" y="174.567" fill="#3253A2" width="2.544" height="0.482"/>
			</g>
			<g>
				<rect x="154.783" y="172.808" fill="#3253A2" width="2.544" height="0.482"/>
			</g>
			<g>
				<rect x="154.783" y="171.479" fill="#3253A2" width="2.543" height="0.482"/>
			</g>
			<g>
				<rect x="154.783" y="170.151" fill="#3253A2" width="2.543" height="0.482"/>
			</g>
			<g>
				<rect x="154.783" y="168.346" fill="#3253A2" width="2.544" height="0.482"/>
			</g>
			<g>
				<rect x="154.783" y="167.041" fill="#3253A2" width="2.543" height="0.482"/>
			</g>
			<g>
				<rect x="154.783" y="165.72" fill="#3253A2" width="2.543" height="0.479"/>
			</g>
		</g>
		<g>
			<g>
				<rect x="162.275" y="198.631" fill="#224185" width="8.184" height="0.809"/>
			</g>
			<g>
				<rect x="162.287" y="162.673" fill="#224185" width="8.169" height="0.825"/>
			</g>
			<g>
				<rect x="162.287" y="184.073" fill="#224185" width="8.169" height="0.825"/>
			</g>
			<g>
				<rect x="162.275" y="199.962" fill="#224185" width="8.184" height="0.809"/>
			</g>
			<g>
				<rect x="162.275" y="201.292" fill="#224185" width="8.184" height="0.809"/>
			</g>
		</g>
		<g>
			<g>
				<path fill="#282965" d="M170.459,162.673v0.825h8.248c0.679,0,1.23,0.551,1.23,1.23v18.115c0,0.679-0.551,1.23-1.23,1.23h-8.248
					v0.825h8.448c1.012,0,1.833-0.821,1.833-1.833v-18.559c0-1.012-0.821-1.833-1.833-1.833H170.459z"/>
			</g>
			<g>
				<g>
					<g>
						<path fill="#282965" d="M160.902,167.577v1.11h-0.532v-2.751h1.014c0.225,0,0.418,0.08,0.58,0.24
							c0.16,0.161,0.24,0.355,0.24,0.581c0,0.225-0.08,0.418-0.24,0.58c-0.16,0.16-0.353,0.24-0.58,0.24H160.902z M160.902,166.467
							v0.578h0.482c0.078,0,0.146-0.029,0.204-0.086c0.056-0.056,0.084-0.123,0.084-0.202c0-0.079-0.028-0.147-0.084-0.204
							c-0.058-0.057-0.125-0.086-0.204-0.086H160.902z"/>
					</g>
				</g>
				<g>
					<g>
						<path fill="#282965" d="M164.91,165.935v0.532h-0.882v0.578h0.677v0.532h-0.677v0.578h0.882v0.532h-1.414v-2.751H164.91z"/>
					</g>
				</g>
				<g>
					<g>
						<path fill="#282965" d="M167.766,166.157c0.186,0.186,0.279,0.409,0.279,0.669v0.095c0,0.262-0.093,0.485-0.279,0.671
							c-0.185,0.185-0.408,0.277-0.669,0.277c-0.26,0-0.484-0.092-0.669-0.277c-0.186-0.186-0.279-0.41-0.279-0.671v-0.095
							c0-0.26,0.093-0.484,0.279-0.669c0.186-0.186,0.409-0.279,0.669-0.279C167.358,165.878,167.581,165.971,167.766,166.157z
							 M167.964,168.686h-1.733v-0.532h1.733V168.686z M166.803,166.533c-0.082,0.082-0.123,0.18-0.123,0.293v0.095
							c0,0.115,0.041,0.213,0.123,0.295c0.081,0.081,0.179,0.121,0.293,0.121c0.115,0,0.213-0.04,0.293-0.121
							c0.082-0.082,0.123-0.18,0.123-0.295v-0.095c0-0.114-0.041-0.211-0.123-0.293c-0.081-0.081-0.179-0.121-0.293-0.121
							C166.981,166.412,166.883,166.452,166.803,166.533z"/>
					</g>
				</g>
				<g>
					<g>
						<path fill="#282965" d="M169.899,167.577v1.11h-0.532v-2.751h1.014c0.225,0,0.418,0.08,0.58,0.24
							c0.16,0.161,0.24,0.355,0.24,0.581c0,0.225-0.08,0.418-0.24,0.58c-0.16,0.16-0.353,0.24-0.58,0.24H169.899z M169.899,166.467
							v0.578h0.482c0.078,0,0.146-0.029,0.204-0.086c0.056-0.056,0.084-0.123,0.084-0.202c0-0.079-0.028-0.147-0.084-0.204
							c-0.058-0.057-0.125-0.086-0.204-0.086H169.899z"/>
					</g>
				</g>
				<g>
					<g>
						<path fill="#282965" d="M173.024,165.935v2.219h0.882v0.532h-1.414v-2.751H173.024z"/>
					</g>
				</g>
				<g>
					<g>
						<path fill="#282965" d="M176.505,165.935v0.532h-0.882v0.578h0.677v0.532h-0.677v0.578h0.882v0.532h-1.414v-2.751H176.505z"/>
					</g>
				</g>
				<g>
					<g>
						<path fill="#282965" d="M160.902,172.084v1.11h-0.532v-2.751h1.014c0.225,0,0.418,0.08,0.58,0.24
							c0.16,0.161,0.24,0.355,0.24,0.581c0,0.225-0.08,0.418-0.24,0.58c-0.16,0.16-0.353,0.24-0.58,0.24H160.902z M160.902,170.974
							v0.578h0.482c0.078,0,0.146-0.029,0.204-0.086c0.056-0.056,0.084-0.123,0.084-0.202c0-0.079-0.028-0.147-0.084-0.204
							c-0.058-0.057-0.125-0.086-0.204-0.086H160.902z"/>
					</g>
				</g>
				<g>
					<g>
						<path fill="#282965" d="M163.952,170.443v2.219h0.882v0.532h-1.414v-2.751H163.952z"/>
					</g>
				</g>
				<g>
					<g>
						<path fill="#282965" d="M167.303,170.443l0.712,2.751h-0.548l-0.108-0.418h-0.743l-0.108,0.418h-0.548l0.712-2.751H167.303z
							 M166.755,172.242h0.464l-0.233-0.897L166.755,172.242z"/>
					</g>
				</g>
				<g>
					<g>
						<path fill="#282965" d="M170.986,170.443v2.751h-0.515l-0.769-1.531v1.531h-0.532v-2.751h0.515l0.767,1.531v-1.531H170.986z"
							/>
					</g>
				</g>
				<g>
					<g>
						<path fill="#282965" d="M173.78,170.443v0.532h-0.882v0.578h0.677v0.532h-0.677v0.578h0.882v0.532h-1.414v-2.751H173.78z"/>
					</g>
				</g>
				<g>
					<g>
						<path fill="#282965" d="M176.509,170.443v0.532h-0.541v2.219h-0.534v-2.219h-0.541v-0.532H176.509z"/>
					</g>
				</g>
				<g>
					<g>
						<path fill="#282965" d="M160.902,176.591v1.11h-0.532v-2.751h1.014c0.225,0,0.418,0.08,0.58,0.24
							c0.16,0.161,0.24,0.355,0.24,0.581c0,0.225-0.08,0.418-0.24,0.58c-0.16,0.16-0.353,0.24-0.58,0.24H160.902z M160.902,175.482
							v0.578h0.482c0.078,0,0.146-0.029,0.204-0.086c0.056-0.056,0.084-0.123,0.084-0.202c0-0.079-0.028-0.147-0.084-0.204
							c-0.058-0.057-0.125-0.086-0.204-0.086H160.902z"/>
					</g>
				</g>
				<g>
					<g>
						<path fill="#282965" d="M164.692,176.81c0,0.26-0.093,0.483-0.279,0.669c-0.185,0.186-0.408,0.279-0.67,0.279
							c-0.26,0-0.484-0.093-0.669-0.279c-0.186-0.186-0.279-0.409-0.279-0.669v-1.86h0.532v1.86c0,0.114,0.041,0.212,0.123,0.293
							c0.082,0.082,0.18,0.123,0.293,0.123c0.115,0,0.213-0.041,0.293-0.123c0.082-0.082,0.123-0.18,0.123-0.293v-1.86h0.532V176.81
							z"/>
					</g>
				</g>
				<g>
					<g>
						<path fill="#282965" d="M165.986,176.591v1.11h-0.532v-2.751h1.014c0.225,0,0.418,0.081,0.58,0.242
							c0.16,0.16,0.24,0.353,0.24,0.58c0,0.172-0.05,0.329-0.15,0.471c-0.099,0.141-0.23,0.24-0.393,0.299l0.477,1.159h-0.576
							l-0.457-1.11H165.986z M165.986,175.482v0.578h0.482c0.078,0,0.145-0.028,0.202-0.084c0.058-0.057,0.086-0.125,0.086-0.204
							c0-0.079-0.029-0.147-0.086-0.204c-0.056-0.057-0.124-0.086-0.202-0.086H165.986z"/>
					</g>
				</g>
				<g>
					<g>
						<path fill="#282965" d="M168.466,176.591v1.11h-0.532v-2.751h1.014c0.225,0,0.418,0.08,0.58,0.24
							c0.16,0.161,0.24,0.355,0.24,0.581c0,0.225-0.08,0.418-0.24,0.58c-0.16,0.16-0.353,0.24-0.58,0.24H168.466z M168.466,175.482
							v0.578h0.482c0.078,0,0.146-0.029,0.204-0.086c0.056-0.056,0.084-0.123,0.084-0.202c0-0.079-0.028-0.147-0.084-0.204
							c-0.058-0.057-0.125-0.086-0.204-0.086H168.466z"/>
					</g>
				</g>
				<g>
					<g>
						<path fill="#282965" d="M171.994,175.172c0.186,0.186,0.279,0.409,0.279,0.669v0.095c0,0.262-0.093,0.485-0.279,0.671
							c-0.185,0.185-0.408,0.277-0.67,0.277c-0.26,0-0.484-0.092-0.669-0.277c-0.186-0.186-0.279-0.41-0.279-0.671v-0.095
							c0-0.26,0.093-0.483,0.279-0.669c0.186-0.186,0.409-0.279,0.669-0.279C171.586,174.893,171.809,174.986,171.994,175.172z
							 M172.192,177.701h-1.733v-0.532h1.733V177.701z M171.031,175.548c-0.082,0.082-0.123,0.18-0.123,0.293v0.095
							c0,0.115,0.041,0.213,0.123,0.295c0.081,0.081,0.179,0.121,0.293,0.121s0.213-0.04,0.293-0.121
							c0.082-0.082,0.123-0.18,0.123-0.295v-0.095c0-0.114-0.041-0.211-0.123-0.293c-0.081-0.081-0.179-0.121-0.293-0.121
							S171.112,175.467,171.031,175.548z"/>
					</g>
				</g>
				<g>
					<g>
						<path fill="#282965" d="M173.018,175.102c0.156-0.139,0.342-0.209,0.556-0.209c0.324,0,0.575,0.153,0.752,0.46l-0.46,0.266
							c-0.073-0.13-0.171-0.194-0.292-0.194c-0.071,0-0.131,0.018-0.182,0.055c-0.056,0.042-0.084,0.096-0.084,0.163
							c0,0.083,0.041,0.165,0.123,0.246c0.051,0.049,0.148,0.121,0.29,0.216c0.05,0.034,0.088,0.061,0.114,0.079
							c0.044,0.031,0.082,0.059,0.116,0.084c0.084,0.065,0.154,0.129,0.209,0.193c0.141,0.161,0.211,0.346,0.211,0.554
							c0,0.21-0.081,0.388-0.244,0.532c-0.157,0.141-0.341,0.211-0.552,0.211c-0.325,0-0.577-0.154-0.756-0.462l0.46-0.266
							c0.075,0.131,0.173,0.196,0.295,0.196c0.07,0,0.13-0.018,0.18-0.055c0.056-0.042,0.084-0.097,0.084-0.165
							c0-0.082-0.042-0.163-0.125-0.244c-0.05-0.05-0.146-0.122-0.288-0.216l-0.057-0.04l-0.059-0.039
							c-0.043-0.031-0.081-0.059-0.114-0.084c-0.084-0.066-0.154-0.13-0.209-0.193c-0.141-0.163-0.211-0.347-0.211-0.554
							C172.776,175.426,172.857,175.248,173.018,175.102z"/>
					</g>
				</g>
				<g>
					<g>
						<path fill="#282965" d="M176.374,174.95v0.532h-0.882v0.578h0.677v0.532h-0.677v0.578h0.882v0.532h-1.414v-2.751H176.374z"/>
					</g>
				</g>
			</g>
		</g>
	</g>
</g>
</svg>
