<?xml version="1.0" encoding="utf-8"?>
<!-- Generator: Adobe Illustrator 17.0.0, SVG Export Plug-In . SVG Version: 6.00 Build 0)  -->
<!DOCTYPE svg PUBLIC "-//W3C//DTD SVG 1.1//EN" "http://www.w3.org/Graphics/SVG/1.1/DTD/svg11.dtd">
<svg version="1.1" id="rounded_gradient_lines" xmlns="http://www.w3.org/2000/svg" xmlns:xlink="http://www.w3.org/1999/xlink"
	 x="0px" y="0px" width="300px" height="300px" viewBox="0 0 300 300" enable-background="new 0 0 300 300" xml:space="preserve">
<g>
	<g>
		<defs>
			<path id="SVGID_7_" d="M140.249,23.182L69.756,93.554c-2.052,2.048-5.376,2.046-7.424-0.006l0,0
				c-2.048-2.052-2.046-5.376,0.006-7.424l70.493-70.373c2.052-2.048,5.376-2.046,7.424,0.006v0
				C142.303,17.809,142.3,21.133,140.249,23.182z"/>
		</defs>
		<clipPath id="SVGID_2_">
			<use xlink:href="#SVGID_7_"  overflow="visible"/>
		</clipPath>
		<polygon clip-path="url(#SVGID_2_)" fill="#F6A55F" points="60.283,90.845 63.892,95.603 60.283,95.603 		"/>
		<polygon clip-path="url(#SVGID_2_)" fill="#F6A55F" points="60.283,89.65 64.799,95.603 63.892,95.603 60.283,90.845 		"/>
		<polygon clip-path="url(#SVGID_2_)" fill="#F7A55F" points="60.283,88.455 65.706,95.603 64.799,95.603 60.283,89.65 		"/>
		<polygon clip-path="url(#SVGID_2_)" fill="#F7A45F" points="60.283,87.26 66.612,95.603 65.706,95.603 60.283,88.455 		"/>
		<polygon clip-path="url(#SVGID_2_)" fill="#F7A35F" points="60.283,86.064 67.519,95.603 66.612,95.603 60.283,87.26 		"/>
		<polygon clip-path="url(#SVGID_2_)" fill="#F7A35F" points="60.283,84.869 68.425,95.603 67.519,95.603 60.283,86.064 		"/>
		<polygon clip-path="url(#SVGID_2_)" fill="#F7A25E" points="60.283,83.674 69.272,95.523 69.168,95.603 68.425,95.603 
			60.283,84.869 		"/>
		<polygon clip-path="url(#SVGID_2_)" fill="#F6A15F" points="60.283,82.479 69.846,95.086 69.272,95.523 60.283,83.674 		"/>
		<polygon clip-path="url(#SVGID_2_)" fill="#F6A05F" points="60.283,81.284 70.421,94.648 69.846,95.086 60.283,82.479 		"/>
		<polygon clip-path="url(#SVGID_2_)" fill="#F6A05F" points="60.283,80.089 70.995,94.21 70.421,94.648 60.283,81.284 		"/>
		<polygon clip-path="url(#SVGID_2_)" fill="#F69F5F" points="60.283,78.894 71.57,93.772 70.995,94.21 60.283,80.089 		"/>
		<polygon clip-path="url(#SVGID_2_)" fill="#F69E5E" points="60.283,77.698 72.145,93.335 71.57,93.772 60.283,78.894 		"/>
		<polygon clip-path="url(#SVGID_2_)" fill="#F69E5F" points="60.283,76.503 72.719,92.897 72.145,93.335 60.283,77.698 		"/>
		<polygon clip-path="url(#SVGID_2_)" fill="#F69D5F" points="60.283,75.308 73.294,92.459 72.719,92.897 60.283,76.503 		"/>
		<polygon clip-path="url(#SVGID_2_)" fill="#F69C5F" points="60.283,74.113 73.868,92.021 73.294,92.459 60.283,75.308 		"/>
		<polygon clip-path="url(#SVGID_2_)" fill="#F69B5E" points="60.283,72.918 74.443,91.584 73.868,92.021 60.283,74.113 		"/>
		<polygon clip-path="url(#SVGID_2_)" fill="#F69B5E" points="60.283,71.723 75.017,91.146 74.443,91.584 60.283,72.918 		"/>
		<polygon clip-path="url(#SVGID_2_)" fill="#F59A5E" points="60.283,70.527 75.592,90.708 75.017,91.146 60.283,71.723 		"/>
		<polygon clip-path="url(#SVGID_2_)" fill="#F5995F" points="60.283,69.428 60.329,69.393 76.166,90.27 75.592,90.708 
			60.283,70.527 		"/>
		
			<rect x="68.174" y="66.511" transform="matrix(-0.7954 0.6061 -0.6061 -0.7954 171.2999 101.3992)" clip-path="url(#SVGID_2_)" fill="#F5995E" width="0.722" height="26.204"/>
		
			<rect x="68.748" y="66.073" transform="matrix(-0.7954 0.6061 -0.6061 -0.7954 172.0659 100.2661)" clip-path="url(#SVGID_2_)" fill="#F5985E" width="0.722" height="26.204"/>
		
			<rect x="69.323" y="65.635" transform="matrix(-0.7954 0.606 -0.606 -0.7954 172.8313 99.1358)" clip-path="url(#SVGID_2_)" fill="#F5975E" width="0.722" height="26.204"/>
		
			<rect x="69.898" y="65.197" transform="matrix(-0.7954 0.6061 -0.6061 -0.7954 173.5983 97.9978)" clip-path="url(#SVGID_2_)" fill="#F5965E" width="0.722" height="26.204"/>
		
			<rect x="70.472" y="64.76" transform="matrix(-0.7954 0.6061 -0.6061 -0.7954 174.3647 96.8624)" clip-path="url(#SVGID_2_)" fill="#F5965E" width="0.722" height="26.204"/>
		
			<rect x="71.047" y="64.322" transform="matrix(-0.7954 0.6061 -0.6061 -0.7954 175.1307 95.7294)" clip-path="url(#SVGID_2_)" fill="#F5955E" width="0.722" height="26.204"/>
		
			<rect x="71.621" y="63.884" transform="matrix(-0.7954 0.606 -0.606 -0.7954 175.8963 94.5991)" clip-path="url(#SVGID_2_)" fill="#F5945E" width="0.722" height="26.204"/>
		
			<rect x="72.196" y="63.446" transform="matrix(-0.7954 0.6061 -0.6061 -0.7954 176.6631 93.461)" clip-path="url(#SVGID_2_)" fill="#F5945E" width="0.722" height="26.204"/>
		
			<rect x="72.77" y="63.009" transform="matrix(-0.7954 0.606 -0.606 -0.7954 177.4287 92.3307)" clip-path="url(#SVGID_2_)" fill="#F4935E" width="0.722" height="26.204"/>
		
			<rect x="73.345" y="62.571" transform="matrix(-0.7954 0.6061 -0.6061 -0.7954 178.1963 91.1876)" clip-path="url(#SVGID_2_)" fill="#F4925E" width="0.722" height="26.204"/>
		
			<rect x="73.919" y="62.133" transform="matrix(-0.7954 0.606 -0.606 -0.7954 178.9612 90.0624)" clip-path="url(#SVGID_2_)" fill="#F4925E" width="0.722" height="26.204"/>
		
			<rect x="74.494" y="61.695" transform="matrix(-0.7954 0.6061 -0.6061 -0.7954 179.728 88.9243)" clip-path="url(#SVGID_2_)" fill="#F4915E" width="0.722" height="26.204"/>
		
			<rect x="75.068" y="61.258" transform="matrix(-0.7954 0.606 -0.606 -0.7954 180.4937 87.794)" clip-path="url(#SVGID_2_)" fill="#F4905E" width="0.722" height="26.204"/>
		
			<rect x="75.643" y="60.82" transform="matrix(-0.7954 0.6061 -0.6061 -0.7954 181.2604 86.6559)" clip-path="url(#SVGID_2_)" fill="#F4905D" width="0.722" height="26.204"/>
		
			<rect x="76.217" y="60.382" transform="matrix(-0.7954 0.6061 -0.6061 -0.7954 182.0268 85.5205)" clip-path="url(#SVGID_2_)" fill="#F48F5D" width="0.722" height="26.204"/>
		
			<rect x="76.792" y="59.944" transform="matrix(-0.7954 0.6061 -0.6061 -0.7954 182.7929 84.3875)" clip-path="url(#SVGID_2_)" fill="#F48E5E" width="0.722" height="26.204"/>
		
			<rect x="77.367" y="59.506" transform="matrix(-0.7954 0.606 -0.606 -0.7954 183.5587 83.2573)" clip-path="url(#SVGID_2_)" fill="#F48D5E" width="0.722" height="26.204"/>
		
			<rect x="77.941" y="59.069" transform="matrix(-0.7954 0.6061 -0.6061 -0.7954 184.3253 82.1191)" clip-path="url(#SVGID_2_)" fill="#F48D5D" width="0.722" height="26.204"/>
		
			<rect x="78.516" y="58.631" transform="matrix(-0.7954 0.6061 -0.6061 -0.7954 185.0916 80.9837)" clip-path="url(#SVGID_2_)" fill="#F48C5D" width="0.722" height="26.204"/>
		
			<rect x="79.09" y="58.193" transform="matrix(-0.7954 0.6061 -0.6061 -0.7954 185.8577 79.8508)" clip-path="url(#SVGID_2_)" fill="#F48B5D" width="0.722" height="26.204"/>
		
			<rect x="79.665" y="57.755" transform="matrix(-0.7954 0.606 -0.606 -0.7954 186.6236 78.7206)" clip-path="url(#SVGID_2_)" fill="#F58B5D" width="0.722" height="26.204"/>
		
			<rect x="80.239" y="57.318" transform="matrix(-0.7954 0.6061 -0.6061 -0.7954 187.3901 77.5824)" clip-path="url(#SVGID_2_)" fill="#F58A5D" width="0.722" height="26.204"/>
		
			<rect x="80.814" y="56.88" transform="matrix(-0.7954 0.606 -0.606 -0.7954 188.156 76.4522)" clip-path="url(#SVGID_2_)" fill="#F58A5D" width="0.722" height="26.204"/>
		
			<rect x="81.388" y="56.442" transform="matrix(-0.7954 0.6061 -0.6061 -0.7954 188.9228 75.3088)" clip-path="url(#SVGID_2_)" fill="#F5895D" width="0.722" height="26.204"/>
		
			<rect x="81.963" y="56.004" transform="matrix(-0.7954 0.606 -0.606 -0.7954 189.6885 74.1838)" clip-path="url(#SVGID_2_)" fill="#F5885D" width="0.722" height="26.204"/>
		
			<rect x="82.537" y="55.566" transform="matrix(-0.7954 0.6061 -0.6061 -0.7954 190.4549 73.0457)" clip-path="url(#SVGID_2_)" fill="#F4875D" width="0.722" height="26.204"/>
		
			<rect x="83.112" y="55.129" transform="matrix(-0.7954 0.606 -0.606 -0.7954 191.221 71.9155)" clip-path="url(#SVGID_2_)" fill="#F4875D" width="0.722" height="26.204"/>
		
			<rect x="83.686" y="54.691" transform="matrix(-0.7954 0.6061 -0.6061 -0.7954 191.9875 70.772)" clip-path="url(#SVGID_2_)" fill="#F4865D" width="0.722" height="26.204"/>
		
			<rect x="84.261" y="54.253" transform="matrix(-0.7954 0.606 -0.606 -0.7954 192.7534 69.6471)" clip-path="url(#SVGID_2_)" fill="#F4855D" width="0.722" height="26.204"/>
		
			<rect x="84.836" y="53.815" transform="matrix(-0.7954 0.6061 -0.6061 -0.7954 193.5198 68.5089)" clip-path="url(#SVGID_2_)" fill="#F4855C" width="0.722" height="26.204"/>
		
			<rect x="85.41" y="53.378" transform="matrix(-0.7954 0.606 -0.606 -0.7954 194.2859 67.3788)" clip-path="url(#SVGID_2_)" fill="#F4845C" width="0.722" height="26.204"/>
		
			<rect x="85.985" y="52.94" transform="matrix(-0.7954 0.606 -0.606 -0.7954 195.0522 66.2446)" clip-path="url(#SVGID_2_)" fill="#F4835D" width="0.722" height="26.204"/>
		
			<rect x="86.559" y="52.502" transform="matrix(-0.7954 0.6061 -0.6061 -0.7954 195.8184 65.101)" clip-path="url(#SVGID_2_)" fill="#F4825D" width="0.722" height="26.204"/>
		
			<rect x="87.134" y="52.064" transform="matrix(-0.7954 0.606 -0.606 -0.7954 196.5847 63.9762)" clip-path="url(#SVGID_2_)" fill="#F4825C" width="0.722" height="26.204"/>
		
			<rect x="87.708" y="51.627" transform="matrix(-0.7954 0.6061 -0.6061 -0.7954 197.3509 62.838)" clip-path="url(#SVGID_2_)" fill="#F4815C" width="0.722" height="26.204"/>
		
			<rect x="88.283" y="51.189" transform="matrix(-0.7954 0.606 -0.606 -0.7954 198.1171 61.7078)" clip-path="url(#SVGID_2_)" fill="#F4805C" width="0.722" height="26.204"/>
		
			<rect x="88.857" y="50.751" transform="matrix(-0.7954 0.6061 -0.6061 -0.7954 198.8832 60.5696)" clip-path="url(#SVGID_2_)" fill="#F3805C" width="0.722" height="26.204"/>
		
			<rect x="89.432" y="50.313" transform="matrix(-0.7954 0.6061 -0.6061 -0.7954 199.6494 59.4341)" clip-path="url(#SVGID_2_)" fill="#F3805C" width="0.722" height="26.204"/>
		
			<rect x="90.006" y="49.875" transform="matrix(-0.7954 0.6061 -0.6061 -0.7954 200.4157 58.3012)" clip-path="url(#SVGID_2_)" fill="#F37F5C" width="0.722" height="26.204"/>
		
			<rect x="90.581" y="49.438" transform="matrix(-0.7954 0.606 -0.606 -0.7954 201.1821 57.1711)" clip-path="url(#SVGID_2_)" fill="#F37E5C" width="0.722" height="26.204"/>
		
			<rect x="91.155" y="49" transform="matrix(-0.7954 0.6061 -0.6061 -0.7954 201.9481 56.0328)" clip-path="url(#SVGID_2_)" fill="#F37E5C" width="0.722" height="26.204"/>
		
			<rect x="91.73" y="48.562" transform="matrix(-0.7954 0.6061 -0.6061 -0.7954 202.7142 54.8974)" clip-path="url(#SVGID_2_)" fill="#F37D5C" width="0.722" height="26.204"/>
		
			<rect x="92.305" y="48.124" transform="matrix(-0.7954 0.6061 -0.6061 -0.7954 203.4807 53.7661)" clip-path="url(#SVGID_2_)" fill="#F37C5C" width="0.722" height="26.204"/>
		
			<rect x="92.879" y="47.687" transform="matrix(-0.7954 0.6061 -0.6061 -0.7954 204.247 52.6333)" clip-path="url(#SVGID_2_)" fill="#F37C5C" width="0.722" height="26.204"/>
		
			<rect x="93.454" y="47.249" transform="matrix(-0.7954 0.6061 -0.6061 -0.7954 205.0129 51.4945)" clip-path="url(#SVGID_2_)" fill="#F37B5C" width="0.722" height="26.204"/>
		
			<rect x="94.028" y="46.811" transform="matrix(-0.7954 0.6061 -0.6061 -0.7954 205.7794 50.3649)" clip-path="url(#SVGID_2_)" fill="#F37A5B" width="0.722" height="26.204"/>
		
			<rect x="94.603" y="46.373" transform="matrix(-0.7954 0.6061 -0.6061 -0.7954 206.5453 49.2266)" clip-path="url(#SVGID_2_)" fill="#F3795B" width="0.722" height="26.204"/>
		
			<rect x="95.177" y="45.936" transform="matrix(-0.7954 0.6061 -0.6061 -0.7954 207.3119 48.0966)" clip-path="url(#SVGID_2_)" fill="#F3795B" width="0.722" height="26.204"/>
		
			<rect x="95.752" y="45.498" transform="matrix(-0.7954 0.6061 -0.6061 -0.7954 208.0777 46.9582)" clip-path="url(#SVGID_2_)" fill="#F3785B" width="0.722" height="26.204"/>
		
			<rect x="96.326" y="45.06" transform="matrix(-0.7954 0.6061 -0.6061 -0.7954 208.8443 45.8282)" clip-path="url(#SVGID_2_)" fill="#F2775B" width="0.722" height="26.204"/>
		
			<rect x="96.901" y="44.622" transform="matrix(-0.7954 0.6061 -0.6061 -0.7954 209.6101 44.6893)" clip-path="url(#SVGID_2_)" fill="#F2765B" width="0.722" height="26.204"/>
		
			<rect x="97.475" y="44.184" transform="matrix(-0.7954 0.606 -0.606 -0.7954 210.3768 43.56)" clip-path="url(#SVGID_2_)" fill="#F2765B" width="0.722" height="26.204"/>
		
			<rect x="98.05" y="43.747" transform="matrix(-0.7954 0.6061 -0.6061 -0.7954 211.1425 42.4214)" clip-path="url(#SVGID_2_)" fill="#F2755B" width="0.722" height="26.204"/>
		
			<rect x="98.624" y="43.309" transform="matrix(-0.7954 0.6061 -0.6061 -0.7954 211.9092 41.2914)" clip-path="url(#SVGID_2_)" fill="#F2745B" width="0.722" height="26.204"/>
		
			<rect x="99.199" y="42.871" transform="matrix(-0.7954 0.6061 -0.6061 -0.7954 212.6749 40.1531)" clip-path="url(#SVGID_2_)" fill="#F2735B" width="0.722" height="26.204"/>
		
			<rect x="99.774" y="42.433" transform="matrix(-0.7954 0.6061 -0.6061 -0.7954 213.4417 39.0231)" clip-path="url(#SVGID_2_)" fill="#F2735B" width="0.722" height="26.204"/>
		
			<rect x="100.348" y="41.996" transform="matrix(-0.7954 0.6061 -0.6061 -0.7954 214.2073 37.8847)" clip-path="url(#SVGID_2_)" fill="#F2725A" width="0.722" height="26.204"/>
		
			<rect x="100.923" y="41.558" transform="matrix(-0.7954 0.6061 -0.6061 -0.7954 214.9741 36.7542)" clip-path="url(#SVGID_2_)" fill="#F2715A" width="0.722" height="26.204"/>
		
			<rect x="101.497" y="41.12" transform="matrix(-0.7954 0.6061 -0.6061 -0.7954 215.7397 35.6164)" clip-path="url(#SVGID_2_)" fill="#F26F5A" width="0.722" height="26.204"/>
		
			<rect x="102.085" y="40.723" transform="matrix(-0.7954 0.6061 -0.6061 -0.7954 216.4354 34.5912)" clip-path="url(#SVGID_2_)" fill="#F26F5A" width="0.588" height="26.204"/>
		
			<rect x="102.553" y="40.366" transform="matrix(-0.7954 0.6061 -0.6061 -0.7954 217.0594 33.6676)" clip-path="url(#SVGID_2_)" fill="#F26F59" width="0.588" height="26.204"/>
		
			<rect x="103.021" y="40.01" transform="matrix(-0.7954 0.6061 -0.6061 -0.7954 217.6824 32.7388)" clip-path="url(#SVGID_2_)" fill="#F26F59" width="0.588" height="26.204"/>
		
			<rect x="103.489" y="39.654" transform="matrix(-0.7954 0.6061 -0.6061 -0.7954 218.3073 31.8204)" clip-path="url(#SVGID_2_)" fill="#F26F58" width="0.588" height="26.204"/>
		
			<rect x="103.957" y="39.297" transform="matrix(-0.7954 0.6061 -0.6061 -0.7954 218.9308 30.8948)" clip-path="url(#SVGID_2_)" fill="#F26E58" width="0.588" height="26.204"/>
		
			<rect x="104.425" y="38.941" transform="matrix(-0.7954 0.6061 -0.6061 -0.7954 219.5553 29.9739)" clip-path="url(#SVGID_2_)" fill="#F26E57" width="0.588" height="26.204"/>
		
			<rect x="104.893" y="38.584" transform="matrix(-0.7954 0.6061 -0.6061 -0.7954 220.1783 29.0451)" clip-path="url(#SVGID_2_)" fill="#F26E56" width="0.588" height="26.204"/>
		
			<rect x="105.36" y="38.228" transform="matrix(-0.7954 0.6061 -0.6061 -0.7954 220.8032 28.1268)" clip-path="url(#SVGID_2_)" fill="#F06D56" width="0.588" height="26.204"/>
		
			<rect x="105.828" y="37.871" transform="matrix(-0.7954 0.6061 -0.6061 -0.7954 221.4272 27.2032)" clip-path="url(#SVGID_2_)" fill="#F06D55" width="0.588" height="26.204"/>
		
			<rect x="106.296" y="37.515" transform="matrix(-0.7954 0.6061 -0.6061 -0.7954 222.05 26.2743)" clip-path="url(#SVGID_2_)" fill="#F06D55" width="0.588" height="26.204"/>
		
			<rect x="106.764" y="37.158" transform="matrix(-0.7954 0.6061 -0.6061 -0.7954 222.675 25.356)" clip-path="url(#SVGID_2_)" fill="#F06D54" width="0.588" height="26.204"/>
		
			<rect x="107.232" y="36.802" transform="matrix(-0.7954 0.6061 -0.6061 -0.7954 223.299 24.4323)" clip-path="url(#SVGID_2_)" fill="#F06D53" width="0.588" height="26.204"/>
		
			<rect x="107.7" y="36.445" transform="matrix(-0.7954 0.6061 -0.6061 -0.7954 223.9218 23.5036)" clip-path="url(#SVGID_2_)" fill="#F06D53" width="0.588" height="26.204"/>
		
			<rect x="108.167" y="36.089" transform="matrix(-0.7954 0.6061 -0.6061 -0.7954 224.5453 22.5783)" clip-path="url(#SVGID_2_)" fill="#EF6C52" width="0.588" height="26.204"/>
		
			<rect x="108.635" y="35.732" transform="matrix(-0.7954 0.6061 -0.6061 -0.7954 225.1709 21.6617)" clip-path="url(#SVGID_2_)" fill="#EF6C52" width="0.588" height="26.204"/>
		
			<rect x="109.103" y="35.376" transform="matrix(-0.7954 0.6061 -0.6061 -0.7954 225.7936 20.7328)" clip-path="url(#SVGID_2_)" fill="#EF6C51" width="0.588" height="26.204"/>
		
			<rect x="109.571" y="35.019" transform="matrix(-0.7954 0.6061 -0.6061 -0.7954 226.4188 19.8145)" clip-path="url(#SVGID_2_)" fill="#EF6C51" width="0.588" height="26.204"/>
		
			<rect x="110.039" y="34.663" transform="matrix(-0.7954 0.6061 -0.6061 -0.7954 227.0427 18.891)" clip-path="url(#SVGID_2_)" fill="#EF6B50" width="0.588" height="26.204"/>
		
			<rect x="110.507" y="34.306" transform="matrix(-0.7954 0.6061 -0.6061 -0.7954 227.6654 17.962)" clip-path="url(#SVGID_2_)" fill="#EF6B4F" width="0.588" height="26.204"/>
		
			<rect x="110.975" y="33.95" transform="matrix(-0.7954 0.6061 -0.6061 -0.7954 228.2907 17.0438)" clip-path="url(#SVGID_2_)" fill="#EF6B4F" width="0.588" height="26.204"/>
		
			<rect x="111.442" y="33.593" transform="matrix(-0.7954 0.6061 -0.6061 -0.7954 228.9146 16.1202)" clip-path="url(#SVGID_2_)" fill="#EE6A4E" width="0.588" height="26.204"/>
		
			<rect x="111.91" y="33.237" transform="matrix(-0.7954 0.606 -0.606 -0.7954 229.5386 15.1968)" clip-path="url(#SVGID_2_)" fill="#EE6A4D" width="0.588" height="26.204"/>
		
			<rect x="112.378" y="32.88" transform="matrix(-0.7954 0.6061 -0.6061 -0.7954 230.1611 14.2677)" clip-path="url(#SVGID_2_)" fill="#EE6A4D" width="0.588" height="26.204"/>
		
			<rect x="112.846" y="32.524" transform="matrix(-0.7954 0.6061 -0.6061 -0.7954 230.7864 13.3493)" clip-path="url(#SVGID_2_)" fill="#EE6A4C" width="0.588" height="26.204"/>
		
			<rect x="113.314" y="32.167" transform="matrix(-0.7954 0.6061 -0.6061 -0.7954 231.4085 12.4188)" clip-path="url(#SVGID_2_)" fill="#EE694B" width="0.588" height="26.204"/>
		
			<rect x="113.782" y="31.811" transform="matrix(-0.7954 0.6061 -0.6061 -0.7954 232.0329 11.4969)" clip-path="url(#SVGID_2_)" fill="#EE694B" width="0.588" height="26.204"/>
		
			<rect x="114.25" y="31.454" transform="matrix(-0.7954 0.6061 -0.6061 -0.7954 232.6583 10.5787)" clip-path="url(#SVGID_2_)" fill="#ED694A" width="0.588" height="26.204"/>
		
			<rect x="114.717" y="31.098" transform="matrix(-0.7954 0.6061 -0.6061 -0.7954 233.2823 9.6551)" clip-path="url(#SVGID_2_)" fill="#EC684A" width="0.588" height="26.204"/>
		
			<rect x="115.185" y="30.741" transform="matrix(-0.7954 0.6061 -0.6061 -0.7954 233.9047 8.7261)" clip-path="url(#SVGID_2_)" fill="#EC6849" width="0.588" height="26.204"/>
		
			<rect x="115.653" y="30.385" transform="matrix(-0.7954 0.6061 -0.6061 -0.7954 234.5302 7.808)" clip-path="url(#SVGID_2_)" fill="#EC6848" width="0.588" height="26.204"/>
		
			<rect x="116.121" y="30.029" transform="matrix(-0.7954 0.6061 -0.6061 -0.7954 235.1542 6.8844)" clip-path="url(#SVGID_2_)" fill="#ED6848" width="0.588" height="26.204"/>
		
			<rect x="116.589" y="29.672" transform="matrix(-0.7954 0.6061 -0.6061 -0.7954 235.7764 5.9553)" clip-path="url(#SVGID_2_)" fill="#EC6747" width="0.588" height="26.204"/>
		
			<rect x="117.057" y="29.316" transform="matrix(-0.7954 0.6061 -0.6061 -0.7954 236.402 5.0372)" clip-path="url(#SVGID_2_)" fill="#EC6746" width="0.588" height="26.204"/>
		
			<rect x="117.525" y="28.959" transform="matrix(-0.7954 0.6061 -0.6061 -0.7954 237.026 4.1137)" clip-path="url(#SVGID_2_)" fill="#EC6746" width="0.588" height="26.204"/>
		
			<rect x="117.993" y="28.603" transform="matrix(-0.7954 0.6061 -0.6061 -0.7954 237.6482 3.1846)" clip-path="url(#SVGID_2_)" fill="#EB6645" width="0.588" height="26.204"/>
		
			<rect x="118.46" y="28.246" transform="matrix(-0.7954 0.6061 -0.6061 -0.7954 238.2716 2.2593)" clip-path="url(#SVGID_2_)" fill="#EB6645" width="0.588" height="26.204"/>
		
			<rect x="118.928" y="27.89" transform="matrix(-0.7954 0.606 -0.606 -0.7954 238.8979 1.3431)" clip-path="url(#SVGID_2_)" fill="#EB6644" width="0.588" height="26.204"/>
		
			<rect x="119.396" y="27.533" transform="matrix(-0.7954 0.6061 -0.6061 -0.7954 239.5218 0.4191)" clip-path="url(#SVGID_2_)" fill="#EB6543" width="0.588" height="26.204"/>
		
			<rect x="119.864" y="27.177" transform="matrix(-0.7954 0.6061 -0.6061 -0.7954 240.1439 -0.5098)" clip-path="url(#SVGID_2_)" fill="#EB6543" width="0.588" height="26.204"/>
		
			<rect x="120.332" y="26.82" transform="matrix(-0.7954 0.6061 -0.6061 -0.7954 240.7697 -1.4278)" clip-path="url(#SVGID_2_)" fill="#EB6542" width="0.588" height="26.204"/>
		
			<rect x="120.8" y="26.464" transform="matrix(-0.7954 0.6061 -0.6061 -0.7954 241.3937 -2.3514)" clip-path="url(#SVGID_2_)" fill="#EA6441" width="0.588" height="26.204"/>
		
			<rect x="121.267" y="26.107" transform="matrix(-0.7954 0.6061 -0.6061 -0.7954 242.0157 -3.2805)" clip-path="url(#SVGID_2_)" fill="#EA6441" width="0.588" height="26.204"/>
		
			<rect x="121.735" y="25.751" transform="matrix(-0.7954 0.6061 -0.6061 -0.7954 242.6416 -4.1986)" clip-path="url(#SVGID_2_)" fill="#EA6440" width="0.588" height="26.204"/>
		
			<rect x="122.203" y="25.394" transform="matrix(-0.7954 0.6061 -0.6061 -0.7954 243.2656 -5.1222)" clip-path="url(#SVGID_2_)" fill="#EA643F" width="0.588" height="26.204"/>
		
			<rect x="122.671" y="25.038" transform="matrix(-0.7954 0.6061 -0.6061 -0.7954 243.8875 -6.0513)" clip-path="url(#SVGID_2_)" fill="#EA633F" width="0.588" height="26.204"/>
		
			<rect x="123.139" y="24.681" transform="matrix(-0.7954 0.6061 -0.6061 -0.7954 244.5108 -6.9766)" clip-path="url(#SVGID_2_)" fill="#EA633E" width="0.588" height="26.204"/>
		
			<rect x="123.607" y="24.325" transform="matrix(-0.7954 0.6061 -0.6061 -0.7954 245.1374 -7.8929)" clip-path="url(#SVGID_2_)" fill="#EA633E" width="0.588" height="26.204"/>
		
			<rect x="124.075" y="23.968" transform="matrix(-0.7954 0.6061 -0.6061 -0.7954 245.7593 -8.8221)" clip-path="url(#SVGID_2_)" fill="#EA623D" width="0.588" height="26.204"/>
		
			<rect x="124.542" y="23.612" transform="matrix(-0.7954 0.6061 -0.6061 -0.7954 246.3853 -9.7401)" clip-path="url(#SVGID_2_)" fill="#EA623C" width="0.588" height="26.204"/>
		
			<rect x="125.01" y="23.255" transform="matrix(-0.7954 0.6061 -0.6061 -0.7954 247.0093 -10.6637)" clip-path="url(#SVGID_2_)" fill="#EA623C" width="0.588" height="26.204"/>
		
			<rect x="125.478" y="22.899" transform="matrix(-0.7954 0.6061 -0.6061 -0.7954 247.6311 -11.5928)" clip-path="url(#SVGID_2_)" fill="#EA623B" width="0.588" height="26.204"/>
		
			<rect x="125.946" y="22.542" transform="matrix(-0.7954 0.606 -0.606 -0.7954 248.2572 -12.5106)" clip-path="url(#SVGID_2_)" fill="#EA623A" width="0.588" height="26.204"/>
		
			<rect x="126.414" y="22.186" transform="matrix(-0.7954 0.6061 -0.6061 -0.7954 248.8811 -13.4346)" clip-path="url(#SVGID_2_)" fill="#E9623A" width="0.588" height="26.204"/>
		
			<rect x="126.882" y="21.829" transform="matrix(-0.7954 0.6061 -0.6061 -0.7954 249.5051 -14.358)" clip-path="url(#SVGID_2_)" fill="#E96239" width="0.588" height="26.204"/>
		
			<rect x="127.35" y="21.473" transform="matrix(-0.7954 0.6061 -0.6061 -0.7954 250.1268 -15.2872)" clip-path="url(#SVGID_2_)" fill="#E96139" width="0.588" height="26.204"/>
		
			<rect x="127.817" y="21.116" transform="matrix(-0.7954 0.6061 -0.6061 -0.7954 250.753 -16.2051)" clip-path="url(#SVGID_2_)" fill="#E96138" width="0.588" height="26.204"/>
		
			<rect x="128.285" y="20.76" transform="matrix(-0.7954 0.6061 -0.6061 -0.7954 251.3739 -17.1361)" clip-path="url(#SVGID_2_)" fill="#E96137" width="0.588" height="26.204"/>
		
			<rect x="128.753" y="20.403" transform="matrix(-0.7954 0.6061 -0.6061 -0.7954 251.9986 -18.058)" clip-path="url(#SVGID_2_)" fill="#E96037" width="0.588" height="26.204"/>
		
			<rect x="129.221" y="20.047" transform="matrix(-0.7954 0.6061 -0.6061 -0.7954 252.6248 -18.9759)" clip-path="url(#SVGID_2_)" fill="#E86036" width="0.588" height="26.204"/>
		
			<rect x="129.689" y="19.691" transform="matrix(-0.7954 0.6061 -0.6061 -0.7954 253.2488 -19.8995)" clip-path="url(#SVGID_2_)" fill="#E86036" width="0.588" height="26.204"/>
		
			<rect x="130.157" y="19.334" transform="matrix(-0.7954 0.6061 -0.6061 -0.7954 253.8703 -20.8287)" clip-path="url(#SVGID_2_)" fill="#E85F35" width="0.588" height="26.204"/>
		
			<rect x="130.625" y="18.978" transform="matrix(-0.7954 0.6061 -0.6061 -0.7954 254.4967 -21.7466)" clip-path="url(#SVGID_2_)" fill="#E85F34" width="0.588" height="26.204"/>
		
			<rect x="131.092" y="18.621" transform="matrix(-0.7954 0.6061 -0.6061 -0.7954 255.1207 -22.6702)" clip-path="url(#SVGID_2_)" fill="#E85F34" width="0.588" height="26.204"/>
		
			<rect x="131.56" y="18.265" transform="matrix(-0.7954 0.6061 -0.6061 -0.7954 255.7421 -23.5995)" clip-path="url(#SVGID_2_)" fill="#E85F33" width="0.588" height="26.204"/>
		
			<rect x="132.028" y="17.908" transform="matrix(-0.7954 0.6061 -0.6061 -0.7954 256.3686 -24.5174)" clip-path="url(#SVGID_2_)" fill="#E85E33" width="0.588" height="26.204"/>
		
			<rect x="132.496" y="17.552" transform="matrix(-0.7954 0.606 -0.606 -0.7954 256.9926 -25.4407)" clip-path="url(#SVGID_2_)" fill="#E75E32" width="0.588" height="26.204"/>
		
			<rect x="132.964" y="17.195" transform="matrix(-0.7954 0.6061 -0.6061 -0.7954 257.6105 -26.3777)" clip-path="url(#SVGID_2_)" fill="#E75E32" width="0.588" height="26.204"/>
		
			<rect x="133.432" y="16.839" transform="matrix(-0.7954 0.6061 -0.6061 -0.7954 258.2403 -27.2884)" clip-path="url(#SVGID_2_)" fill="#E75D31" width="0.588" height="26.204"/>
		<polygon clip-path="url(#SVGID_2_)" fill="#E75D31" points="126.041,19.324 126.509,18.967 142.303,39.788 142.303,39.877 
			141.878,40.201 		"/>
		<polygon clip-path="url(#SVGID_2_)" fill="#E75D30" points="126.509,18.967 126.977,18.611 142.303,38.815 142.303,39.788 		"/>
		<polygon clip-path="url(#SVGID_2_)" fill="#E75D2F" points="126.977,18.611 127.445,18.255 142.303,37.842 142.303,38.815 		"/>
		<polygon clip-path="url(#SVGID_2_)" fill="#E65C2F" points="127.445,18.255 127.913,17.898 142.303,36.868 142.303,37.842 		"/>
		<polygon clip-path="url(#SVGID_2_)" fill="#E65C2E" points="127.913,17.898 128.381,17.542 142.303,35.895 142.303,36.868 		"/>
		<polygon clip-path="url(#SVGID_2_)" fill="#E65C2E" points="128.381,17.542 128.848,17.185 142.303,34.922 142.303,35.895 		"/>
		<polygon clip-path="url(#SVGID_2_)" fill="#E65B2D" points="128.848,17.185 129.316,16.829 142.303,33.949 142.303,34.922 		"/>
		<polygon clip-path="url(#SVGID_2_)" fill="#E65B2D" points="129.316,16.829 129.784,16.472 142.303,32.975 142.303,33.949 		"/>
		<polygon clip-path="url(#SVGID_2_)" fill="#E65B2C" points="129.784,16.472 130.252,16.116 142.303,32.002 142.303,32.975 		"/>
		<polygon clip-path="url(#SVGID_2_)" fill="#E65A2B" points="130.252,16.116 130.72,15.759 142.303,31.029 142.303,32.002 		"/>
		<polygon clip-path="url(#SVGID_2_)" fill="#E55A2B" points="130.72,15.759 131.188,15.403 142.303,30.056 142.303,31.029 		"/>
		<polygon clip-path="url(#SVGID_2_)" fill="#E55A2A" points="131.188,15.403 131.656,15.046 142.303,29.083 142.303,30.056 		"/>
		<polygon clip-path="url(#SVGID_2_)" fill="#E55A2A" points="131.656,15.046 132.123,14.69 142.303,28.109 142.303,29.083 		"/>
		<polygon clip-path="url(#SVGID_2_)" fill="#E55A29" points="132.123,14.69 132.591,14.333 142.303,27.136 142.303,28.109 		"/>
		<polygon clip-path="url(#SVGID_2_)" fill="#E55A29" points="132.591,14.333 133.059,13.977 142.303,26.163 142.303,27.136 		"/>
		<polygon clip-path="url(#SVGID_2_)" fill="#E55A28" points="133.059,13.977 133.419,13.703 133.589,13.703 142.303,25.19 
			142.303,26.163 		"/>
		<polygon clip-path="url(#SVGID_2_)" fill="#E55928" points="134.328,13.703 142.303,24.216 142.303,25.19 133.589,13.703 		"/>
		<polygon clip-path="url(#SVGID_2_)" fill="#E55928" points="135.066,13.703 142.303,23.243 142.303,24.216 134.328,13.703 		"/>
		<polygon clip-path="url(#SVGID_2_)" fill="#E55927" points="135.804,13.703 142.303,22.27 142.303,23.243 135.066,13.703 		"/>
		<polygon clip-path="url(#SVGID_2_)" fill="#E55827" points="136.543,13.703 142.303,21.297 142.303,22.27 135.804,13.703 		"/>
		<polygon clip-path="url(#SVGID_2_)" fill="#E55826" points="137.281,13.703 142.303,20.323 142.303,21.297 136.543,13.703 		"/>
		<polygon clip-path="url(#SVGID_2_)" fill="#E55826" points="138.019,13.703 142.303,19.35 142.303,20.323 137.281,13.703 		"/>
		<polygon clip-path="url(#SVGID_2_)" fill="#E45726" points="138.757,13.703 142.303,18.377 142.303,19.35 138.019,13.703 		"/>
		<polygon clip-path="url(#SVGID_2_)" fill="#E45726" points="142.303,18.377 138.757,13.703 142.303,13.703 		"/>
	</g>
</g>
<g>
	<g>
		<defs>
			<path id="SVGID_9_" d="M184.706,60.61l-72.36,72.237c-2.125,2.121-5.568,2.119-7.689-0.007l0,0
				c-2.121-2.125-2.119-5.568,0.007-7.689l72.36-72.237c2.125-2.121,5.568-2.119,7.689,0.007l0,0
				C186.834,55.046,186.831,58.489,184.706,60.61z"/>
		</defs>
		<clipPath id="SVGID_4_">
			<use xlink:href="#SVGID_9_"  overflow="visible"/>
		</clipPath>
		<polygon clip-path="url(#SVGID_4_)" fill="#0094C1" points="102.536,130.132 106.212,134.968 102.536,134.968 		"/>
		<polygon clip-path="url(#SVGID_4_)" fill="#0094C1" points="102.536,128.985 107.084,134.968 106.212,134.968 102.536,130.132 		
			"/>
		<polygon clip-path="url(#SVGID_4_)" fill="#0294C0" points="102.536,127.839 107.956,134.968 107.084,134.968 102.536,128.985 		
			"/>
		<polygon clip-path="url(#SVGID_4_)" fill="#0B94C0" points="102.536,126.692 108.828,134.968 107.956,134.968 102.536,127.839 		
			"/>
		<polygon clip-path="url(#SVGID_4_)" fill="#0A95C0" points="102.536,125.545 109.7,134.968 108.828,134.968 102.536,126.692 		"/>
		<polygon clip-path="url(#SVGID_4_)" fill="#1195BF" points="102.536,124.398 110.572,134.968 109.7,134.968 102.536,125.545 		"/>
		<polygon clip-path="url(#SVGID_4_)" fill="#1095BF" points="102.536,123.252 111.444,134.968 110.572,134.968 102.536,124.398 		
			"/>
		<polygon clip-path="url(#SVGID_4_)" fill="#1695BE" points="102.536,122.105 112.085,134.665 111.686,134.968 111.444,134.968 
			102.536,123.252 		"/>
		<polygon clip-path="url(#SVGID_4_)" fill="#1596BE" points="102.536,120.958 112.637,134.245 112.085,134.665 102.536,122.105 		
			"/>
		<polygon clip-path="url(#SVGID_4_)" fill="#1A96BE" points="102.536,119.811 113.19,133.825 112.637,134.245 102.536,120.958 		
			"/>
		<polygon clip-path="url(#SVGID_4_)" fill="#1B96BD" points="102.536,118.664 113.743,133.405 113.19,133.825 102.536,119.811 		
			"/>
		<polygon clip-path="url(#SVGID_4_)" fill="#1E97BD" points="102.536,117.518 114.295,132.985 113.743,133.405 102.536,118.664 		
			"/>
		<polygon clip-path="url(#SVGID_4_)" fill="#1E97BC" points="102.536,116.371 114.848,132.565 114.295,132.985 102.536,117.518 		
			"/>
		<polygon clip-path="url(#SVGID_4_)" fill="#2197BC" points="102.536,115.224 115.4,132.145 114.848,132.565 102.536,116.371 		"/>
		<polygon clip-path="url(#SVGID_4_)" fill="#2197BC" points="102.536,114.077 115.953,131.725 115.4,132.145 102.536,115.224 		"/>
		<polygon clip-path="url(#SVGID_4_)" fill="#2498BB" points="102.536,112.931 116.505,131.305 115.953,131.725 102.536,114.077 		
			"/>
		<polygon clip-path="url(#SVGID_4_)" fill="#2798BB" points="102.536,111.784 117.058,130.885 116.505,131.305 102.536,112.931 		
			"/>
		<polygon clip-path="url(#SVGID_4_)" fill="#2798BA" points="102.536,110.637 117.61,130.465 117.058,130.885 102.536,111.784 		
			"/>
		<polygon clip-path="url(#SVGID_4_)" fill="#2A99BA" points="102.536,109.49 118.163,130.045 117.61,130.465 102.536,110.637 		"/>
		<polygon clip-path="url(#SVGID_4_)" fill="#2A99BA" points="102.536,108.343 118.715,129.625 118.163,130.045 102.536,109.49 		
			"/>
		<polygon clip-path="url(#SVGID_4_)" fill="#2C9AB9" points="102.536,107.926 102.887,107.659 119.268,129.205 118.715,129.625 
			102.536,108.343 		"/>
		
			<rect x="111.006" y="104.689" transform="matrix(-0.7961 0.6052 -0.6052 -0.7961 271.5473 144.9394)" clip-path="url(#SVGID_4_)" fill="#2C9AB9" width="0.694" height="27.066"/>
		
			<rect x="111.559" y="104.269" transform="matrix(-0.796 0.6053 -0.6053 -0.796 272.2865 143.8441)" clip-path="url(#SVGID_4_)" fill="#2E9AB9" width="0.694" height="27.066"/>
		
			<rect x="112.111" y="103.849" transform="matrix(-0.7961 0.6052 -0.6052 -0.7961 273.0222 142.7698)" clip-path="url(#SVGID_4_)" fill="#2F9AB8" width="0.694" height="27.066"/>
		
			<rect x="112.664" y="103.429" transform="matrix(-0.7961 0.6052 -0.6052 -0.7961 273.7617 141.6729)" clip-path="url(#SVGID_4_)" fill="#319AB8" width="0.694" height="27.066"/>
		
			<rect x="113.216" y="103.008" transform="matrix(-0.796 0.6053 -0.6053 -0.796 274.5007 140.5778)" clip-path="url(#SVGID_4_)" fill="#319BB7" width="0.694" height="27.066"/>
		
			<rect x="113.769" y="102.588" transform="matrix(-0.7961 0.6052 -0.6052 -0.7961 275.2378 139.4952)" clip-path="url(#SVGID_4_)" fill="#349BB6" width="0.694" height="27.066"/>
		
			<rect x="114.321" y="102.168" transform="matrix(-0.7961 0.6052 -0.6052 -0.7961 275.9748 138.4145)" clip-path="url(#SVGID_4_)" fill="#339BB6" width="0.694" height="27.066"/>
		
			<rect x="114.874" y="101.748" transform="matrix(-0.796 0.6053 -0.6053 -0.796 276.715 137.3113)" clip-path="url(#SVGID_4_)" fill="#369CB6" width="0.694" height="27.066"/>
		
			<rect x="115.426" y="101.328" transform="matrix(-0.7961 0.6052 -0.6052 -0.7961 277.4522 136.2287)" clip-path="url(#SVGID_4_)" fill="#379CB5" width="0.694" height="27.066"/>
		
			<rect x="115.979" y="100.908" transform="matrix(-0.7961 0.6052 -0.6052 -0.7961 278.1892 135.1481)" clip-path="url(#SVGID_4_)" fill="#389CB5" width="0.694" height="27.066"/>
		
			<rect x="116.531" y="100.488" transform="matrix(-0.796 0.6053 -0.6053 -0.796 278.9292 134.0448)" clip-path="url(#SVGID_4_)" fill="#3A9DB4" width="0.694" height="27.066"/>
		
			<rect x="117.084" y="100.068" transform="matrix(-0.7961 0.6052 -0.6052 -0.7961 279.6665 132.9622)" clip-path="url(#SVGID_4_)" fill="#3A9DB4" width="0.694" height="27.066"/>
		
			<rect x="117.636" y="99.648" transform="matrix(-0.7961 0.6052 -0.6052 -0.7961 280.4037 131.8816)" clip-path="url(#SVGID_4_)" fill="#3C9DB3" width="0.694" height="27.066"/>
		
			<rect x="118.189" y="99.228" transform="matrix(-0.796 0.6053 -0.6053 -0.796 281.1434 130.7783)" clip-path="url(#SVGID_4_)" fill="#3B9EB3" width="0.694" height="27.066"/>
		
			<rect x="118.741" y="98.808" transform="matrix(-0.7961 0.6052 -0.6052 -0.7961 281.8808 129.6958)" clip-path="url(#SVGID_4_)" fill="#3E9EB3" width="0.694" height="27.066"/>
		
			<rect x="119.294" y="98.388" transform="matrix(-0.7961 0.6052 -0.6052 -0.7961 282.619 128.6069)" clip-path="url(#SVGID_4_)" fill="#3D9EB2" width="0.694" height="27.066"/>
		
			<rect x="119.847" y="97.968" transform="matrix(-0.7961 0.6052 -0.6052 -0.7961 283.3568 127.52)" clip-path="url(#SVGID_4_)" fill="#3F9EB2" width="0.694" height="27.066"/>
		
			<rect x="120.399" y="97.548" transform="matrix(-0.7961 0.6052 -0.6052 -0.7961 284.0952 126.4293)" clip-path="url(#SVGID_4_)" fill="#3F9FB2" width="0.694" height="27.066"/>
		
			<rect x="120.952" y="97.128" transform="matrix(-0.7961 0.6052 -0.6052 -0.7961 284.8333 125.3404)" clip-path="url(#SVGID_4_)" fill="#419FB1" width="0.694" height="27.066"/>
		
			<rect x="121.504" y="96.708" transform="matrix(-0.7961 0.6052 -0.6052 -0.7961 285.5712 124.2536)" clip-path="url(#SVGID_4_)" fill="#419FB0" width="0.694" height="27.066"/>
		
			<rect x="122.056" y="96.288" transform="matrix(-0.7961 0.6052 -0.6052 -0.7961 286.3094 123.1628)" clip-path="url(#SVGID_4_)" fill="#43A0B0" width="0.694" height="27.066"/>
		
			<rect x="122.609" y="95.868" transform="matrix(-0.7961 0.6052 -0.6052 -0.7961 287.0476 122.074)" clip-path="url(#SVGID_4_)" fill="#43A0B0" width="0.694" height="27.066"/>
		
			<rect x="123.162" y="95.447" transform="matrix(-0.796 0.6053 -0.6053 -0.796 287.7862 120.9787)" clip-path="url(#SVGID_4_)" fill="#45A0AF" width="0.694" height="27.066"/>
		
			<rect x="123.714" y="95.027" transform="matrix(-0.7961 0.6052 -0.6052 -0.7961 288.5232 119.9046)" clip-path="url(#SVGID_4_)" fill="#46A1AF" width="0.694" height="27.066"/>
		
			<rect x="124.267" y="94.607" transform="matrix(-0.7961 0.6052 -0.6052 -0.7961 289.2619 118.8075)" clip-path="url(#SVGID_4_)" fill="#46A1AF" width="0.694" height="27.066"/>
		
			<rect x="124.819" y="94.187" transform="matrix(-0.796 0.6053 -0.6053 -0.796 290.0004 117.7123)" clip-path="url(#SVGID_4_)" fill="#48A1AE" width="0.694" height="27.066"/>
		
			<rect x="125.372" y="93.767" transform="matrix(-0.7961 0.6052 -0.6052 -0.7961 290.7376 116.6382)" clip-path="url(#SVGID_4_)" fill="#48A1AD" width="0.694" height="27.066"/>
		
			<rect x="125.924" y="93.347" transform="matrix(-0.796 0.6053 -0.6053 -0.796 291.4765 115.5348)" clip-path="url(#SVGID_4_)" fill="#49A2AD" width="0.694" height="27.066"/>
		
			<rect x="126.477" y="92.927" transform="matrix(-0.7961 0.6052 -0.6052 -0.7961 292.2143 114.4521)" clip-path="url(#SVGID_4_)" fill="#4AA2AD" width="0.694" height="27.066"/>
		
			<rect x="127.029" y="92.507" transform="matrix(-0.7961 0.6052 -0.6052 -0.7961 292.9524 113.3633)" clip-path="url(#SVGID_4_)" fill="#4BA3AC" width="0.694" height="27.066"/>
		
			<rect x="127.582" y="92.087" transform="matrix(-0.7961 0.6052 -0.6052 -0.7961 293.6904 112.2762)" clip-path="url(#SVGID_4_)" fill="#4BA3AC" width="0.694" height="27.066"/>
		
			<rect x="128.134" y="91.667" transform="matrix(-0.7961 0.6052 -0.6052 -0.7961 294.4286 111.1857)" clip-path="url(#SVGID_4_)" fill="#4CA3AB" width="0.694" height="27.066"/>
		
			<rect x="128.687" y="91.247" transform="matrix(-0.7961 0.6052 -0.6052 -0.7961 295.1668 110.0968)" clip-path="url(#SVGID_4_)" fill="#4DA3AB" width="0.694" height="27.066"/>
		
			<rect x="129.239" y="90.827" transform="matrix(-0.7961 0.6052 -0.6052 -0.7961 295.9048 109.01)" clip-path="url(#SVGID_4_)" fill="#4EA4AA" width="0.694" height="27.066"/>
		
			<rect x="129.792" y="90.407" transform="matrix(-0.7961 0.6052 -0.6052 -0.7961 296.6429 107.9192)" clip-path="url(#SVGID_4_)" fill="#4EA4A9" width="0.694" height="27.066"/>
		
			<rect x="130.344" y="89.987" transform="matrix(-0.7961 0.6052 -0.6052 -0.7961 297.3811 106.8303)" clip-path="url(#SVGID_4_)" fill="#50A4A9" width="0.694" height="27.066"/>
		
			<rect x="130.897" y="89.567" transform="matrix(-0.7961 0.6052 -0.6052 -0.7961 298.1191 105.7435)" clip-path="url(#SVGID_4_)" fill="#50A5A8" width="0.694" height="27.066"/>
		
			<rect x="131.449" y="89.147" transform="matrix(-0.7961 0.6052 -0.6052 -0.7961 298.8573 104.6527)" clip-path="url(#SVGID_4_)" fill="#51A5A8" width="0.694" height="27.066"/>
		
			<rect x="132.002" y="88.727" transform="matrix(-0.7961 0.6052 -0.6052 -0.7961 299.5954 103.5639)" clip-path="url(#SVGID_4_)" fill="#52A6A8" width="0.694" height="27.066"/>
		
			<rect x="132.554" y="88.307" transform="matrix(-0.796 0.6053 -0.6053 -0.796 300.3335 102.4685)" clip-path="url(#SVGID_4_)" fill="#52A6A7" width="0.694" height="27.066"/>
		
			<rect x="133.107" y="87.886" transform="matrix(-0.7961 0.6052 -0.6052 -0.7961 301.0716 101.3947)" clip-path="url(#SVGID_4_)" fill="#54A6A6" width="0.694" height="27.066"/>
		
			<rect x="133.659" y="87.466" transform="matrix(-0.7961 0.6052 -0.6052 -0.7961 301.8097 100.2974)" clip-path="url(#SVGID_4_)" fill="#54A6A6" width="0.694" height="27.066"/>
		
			<rect x="134.212" y="87.046" transform="matrix(-0.796 0.6053 -0.6053 -0.796 302.5478 99.202)" clip-path="url(#SVGID_4_)" fill="#55A6A5" width="0.694" height="27.066"/>
		
			<rect x="134.764" y="86.626" transform="matrix(-0.7961 0.6052 -0.6052 -0.7961 303.286 98.1282)" clip-path="url(#SVGID_4_)" fill="#55A7A5" width="0.694" height="27.066"/>
		
			<rect x="135.317" y="86.206" transform="matrix(-0.7961 0.6052 -0.6052 -0.7961 304.024 97.0308)" clip-path="url(#SVGID_4_)" fill="#57A7A4" width="0.694" height="27.066"/>
		
			<rect x="135.869" y="85.786" transform="matrix(-0.796 0.6053 -0.6053 -0.796 304.762 95.9355)" clip-path="url(#SVGID_4_)" fill="#56A8A4" width="0.694" height="27.066"/>
		
			<rect x="136.422" y="85.366" transform="matrix(-0.7961 0.6052 -0.6052 -0.7961 305.5003 94.8532)" clip-path="url(#SVGID_4_)" fill="#58A8A4" width="0.694" height="27.066"/>
		
			<rect x="136.974" y="84.946" transform="matrix(-0.7961 0.6052 -0.6052 -0.7961 306.2386 93.7729)" clip-path="url(#SVGID_4_)" fill="#58A8A3" width="0.694" height="27.066"/>
		
			<rect x="137.527" y="84.526" transform="matrix(-0.796 0.6053 -0.6053 -0.796 306.9763 92.669)" clip-path="url(#SVGID_4_)" fill="#59A9A3" width="0.694" height="27.066"/>
		
			<rect x="138.079" y="84.106" transform="matrix(-0.7961 0.6052 -0.6052 -0.7961 307.7146 91.5867)" clip-path="url(#SVGID_4_)" fill="#59A8A2" width="0.694" height="27.066"/>
		
			<rect x="138.632" y="83.686" transform="matrix(-0.7961 0.6052 -0.6052 -0.7961 308.4528 90.4999)" clip-path="url(#SVGID_4_)" fill="#5BA9A2" width="0.694" height="27.066"/>
		
			<rect x="139.184" y="83.266" transform="matrix(-0.7961 0.6052 -0.6052 -0.7961 309.1908 89.4091)" clip-path="url(#SVGID_4_)" fill="#5BA9A1" width="0.694" height="27.066"/>
		
			<rect x="139.737" y="82.846" transform="matrix(-0.7961 0.6052 -0.6052 -0.7961 309.9289 88.3202)" clip-path="url(#SVGID_4_)" fill="#5CAAA1" width="0.694" height="27.066"/>
		
			<rect x="140.289" y="82.426" transform="matrix(-0.796 0.6053 -0.6053 -0.796 310.6667 87.2248)" clip-path="url(#SVGID_4_)" fill="#5CAAA0" width="0.694" height="27.066"/>
		
			<rect x="140.842" y="82.006" transform="matrix(-0.7961 0.6052 -0.6052 -0.7961 311.4055 86.1512)" clip-path="url(#SVGID_4_)" fill="#5DAAA0" width="0.694" height="27.066"/>
		
			<rect x="141.394" y="81.586" transform="matrix(-0.7961 0.6052 -0.6052 -0.7961 312.1432 85.0538)" clip-path="url(#SVGID_4_)" fill="#5FAB9F" width="0.694" height="27.066"/>
		
			<rect x="141.947" y="81.166" transform="matrix(-0.796 0.6053 -0.6053 -0.796 312.8809 83.9586)" clip-path="url(#SVGID_4_)" fill="#5FAB9F" width="0.694" height="27.066"/>
		
			<rect x="142.499" y="80.746" transform="matrix(-0.7961 0.6052 -0.6052 -0.7961 313.62 82.8847)" clip-path="url(#SVGID_4_)" fill="#60AB9E" width="0.694" height="27.066"/>
		
			<rect x="143.052" y="80.326" transform="matrix(-0.7961 0.6052 -0.6052 -0.7961 314.3575 81.7872)" clip-path="url(#SVGID_4_)" fill="#60AB9E" width="0.694" height="27.066"/>
		
			<rect x="143.604" y="79.905" transform="matrix(-0.796 0.6053 -0.6053 -0.796 315.0951 80.6915)" clip-path="url(#SVGID_4_)" fill="#61AC9D" width="0.694" height="27.066"/>
		
			<rect x="144.157" y="79.485" transform="matrix(-0.7961 0.6052 -0.6052 -0.7961 315.8337 79.6096)" clip-path="url(#SVGID_4_)" fill="#61AC9D" width="0.694" height="27.066"/>
		
			<rect x="144.709" y="79.065" transform="matrix(-0.7961 0.6052 -0.6052 -0.7961 316.5725 78.5294)" clip-path="url(#SVGID_4_)" fill="#63AC9C" width="0.694" height="27.066"/>
		
			<rect x="145.262" y="78.645" transform="matrix(-0.796 0.6053 -0.6053 -0.796 317.3094 77.4253)" clip-path="url(#SVGID_4_)" fill="#62AD9C" width="0.694" height="27.066"/>
		
			<rect x="145.814" y="78.225" transform="matrix(-0.7961 0.6052 -0.6052 -0.7961 318.048 76.3431)" clip-path="url(#SVGID_4_)" fill="#64AD9B" width="0.694" height="27.066"/>
		
			<rect x="146.367" y="77.805" transform="matrix(-0.7961 0.6052 -0.6052 -0.7961 318.787 75.263)" clip-path="url(#SVGID_4_)" fill="#64AE9B" width="0.694" height="27.066"/>
		
			<rect x="146.919" y="77.385" transform="matrix(-0.796 0.6053 -0.6053 -0.796 319.5236 74.1588)" clip-path="url(#SVGID_4_)" fill="#65AE9A" width="0.694" height="27.066"/>
		
			<rect x="147.472" y="76.965" transform="matrix(-0.7961 0.6052 -0.6052 -0.7961 320.2624 73.0766)" clip-path="url(#SVGID_4_)" fill="#65AE99" width="0.694" height="27.066"/>
		
			<rect x="148.024" y="76.545" transform="matrix(-0.7961 0.6052 -0.6052 -0.7961 321.0014 71.9965)" clip-path="url(#SVGID_4_)" fill="#66AE99" width="0.694" height="27.066"/>
		
			<rect x="148.577" y="76.125" transform="matrix(-0.796 0.6053 -0.6053 -0.796 321.7379 70.8923)" clip-path="url(#SVGID_4_)" fill="#66AE99" width="0.694" height="27.066"/>
		
			<rect x="149.129" y="75.705" transform="matrix(-0.7961 0.6052 -0.6052 -0.7961 322.4767 69.8102)" clip-path="url(#SVGID_4_)" fill="#67AF98" width="0.694" height="27.066"/>
		
			<rect x="149.682" y="75.285" transform="matrix(-0.7961 0.6052 -0.6052 -0.7961 323.2148 68.7213)" clip-path="url(#SVGID_4_)" fill="#67AF98" width="0.694" height="27.066"/>
		
			<rect x="150.234" y="74.865" transform="matrix(-0.7961 0.6052 -0.6052 -0.7961 323.9532 67.6345)" clip-path="url(#SVGID_4_)" fill="#68B097" width="0.694" height="27.066"/>
		
			<rect x="150.787" y="74.445" transform="matrix(-0.7961 0.6052 -0.6052 -0.7961 324.691 66.5437)" clip-path="url(#SVGID_4_)" fill="#69B097" width="0.694" height="27.066"/>
		
			<rect x="151.339" y="74.025" transform="matrix(-0.7961 0.6052 -0.6052 -0.7961 325.4292 65.4548)" clip-path="url(#SVGID_4_)" fill="#6AB096" width="0.694" height="27.066"/>
		
			<rect x="151.892" y="73.605" transform="matrix(-0.7961 0.6052 -0.6052 -0.7961 326.1675 64.3681)" clip-path="url(#SVGID_4_)" fill="#6AB096" width="0.694" height="27.066"/>
		
			<rect x="152.444" y="73.185" transform="matrix(-0.7961 0.6052 -0.6052 -0.7961 326.9053 63.2772)" clip-path="url(#SVGID_4_)" fill="#6BB195" width="0.694" height="27.066"/>
		
			<rect x="152.997" y="72.765" transform="matrix(-0.796 0.6053 -0.6053 -0.796 327.6425 62.1816)" clip-path="url(#SVGID_4_)" fill="#6CB194" width="0.694" height="27.066"/>
		
			<rect x="153.549" y="72.344" transform="matrix(-0.7961 0.6052 -0.6052 -0.7961 328.3815 61.0995)" clip-path="url(#SVGID_4_)" fill="#6CB193" width="0.694" height="27.066"/>
		
			<rect x="154.102" y="71.924" transform="matrix(-0.7961 0.6052 -0.6052 -0.7961 329.1209 60.0195)" clip-path="url(#SVGID_4_)" fill="#6DB293" width="0.694" height="27.066"/>
		
			<rect x="154.654" y="71.504" transform="matrix(-0.796 0.6053 -0.6053 -0.796 329.8568 58.9151)" clip-path="url(#SVGID_4_)" fill="#6DB292" width="0.694" height="27.066"/>
		
			<rect x="155.207" y="71.084" transform="matrix(-0.7961 0.6052 -0.6052 -0.7961 330.5959 57.833)" clip-path="url(#SVGID_4_)" fill="#6FB292" width="0.694" height="27.066"/>
		
			<rect x="155.759" y="70.664" transform="matrix(-0.7961 0.6052 -0.6052 -0.7961 331.3354 56.753)" clip-path="url(#SVGID_4_)" fill="#6FB391" width="0.694" height="27.066"/>
		
			<rect x="156.312" y="70.244" transform="matrix(-0.796 0.6053 -0.6053 -0.796 332.071 55.6486)" clip-path="url(#SVGID_4_)" fill="#70B391" width="0.694" height="27.066"/>
		
			<rect x="156.864" y="69.824" transform="matrix(-0.7961 0.6052 -0.6052 -0.7961 332.8102 54.5665)" clip-path="url(#SVGID_4_)" fill="#70B490" width="0.694" height="27.066"/>
		
			<rect x="157.417" y="69.404" transform="matrix(-0.7961 0.6052 -0.6052 -0.7961 333.5483 53.4777)" clip-path="url(#SVGID_4_)" fill="#71B490" width="0.694" height="27.066"/>
		
			<rect x="157.969" y="68.984" transform="matrix(-0.7961 0.6052 -0.6052 -0.7961 334.2868 52.3914)" clip-path="url(#SVGID_4_)" fill="#71B48F" width="0.694" height="27.066"/>
		
			<rect x="158.522" y="68.564" transform="matrix(-0.7961 0.6052 -0.6052 -0.7961 335.0245 51.3001)" clip-path="url(#SVGID_4_)" fill="#72B58F" width="0.694" height="27.066"/>
		
			<rect x="159.074" y="68.144" transform="matrix(-0.7961 0.6052 -0.6052 -0.7961 335.7626 50.2112)" clip-path="url(#SVGID_4_)" fill="#72B48E" width="0.694" height="27.066"/>
		
			<rect x="159.627" y="67.724" transform="matrix(-0.7961 0.6052 -0.6052 -0.7961 336.501 49.1241)" clip-path="url(#SVGID_4_)" fill="#73B58E" width="0.694" height="27.066"/>
		
			<rect x="160.179" y="67.304" transform="matrix(-0.7961 0.6052 -0.6052 -0.7961 337.2388 48.0336)" clip-path="url(#SVGID_4_)" fill="#73B58D" width="0.694" height="27.066"/>
		
			<rect x="160.732" y="66.884" transform="matrix(-0.7961 0.6052 -0.6052 -0.7961 337.9769 46.9447)" clip-path="url(#SVGID_4_)" fill="#74B68D" width="0.694" height="27.066"/>
		
			<rect x="161.284" y="66.464" transform="matrix(-0.796 0.6053 -0.6053 -0.796 338.7137 45.849)" clip-path="url(#SVGID_4_)" fill="#75B68C" width="0.694" height="27.066"/>
		
			<rect x="161.837" y="66.044" transform="matrix(-0.7961 0.6052 -0.6052 -0.7961 339.4549 44.776)" clip-path="url(#SVGID_4_)" fill="#76B68C" width="0.694" height="27.066"/>
		
			<rect x="162.389" y="65.624" transform="matrix(-0.7961 0.6052 -0.6052 -0.7961 340.1913 43.6782)" clip-path="url(#SVGID_4_)" fill="#76B78B" width="0.694" height="27.066"/>
		
			<rect x="162.942" y="65.204" transform="matrix(-0.796 0.6053 -0.6053 -0.796 340.9279 42.5825)" clip-path="url(#SVGID_4_)" fill="#77B78B" width="0.694" height="27.066"/>
		
			<rect x="163.494" y="64.784" transform="matrix(-0.7961 0.6052 -0.6052 -0.7961 341.6693 41.5096)" clip-path="url(#SVGID_4_)" fill="#77B78A" width="0.694" height="27.066"/>
		
			<rect x="164.047" y="64.363" transform="matrix(-0.7961 0.6052 -0.6052 -0.7961 342.4056 40.4117)" clip-path="url(#SVGID_4_)" fill="#78B889" width="0.694" height="27.066"/>
		
			<rect x="164.599" y="63.943" transform="matrix(-0.796 0.6053 -0.6053 -0.796 343.1422 39.316)" clip-path="url(#SVGID_4_)" fill="#78B889" width="0.694" height="27.066"/>
		
			<rect x="165.152" y="63.523" transform="matrix(-0.7961 0.6052 -0.6052 -0.7961 343.8838 38.2431)" clip-path="url(#SVGID_4_)" fill="#79B888" width="0.694" height="27.066"/>
		
			<rect x="165.704" y="63.103" transform="matrix(-0.7961 0.6052 -0.6052 -0.7961 344.6199 37.1452)" clip-path="url(#SVGID_4_)" fill="#79B888" width="0.694" height="27.066"/>
		
			<rect x="166.257" y="62.683" transform="matrix(-0.796 0.6053 -0.6053 -0.796 345.3564 36.0495)" clip-path="url(#SVGID_4_)" fill="#7AB987" width="0.694" height="27.066"/>
		
			<rect x="166.809" y="62.263" transform="matrix(-0.7961 0.6052 -0.6052 -0.7961 346.0961 34.9676)" clip-path="url(#SVGID_4_)" fill="#7BB987" width="0.694" height="27.066"/>
		
			<rect x="167.362" y="61.843" transform="matrix(-0.7961 0.6052 -0.6052 -0.7961 346.8347 33.8809)" clip-path="url(#SVGID_4_)" fill="#7BBA86" width="0.694" height="27.066"/>
		
			<rect x="167.914" y="61.423" transform="matrix(-0.7961 0.6052 -0.6052 -0.7961 347.5723 32.79)" clip-path="url(#SVGID_4_)" fill="#7CBA86" width="0.694" height="27.066"/>
		
			<rect x="168.467" y="61.003" transform="matrix(-0.7961 0.6052 -0.6052 -0.7961 348.3104 31.7011)" clip-path="url(#SVGID_4_)" fill="#7CBA85" width="0.694" height="27.066"/>
		
			<rect x="169.02" y="60.583" transform="matrix(-0.7961 0.6052 -0.6052 -0.7961 349.0491 30.6144)" clip-path="url(#SVGID_4_)" fill="#7DBB84" width="0.694" height="27.066"/>
		
			<rect x="169.572" y="60.163" transform="matrix(-0.7961 0.6052 -0.6052 -0.7961 349.7867 29.5235)" clip-path="url(#SVGID_4_)" fill="#7DBB84" width="0.694" height="27.066"/>
		
			<rect x="170.125" y="59.743" transform="matrix(-0.7961 0.6052 -0.6052 -0.7961 350.5248 28.4346)" clip-path="url(#SVGID_4_)" fill="#7EBC83" width="0.694" height="27.066"/>
		
			<rect x="170.677" y="59.323" transform="matrix(-0.796 0.6053 -0.6053 -0.796 351.2611 27.3388)" clip-path="url(#SVGID_4_)" fill="#7FBC83" width="0.694" height="27.066"/>
		
			<rect x="171.23" y="58.903" transform="matrix(-0.7961 0.6052 -0.6052 -0.7961 352.0033 26.2661)" clip-path="url(#SVGID_4_)" fill="#80BC82" width="0.694" height="27.066"/>
		
			<rect x="171.782" y="58.483" transform="matrix(-0.7961 0.6052 -0.6052 -0.7961 352.7391 25.1682)" clip-path="url(#SVGID_4_)" fill="#80BC81" width="0.694" height="27.066"/>
		
			<rect x="172.335" y="58.063" transform="matrix(-0.796 0.6053 -0.6053 -0.796 353.4754 24.0723)" clip-path="url(#SVGID_4_)" fill="#80BD81" width="0.694" height="27.066"/>
		
			<rect x="172.887" y="57.643" transform="matrix(-0.7961 0.6052 -0.6052 -0.7961 354.2177 22.9997)" clip-path="url(#SVGID_4_)" fill="#80BD80" width="0.694" height="27.066"/>
		
			<rect x="173.44" y="57.223" transform="matrix(-0.7961 0.6052 -0.6052 -0.7961 354.9534 21.9016)" clip-path="url(#SVGID_4_)" fill="#81BD80" width="0.694" height="27.066"/>
		
			<rect x="173.992" y="56.803" transform="matrix(-0.796 0.6052 -0.6052 -0.796 355.6897 20.8063)" clip-path="url(#SVGID_4_)" fill="#81BE80" width="0.694" height="27.066"/>
		
			<rect x="174.545" y="56.382" transform="matrix(-0.7961 0.6052 -0.6052 -0.7961 356.4296 19.724)" clip-path="url(#SVGID_4_)" fill="#82BE7F" width="0.694" height="27.066"/>
		
			<rect x="175.097" y="55.962" transform="matrix(-0.7961 0.6052 -0.6052 -0.7961 357.1703 18.6444)" clip-path="url(#SVGID_4_)" fill="#82BE7F" width="0.694" height="27.066"/>
		
			<rect x="175.65" y="55.542" transform="matrix(-0.796 0.6053 -0.6053 -0.796 357.9037 17.5389)" clip-path="url(#SVGID_4_)" fill="#83BF7E" width="0.694" height="27.066"/>
		
			<rect x="176.202" y="55.122" transform="matrix(-0.7961 0.6052 -0.6052 -0.7961 358.644 16.4575)" clip-path="url(#SVGID_4_)" fill="#83BF7D" width="0.694" height="27.066"/>
		
			<rect x="176.755" y="54.702" transform="matrix(-0.7961 0.6052 -0.6052 -0.7961 359.3847 15.3779)" clip-path="url(#SVGID_4_)" fill="#84C07D" width="0.694" height="27.066"/>
		
			<rect x="177.307" y="54.282" transform="matrix(-0.796 0.6053 -0.6053 -0.796 360.118 14.2728)" clip-path="url(#SVGID_4_)" fill="#84C07D" width="0.694" height="27.066"/>
		
			<rect x="177.86" y="53.862" transform="matrix(-0.7961 0.6052 -0.6052 -0.7961 360.8582 13.191)" clip-path="url(#SVGID_4_)" fill="#85C07C" width="0.694" height="27.066"/>
		<polygon clip-path="url(#SVGID_4_)" fill="#85C17C" points="170.292,56.412 170.845,55.992 186.834,77.022 186.834,77.836 
			186.673,77.958 		"/>
		<polygon clip-path="url(#SVGID_4_)" fill="#86C17B" points="170.845,55.992 171.397,55.572 186.834,75.876 186.834,77.022 		"/>
		<polygon clip-path="url(#SVGID_4_)" fill="#86C17A" points="171.397,55.572 171.95,55.152 186.834,74.729 186.834,75.876 		"/>
		<polygon clip-path="url(#SVGID_4_)" fill="#87C27A" points="171.95,55.152 172.502,54.732 186.834,73.582 186.834,74.729 		"/>
		<polygon clip-path="url(#SVGID_4_)" fill="#88C279" points="172.502,54.732 173.055,54.312 186.834,72.435 186.834,73.582 		"/>
		<polygon clip-path="url(#SVGID_4_)" fill="#89C278" points="173.055,54.312 173.608,53.892 186.834,71.288 186.834,72.435 		"/>
		<polygon clip-path="url(#SVGID_4_)" fill="#89C277" points="173.608,53.892 174.16,53.472 186.834,70.142 186.834,71.288 		"/>
		<polygon clip-path="url(#SVGID_4_)" fill="#8AC377" points="174.16,53.472 174.713,53.052 186.834,68.995 186.834,70.142 		"/>
		<polygon clip-path="url(#SVGID_4_)" fill="#8AC376" points="174.713,53.052 175.265,52.632 186.834,67.848 186.834,68.995 		"/>
		<polygon clip-path="url(#SVGID_4_)" fill="#8BC475" points="175.265,52.632 175.818,52.211 186.834,66.701 186.834,67.848 		"/>
		<polygon clip-path="url(#SVGID_4_)" fill="#8BC475" points="175.818,52.211 176.37,51.791 186.834,65.555 186.834,66.701 		"/>
		<polygon clip-path="url(#SVGID_4_)" fill="#8CC574" points="176.37,51.791 176.923,51.371 186.834,64.408 186.834,65.555 		"/>
		<polygon clip-path="url(#SVGID_4_)" fill="#8CC573" points="176.923,51.371 177.475,50.951 186.834,63.261 186.834,64.408 		"/>
		<polygon clip-path="url(#SVGID_4_)" fill="#8DC672" points="177.475,50.951 177.683,50.793 178.227,50.793 186.834,62.114 
			186.834,63.261 		"/>
		<polygon clip-path="url(#SVGID_4_)" fill="#8DC572" points="179.099,50.793 186.834,60.967 186.834,62.114 178.227,50.793 		"/>
		<polygon clip-path="url(#SVGID_4_)" fill="#8EC771" points="179.97,50.793 186.834,59.821 186.834,60.967 179.099,50.793 		"/>
		<polygon clip-path="url(#SVGID_4_)" fill="#8EC770" points="180.842,50.793 186.834,58.674 186.834,59.821 179.97,50.793 		"/>
		<polygon clip-path="url(#SVGID_4_)" fill="#8FC76F" points="181.714,50.793 186.834,57.527 186.834,58.674 180.842,50.793 		"/>
		<polygon clip-path="url(#SVGID_4_)" fill="#8FC76F" points="186.834,57.527 181.714,50.793 186.834,50.793 		"/>
	</g>
</g>
<g>
	<g>
		<defs>
			<path id="SVGID_11_" d="M116.444,148.56l-59.267,59.166c-1.47,1.468-3.852,1.466-5.32-0.005h0
				c-1.468-1.47-1.466-3.852,0.005-5.32l59.267-59.166c1.47-1.468,3.852-1.466,5.32,0.005l0,0
				C117.916,144.71,117.914,147.092,116.444,148.56z"/>
		</defs>
		<clipPath id="SVGID_6_">
			<use xlink:href="#SVGID_11_"  overflow="visible"/>
		</clipPath>
		<polygon clip-path="url(#SVGID_6_)" fill="#00ABD4" points="50.39,205.026 53.416,209.194 50.39,209.194 		"/>
		<polygon clip-path="url(#SVGID_6_)" fill="#00ABD4" points="50.39,204.349 53.907,209.194 53.416,209.194 50.39,205.026 		"/>
		<polygon clip-path="url(#SVGID_6_)" fill="#00AAD4" points="50.39,203.673 54.398,209.194 53.907,209.194 50.39,204.349 		"/>
		<polygon clip-path="url(#SVGID_6_)" fill="#04A9D3" points="50.39,202.997 54.889,209.194 54.398,209.194 50.39,203.673 		"/>
		<polygon clip-path="url(#SVGID_6_)" fill="#0BA8D2" points="50.39,202.32 55.38,209.194 54.889,209.194 50.39,202.997 		"/>
		<polygon clip-path="url(#SVGID_6_)" fill="#10A7D1" points="50.39,201.644 55.871,209.194 55.38,209.194 50.39,202.32 		"/>
		<polygon clip-path="url(#SVGID_6_)" fill="#1AA7D1" points="50.39,200.968 56.362,209.194 55.871,209.194 50.39,201.644 		"/>
		<polygon clip-path="url(#SVGID_6_)" fill="#1DA6D0" points="50.39,200.291 56.797,209.116 56.698,209.194 56.362,209.194 
			50.39,200.968 		"/>
		<polygon clip-path="url(#SVGID_6_)" fill="#20A4CF" points="50.39,199.615 57.109,208.869 56.797,209.116 50.39,200.291 		"/>
		<polygon clip-path="url(#SVGID_6_)" fill="#22A3CE" points="50.39,198.939 57.421,208.622 57.109,208.869 50.39,199.615 		"/>
		<polygon clip-path="url(#SVGID_6_)" fill="#26A3CE" points="50.39,198.263 57.733,208.376 57.421,208.622 50.39,198.939 		"/>
		<polygon clip-path="url(#SVGID_6_)" fill="#29A2CD" points="50.39,197.586 58.045,208.129 57.733,208.376 50.39,198.263 		"/>
		<polygon clip-path="url(#SVGID_6_)" fill="#2AA1CD" points="50.39,196.91 58.357,207.882 58.045,208.129 50.39,197.586 		"/>
		<polygon clip-path="url(#SVGID_6_)" fill="#2CA0CC" points="50.39,196.234 58.668,207.636 58.357,207.882 50.39,196.91 		"/>
		<polygon clip-path="url(#SVGID_6_)" fill="#2E9FCB" points="50.39,195.557 58.98,207.389 58.668,207.636 50.39,196.234 		"/>
		<polygon clip-path="url(#SVGID_6_)" fill="#319FCB" points="50.39,194.881 59.292,207.142 58.98,207.389 50.39,195.557 		"/>
		<polygon clip-path="url(#SVGID_6_)" fill="#329ECA" points="50.39,194.205 59.604,206.896 59.292,207.142 50.39,194.881 		"/>
		<polygon clip-path="url(#SVGID_6_)" fill="#349DCA" points="50.39,193.528 59.916,206.649 59.604,206.896 50.39,194.205 		"/>
		<polygon clip-path="url(#SVGID_6_)" fill="#359CC9" points="50.39,192.852 60.228,206.402 59.916,206.649 50.39,193.528 		"/>
		<polygon clip-path="url(#SVGID_6_)" fill="#379AC8" points="50.39,192.176 60.54,206.156 60.228,206.402 50.39,192.852 		"/>
		<polygon clip-path="url(#SVGID_6_)" fill="#399AC8" points="50.39,191.5 60.852,205.909 60.54,206.156 50.39,192.176 		"/>
		<polygon clip-path="url(#SVGID_6_)" fill="#3B99C7" points="50.39,190.823 61.164,205.662 60.852,205.909 50.39,191.5 		"/>
		<polygon clip-path="url(#SVGID_6_)" fill="#3C98C7" points="50.39,190.171 50.401,190.162 61.476,205.416 61.164,205.662 
			50.39,190.823 		"/>
		<polygon clip-path="url(#SVGID_6_)" fill="#3D97C6" points="50.401,190.162 50.713,189.916 61.788,205.169 61.476,205.416 		"/>
		<polygon clip-path="url(#SVGID_6_)" fill="#3E96C6" points="50.713,189.916 51.025,189.669 62.1,204.923 61.788,205.169 		"/>
		<polygon clip-path="url(#SVGID_6_)" fill="#4096C5" points="51.025,189.669 51.337,189.422 62.412,204.676 62.1,204.923 		"/>
		<polygon clip-path="url(#SVGID_6_)" fill="#4294C4" points="51.337,189.422 51.649,189.176 62.724,204.429 62.412,204.676 		"/>
		<polygon clip-path="url(#SVGID_6_)" fill="#4393C3" points="51.649,189.176 51.961,188.929 63.036,204.183 62.724,204.429 		"/>
		<polygon clip-path="url(#SVGID_6_)" fill="#4393C3" points="51.961,188.929 52.272,188.682 63.348,203.936 63.036,204.183 		"/>
		<polygon clip-path="url(#SVGID_6_)" fill="#4492C2" points="52.272,188.682 52.584,188.436 63.66,203.689 63.348,203.936 		"/>
		<polygon clip-path="url(#SVGID_6_)" fill="#4791C1" points="52.584,188.436 52.896,188.189 63.972,203.443 63.66,203.689 		"/>
		<polygon clip-path="url(#SVGID_6_)" fill="#4790C1" points="52.896,188.189 53.208,187.942 64.284,203.196 63.972,203.443 		"/>
		<polygon clip-path="url(#SVGID_6_)" fill="#488FC0" points="53.208,187.942 53.52,187.696 64.596,202.949 64.284,203.196 		"/>
		<polygon clip-path="url(#SVGID_6_)" fill="#498EC0" points="53.52,187.696 53.832,187.449 64.908,202.703 64.596,202.949 		"/>
		<polygon clip-path="url(#SVGID_6_)" fill="#498EBF" points="53.832,187.449 54.144,187.203 65.22,202.456 64.908,202.703 		"/>
		<polygon clip-path="url(#SVGID_6_)" fill="#4B8DBF" points="54.144,187.203 54.456,186.956 65.532,202.209 65.22,202.456 		"/>
		<polygon clip-path="url(#SVGID_6_)" fill="#4C8CBE" points="54.456,186.956 54.768,186.709 65.843,201.963 65.532,202.209 		"/>
		<polygon clip-path="url(#SVGID_6_)" fill="#4D8BBE" points="54.768,186.709 55.08,186.463 66.155,201.716 65.843,201.963 		"/>
		<polygon clip-path="url(#SVGID_6_)" fill="#4D8ABD" points="55.08,186.463 55.392,186.216 66.467,201.469 66.155,201.716 		"/>
		<polygon clip-path="url(#SVGID_6_)" fill="#4E8ABC" points="55.392,186.216 55.704,185.969 66.779,201.223 66.467,201.469 		"/>
		<polygon clip-path="url(#SVGID_6_)" fill="#5089BC" points="55.704,185.969 56.016,185.723 67.091,200.976 66.779,201.223 		"/>
		<polygon clip-path="url(#SVGID_6_)" fill="#5188BB" points="56.016,185.723 56.328,185.476 67.403,200.729 67.091,200.976 		"/>
		<polygon clip-path="url(#SVGID_6_)" fill="#5187BA" points="56.328,185.476 56.64,185.229 67.715,200.483 67.403,200.729 		"/>
		<polygon clip-path="url(#SVGID_6_)" fill="#5286BA" points="56.64,185.229 56.952,184.983 68.027,200.236 67.715,200.483 		"/>
		<polygon clip-path="url(#SVGID_6_)" fill="#5285B9" points="56.952,184.983 57.264,184.736 68.339,199.989 68.027,200.236 		"/>
		<polygon clip-path="url(#SVGID_6_)" fill="#5485B9" points="57.264,184.736 57.576,184.489 68.651,199.743 68.339,199.989 		"/>
		<polygon clip-path="url(#SVGID_6_)" fill="#5584B8" points="57.576,184.489 57.888,184.243 68.963,199.496 68.651,199.743 		"/>
		<polygon clip-path="url(#SVGID_6_)" fill="#5583B8" points="57.888,184.243 58.2,183.996 69.275,199.249 68.963,199.496 		"/>
		<polygon clip-path="url(#SVGID_6_)" fill="#5682B7" points="58.2,183.996 58.512,183.749 69.587,199.003 69.275,199.249 		"/>
		<polygon clip-path="url(#SVGID_6_)" fill="#5681B7" points="58.512,183.749 58.824,183.503 69.899,198.756 69.587,199.003 		"/>
		<polygon clip-path="url(#SVGID_6_)" fill="#5881B6" points="58.824,183.503 59.136,183.256 70.211,198.509 69.899,198.756 		"/>
		<polygon clip-path="url(#SVGID_6_)" fill="#5880B6" points="59.136,183.256 59.447,183.009 70.523,198.263 70.211,198.509 		"/>
		<polygon clip-path="url(#SVGID_6_)" fill="#5880B5" points="59.447,183.009 59.759,182.763 70.835,198.016 70.523,198.263 		"/>
		<polygon clip-path="url(#SVGID_6_)" fill="#597FB5" points="59.759,182.763 60.071,182.516 71.147,197.769 70.835,198.016 		"/>
		<polygon clip-path="url(#SVGID_6_)" fill="#597EB4" points="60.071,182.516 60.383,182.269 71.459,197.523 71.147,197.769 		"/>
		<polygon clip-path="url(#SVGID_6_)" fill="#5A7EB4" points="60.383,182.269 60.695,182.023 71.771,197.276 71.459,197.523 		"/>
		<polygon clip-path="url(#SVGID_6_)" fill="#5B7DB3" points="60.695,182.023 61.007,181.776 72.083,197.03 71.771,197.276 		"/>
		<polygon clip-path="url(#SVGID_6_)" fill="#5B7DB3" points="61.007,181.776 61.319,181.529 72.395,196.783 72.083,197.03 		"/>
		<polygon clip-path="url(#SVGID_6_)" fill="#5C7BB2" points="61.319,181.529 61.631,181.283 72.707,196.536 72.395,196.783 		"/>
		<polygon clip-path="url(#SVGID_6_)" fill="#5C7BB2" points="61.631,181.283 61.943,181.036 73.019,196.29 72.707,196.536 		"/>
		<polygon clip-path="url(#SVGID_6_)" fill="#5D7AB1" points="61.943,181.036 62.255,180.789 73.33,196.043 73.019,196.29 		"/>
		<polygon clip-path="url(#SVGID_6_)" fill="#5D79B1" points="62.255,180.789 62.567,180.543 73.642,195.796 73.33,196.043 		"/>
		<polygon clip-path="url(#SVGID_6_)" fill="#5E79B0" points="62.567,180.543 62.879,180.296 73.954,195.55 73.642,195.796 		"/>
		<polygon clip-path="url(#SVGID_6_)" fill="#5F78B0" points="62.879,180.296 63.191,180.049 74.266,195.303 73.954,195.55 		"/>
		<polygon clip-path="url(#SVGID_6_)" fill="#5F77AF" points="63.191,180.049 63.503,179.803 74.578,195.056 74.266,195.303 		"/>
		<polygon clip-path="url(#SVGID_6_)" fill="#5F76AF" points="63.503,179.803 63.815,179.556 74.89,194.81 74.578,195.056 		"/>
		<polygon clip-path="url(#SVGID_6_)" fill="#6076AE" points="63.815,179.556 64.127,179.309 75.202,194.563 74.89,194.81 		"/>
		<polygon clip-path="url(#SVGID_6_)" fill="#6075AE" points="64.127,179.309 64.439,179.063 75.514,194.316 75.202,194.563 		"/>
		<polygon clip-path="url(#SVGID_6_)" fill="#6175AD" points="64.439,179.063 64.751,178.816 75.826,194.07 75.514,194.316 		"/>
		<polygon clip-path="url(#SVGID_6_)" fill="#6274AD" points="64.751,178.816 65.063,178.57 76.138,193.823 75.826,194.07 		"/>
		<polygon clip-path="url(#SVGID_6_)" fill="#6273AC" points="65.063,178.57 65.375,178.323 76.45,193.576 76.138,193.823 		"/>
		<polygon clip-path="url(#SVGID_6_)" fill="#6273AD" points="65.375,178.323 65.687,178.076 76.762,193.33 76.45,193.576 		"/>
		<polygon clip-path="url(#SVGID_6_)" fill="#6271AC" points="65.687,178.076 65.999,177.83 77.074,193.083 76.762,193.33 		"/>
		<polygon clip-path="url(#SVGID_6_)" fill="#6371AC" points="65.999,177.83 66.311,177.583 77.386,192.836 77.074,193.083 		"/>
		<polygon clip-path="url(#SVGID_6_)" fill="#6471AB" points="66.311,177.583 66.623,177.336 77.698,192.59 77.386,192.836 		"/>
		<polygon clip-path="url(#SVGID_6_)" fill="#6470AA" points="66.623,177.336 66.934,177.09 78.01,192.343 77.698,192.59 		"/>
		<polygon clip-path="url(#SVGID_6_)" fill="#646FAA" points="66.934,177.09 67.246,176.843 78.322,192.096 78.01,192.343 		"/>
		<polygon clip-path="url(#SVGID_6_)" fill="#656EAA" points="67.246,176.843 67.558,176.596 78.634,191.85 78.322,192.096 		"/>
		<polygon clip-path="url(#SVGID_6_)" fill="#656DA9" points="67.558,176.596 67.87,176.35 78.946,191.603 78.634,191.85 		"/>
		<polygon clip-path="url(#SVGID_6_)" fill="#656DA9" points="67.87,176.35 68.182,176.103 79.258,191.356 78.946,191.603 		"/>
		<polygon clip-path="url(#SVGID_6_)" fill="#666DA8" points="68.182,176.103 68.494,175.856 79.57,191.11 79.258,191.356 		"/>
		<polygon clip-path="url(#SVGID_6_)" fill="#676BA8" points="68.494,175.856 68.806,175.61 79.882,190.863 79.57,191.11 		"/>
		<polygon clip-path="url(#SVGID_6_)" fill="#676BA7" points="68.806,175.61 69.118,175.363 80.194,190.616 79.882,190.863 		"/>
		<polygon clip-path="url(#SVGID_6_)" fill="#676AA7" points="69.118,175.363 69.43,175.116 80.506,190.37 80.194,190.616 		"/>
		<polygon clip-path="url(#SVGID_6_)" fill="#676AA7" points="69.43,175.116 69.742,174.87 80.817,190.123 80.506,190.37 		"/>
		<polygon clip-path="url(#SVGID_6_)" fill="#6769A7" points="69.742,174.87 70.054,174.623 81.129,189.876 80.817,190.123 		"/>
		<polygon clip-path="url(#SVGID_6_)" fill="#6868A6" points="70.054,174.623 70.366,174.376 81.441,189.63 81.129,189.876 		"/>
		<polygon clip-path="url(#SVGID_6_)" fill="#6968A6" points="70.366,174.376 70.678,174.13 81.753,189.383 81.441,189.63 		"/>
		<polygon clip-path="url(#SVGID_6_)" fill="#6967A6" points="70.678,174.13 70.99,173.883 82.065,189.136 81.753,189.383 		"/>
		<polygon clip-path="url(#SVGID_6_)" fill="#6966A5" points="70.99,173.883 71.302,173.636 82.377,188.89 82.065,189.136 		"/>
		<polygon clip-path="url(#SVGID_6_)" fill="#6966A5" points="71.302,173.636 71.614,173.39 82.689,188.643 82.377,188.89 		"/>
		<polygon clip-path="url(#SVGID_6_)" fill="#6A65A4" points="71.614,173.39 71.926,173.143 83.001,188.397 82.689,188.643 		"/>
		<polygon clip-path="url(#SVGID_6_)" fill="#6A65A4" points="71.926,173.143 72.238,172.896 83.313,188.15 83.001,188.397 		"/>
		<polygon clip-path="url(#SVGID_6_)" fill="#6B64A4" points="72.238,172.896 72.55,172.65 83.625,187.903 83.313,188.15 		"/>
		<polygon clip-path="url(#SVGID_6_)" fill="#6B63A3" points="72.55,172.65 72.862,172.403 83.937,187.657 83.625,187.903 		"/>
		<polygon clip-path="url(#SVGID_6_)" fill="#6B63A3" points="72.862,172.403 73.174,172.156 84.249,187.41 83.937,187.657 		"/>
		<polygon clip-path="url(#SVGID_6_)" fill="#6C62A2" points="73.174,172.156 73.486,171.91 84.561,187.163 84.249,187.41 		"/>
		<polygon clip-path="url(#SVGID_6_)" fill="#6C61A2" points="73.486,171.91 73.798,171.663 84.873,186.917 84.561,187.163 		"/>
		<polygon clip-path="url(#SVGID_6_)" fill="#6C61A2" points="73.798,171.663 74.11,171.416 85.185,186.67 84.873,186.917 		"/>
		<polygon clip-path="url(#SVGID_6_)" fill="#6C60A1" points="74.11,171.416 74.421,171.17 85.497,186.423 85.185,186.67 		"/>
		<polygon clip-path="url(#SVGID_6_)" fill="#6C5FA1" points="74.421,171.17 74.733,170.923 85.809,186.177 85.497,186.423 		"/>
		<polygon clip-path="url(#SVGID_6_)" fill="#6D5FA1" points="74.733,170.923 75.045,170.676 86.121,185.93 85.809,186.177 		"/>
		<polygon clip-path="url(#SVGID_6_)" fill="#6D5EA0" points="75.045,170.676 75.357,170.43 86.433,185.683 86.121,185.93 		"/>
		<polygon clip-path="url(#SVGID_6_)" fill="#6E5EA0" points="75.357,170.43 75.669,170.183 86.745,185.437 86.433,185.683 		"/>
		<polygon clip-path="url(#SVGID_6_)" fill="#6E5DA0" points="75.669,170.183 75.981,169.937 87.057,185.19 86.745,185.437 		"/>
		<polygon clip-path="url(#SVGID_6_)" fill="#6E5C9F" points="75.981,169.937 76.293,169.69 87.369,184.943 87.057,185.19 		"/>
		<polygon clip-path="url(#SVGID_6_)" fill="#6E5C9F" points="76.293,169.69 76.605,169.443 87.681,184.697 87.369,184.943 		"/>
		<polygon clip-path="url(#SVGID_6_)" fill="#6E5B9F" points="76.605,169.443 76.917,169.197 87.993,184.45 87.681,184.697 		"/>
		<polygon clip-path="url(#SVGID_6_)" fill="#6F5B9E" points="76.917,169.197 77.229,168.95 88.304,184.203 87.993,184.45 		"/>
		<polygon clip-path="url(#SVGID_6_)" fill="#6F599E" points="77.229,168.95 77.541,168.703 88.616,183.957 88.304,184.203 		"/>
		<polygon clip-path="url(#SVGID_6_)" fill="#6F599D" points="77.541,168.703 77.853,168.457 88.928,183.71 88.616,183.957 		"/>
		<polygon clip-path="url(#SVGID_6_)" fill="#70589D" points="77.853,168.457 78.165,168.21 89.24,183.463 88.928,183.71 		"/>
		<polygon clip-path="url(#SVGID_6_)" fill="#70589C" points="78.165,168.21 78.477,167.963 89.552,183.217 89.24,183.463 		"/>
		<polygon clip-path="url(#SVGID_6_)" fill="#70579C" points="78.477,167.963 78.789,167.717 89.864,182.97 89.552,183.217 		"/>
		<polygon clip-path="url(#SVGID_6_)" fill="#70569C" points="78.789,167.717 79.101,167.47 90.176,182.723 89.864,182.97 		"/>
		<polygon clip-path="url(#SVGID_6_)" fill="#70569B" points="79.101,167.47 79.413,167.223 90.488,182.477 90.176,182.723 		"/>
		<polygon clip-path="url(#SVGID_6_)" fill="#71559B" points="79.413,167.223 79.725,166.977 90.8,182.23 90.488,182.477 		"/>
		<polygon clip-path="url(#SVGID_6_)" fill="#71559B" points="79.725,166.977 80.037,166.73 91.112,181.983 90.8,182.23 		"/>
		<polygon clip-path="url(#SVGID_6_)" fill="#71549B" points="80.037,166.73 80.349,166.483 91.424,181.737 91.112,181.983 		"/>
		<polygon clip-path="url(#SVGID_6_)" fill="#72539B" points="80.349,166.483 80.661,166.237 91.736,181.49 91.424,181.737 		"/>
		<polygon clip-path="url(#SVGID_6_)" fill="#72539A" points="80.661,166.237 80.973,165.99 92.048,181.243 91.736,181.49 		"/>
		<polygon clip-path="url(#SVGID_6_)" fill="#72529A" points="80.973,165.99 81.285,165.743 92.36,180.997 92.048,181.243 		"/>
		<polygon clip-path="url(#SVGID_6_)" fill="#72529A" points="81.285,165.743 81.596,165.497 92.672,180.75 92.36,180.997 		"/>
		<polygon clip-path="url(#SVGID_6_)" fill="#725199" points="81.596,165.497 81.908,165.25 92.984,180.503 92.672,180.75 		"/>
		<polygon clip-path="url(#SVGID_6_)" fill="#725099" points="81.908,165.25 82.22,165.003 93.296,180.257 92.984,180.503 		"/>
		<polygon clip-path="url(#SVGID_6_)" fill="#735099" points="82.22,165.003 82.532,164.757 93.608,180.01 93.296,180.257 		"/>
		<polygon clip-path="url(#SVGID_6_)" fill="#734F98" points="82.532,164.757 82.844,164.51 93.92,179.764 93.608,180.01 		"/>
		<polygon clip-path="url(#SVGID_6_)" fill="#734F98" points="82.844,164.51 83.156,164.263 94.232,179.517 93.92,179.764 		"/>
		<polygon clip-path="url(#SVGID_6_)" fill="#734E98" points="83.156,164.263 83.468,164.017 94.544,179.27 94.232,179.517 		"/>
		<polygon clip-path="url(#SVGID_6_)" fill="#744E98" points="83.468,164.017 83.78,163.77 94.856,179.024 94.544,179.27 		"/>
		<polygon clip-path="url(#SVGID_6_)" fill="#744D97" points="83.78,163.77 84.092,163.523 95.168,178.777 94.856,179.024 		"/>
		<polygon clip-path="url(#SVGID_6_)" fill="#744C97" points="84.092,163.523 84.404,163.277 95.479,178.53 95.168,178.777 		"/>
		<polygon clip-path="url(#SVGID_6_)" fill="#744C97" points="84.404,163.277 84.716,163.03 95.791,178.284 95.479,178.53 		"/>
		<polygon clip-path="url(#SVGID_6_)" fill="#744B96" points="84.716,163.03 85.028,162.783 96.103,178.037 95.791,178.284 		"/>
		<polygon clip-path="url(#SVGID_6_)" fill="#754A96" points="85.028,162.783 85.34,162.537 96.415,177.79 96.103,178.037 		"/>
		<polygon clip-path="url(#SVGID_6_)" fill="#754A96" points="85.34,162.537 85.652,162.29 96.727,177.544 96.415,177.79 		"/>
		<polygon clip-path="url(#SVGID_6_)" fill="#754A96" points="85.652,162.29 85.964,162.044 97.039,177.297 96.727,177.544 		"/>
		<polygon clip-path="url(#SVGID_6_)" fill="#754995" points="85.964,162.044 86.276,161.797 97.351,177.05 97.039,177.297 		"/>
		<polygon clip-path="url(#SVGID_6_)" fill="#754895" points="86.276,161.797 86.588,161.55 97.663,176.804 97.351,177.05 		"/>
		<polygon clip-path="url(#SVGID_6_)" fill="#754895" points="86.588,161.55 86.9,161.304 97.975,176.557 97.663,176.804 		"/>
		<polygon clip-path="url(#SVGID_6_)" fill="#754795" points="86.9,161.304 87.212,161.057 98.287,176.31 97.975,176.557 		"/>
		<polygon clip-path="url(#SVGID_6_)" fill="#754795" points="87.212,161.057 87.524,160.81 98.599,176.064 98.287,176.31 		"/>
		<polygon clip-path="url(#SVGID_6_)" fill="#754694" points="87.524,160.81 87.836,160.564 98.911,175.817 98.599,176.064 		"/>
		<polygon clip-path="url(#SVGID_6_)" fill="#764694" points="87.836,160.564 88.148,160.317 99.223,175.57 98.911,175.817 		"/>
		<polygon clip-path="url(#SVGID_6_)" fill="#764594" points="88.148,160.317 88.46,160.07 99.535,175.324 99.223,175.57 		"/>
		<polygon clip-path="url(#SVGID_6_)" fill="#774493" points="88.46,160.07 88.771,159.824 99.847,175.077 99.535,175.324 		"/>
		<polygon clip-path="url(#SVGID_6_)" fill="#774493" points="88.771,159.824 89.083,159.577 100.159,174.83 99.847,175.077 		"/>
		<polygon clip-path="url(#SVGID_6_)" fill="#774393" points="89.083,159.577 89.395,159.33 100.471,174.584 100.159,174.83 		"/>
		<polygon clip-path="url(#SVGID_6_)" fill="#774393" points="89.395,159.33 89.707,159.084 100.783,174.337 100.471,174.584 		"/>
		<polygon clip-path="url(#SVGID_6_)" fill="#774292" points="89.707,159.084 90.019,158.837 101.095,174.09 100.783,174.337 		"/>
		<polygon clip-path="url(#SVGID_6_)" fill="#774292" points="90.019,158.837 90.331,158.59 101.407,173.844 101.095,174.09 		"/>
		<polygon clip-path="url(#SVGID_6_)" fill="#774192" points="90.331,158.59 90.643,158.344 101.719,173.597 101.407,173.844 		"/>
		<polygon clip-path="url(#SVGID_6_)" fill="#774192" points="90.643,158.344 90.955,158.097 102.031,173.35 101.719,173.597 		"/>
		<polygon clip-path="url(#SVGID_6_)" fill="#774192" points="90.955,158.097 91.267,157.85 102.343,173.104 102.031,173.35 		"/>
		<polygon clip-path="url(#SVGID_6_)" fill="#774091" points="91.267,157.85 91.579,157.604 102.654,172.857 102.343,173.104 		"/>
		<polygon clip-path="url(#SVGID_6_)" fill="#773F91" points="91.579,157.604 91.891,157.357 102.966,172.61 102.654,172.857 		"/>
		<polygon clip-path="url(#SVGID_6_)" fill="#783E91" points="91.891,157.357 92.203,157.11 103.278,172.364 102.966,172.61 		"/>
		<polygon clip-path="url(#SVGID_6_)" fill="#783E91" points="92.203,157.11 92.515,156.864 103.59,172.117 103.278,172.364 		"/>
		<polygon clip-path="url(#SVGID_6_)" fill="#783E90" points="92.515,156.864 92.827,156.617 103.902,171.87 103.59,172.117 		"/>
		<polygon clip-path="url(#SVGID_6_)" fill="#783D90" points="92.827,156.617 93.139,156.37 104.214,171.624 103.902,171.87 		"/>
		<polygon clip-path="url(#SVGID_6_)" fill="#783D90" points="93.139,156.37 93.451,156.124 104.526,171.377 104.214,171.624 		"/>
		<polygon clip-path="url(#SVGID_6_)" fill="#783C90" points="93.451,156.124 93.763,155.877 104.838,171.131 104.526,171.377 		"/>
		<polygon clip-path="url(#SVGID_6_)" fill="#783C90" points="93.763,155.877 94.075,155.63 105.15,170.884 104.838,171.131 		"/>
		<polygon clip-path="url(#SVGID_6_)" fill="#793B8F" points="94.075,155.63 94.387,155.384 105.462,170.637 105.15,170.884 		"/>
		<polygon clip-path="url(#SVGID_6_)" fill="#793B8F" points="94.387,155.384 94.699,155.137 105.774,170.391 105.462,170.637 		"/>
		<polygon clip-path="url(#SVGID_6_)" fill="#793B8F" points="94.699,155.137 95.011,154.89 106.086,170.144 105.774,170.391 		"/>
		<polygon clip-path="url(#SVGID_6_)" fill="#793A8F" points="95.011,154.89 95.323,154.644 106.398,169.897 106.086,170.144 		"/>
		<polygon clip-path="url(#SVGID_6_)" fill="#793A8F" points="95.323,154.644 95.635,154.397 106.71,169.651 106.398,169.897 		"/>
		<polygon clip-path="url(#SVGID_6_)" fill="#79398F" points="95.635,154.397 95.947,154.15 107.022,169.404 106.71,169.651 		"/>
		<polygon clip-path="url(#SVGID_6_)" fill="#79388F" points="95.947,154.15 96.259,153.904 107.334,169.157 107.022,169.404 		"/>
		<polygon clip-path="url(#SVGID_6_)" fill="#7A388F" points="96.259,153.904 96.57,153.657 107.646,168.911 107.334,169.157 		"/>
		<polygon clip-path="url(#SVGID_6_)" fill="#7A378E" points="96.57,153.657 96.882,153.411 107.958,168.664 107.646,168.911 		"/>
		<polygon clip-path="url(#SVGID_6_)" fill="#7A378E" points="96.882,153.411 97.194,153.164 108.27,168.417 107.958,168.664 		"/>
		<polygon clip-path="url(#SVGID_6_)" fill="#7A368E" points="97.194,153.164 97.506,152.917 108.582,168.171 108.27,168.417 		"/>
		<polygon clip-path="url(#SVGID_6_)" fill="#7A368E" points="97.506,152.917 97.818,152.671 108.894,167.924 108.582,168.171 		"/>
		<polygon clip-path="url(#SVGID_6_)" fill="#7A368E" points="97.818,152.671 98.13,152.424 109.206,167.677 108.894,167.924 		"/>
		<polygon clip-path="url(#SVGID_6_)" fill="#7A368E" points="98.13,152.424 98.442,152.177 109.518,167.431 109.206,167.677 		"/>
		<polygon clip-path="url(#SVGID_6_)" fill="#7A358D" points="98.442,152.177 98.754,151.931 109.83,167.184 109.518,167.431 		"/>
		<polygon clip-path="url(#SVGID_6_)" fill="#7A358D" points="98.754,151.931 99.066,151.684 110.142,166.937 109.83,167.184 		"/>
		<polygon clip-path="url(#SVGID_6_)" fill="#7A348D" points="99.066,151.684 99.378,151.437 110.453,166.691 110.142,166.937 		"/>
		<polygon clip-path="url(#SVGID_6_)" fill="#7A348D" points="99.378,151.437 99.69,151.191 110.765,166.444 110.453,166.691 		"/>
		<polygon clip-path="url(#SVGID_6_)" fill="#7A338D" points="99.69,151.191 100.002,150.944 111.077,166.197 110.765,166.444 		"/>
		<polygon clip-path="url(#SVGID_6_)" fill="#7A338D" points="100.002,150.944 100.314,150.697 111.389,165.951 111.077,166.197 		
			"/>
		<polygon clip-path="url(#SVGID_6_)" fill="#7A328C" points="100.314,150.697 100.626,150.451 111.701,165.704 111.389,165.951 		
			"/>
		<polygon clip-path="url(#SVGID_6_)" fill="#7A328C" points="100.626,150.451 100.938,150.204 112.013,165.457 111.701,165.704 		
			"/>
		<polygon clip-path="url(#SVGID_6_)" fill="#7A328C" points="100.938,150.204 101.25,149.957 112.325,165.211 112.013,165.457 		
			"/>
		<polygon clip-path="url(#SVGID_6_)" fill="#7A318C" points="101.25,149.957 101.562,149.711 112.637,164.964 112.325,165.211 		
			"/>
		<polygon clip-path="url(#SVGID_6_)" fill="#7B318C" points="101.562,149.711 101.874,149.464 112.949,164.717 112.637,164.964 		
			"/>
		<polygon clip-path="url(#SVGID_6_)" fill="#7B308C" points="101.874,149.464 102.186,149.217 113.261,164.471 112.949,164.717 		
			"/>
		<polygon clip-path="url(#SVGID_6_)" fill="#7B308C" points="102.186,149.217 102.498,148.971 113.573,164.224 113.261,164.471 		
			"/>
		<polygon clip-path="url(#SVGID_6_)" fill="#7B308C" points="102.498,148.971 102.81,148.724 113.885,163.977 113.573,164.224 		
			"/>
		<polygon clip-path="url(#SVGID_6_)" fill="#7B308B" points="102.81,148.724 103.122,148.477 114.197,163.731 113.885,163.977 		
			"/>
		<polygon clip-path="url(#SVGID_6_)" fill="#7B308B" points="103.122,148.477 103.434,148.231 114.509,163.484 114.197,163.731 		
			"/>
		<polygon clip-path="url(#SVGID_6_)" fill="#7B308B" points="103.434,148.231 103.745,147.984 114.821,163.238 114.509,163.484 		
			"/>
		<polygon clip-path="url(#SVGID_6_)" fill="#7B2F8B" points="103.745,147.984 104.057,147.737 115.133,162.991 114.821,163.238 		
			"/>
		<polygon clip-path="url(#SVGID_6_)" fill="#7B2F8B" points="104.057,147.737 104.369,147.491 115.445,162.744 115.133,162.991 		
			"/>
		<polygon clip-path="url(#SVGID_6_)" fill="#7B2F8B" points="104.369,147.491 104.681,147.244 115.757,162.498 115.445,162.744 		
			"/>
		<polygon clip-path="url(#SVGID_6_)" fill="#7B2E8B" points="104.681,147.244 104.993,146.997 116.069,162.251 115.757,162.498 		
			"/>
		<polygon clip-path="url(#SVGID_6_)" fill="#7B2E8B" points="104.993,146.997 105.305,146.751 116.381,162.004 116.069,162.251 		
			"/>
		<polygon clip-path="url(#SVGID_6_)" fill="#7B2E8B" points="105.305,146.751 105.617,146.504 116.693,161.758 116.381,162.004 		
			"/>
		<polygon clip-path="url(#SVGID_6_)" fill="#7B2D8A" points="105.617,146.504 105.929,146.258 117.005,161.511 116.693,161.758 		
			"/>
		<polygon clip-path="url(#SVGID_6_)" fill="#7B2D8A" points="105.929,146.258 106.241,146.011 117.317,161.264 117.005,161.511 		
			"/>
		<polygon clip-path="url(#SVGID_6_)" fill="#7B2D8A" points="106.241,146.011 106.553,145.764 117.628,161.018 117.317,161.264 		
			"/>
		<polygon clip-path="url(#SVGID_6_)" fill="#7B2D8A" points="106.553,145.764 106.865,145.518 117.916,160.737 117.916,160.79 
			117.628,161.018 		"/>
		<polygon clip-path="url(#SVGID_6_)" fill="#7B2C8A" points="106.865,145.518 107.177,145.271 117.916,160.061 117.916,160.737 		
			"/>
		<polygon clip-path="url(#SVGID_6_)" fill="#7B2C8A" points="107.177,145.271 107.489,145.024 117.916,159.385 117.916,160.061 		
			"/>
		<polygon clip-path="url(#SVGID_6_)" fill="#7B2C8A" points="107.489,145.024 107.801,144.778 117.916,158.708 117.916,159.385 		
			"/>
		<polygon clip-path="url(#SVGID_6_)" fill="#7B2C8A" points="107.801,144.778 108.113,144.531 117.916,158.032 117.916,158.708 		
			"/>
		<polygon clip-path="url(#SVGID_6_)" fill="#7B2B8A" points="108.113,144.531 108.425,144.284 117.916,157.356 117.916,158.032 		
			"/>
		<polygon clip-path="url(#SVGID_6_)" fill="#7B2B8A" points="108.425,144.284 108.737,144.038 117.916,156.679 117.916,157.356 		
			"/>
		<polygon clip-path="url(#SVGID_6_)" fill="#7B2B8A" points="108.737,144.038 109.049,143.791 117.916,156.003 117.916,156.679 		
			"/>
		<polygon clip-path="url(#SVGID_6_)" fill="#7B2B8A" points="109.049,143.791 109.361,143.544 117.916,155.327 117.916,156.003 		
			"/>
		<polygon clip-path="url(#SVGID_6_)" fill="#7B2B8A" points="109.361,143.544 109.673,143.298 117.916,154.651 117.916,155.327 		
			"/>
		<polygon clip-path="url(#SVGID_6_)" fill="#7B2B8A" points="109.673,143.298 109.985,143.051 117.916,153.974 117.916,154.651 		
			"/>
		<polygon clip-path="url(#SVGID_6_)" fill="#7C2A8A" points="109.985,143.051 110.297,142.804 117.916,153.298 117.916,153.974 		
			"/>
		<polygon clip-path="url(#SVGID_6_)" fill="#7C2A8A" points="110.297,142.804 110.609,142.558 117.916,152.622 117.916,153.298 		
			"/>
		<polygon clip-path="url(#SVGID_6_)" fill="#7C2A8A" points="110.609,142.558 110.92,142.311 117.916,151.945 117.916,152.622 		
			"/>
		<polygon clip-path="url(#SVGID_6_)" fill="#7C2A8A" points="110.92,142.311 111.232,142.064 117.916,151.269 117.916,151.945 		
			"/>
		<polygon clip-path="url(#SVGID_6_)" fill="#7C2A8A" points="111.232,142.064 111.544,141.818 117.916,150.593 117.916,151.269 		
			"/>
		<polygon clip-path="url(#SVGID_6_)" fill="#7C2A8A" points="111.544,141.818 111.607,141.768 111.999,141.768 117.916,149.916 
			117.916,150.593 		"/>
		<polygon clip-path="url(#SVGID_6_)" fill="#7C2A8A" points="112.49,141.768 117.916,149.24 117.916,149.916 111.999,141.768 		"/>
		<polygon clip-path="url(#SVGID_6_)" fill="#7C2A8A" points="112.981,141.768 117.916,148.564 117.916,149.24 112.49,141.768 		"/>
		<polygon clip-path="url(#SVGID_6_)" fill="#7C2A8A" points="113.473,141.768 117.916,147.888 117.916,148.564 112.981,141.768 		
			"/>
		<polygon clip-path="url(#SVGID_6_)" fill="#7C2A8A" points="113.964,141.768 117.916,147.211 117.916,147.888 113.473,141.768 		
			"/>
		<polygon clip-path="url(#SVGID_6_)" fill="#7C2A8A" points="114.455,141.768 117.916,146.535 117.916,147.211 113.964,141.768 		
			"/>
		<polygon clip-path="url(#SVGID_6_)" fill="#7C2A8A" points="114.946,141.768 117.916,145.859 117.916,146.535 114.455,141.768 		
			"/>
		<polygon clip-path="url(#SVGID_6_)" fill="#7C2A8A" points="115.437,141.768 117.916,145.182 117.916,145.859 114.946,141.768 		
			"/>
		<polygon clip-path="url(#SVGID_6_)" fill="#7C2A8A" points="117.916,145.182 115.437,141.768 117.916,141.768 		"/>
	</g>
</g>
<g>
	<path fill="#F5D852" d="M108.932,98.323l-49.396,49.312c-1.451,1.448-3.801,1.446-5.249-0.004h0
		c-1.448-1.451-1.446-3.801,0.004-5.249l49.396-49.312c1.451-1.448,3.801-1.446,5.249,0.004l0,0
		C110.385,94.525,110.383,96.875,108.932,98.323z"/>
</g>
<g>
	
		<rect x="204.863" y="-22.464" transform="matrix(0.7071 0.7072 -0.7072 0.7071 113.247 -123.0013)" fill="#F5D852" width="0.443" height="195.302"/>
</g>
<g>
	
		<rect x="183.981" y="48.754" transform="matrix(0.7071 0.7072 -0.7072 0.7071 157.4919 -87.3721)" fill="#F5D852" width="0.443" height="195.302"/>
</g>
<g>
	
		<rect x="116.66" y="265.391" transform="matrix(0.7071 0.7072 -0.7072 0.7071 234.112 0.1448)" fill="#F5D852" width="0.443" height="34.502"/>
</g>
<g>
	<path fill="#F5D852" d="M59.807,189.921l-0.314-0.314l1.568-1.568l0.314,0.314L59.807,189.921z M64.51,185.217l-0.314-0.314
		l1.568-1.568l0.314,0.314L64.51,185.217z M69.214,180.514L68.9,180.2l1.568-1.568l0.314,0.314L69.214,180.514z M73.917,175.811
		l-0.314-0.314l1.568-1.568l0.314,0.314L73.917,175.811z M78.62,171.107l-0.314-0.314l1.568-1.568l0.314,0.314L78.62,171.107z
		 M83.324,166.404l-0.314-0.314l1.568-1.568l0.314,0.314L83.324,166.404z M88.027,161.701l-0.314-0.314l1.568-1.568l0.314,0.314
		L88.027,161.701z M92.73,156.997l-0.314-0.314l1.568-1.568l0.314,0.314L92.73,156.997z M97.434,152.294l-0.314-0.314l1.568-1.568
		l0.314,0.314L97.434,152.294z M102.137,147.591l-0.314-0.314l1.568-1.568l0.314,0.314L102.137,147.591z M106.84,142.887
		l-0.314-0.314l1.568-1.568l0.314,0.314L106.84,142.887z M111.544,138.184l-0.314-0.314l1.568-1.568l0.314,0.314L111.544,138.184z
		 M116.247,133.481l-0.314-0.314l1.568-1.568l0.314,0.314L116.247,133.481z M120.95,128.777l-0.314-0.314l1.568-1.568l0.314,0.314
		L120.95,128.777z M125.654,124.074l-0.314-0.314l1.568-1.568l0.314,0.314L125.654,124.074z"/>
</g>
<g>
	<path fill="#F5D852" d="M30.483,279.301l-0.314-0.314l1.568-1.568l0.314,0.314L30.483,279.301z M35.186,274.598l-0.314-0.314
		l1.568-1.568l0.314,0.314L35.186,274.598z M39.889,269.894l-0.314-0.314l1.568-1.568l0.314,0.314L39.889,269.894z M44.593,265.191
		l-0.314-0.314l1.568-1.568l0.314,0.314L44.593,265.191z M49.296,260.487l-0.314-0.314l1.568-1.568l0.314,0.314L49.296,260.487z
		 M54,255.784l-0.314-0.314l1.568-1.568l0.314,0.314L54,255.784z M58.703,251.081l-0.314-0.314l1.568-1.568l0.314,0.314
		L58.703,251.081z M63.406,246.378l-0.314-0.314l1.568-1.568l0.314,0.314L63.406,246.378z M68.11,241.674l-0.314-0.314l1.568-1.568
		l0.314,0.314L68.11,241.674z M72.813,236.971l-0.314-0.314l1.568-1.568l0.314,0.314L72.813,236.971z M77.517,232.267l-0.314-0.314
		l1.568-1.568l0.314,0.314L77.517,232.267z M82.22,227.564l-0.314-0.314l1.568-1.568l0.314,0.314L82.22,227.564z M86.923,222.861
		l-0.314-0.314l1.568-1.568l0.314,0.314L86.923,222.861z M91.626,218.157l-0.314-0.314l1.568-1.568l0.314,0.314L91.626,218.157z
		 M96.33,213.454l-0.314-0.314l1.568-1.568l0.314,0.314L96.33,213.454z"/>
</g>
<g>
	<path fill="#F5D852" d="M151.535,158.249l-0.314-0.314l1.568-1.568l0.314,0.314L151.535,158.249z M156.238,153.546l-0.314-0.314
		l1.568-1.568l0.314,0.314L156.238,153.546z M160.941,148.842l-0.314-0.314l1.568-1.568l0.314,0.314L160.941,148.842z
		 M165.645,144.139l-0.314-0.314l1.568-1.568l0.314,0.314L165.645,144.139z M170.348,139.435l-0.314-0.314l1.568-1.568l0.314,0.314
		L170.348,139.435z M175.052,134.732l-0.314-0.314l1.568-1.568l0.314,0.314L175.052,134.732z M179.755,130.029l-0.314-0.314
		l1.568-1.568l0.314,0.314L179.755,130.029z M184.458,125.326l-0.314-0.314l1.568-1.568l0.314,0.314L184.458,125.326z
		 M189.162,120.622l-0.314-0.314l1.568-1.568l0.314,0.314L189.162,120.622z M193.865,115.919l-0.314-0.314l1.568-1.568l0.314,0.314
		L193.865,115.919z M198.569,111.215l-0.314-0.314l1.568-1.568l0.314,0.314L198.569,111.215z M203.272,106.512l-0.314-0.314
		l1.568-1.568l0.314,0.314L203.272,106.512z M207.975,101.809l-0.314-0.314l1.568-1.568l0.314,0.314L207.975,101.809z
		 M212.678,97.105l-0.314-0.314l1.568-1.568l0.314,0.314L212.678,97.105z M217.382,92.402l-0.314-0.314l1.568-1.568l0.314,0.314
		L217.382,92.402z"/>
</g>
<g>
	<g>
		
			<rect x="88.907" y="94.981" transform="matrix(0.7071 0.7071 -0.7071 0.7071 93.6589 -35.042)" fill="#F5D852" width="0.443" height="1.109"/>
	</g>
	<g>
		<path fill="#F5D852" d="M92.78,92.198l-0.314-0.314l1.551-1.551l0.314,0.314L92.78,92.198z M97.432,87.545l-0.314-0.314
			l1.551-1.551l0.314,0.314L97.432,87.545z M102.085,82.892l-0.314-0.314l1.551-1.551l0.314,0.314L102.085,82.892z M106.738,78.24
			l-0.314-0.314l1.551-1.551l0.314,0.314L106.738,78.24z M111.391,73.587l-0.314-0.314l1.551-1.551l0.314,0.314L111.391,73.587z
			 M116.044,68.934l-0.314-0.314l1.551-1.551l0.314,0.314L116.044,68.934z M120.696,64.281l-0.314-0.314l1.551-1.551l0.314,0.314
			L120.696,64.281z M125.349,59.629l-0.314-0.314l1.551-1.551l0.314,0.314L125.349,59.629z M130.002,54.976l-0.314-0.314
			l1.551-1.551l0.314,0.314L130.002,54.976z M134.655,50.323l-0.314-0.314l1.551-1.551l0.314,0.314L134.655,50.323z M139.307,45.67
			l-0.314-0.314l1.551-1.551l0.314,0.314L139.307,45.67z M143.96,41.017l-0.314-0.314l1.551-1.551l0.314,0.314L143.96,41.017z
			 M148.613,36.365l-0.314-0.314l1.551-1.551l0.314,0.314L148.613,36.365z M153.266,31.712l-0.314-0.314l1.551-1.551l0.314,0.314
			L153.266,31.712z"/>
	</g>
	<g>
		
			<rect x="157.932" y="25.956" transform="matrix(0.7071 0.7071 -0.7071 0.7071 65.0679 -104.0667)" fill="#F5D852" width="0.443" height="1.109"/>
	</g>
</g>
<g>
	
		<rect x="110.394" y="75.028" transform="matrix(0.7072 0.7071 -0.7071 0.7072 110.8596 -45.7126)" fill="#F5D852" width="0.443" height="71.897"/>
</g>
<g>
	
		<rect x="65.878" y="48.264" transform="matrix(0.7071 0.7071 -0.7071 0.7071 72.0783 -24.9031)" fill="#F5D852" width="0.443" height="52.581"/>
</g>
<g>
	<defs>
		<circle id="SVGID_13_" cx="151.221" cy="479.222" r="124.613"/>
	</defs>
	<clipPath id="SVGID_8_">
		<use xlink:href="#SVGID_13_"  overflow="visible"/>
	</clipPath>
	
		<rect x="135.313" y="300.839" transform="matrix(0.7071 -0.7071 0.7071 0.7071 -245.6299 268.3031)" clip-path="url(#SVGID_8_)" fill="#4279B2" width="131.486" height="259.629"/>
</g>
<g>
	<defs>
		<circle id="SVGID_15_" cx="151.221" cy="479.222" r="124.613"/>
	</defs>
	<clipPath id="SVGID_10_">
		<use xlink:href="#SVGID_15_"  overflow="visible"/>
	</clipPath>
	
		<rect x="135.313" y="300.839" transform="matrix(0.7071 -0.7071 0.7071 0.7071 -245.6299 268.3031)" clip-path="url(#SVGID_10_)" fill="#4279B2" width="131.486" height="259.629"/>
</g>
</svg>
