<?xml version="1.0" encoding="utf-8"?>
<!-- Generator: Adobe Illustrator 17.0.0, SVG Export Plug-In . SVG Version: 6.00 Build 0)  -->
<!DOCTYPE svg PUBLIC "-//W3C//DTD SVG 1.1//EN" "http://www.w3.org/Graphics/SVG/1.1/DTD/svg11.dtd">
<svg version="1.1" id="rounded_gradient_lines" xmlns="http://www.w3.org/2000/svg" xmlns:xlink="http://www.w3.org/1999/xlink"
	 x="0px" y="0px" width="285.993px" height="254.083px" viewBox="0 0 285.993 254.083" enable-background="new 0 0 285.993 254.083"
	 xml:space="preserve">
<g>
	<g>
		<g>
			<g>
				<path fill="#FFFFFF" d="M175.811,246.801c-1.26,0-2.467-0.526-3.329-1.459L52.795,115.635c-0.77-0.836-1.199-1.932-1.199-3.068
					V9.978c0-1.901,1.19-3.599,2.977-4.253c1.79-0.65,3.789-0.12,5.014,1.336l115.999,137.71l93.285-125.697
					c1.163-1.569,3.206-2.22,5.054-1.6c1.857,0.61,3.109,2.344,3.109,4.298v80.179c0,0.92-0.279,1.813-0.801,2.569L179.54,244.842
					c-0.779,1.132-2.034,1.848-3.405,1.945C176.024,246.797,175.918,246.801,175.811,246.801z M60.652,110.797L175.299,235.04
					l92.68-134.501v-65.07l-88.532,119.293c-0.822,1.115-2.114,1.787-3.493,1.831c-1.543-0.058-2.715-0.558-3.604-1.61
					L60.652,22.381V110.797z"/>
			</g>
			<g>
				<path fill="#FFFFFF" d="M56.124,117.095c-0.181,0-0.362-0.009-0.548-0.032l-43.629-5.306c-2.272-0.279-3.979-2.207-3.979-4.497
					V16.465c0-2.242,1.645-4.148,3.86-4.48l43.629-6.487c1.331-0.177,2.631,0.19,3.626,1.052c0.995,0.858,1.569,2.109,1.569,3.427
					v102.589c0,1.295-0.557,2.529-1.525,3.391C58.296,116.692,57.225,117.095,56.124,117.095z M17.023,103.249l34.573,4.205V15.226
					l-34.573,5.143V103.249z"/>
			</g>
			<g>
				<path fill="#FFFFFF" d="M175.811,246.801c-0.503,0-1.012-0.084-1.508-0.256l-50.115-17.687
					c-0.664-0.235-1.261-0.624-1.751-1.128L9.237,110.404c-1.331-1.38-1.649-3.449-0.796-5.164c0.858-1.707,2.698-2.689,4.603-2.477
					l43.629,5.307c1.066,0.132,2.052,0.637,2.781,1.428l119.687,129.706c1.411,1.526,1.597,3.821,0.451,5.558
					C178.739,246.063,177.302,246.801,175.811,246.801z M128.212,220.673l31.894,11.253L53.927,116.86l-29.316-3.564
					L128.212,220.673z"/>
			</g>
			<g>
				<path fill="#FFFFFF" d="M175.811,156.594c-1.335,0-2.6-0.589-3.462-1.61l-29.051-34.49c-1.379-1.64-1.424-4.019-0.106-5.708
					l13.133-16.803c0.274-0.35,0.601-0.658,0.968-0.916l112.613-79.003c1.813-1.278,4.289-1.052,5.845,0.549
					c1.548,1.591,1.715,4.072,0.388,5.854l-96.694,130.295c-0.822,1.115-2.114,1.787-3.493,1.831
					C175.905,156.594,175.856,156.594,175.811,156.594z M152.594,117.47l22.992,27.299L252.18,41.562l-89.133,62.532L152.594,117.47
					z"/>
			</g>
			<g>
				<path fill="#FFFFFF" d="M132.921,105.673c-1.335,0-2.6-0.588-3.462-1.609L102.19,71.692c-0.69-0.818-1.066-1.853-1.066-2.919
					V21.771c0-2.503,2.025-4.528,4.528-4.528h166.854c1.976,0,3.723,1.282,4.315,3.166c0.598,1.884-0.097,3.936-1.715,5.068
					l-112.613,79.003c-0.743,0.522-1.626,0.809-2.537,0.822l-26.972,0.371C132.961,105.673,132.944,105.673,132.921,105.673z
					 M110.18,67.12l24.823,29.466l23.431-0.322l99.732-69.965H110.18V67.12z"/>
			</g>
			<g>
				<path fill="#FFFFFF" d="M105.652,73.301c-1.309,0-2.587-0.571-3.462-1.609L52.662,12.896c-1.26-1.494-1.419-3.63-0.393-5.293
					c1.017-1.663,2.993-2.489,4.904-2.029L106.7,17.367c2.038,0.486,3.48,2.307,3.48,4.404v47.003c0,1.902-1.19,3.6-2.976,4.253
					C106.696,73.214,106.174,73.301,105.652,73.301z M68.434,17.565l32.69,38.805V25.348L68.434,17.565z"/>
			</g>
		</g>
	</g>
</g>
</svg>
