<?xml version="1.0" encoding="utf-8"?>
<!-- Generator: Adobe Illustrator 17.0.0, SVG Export Plug-In . SVG Version: 6.00 Build 0)  -->
<!DOCTYPE svg PUBLIC "-//W3C//DTD SVG 1.1//EN" "http://www.w3.org/Graphics/SVG/1.1/DTD/svg11.dtd">
<svg version="1.1" id="Layer_1" xmlns="http://www.w3.org/2000/svg" xmlns:xlink="http://www.w3.org/1999/xlink" x="0px" y="0px"
	 width="1920px" height="1111px" viewBox="0 0 1920 1111" enable-background="new 0 0 1920 1111" xml:space="preserve">
<linearGradient id="SVGID_1_" gradientUnits="userSpaceOnUse" x1="176.4632" y1="1234.2418" x2="1622.903" y2="-183.2703">
	<stop  offset="0.0049" style="stop-color:#00ABD4"/>
	<stop  offset="0.0994" style="stop-color:#1595C7"/>
	<stop  offset="0.2873" style="stop-color:#3A6FB1"/>
	<stop  offset="0.4741" style="stop-color:#5751A0"/>
	<stop  offset="0.6571" style="stop-color:#6B3B94"/>
	<stop  offset="0.8345" style="stop-color:#782E8C"/>
	<stop  offset="1" style="stop-color:#7C2A8A"/>
</linearGradient>
<polygon fill="url(#SVGID_1_)" points="1921,930.859 966.937,1102.211 1,1049.04 1,-0.068 1921,-0.068 "/>
<g>
	<g>
		<g>
			<g>
				<defs>
					<path id="SVGID_2_" d="M145.815-43.594L-70.425,172.279c-6.294,6.284-16.491,6.275-22.775-0.019l0,0
						c-6.284-6.294-6.275-16.491,0.019-22.775L123.06-66.388c6.294-6.284,16.491-6.275,22.775,0.019v0
						C152.118-60.074,152.11-49.877,145.815-43.594z"/>
				</defs>
				<clipPath id="SVGID_3_">
					<use xlink:href="#SVGID_2_"  overflow="visible"/>
				</clipPath>
				<polygon clip-path="url(#SVGID_3_)" fill="#F6A55F" points="-99.483,163.968 -88.412,178.563 -99.483,178.563 				"/>
				<polygon clip-path="url(#SVGID_3_)" fill="#F6A55F" points="-99.483,160.302 -85.631,178.563 -88.412,178.563 -99.483,163.968 
									"/>
				<polygon clip-path="url(#SVGID_3_)" fill="#F7A55F" points="-99.483,156.636 -82.85,178.563 -85.631,178.563 -99.483,160.302 
									"/>
				<polygon clip-path="url(#SVGID_3_)" fill="#F7A45F" points="-99.483,152.969 -80.069,178.563 -82.85,178.563 -99.483,156.636 
									"/>
				<polygon clip-path="url(#SVGID_3_)" fill="#F7A35F" points="-99.483,149.303 -77.288,178.563 -80.069,178.563 -99.483,152.969 
									"/>
				<polygon clip-path="url(#SVGID_3_)" fill="#F7A35F" points="-99.483,145.637 -74.507,178.563 -77.288,178.563 -99.483,149.303 
									"/>
				<polygon clip-path="url(#SVGID_3_)" fill="#F7A25E" points="-99.483,141.971 -71.91,178.319 -72.23,178.563 -74.507,178.563 
					-99.483,145.637 				"/>
				<polygon clip-path="url(#SVGID_3_)" fill="#F6A15F" points="-99.483,138.304 -70.148,176.976 -71.91,178.319 -99.483,141.971 
									"/>
				<polygon clip-path="url(#SVGID_3_)" fill="#F6A05F" points="-99.483,134.638 -68.385,175.633 -70.148,176.976 -99.483,138.304 
									"/>
				<polygon clip-path="url(#SVGID_3_)" fill="#F6A05F" points="-99.483,130.972 -66.623,174.29 -68.385,175.633 -99.483,134.638 
									"/>
				<polygon clip-path="url(#SVGID_3_)" fill="#F69F5F" points="-99.483,127.306 -64.861,172.948 -66.623,174.29 -99.483,130.972 
									"/>
				<polygon clip-path="url(#SVGID_3_)" fill="#F69E5E" points="-99.483,123.64 -63.098,171.605 -64.861,172.948 -99.483,127.306 
									"/>
				<polygon clip-path="url(#SVGID_3_)" fill="#F69E5F" points="-99.483,119.973 -61.336,170.262 -63.098,171.605 -99.483,123.64 
									"/>
				<polygon clip-path="url(#SVGID_3_)" fill="#F69D5F" points="-99.483,116.307 -59.573,168.919 -61.336,170.262 -99.483,119.973 
									"/>
				<polygon clip-path="url(#SVGID_3_)" fill="#F69C5F" points="-99.483,112.641 -57.811,167.576 -59.573,168.919 -99.483,116.307 
									"/>
				<polygon clip-path="url(#SVGID_3_)" fill="#F69B5E" points="-99.483,108.975 -56.048,166.233 -57.811,167.576 -99.483,112.641 
									"/>
				<polygon clip-path="url(#SVGID_3_)" fill="#F69B5E" points="-99.483,105.309 -54.286,164.89 -56.048,166.233 -99.483,108.975 
									"/>
				<polygon clip-path="url(#SVGID_3_)" fill="#F59A5E" points="-99.483,101.642 -52.523,163.547 -54.286,164.89 -99.483,105.309 
									"/>
				<polygon clip-path="url(#SVGID_3_)" fill="#F5995F" points="-99.483,98.271 -99.342,98.163 -50.761,162.204 -52.523,163.547 
					-99.483,101.642 				"/>
				<polygon clip-path="url(#SVGID_3_)" fill="#F5995E" points="-99.342,98.163 -97.579,96.82 -48.999,160.862 -50.761,162.204 				
					"/>
				<polygon clip-path="url(#SVGID_3_)" fill="#F5985E" points="-97.579,96.82 -95.817,95.477 -47.236,159.519 -48.999,160.862 				
					"/>
				<polygon clip-path="url(#SVGID_3_)" fill="#F5975E" points="-95.817,95.477 -94.055,94.134 -45.474,158.176 -47.236,159.519 
									"/>
				<polygon clip-path="url(#SVGID_3_)" fill="#F5965E" points="-94.055,94.134 -92.292,92.791 -43.711,156.833 -45.474,158.176 
									"/>
				<polygon clip-path="url(#SVGID_3_)" fill="#F5965E" points="-92.292,92.791 -90.53,91.448 -41.949,155.49 -43.711,156.833 				
					"/>
				<polygon clip-path="url(#SVGID_3_)" fill="#F5955E" points="-90.53,91.448 -88.767,90.105 -40.187,154.147 -41.949,155.49 				
					"/>
				<polygon clip-path="url(#SVGID_3_)" fill="#F5945E" points="-88.767,90.105 -87.005,88.763 -38.424,152.804 -40.187,154.147 
									"/>
				<polygon clip-path="url(#SVGID_3_)" fill="#F5945E" points="-87.005,88.763 -85.242,87.42 -36.662,151.461 -38.424,152.804 				
					"/>
				<polygon clip-path="url(#SVGID_3_)" fill="#F4935E" points="-85.242,87.42 -83.48,86.077 -34.899,150.118 -36.662,151.461 				
					"/>
				<polygon clip-path="url(#SVGID_3_)" fill="#F4925E" points="-83.48,86.077 -81.718,84.734 -33.137,148.776 -34.899,150.118 				
					"/>
				<polygon clip-path="url(#SVGID_3_)" fill="#F4925E" points="-81.718,84.734 -79.955,83.391 -31.374,147.433 -33.137,148.776 
									"/>
				<polygon clip-path="url(#SVGID_3_)" fill="#F4915E" points="-79.955,83.391 -78.193,82.048 -29.612,146.09 -31.374,147.433 				
					"/>
				<polygon clip-path="url(#SVGID_3_)" fill="#F4905E" points="-78.193,82.048 -76.43,80.705 -27.849,144.747 -29.612,146.09 				
					"/>
				<polygon clip-path="url(#SVGID_3_)" fill="#F4905D" points="-76.43,80.705 -74.668,79.363 -26.087,143.404 -27.849,144.747 				
					"/>
				<polygon clip-path="url(#SVGID_3_)" fill="#F48F5D" points="-74.668,79.363 -72.905,78.02 -24.325,142.061 -26.087,143.404 				
					"/>
				<polygon clip-path="url(#SVGID_3_)" fill="#F48E5E" points="-72.905,78.02 -71.143,76.677 -22.562,140.718 -24.325,142.061 				
					"/>
				<polygon clip-path="url(#SVGID_3_)" fill="#F48D5E" points="-71.143,76.677 -69.38,75.334 -20.8,139.376 -22.562,140.718 				
					"/>
				<polygon clip-path="url(#SVGID_3_)" fill="#F48D5D" points="-69.38,75.334 -67.618,73.991 -19.037,138.033 -20.8,139.376 				
					"/>
				<polygon clip-path="url(#SVGID_3_)" fill="#F48C5D" points="-67.618,73.991 -65.856,72.648 -17.275,136.69 -19.037,138.033 				
					"/>
				<polygon clip-path="url(#SVGID_3_)" fill="#F48B5D" points="-65.856,72.648 -64.093,71.305 -15.512,135.347 -17.275,136.69 				
					"/>
				<polygon clip-path="url(#SVGID_3_)" fill="#F58B5D" points="-64.093,71.305 -62.331,69.962 -13.75,134.004 -15.512,135.347 				
					"/>
				<polygon clip-path="url(#SVGID_3_)" fill="#F58A5D" points="-62.331,69.962 -60.568,68.619 -11.987,132.661 -13.75,134.004 				
					"/>
				<polygon clip-path="url(#SVGID_3_)" fill="#F58A5D" points="-60.568,68.619 -58.806,67.277 -10.225,131.318 -11.987,132.661 
									"/>
				<polygon clip-path="url(#SVGID_3_)" fill="#F5895D" points="-58.806,67.277 -57.044,65.934 -8.463,129.975 -10.225,131.318 				
					"/>
				<polygon clip-path="url(#SVGID_3_)" fill="#F5885D" points="-57.044,65.934 -55.281,64.591 -6.7,128.632 -8.463,129.975 				"/>
				<polygon clip-path="url(#SVGID_3_)" fill="#F4875D" points="-55.281,64.591 -53.519,63.248 -4.938,127.29 -6.7,128.632 				"/>
				<polygon clip-path="url(#SVGID_3_)" fill="#F4875D" points="-53.519,63.248 -51.756,61.905 -3.175,125.947 -4.938,127.29 				
					"/>
				<polygon clip-path="url(#SVGID_3_)" fill="#F4865D" points="-51.756,61.905 -49.994,60.562 -1.413,124.604 -3.175,125.947 				
					"/>
				<polygon clip-path="url(#SVGID_3_)" fill="#F4855D" points="-49.994,60.562 -48.231,59.219 0.349,123.261 -1.413,124.604 				
					"/>
				<polygon clip-path="url(#SVGID_3_)" fill="#F4855C" points="-48.231,59.219 -46.469,57.876 2.112,121.918 0.349,123.261 				"/>
				<polygon clip-path="url(#SVGID_3_)" fill="#F4845C" points="-46.469,57.876 -44.706,56.533 3.874,120.575 2.112,121.918 				"/>
				<polygon clip-path="url(#SVGID_3_)" fill="#F4835D" points="-44.706,56.533 -42.944,55.191 5.637,119.232 3.874,120.575 				"/>
				<polygon clip-path="url(#SVGID_3_)" fill="#F4825D" points="-42.944,55.191 -41.182,53.848 7.399,117.889 5.637,119.232 				"/>
				<polygon clip-path="url(#SVGID_3_)" fill="#F4825C" points="-41.182,53.848 -39.419,52.505 9.162,116.546 7.399,117.889 				"/>
				<polygon clip-path="url(#SVGID_3_)" fill="#F4815C" points="-39.419,52.505 -37.657,51.162 10.924,115.204 9.162,116.546 				
					"/>
				<polygon clip-path="url(#SVGID_3_)" fill="#F4805C" points="-37.657,51.162 -35.894,49.819 12.687,113.861 10.924,115.204 				
					"/>
				<polygon clip-path="url(#SVGID_3_)" fill="#F3805C" points="-35.894,49.819 -34.132,48.476 14.449,112.518 12.687,113.861 				
					"/>
				<polygon clip-path="url(#SVGID_3_)" fill="#F3805C" points="-34.132,48.476 -32.369,47.133 16.211,111.175 14.449,112.518 				
					"/>
				<polygon clip-path="url(#SVGID_3_)" fill="#F37F5C" points="-32.369,47.133 -30.607,45.79 17.974,109.832 16.211,111.175 				
					"/>
				<polygon clip-path="url(#SVGID_3_)" fill="#F37E5C" points="-30.607,45.79 -28.844,44.447 19.736,108.489 17.974,109.832 				
					"/>
				<polygon clip-path="url(#SVGID_3_)" fill="#F37E5C" points="-28.844,44.447 -27.082,43.105 21.499,107.146 19.736,108.489 				
					"/>
				<polygon clip-path="url(#SVGID_3_)" fill="#F37D5C" points="-27.082,43.105 -25.32,41.762 23.261,105.803 21.499,107.146 				
					"/>
				<polygon clip-path="url(#SVGID_3_)" fill="#F37C5C" points="-25.32,41.762 -23.557,40.419 25.024,104.46 23.261,105.803 				"/>
				<polygon clip-path="url(#SVGID_3_)" fill="#F37C5C" points="-23.557,40.419 -21.795,39.076 26.786,103.118 25.024,104.46 				
					"/>
				<polygon clip-path="url(#SVGID_3_)" fill="#F37B5C" points="-21.795,39.076 -20.032,37.733 28.549,101.775 26.786,103.118 				
					"/>
				<polygon clip-path="url(#SVGID_3_)" fill="#F37A5B" points="-20.032,37.733 -18.27,36.39 30.311,100.432 28.549,101.775 				"/>
				<polygon clip-path="url(#SVGID_3_)" fill="#F3795B" points="-18.27,36.39 -16.508,35.047 32.073,99.089 30.311,100.432 				"/>
				<polygon clip-path="url(#SVGID_3_)" fill="#F3795B" points="-16.508,35.047 -14.745,33.704 33.836,97.746 32.073,99.089 				"/>
				<polygon clip-path="url(#SVGID_3_)" fill="#F3785B" points="-14.745,33.704 -12.983,32.361 35.598,96.403 33.836,97.746 				"/>
				<polygon clip-path="url(#SVGID_3_)" fill="#F2775B" points="-12.983,32.361 -11.22,31.019 37.361,95.06 35.598,96.403 				"/>
				<polygon clip-path="url(#SVGID_3_)" fill="#F2765B" points="-11.22,31.019 -9.458,29.676 39.123,93.717 37.361,95.06 				"/>
				<polygon clip-path="url(#SVGID_3_)" fill="#F2765B" points="-9.458,29.676 -7.695,28.333 40.885,92.374 39.123,93.717 				"/>
				<polygon clip-path="url(#SVGID_3_)" fill="#F2755B" points="-7.695,28.333 -5.933,26.99 42.648,91.032 40.885,92.374 				"/>
				<polygon clip-path="url(#SVGID_3_)" fill="#F2745B" points="-5.933,26.99 -4.17,25.647 44.41,89.689 42.648,91.032 				"/>
				<polygon clip-path="url(#SVGID_3_)" fill="#F2735B" points="-4.17,25.647 -2.408,24.304 46.173,88.346 44.41,89.689 				"/>
				<polygon clip-path="url(#SVGID_3_)" fill="#F2735B" points="-2.408,24.304 -0.646,22.961 47.935,87.003 46.173,88.346 				"/>
				<polygon clip-path="url(#SVGID_3_)" fill="#F2725A" points="-0.646,22.961 1.117,21.618 49.698,85.66 47.935,87.003 				"/>
				<polygon clip-path="url(#SVGID_3_)" fill="#F2715A" points="1.117,21.618 2.879,20.275 51.46,84.317 49.698,85.66 				"/>
				<polygon clip-path="url(#SVGID_3_)" fill="#F26F5A" points="2.879,20.275 4.642,18.933 53.223,82.974 51.46,84.317 				"/>
				<polygon clip-path="url(#SVGID_3_)" fill="#F26F5A" points="4.642,18.933 6.077,17.839 54.658,81.881 53.223,82.974 				"/>
				<polygon clip-path="url(#SVGID_3_)" fill="#F26F59" points="6.077,17.839 7.512,16.745 56.093,80.787 54.658,81.881 				"/>
				<polygon clip-path="url(#SVGID_3_)" fill="#F26F59" points="7.512,16.745 8.947,15.652 57.528,79.694 56.093,80.787 				"/>
				<polygon clip-path="url(#SVGID_3_)" fill="#F26F58" points="8.947,15.652 10.382,14.558 58.963,78.6 57.528,79.694 				"/>
				<polygon clip-path="url(#SVGID_3_)" fill="#F26E58" points="10.382,14.558 11.818,13.465 60.398,77.507 58.963,78.6 				"/>
				<polygon clip-path="url(#SVGID_3_)" fill="#F26E57" points="11.818,13.465 13.253,12.371 61.834,76.413 60.398,77.507 				"/>
				<polygon clip-path="url(#SVGID_3_)" fill="#F26E56" points="13.253,12.371 14.688,11.278 63.269,75.32 61.834,76.413 				"/>
				<polygon clip-path="url(#SVGID_3_)" fill="#F06D56" points="14.688,11.278 16.123,10.184 64.704,74.226 63.269,75.32 				"/>
				<polygon clip-path="url(#SVGID_3_)" fill="#F06D55" points="16.123,10.184 17.558,9.091 66.139,73.132 64.704,74.226 				"/>
				<polygon clip-path="url(#SVGID_3_)" fill="#F06D55" points="17.558,9.091 18.993,7.997 67.574,72.039 66.139,73.132 				"/>
				<polygon clip-path="url(#SVGID_3_)" fill="#F06D54" points="18.993,7.997 20.429,6.904 69.009,70.945 67.574,72.039 				"/>
				<polygon clip-path="url(#SVGID_3_)" fill="#F06D53" points="20.429,6.904 21.864,5.81 70.445,69.852 69.009,70.945 				"/>
				<polygon clip-path="url(#SVGID_3_)" fill="#F06D53" points="21.864,5.81 23.299,4.717 71.88,68.758 70.445,69.852 				"/>
				<polygon clip-path="url(#SVGID_3_)" fill="#EF6C52" points="23.299,4.717 24.734,3.623 73.315,67.665 71.88,68.758 				"/>
				<polygon clip-path="url(#SVGID_3_)" fill="#EF6C52" points="24.734,3.623 26.169,2.53 74.75,66.571 73.315,67.665 				"/>
				<polygon clip-path="url(#SVGID_3_)" fill="#EF6C51" points="26.169,2.53 27.604,1.436 76.185,65.478 74.75,66.571 				"/>
				<polygon clip-path="url(#SVGID_3_)" fill="#EF6C51" points="27.604,1.436 29.04,0.342 77.62,64.384 76.185,65.478 				"/>
				<polygon clip-path="url(#SVGID_3_)" fill="#EF6B50" points="29.04,0.342 30.475,-0.751 79.056,63.291 77.62,64.384 				"/>
				<polygon clip-path="url(#SVGID_3_)" fill="#EF6B4F" points="30.475,-0.751 31.91,-1.845 80.491,62.197 79.056,63.291 				"/>
				<polygon clip-path="url(#SVGID_3_)" fill="#EF6B4F" points="31.91,-1.845 33.345,-2.938 81.926,61.104 80.491,62.197 				"/>
				<polygon clip-path="url(#SVGID_3_)" fill="#EE6A4E" points="33.345,-2.938 34.78,-4.032 83.361,60.01 81.926,61.104 				"/>
				<polygon clip-path="url(#SVGID_3_)" fill="#EE6A4D" points="34.78,-4.032 36.216,-5.125 84.796,58.916 83.361,60.01 				"/>
				<polygon clip-path="url(#SVGID_3_)" fill="#EE6A4D" points="36.216,-5.125 37.651,-6.219 86.232,57.823 84.796,58.916 				"/>
				<polygon clip-path="url(#SVGID_3_)" fill="#EE6A4C" points="37.651,-6.219 39.086,-7.312 87.667,56.729 86.232,57.823 				"/>
				<polygon clip-path="url(#SVGID_3_)" fill="#EE694B" points="39.086,-7.312 40.521,-8.406 89.102,55.636 87.667,56.729 				"/>
				<polygon clip-path="url(#SVGID_3_)" fill="#EE694B" points="40.521,-8.406 41.956,-9.499 90.537,54.542 89.102,55.636 				"/>
				<polygon clip-path="url(#SVGID_3_)" fill="#ED694A" points="41.956,-9.499 43.391,-10.593 91.972,53.449 90.537,54.542 				"/>
				<polygon clip-path="url(#SVGID_3_)" fill="#EC684A" points="43.391,-10.593 44.827,-11.686 93.407,52.355 91.972,53.449 				"/>
				<polygon clip-path="url(#SVGID_3_)" fill="#EC6849" points="44.827,-11.686 46.262,-12.78 94.843,51.262 93.407,52.355 				"/>
				<polygon clip-path="url(#SVGID_3_)" fill="#EC6848" points="46.262,-12.78 47.697,-13.873 96.278,50.168 94.843,51.262 				"/>
				<polygon clip-path="url(#SVGID_3_)" fill="#ED6848" points="47.697,-13.873 49.132,-14.967 97.713,49.075 96.278,50.168 				"/>
				<polygon clip-path="url(#SVGID_3_)" fill="#EC6747" points="49.132,-14.967 50.567,-16.06 99.148,47.981 97.713,49.075 				"/>
				<polygon clip-path="url(#SVGID_3_)" fill="#EC6746" points="50.567,-16.06 52.003,-17.154 100.583,46.888 99.148,47.981 				"/>
				<polygon clip-path="url(#SVGID_3_)" fill="#EC6746" points="52.003,-17.154 53.438,-18.248 102.019,45.794 100.583,46.888 				
					"/>
				<polygon clip-path="url(#SVGID_3_)" fill="#EB6645" points="53.438,-18.248 54.873,-19.341 103.454,44.701 102.019,45.794 				
					"/>
				<polygon clip-path="url(#SVGID_3_)" fill="#EB6645" points="54.873,-19.341 56.308,-20.435 104.889,43.607 103.454,44.701 				
					"/>
				<polygon clip-path="url(#SVGID_3_)" fill="#EB6644" points="56.308,-20.435 57.743,-21.528 106.324,42.514 104.889,43.607 				
					"/>
				<polygon clip-path="url(#SVGID_3_)" fill="#EB6543" points="57.743,-21.528 59.178,-22.622 107.759,41.42 106.324,42.514 				
					"/>
				<polygon clip-path="url(#SVGID_3_)" fill="#EB6543" points="59.178,-22.622 60.614,-23.715 109.194,40.326 107.759,41.42 				
					"/>
				<polygon clip-path="url(#SVGID_3_)" fill="#EB6542" points="60.614,-23.715 62.049,-24.809 110.63,39.233 109.194,40.326 				
					"/>
				<polygon clip-path="url(#SVGID_3_)" fill="#EA6441" points="62.049,-24.809 63.484,-25.902 112.065,38.139 110.63,39.233 				
					"/>
				<polygon clip-path="url(#SVGID_3_)" fill="#EA6441" points="63.484,-25.902 64.919,-26.996 113.5,37.046 112.065,38.139 				"/>
				<polygon clip-path="url(#SVGID_3_)" fill="#EA6440" points="64.919,-26.996 66.354,-28.089 114.935,35.952 113.5,37.046 				"/>
				<polygon clip-path="url(#SVGID_3_)" fill="#EA643F" points="66.354,-28.089 67.79,-29.183 116.37,34.859 114.935,35.952 				"/>
				<polygon clip-path="url(#SVGID_3_)" fill="#EA633F" points="67.79,-29.183 69.225,-30.276 117.806,33.765 116.37,34.859 				"/>
				<polygon clip-path="url(#SVGID_3_)" fill="#EA633E" points="69.225,-30.276 70.66,-31.37 119.241,32.672 117.806,33.765 				"/>
				<polygon clip-path="url(#SVGID_3_)" fill="#EA633E" points="70.66,-31.37 72.095,-32.464 120.676,31.578 119.241,32.672 				"/>
				<polygon clip-path="url(#SVGID_3_)" fill="#EA623D" points="72.095,-32.464 73.53,-33.557 122.111,30.485 120.676,31.578 				
					"/>
				<polygon clip-path="url(#SVGID_3_)" fill="#EA623C" points="73.53,-33.557 74.965,-34.651 123.546,29.391 122.111,30.485 				
					"/>
				<polygon clip-path="url(#SVGID_3_)" fill="#EA623C" points="74.965,-34.651 76.401,-35.744 124.981,28.298 123.546,29.391 				
					"/>
				<polygon clip-path="url(#SVGID_3_)" fill="#EA623B" points="76.401,-35.744 77.836,-36.838 126.417,27.204 124.981,28.298 				
					"/>
				<polygon clip-path="url(#SVGID_3_)" fill="#EA623A" points="77.836,-36.838 79.271,-37.931 127.852,26.111 126.417,27.204 				
					"/>
				<polygon clip-path="url(#SVGID_3_)" fill="#E9623A" points="79.271,-37.931 80.706,-39.025 129.287,25.017 127.852,26.111 				
					"/>
				<polygon clip-path="url(#SVGID_3_)" fill="#E96239" points="80.706,-39.025 82.141,-40.118 130.722,23.923 129.287,25.017 				
					"/>
				<polygon clip-path="url(#SVGID_3_)" fill="#E96139" points="82.141,-40.118 83.576,-41.212 132.157,22.83 130.722,23.923 				
					"/>
				<polygon clip-path="url(#SVGID_3_)" fill="#E96138" points="83.576,-41.212 85.012,-42.305 133.592,21.736 132.157,22.83 				
					"/>
				<polygon clip-path="url(#SVGID_3_)" fill="#E96137" points="85.012,-42.305 86.447,-43.399 135.028,20.643 133.592,21.736 				
					"/>
				<polygon clip-path="url(#SVGID_3_)" fill="#E96037" points="86.447,-43.399 87.882,-44.492 136.463,19.549 135.028,20.643 				
					"/>
				<polygon clip-path="url(#SVGID_3_)" fill="#E86036" points="87.882,-44.492 89.317,-45.586 137.898,18.456 136.463,19.549 				
					"/>
				<polygon clip-path="url(#SVGID_3_)" fill="#E86036" points="89.317,-45.586 90.752,-46.679 139.333,17.362 137.898,18.456 				
					"/>
				<polygon clip-path="url(#SVGID_3_)" fill="#E85F35" points="90.752,-46.679 92.187,-47.773 140.768,16.269 139.333,17.362 				
					"/>
				<polygon clip-path="url(#SVGID_3_)" fill="#E85F34" points="92.187,-47.773 93.623,-48.866 142.203,15.175 140.768,16.269 				
					"/>
				<polygon clip-path="url(#SVGID_3_)" fill="#E85F34" points="93.623,-48.866 95.058,-49.96 143.639,14.082 142.203,15.175 				
					"/>
				<polygon clip-path="url(#SVGID_3_)" fill="#E85F33" points="95.058,-49.96 96.493,-51.054 145.074,12.988 143.639,14.082 				
					"/>
				<polygon clip-path="url(#SVGID_3_)" fill="#E85E33" points="96.493,-51.054 97.928,-52.147 146.509,11.895 145.074,12.988 				
					"/>
				<polygon clip-path="url(#SVGID_3_)" fill="#E75E32" points="97.928,-52.147 99.363,-53.241 147.944,10.801 146.509,11.895 				
					"/>
				<polygon clip-path="url(#SVGID_3_)" fill="#E75E32" points="99.363,-53.241 100.798,-54.334 149.379,9.708 147.944,10.801 				
					"/>
				<polygon clip-path="url(#SVGID_3_)" fill="#E75D31" points="100.798,-54.334 102.234,-55.428 150.815,8.614 149.379,9.708 				
					"/>
				<polygon clip-path="url(#SVGID_3_)" fill="#E75D31" points="102.234,-55.428 103.669,-56.521 152.118,7.347 152.118,7.621 
					150.815,8.614 				"/>
				<polygon clip-path="url(#SVGID_3_)" fill="#E75D30" points="103.669,-56.521 105.104,-57.615 152.118,4.362 152.118,7.347 				
					"/>
				<polygon clip-path="url(#SVGID_3_)" fill="#E75D2F" points="105.104,-57.615 106.539,-58.708 152.118,1.376 152.118,4.362 				
					"/>
				<polygon clip-path="url(#SVGID_3_)" fill="#E65C2F" points="106.539,-58.708 107.974,-59.802 152.118,-1.609 152.118,1.376 				
					"/>
				<polygon clip-path="url(#SVGID_3_)" fill="#E65C2E" points="107.974,-59.802 109.41,-60.895 152.118,-4.594 152.118,-1.609 				
					"/>
				<polygon clip-path="url(#SVGID_3_)" fill="#E65C2E" points="109.41,-60.895 110.845,-61.989 152.118,-7.58 152.118,-4.594 				
					"/>
				<polygon clip-path="url(#SVGID_3_)" fill="#E65B2D" points="110.845,-61.989 112.28,-63.082 152.118,-10.565 152.118,-7.58 				
					"/>
				<polygon clip-path="url(#SVGID_3_)" fill="#E65B2D" points="112.28,-63.082 113.715,-64.176 152.118,-13.551 152.118,-10.565 
									"/>
				<polygon clip-path="url(#SVGID_3_)" fill="#E65B2C" points="113.715,-64.176 115.15,-65.269 152.118,-16.536 152.118,-13.551 
									"/>
				<polygon clip-path="url(#SVGID_3_)" fill="#E65A2B" points="115.15,-65.269 116.585,-66.363 152.118,-19.522 152.118,-16.536 
									"/>
				<polygon clip-path="url(#SVGID_3_)" fill="#E55A2B" points="116.585,-66.363 118.021,-67.457 152.118,-22.507 152.118,-19.522 
									"/>
				<polygon clip-path="url(#SVGID_3_)" fill="#E55A2A" points="118.021,-67.457 119.456,-68.55 152.118,-25.493 152.118,-22.507 
									"/>
				<polygon clip-path="url(#SVGID_3_)" fill="#E55A2A" points="119.456,-68.55 120.891,-69.644 152.118,-28.478 152.118,-25.493 
									"/>
				<polygon clip-path="url(#SVGID_3_)" fill="#E55A29" points="120.891,-69.644 122.326,-70.737 152.118,-31.464 152.118,-28.478 
									"/>
				<polygon clip-path="url(#SVGID_3_)" fill="#E55A29" points="122.326,-70.737 123.761,-71.831 152.118,-34.449 152.118,-31.464 
									"/>
				<polygon clip-path="url(#SVGID_3_)" fill="#E55A28" points="123.761,-71.831 124.865,-72.672 125.388,-72.672 152.118,-37.435 
					152.118,-34.449 				"/>
				<polygon clip-path="url(#SVGID_3_)" fill="#E55928" points="127.653,-72.672 152.118,-40.42 152.118,-37.435 125.388,-72.672 
									"/>
				<polygon clip-path="url(#SVGID_3_)" fill="#E55928" points="129.918,-72.672 152.118,-43.405 152.118,-40.42 127.653,-72.672 
									"/>
				<polygon clip-path="url(#SVGID_3_)" fill="#E55927" points="132.182,-72.672 152.118,-46.391 152.118,-43.405 129.918,-72.672 
									"/>
				<polygon clip-path="url(#SVGID_3_)" fill="#E55827" points="134.447,-72.672 152.118,-49.376 152.118,-46.391 132.182,-72.672 
									"/>
				<polygon clip-path="url(#SVGID_3_)" fill="#E55826" points="136.712,-72.672 152.118,-52.362 152.118,-49.376 134.447,-72.672 
									"/>
				<polygon clip-path="url(#SVGID_3_)" fill="#E55826" points="138.976,-72.672 152.118,-55.347 152.118,-52.362 136.712,-72.672 
									"/>
				<polygon clip-path="url(#SVGID_3_)" fill="#E45726" points="141.241,-72.672 152.118,-58.333 152.118,-55.347 138.976,-72.672 
									"/>
				<polygon clip-path="url(#SVGID_3_)" fill="#E45726" points="152.118,-58.333 141.241,-72.672 152.118,-72.672 				"/>
			</g>
		</g>
		<g>
			<g>
				<defs>
					<path id="SVGID_4_" d="M282.191,71.22L60.223,292.811c-6.519,6.508-17.079,6.499-23.586-0.02l0,0
						c-6.508-6.519-6.499-17.079,0.02-23.587L258.624,47.614c6.519-6.508,17.079-6.499,23.587,0.02l0,0
						C288.719,54.153,288.71,64.713,282.191,71.22z"/>
				</defs>
				<clipPath id="SVGID_5_">
					<use xlink:href="#SVGID_4_"  overflow="visible"/>
				</clipPath>
				<polygon clip-path="url(#SVGID_5_)" fill="#0094C1" points="30.128,284.484 41.407,299.319 30.128,299.319 				"/>
				<polygon clip-path="url(#SVGID_5_)" fill="#0094C1" points="30.128,280.966 44.082,299.319 41.407,299.319 30.128,284.484 				
					"/>
				<polygon clip-path="url(#SVGID_5_)" fill="#0294C0" points="30.128,277.448 46.756,299.319 44.082,299.319 30.128,280.966 				
					"/>
				<polygon clip-path="url(#SVGID_5_)" fill="#0B94C0" points="30.128,273.93 49.431,299.319 46.756,299.319 30.128,277.448 				
					"/>
				<polygon clip-path="url(#SVGID_5_)" fill="#0A95C0" points="30.128,270.412 52.105,299.319 49.431,299.319 30.128,273.93 				
					"/>
				<polygon clip-path="url(#SVGID_5_)" fill="#1195BF" points="30.128,266.895 54.78,299.319 52.105,299.319 30.128,270.412 				
					"/>
				<polygon clip-path="url(#SVGID_5_)" fill="#1095BF" points="30.128,263.377 57.454,299.319 54.78,299.319 30.128,266.895 				
					"/>
				<polygon clip-path="url(#SVGID_5_)" fill="#1695BE" points="30.128,259.859 59.422,298.389 58.199,299.319 57.454,299.319 
					30.128,263.377 				"/>
				<polygon clip-path="url(#SVGID_5_)" fill="#1596BE" points="30.128,256.341 61.117,297.101 59.422,298.389 30.128,259.859 				
					"/>
				<polygon clip-path="url(#SVGID_5_)" fill="#1A96BE" points="30.128,252.823 62.812,295.812 61.117,297.101 30.128,256.341 				
					"/>
				<polygon clip-path="url(#SVGID_5_)" fill="#1B96BD" points="30.128,249.306 64.507,294.524 62.812,295.812 30.128,252.823 				
					"/>
				<polygon clip-path="url(#SVGID_5_)" fill="#1E97BD" points="30.128,245.788 66.201,293.235 64.507,294.524 30.128,249.306 				
					"/>
				<polygon clip-path="url(#SVGID_5_)" fill="#1E97BC" points="30.128,242.27 67.896,291.947 66.201,293.235 30.128,245.788 				
					"/>
				<polygon clip-path="url(#SVGID_5_)" fill="#2197BC" points="30.128,238.752 69.591,290.658 67.896,291.947 30.128,242.27 				
					"/>
				<polygon clip-path="url(#SVGID_5_)" fill="#2197BC" points="30.128,235.234 71.286,289.37 69.591,290.658 30.128,238.752 				
					"/>
				<polygon clip-path="url(#SVGID_5_)" fill="#2498BB" points="30.128,231.717 72.981,288.081 71.286,289.37 30.128,235.234 				
					"/>
				<polygon clip-path="url(#SVGID_5_)" fill="#2798BB" points="30.128,228.199 74.676,286.792 72.981,288.081 30.128,231.717 				
					"/>
				<polygon clip-path="url(#SVGID_5_)" fill="#2798BA" points="30.128,224.681 76.37,285.504 74.676,286.792 30.128,228.199 				
					"/>
				<polygon clip-path="url(#SVGID_5_)" fill="#2A99BA" points="30.128,221.163 78.065,284.215 76.37,285.504 30.128,224.681 				
					"/>
				<polygon clip-path="url(#SVGID_5_)" fill="#2A99BA" points="30.128,217.645 79.76,282.927 78.065,284.215 30.128,221.163 				
					"/>
				<polygon clip-path="url(#SVGID_5_)" fill="#2C9AB9" points="30.128,216.364 31.206,215.545 81.455,281.638 79.76,282.927 
					30.128,217.645 				"/>
				
					<rect x="56.113" y="206.434" transform="matrix(-0.7961 0.6052 -0.6052 -0.7961 252.7574 410.7222)" clip-path="url(#SVGID_5_)" fill="#2C9AB9" width="2.129" height="83.026"/>
				
					<rect x="57.808" y="205.145" transform="matrix(-0.796 0.6053 -0.6053 -0.796 255.0281 407.3742)" clip-path="url(#SVGID_5_)" fill="#2E9AB9" width="2.129" height="83.026"/>
				
					<rect x="59.503" y="203.857" transform="matrix(-0.7961 0.6052 -0.6052 -0.7961 257.2776 404.0519)" clip-path="url(#SVGID_5_)" fill="#2F9AB8" width="2.129" height="83.026"/>
				
					<rect x="61.198" y="202.568" transform="matrix(-0.7961 0.6052 -0.6052 -0.7961 259.55 400.7019)" clip-path="url(#SVGID_5_)" fill="#319AB8" width="2.129" height="83.026"/>
				
					<rect x="62.893" y="201.28" transform="matrix(-0.796 0.6053 -0.6053 -0.796 261.8203 397.3542)" clip-path="url(#SVGID_5_)" fill="#319BB7" width="2.129" height="83.026"/>
				
					<rect x="64.587" y="199.991" transform="matrix(-0.7961 0.6052 -0.6052 -0.7961 264.0783 394.0218)" clip-path="url(#SVGID_5_)" fill="#349BB6" width="2.129" height="83.026"/>
				
					<rect x="66.282" y="198.703" transform="matrix(-0.7961 0.6052 -0.6052 -0.7961 266.3349 390.6918)" clip-path="url(#SVGID_5_)" fill="#339BB6" width="2.129" height="83.026"/>
				
					<rect x="67.977" y="197.414" transform="matrix(-0.796 0.6053 -0.6053 -0.796 268.6125 387.3341)" clip-path="url(#SVGID_5_)" fill="#369CB6" width="2.129" height="83.026"/>
				
					<rect x="69.672" y="196.126" transform="matrix(-0.7961 0.6052 -0.6052 -0.7961 270.8709 384.0017)" clip-path="url(#SVGID_5_)" fill="#379CB5" width="2.129" height="83.026"/>
				
					<rect x="71.367" y="194.837" transform="matrix(-0.7961 0.6052 -0.6052 -0.7961 273.1278 380.6717)" clip-path="url(#SVGID_5_)" fill="#389CB5" width="2.129" height="83.026"/>
				
					<rect x="73.062" y="193.549" transform="matrix(-0.796 0.6053 -0.6053 -0.796 275.4048 377.3139)" clip-path="url(#SVGID_5_)" fill="#3A9DB4" width="2.129" height="83.026"/>
				
					<rect x="74.757" y="192.26" transform="matrix(-0.7961 0.6052 -0.6052 -0.7961 277.6635 373.9816)" clip-path="url(#SVGID_5_)" fill="#3A9DB4" width="2.129" height="83.026"/>
				
					<rect x="76.451" y="190.971" transform="matrix(-0.7961 0.6052 -0.6052 -0.7961 279.9207 370.6517)" clip-path="url(#SVGID_5_)" fill="#3C9DB3" width="2.129" height="83.026"/>
				
					<rect x="78.146" y="189.683" transform="matrix(-0.796 0.6053 -0.6053 -0.796 282.1971 367.2936)" clip-path="url(#SVGID_5_)" fill="#3B9EB3" width="2.129" height="83.026"/>
				
					<rect x="79.841" y="188.394" transform="matrix(-0.7961 0.6052 -0.6052 -0.7961 284.4561 363.9614)" clip-path="url(#SVGID_5_)" fill="#3E9EB3" width="2.129" height="83.026"/>
				
					<rect x="81.536" y="187.106" transform="matrix(-0.7961 0.6052 -0.6052 -0.7961 286.7203 360.6213)" clip-path="url(#SVGID_5_)" fill="#3D9EB2" width="2.129" height="83.026"/>
				
					<rect x="83.231" y="185.817" transform="matrix(-0.7961 0.6052 -0.6052 -0.7961 288.9829 357.2836)" clip-path="url(#SVGID_5_)" fill="#3F9EB2" width="2.129" height="83.026"/>
				
					<rect x="84.926" y="184.529" transform="matrix(-0.7961 0.6052 -0.6052 -0.7961 291.2487 353.9413)" clip-path="url(#SVGID_5_)" fill="#3F9FB2" width="2.129" height="83.026"/>
				
					<rect x="86.621" y="183.24" transform="matrix(-0.7961 0.6052 -0.6052 -0.7961 293.5129 350.6011)" clip-path="url(#SVGID_5_)" fill="#419FB1" width="2.129" height="83.026"/>
				
					<rect x="88.315" y="181.952" transform="matrix(-0.7961 0.6052 -0.6052 -0.7961 295.7755 347.2635)" clip-path="url(#SVGID_5_)" fill="#419FB0" width="2.129" height="83.026"/>
				
					<rect x="90.01" y="180.663" transform="matrix(-0.7961 0.6052 -0.6052 -0.7961 298.0412 343.921)" clip-path="url(#SVGID_5_)" fill="#43A0B0" width="2.129" height="83.026"/>
				
					<rect x="91.705" y="179.375" transform="matrix(-0.7961 0.6052 -0.6052 -0.7961 300.3055 340.581)" clip-path="url(#SVGID_5_)" fill="#43A0B0" width="2.129" height="83.026"/>
				
					<rect x="93.4" y="178.086" transform="matrix(-0.796 0.6053 -0.6053 -0.796 302.5742 337.2328)" clip-path="url(#SVGID_5_)" fill="#45A0AF" width="2.129" height="83.026"/>
				
					<rect x="95.095" y="176.797" transform="matrix(-0.7961 0.6052 -0.6052 -0.7961 304.8279 333.9114)" clip-path="url(#SVGID_5_)" fill="#46A1AF" width="2.129" height="83.026"/>
				
					<rect x="96.79" y="175.509" transform="matrix(-0.7961 0.6052 -0.6052 -0.7961 307.0981 330.5609)" clip-path="url(#SVGID_5_)" fill="#46A1AF" width="2.129" height="83.026"/>
				
					<rect x="98.485" y="174.22" transform="matrix(-0.796 0.6053 -0.6053 -0.796 309.3665 327.2126)" clip-path="url(#SVGID_5_)" fill="#48A1AE" width="2.129" height="83.026"/>
				
					<rect x="100.179" y="172.932" transform="matrix(-0.7961 0.6052 -0.6052 -0.7961 311.6208 323.8913)" clip-path="url(#SVGID_5_)" fill="#48A1AD" width="2.129" height="83.026"/>
				
					<rect x="101.874" y="171.643" transform="matrix(-0.796 0.6053 -0.6053 -0.796 313.8946 320.5327)" clip-path="url(#SVGID_5_)" fill="#49A2AD" width="2.129" height="83.026"/>
				
					<rect x="103.569" y="170.355" transform="matrix(-0.7961 0.6052 -0.6052 -0.7961 316.1547 317.2007)" clip-path="url(#SVGID_5_)" fill="#4AA2AD" width="2.129" height="83.026"/>
				
					<rect x="105.264" y="169.066" transform="matrix(-0.7961 0.6052 -0.6052 -0.7961 318.4189 313.8605)" clip-path="url(#SVGID_5_)" fill="#4BA3AC" width="2.129" height="83.026"/>
				
					<rect x="106.959" y="167.778" transform="matrix(-0.7961 0.6052 -0.6052 -0.7961 320.682 310.5227)" clip-path="url(#SVGID_5_)" fill="#4BA3AC" width="2.129" height="83.026"/>
				
					<rect x="108.653" y="166.489" transform="matrix(-0.7961 0.6052 -0.6052 -0.7961 322.9473 307.1805)" clip-path="url(#SVGID_5_)" fill="#4CA3AB" width="2.129" height="83.026"/>
				
					<rect x="110.348" y="165.201" transform="matrix(-0.7961 0.6052 -0.6052 -0.7961 325.2115 303.8404)" clip-path="url(#SVGID_5_)" fill="#4DA3AB" width="2.129" height="83.026"/>
				
					<rect x="112.043" y="163.912" transform="matrix(-0.7961 0.6052 -0.6052 -0.7961 327.4745 300.5029)" clip-path="url(#SVGID_5_)" fill="#4EA4AA" width="2.129" height="83.026"/>
				
					<rect x="113.738" y="162.624" transform="matrix(-0.7961 0.6052 -0.6052 -0.7961 329.7398 297.1603)" clip-path="url(#SVGID_5_)" fill="#4EA4A9" width="2.129" height="83.026"/>
				
					<rect x="115.433" y="161.335" transform="matrix(-0.7961 0.6052 -0.6052 -0.7961 332.0041 293.8202)" clip-path="url(#SVGID_5_)" fill="#50A4A9" width="2.129" height="83.026"/>
				
					<rect x="117.128" y="160.046" transform="matrix(-0.7961 0.6052 -0.6052 -0.7961 334.2672 290.4828)" clip-path="url(#SVGID_5_)" fill="#50A5A8" width="2.129" height="83.026"/>
				
					<rect x="118.823" y="158.758" transform="matrix(-0.7961 0.6052 -0.6052 -0.7961 336.5324 287.1401)" clip-path="url(#SVGID_5_)" fill="#51A5A8" width="2.129" height="83.026"/>
				
					<rect x="120.517" y="157.469" transform="matrix(-0.7961 0.6052 -0.6052 -0.7961 338.7967 283.8001)" clip-path="url(#SVGID_5_)" fill="#52A6A8" width="2.129" height="83.026"/>
				
					<rect x="122.212" y="156.181" transform="matrix(-0.796 0.6053 -0.6053 -0.796 341.064 280.4516)" clip-path="url(#SVGID_5_)" fill="#52A6A7" width="2.129" height="83.026"/>
				
					<rect x="123.907" y="154.892" transform="matrix(-0.7961 0.6052 -0.6052 -0.7961 343.3209 277.131)" clip-path="url(#SVGID_5_)" fill="#54A6A6" width="2.129" height="83.026"/>
				
					<rect x="125.602" y="153.604" transform="matrix(-0.7961 0.6052 -0.6052 -0.7961 345.5893 273.78)" clip-path="url(#SVGID_5_)" fill="#54A6A6" width="2.129" height="83.026"/>
				
					<rect x="127.297" y="152.315" transform="matrix(-0.796 0.6053 -0.6053 -0.796 347.8564 270.4314)" clip-path="url(#SVGID_5_)" fill="#55A6A5" width="2.129" height="83.026"/>
				
					<rect x="128.992" y="151.027" transform="matrix(-0.7961 0.6052 -0.6052 -0.7961 350.1138 267.1109)" clip-path="url(#SVGID_5_)" fill="#55A7A5" width="2.129" height="83.026"/>
				
					<rect x="130.687" y="149.738" transform="matrix(-0.7961 0.6052 -0.6052 -0.7961 352.3818 263.7597)" clip-path="url(#SVGID_5_)" fill="#57A7A4" width="2.129" height="83.026"/>
				
					<rect x="132.381" y="148.45" transform="matrix(-0.796 0.6053 -0.6053 -0.796 354.6488 260.4112)" clip-path="url(#SVGID_5_)" fill="#56A8A4" width="2.129" height="83.026"/>
				
					<rect x="134.076" y="147.161" transform="matrix(-0.7961 0.6052 -0.6052 -0.7961 356.9102 257.0796)" clip-path="url(#SVGID_5_)" fill="#58A8A4" width="2.129" height="83.026"/>
				
					<rect x="135.771" y="145.872" transform="matrix(-0.7961 0.6052 -0.6052 -0.7961 359.171 253.7507)" clip-path="url(#SVGID_5_)" fill="#58A8A3" width="2.129" height="83.026"/>
				
					<rect x="137.466" y="144.584" transform="matrix(-0.796 0.6053 -0.6053 -0.796 361.4411 250.391)" clip-path="url(#SVGID_5_)" fill="#59A9A3" width="2.129" height="83.026"/>
				
					<rect x="139.161" y="143.295" transform="matrix(-0.7961 0.6052 -0.6052 -0.7961 363.7027 247.0595)" clip-path="url(#SVGID_5_)" fill="#59A8A2" width="2.129" height="83.026"/>
				
					<rect x="140.856" y="142.007" transform="matrix(-0.7961 0.6052 -0.6052 -0.7961 365.9662 243.722)" clip-path="url(#SVGID_5_)" fill="#5BA9A2" width="2.129" height="83.026"/>
				
					<rect x="142.55" y="140.718" transform="matrix(-0.7961 0.6052 -0.6052 -0.7961 368.231 240.3794)" clip-path="url(#SVGID_5_)" fill="#5BA9A1" width="2.129" height="83.026"/>
				
					<rect x="144.245" y="139.43" transform="matrix(-0.7961 0.6052 -0.6052 -0.7961 370.4953 237.0393)" clip-path="url(#SVGID_5_)" fill="#5CAAA1" width="2.129" height="83.026"/>
				
					<rect x="145.94" y="138.141" transform="matrix(-0.796 0.6053 -0.6053 -0.796 372.7617 233.6905)" clip-path="url(#SVGID_5_)" fill="#5CAAA0" width="2.129" height="83.026"/>
				
					<rect x="147.635" y="136.853" transform="matrix(-0.7961 0.6052 -0.6052 -0.7961 375.021 230.3706)" clip-path="url(#SVGID_5_)" fill="#5DAAA0" width="2.129" height="83.026"/>
				
					<rect x="149.33" y="135.564" transform="matrix(-0.7961 0.6052 -0.6052 -0.7961 377.2879 227.0192)" clip-path="url(#SVGID_5_)" fill="#5FAB9F" width="2.129" height="83.026"/>
				
					<rect x="151.025" y="134.276" transform="matrix(-0.796 0.6053 -0.6053 -0.796 379.5538 223.6707)" clip-path="url(#SVGID_5_)" fill="#5FAB9F" width="2.129" height="83.026"/>
				
					<rect x="152.72" y="132.987" transform="matrix(-0.7961 0.6052 -0.6052 -0.7961 381.8139 220.3506)" clip-path="url(#SVGID_5_)" fill="#60AB9E" width="2.129" height="83.026"/>
				
					<rect x="154.414" y="131.699" transform="matrix(-0.7961 0.6052 -0.6052 -0.7961 384.0805 216.9989)" clip-path="url(#SVGID_5_)" fill="#60AB9E" width="2.129" height="83.026"/>
				
					<rect x="156.109" y="130.41" transform="matrix(-0.796 0.6053 -0.6053 -0.796 386.3463 213.6497)" clip-path="url(#SVGID_5_)" fill="#61AC9D" width="2.129" height="83.026"/>
				
					<rect x="157.804" y="129.121" transform="matrix(-0.7961 0.6052 -0.6052 -0.7961 388.6088 210.3189)" clip-path="url(#SVGID_5_)" fill="#61AC9D" width="2.129" height="83.026"/>
				
					<rect x="159.499" y="127.833" transform="matrix(-0.7961 0.6052 -0.6052 -0.7961 390.8711 206.9904)" clip-path="url(#SVGID_5_)" fill="#63AC9C" width="2.129" height="83.026"/>
				
					<rect x="161.194" y="126.544" transform="matrix(-0.796 0.6053 -0.6053 -0.796 393.1386 203.6299)" clip-path="url(#SVGID_5_)" fill="#62AD9C" width="2.129" height="83.026"/>
				
					<rect x="162.889" y="125.256" transform="matrix(-0.7961 0.6052 -0.6052 -0.7961 395.4014 200.2987)" clip-path="url(#SVGID_5_)" fill="#64AD9B" width="2.129" height="83.026"/>
				
					<rect x="164.584" y="123.967" transform="matrix(-0.7961 0.6052 -0.6052 -0.7961 397.664 196.9703)" clip-path="url(#SVGID_5_)" fill="#64AE9B" width="2.129" height="83.026"/>
				
					<rect x="166.278" y="122.679" transform="matrix(-0.796 0.6053 -0.6053 -0.796 399.9309 193.6096)" clip-path="url(#SVGID_5_)" fill="#65AE9A" width="2.129" height="83.026"/>
				
					<rect x="167.973" y="121.39" transform="matrix(-0.7961 0.6052 -0.6052 -0.7961 402.1939 190.2786)" clip-path="url(#SVGID_5_)" fill="#65AE99" width="2.129" height="83.026"/>
				
					<rect x="169.668" y="120.102" transform="matrix(-0.7961 0.6052 -0.6052 -0.7961 404.4569 186.9503)" clip-path="url(#SVGID_5_)" fill="#66AE99" width="2.129" height="83.026"/>
				
					<rect x="171.363" y="118.813" transform="matrix(-0.796 0.6053 -0.6053 -0.796 406.7233 183.5894)" clip-path="url(#SVGID_5_)" fill="#66AE99" width="2.129" height="83.026"/>
				
					<rect x="173.058" y="117.525" transform="matrix(-0.7961 0.6052 -0.6052 -0.7961 408.9865 180.2585)" clip-path="url(#SVGID_5_)" fill="#67AF98" width="2.129" height="83.026"/>
				
					<rect x="174.753" y="116.236" transform="matrix(-0.7961 0.6052 -0.6052 -0.7961 411.2508 176.9183)" clip-path="url(#SVGID_5_)" fill="#67AF98" width="2.129" height="83.026"/>
				
					<rect x="176.448" y="114.947" transform="matrix(-0.7961 0.6052 -0.6052 -0.7961 413.5147 173.581)" clip-path="url(#SVGID_5_)" fill="#68B097" width="2.129" height="83.026"/>
				
					<rect x="178.142" y="113.659" transform="matrix(-0.7961 0.6052 -0.6052 -0.7961 415.7791 170.2383)" clip-path="url(#SVGID_5_)" fill="#69B097" width="2.129" height="83.026"/>
				
					<rect x="179.837" y="112.37" transform="matrix(-0.7961 0.6052 -0.6052 -0.7961 418.0434 166.8981)" clip-path="url(#SVGID_5_)" fill="#6AB096" width="2.129" height="83.026"/>
				
					<rect x="181.532" y="111.082" transform="matrix(-0.7961 0.6052 -0.6052 -0.7961 420.3074 163.5609)" clip-path="url(#SVGID_5_)" fill="#6AB096" width="2.129" height="83.026"/>
				
					<rect x="183.227" y="109.793" transform="matrix(-0.7961 0.6052 -0.6052 -0.7961 422.5717 160.2181)" clip-path="url(#SVGID_5_)" fill="#6BB195" width="2.129" height="83.026"/>
				
					<rect x="184.922" y="108.505" transform="matrix(-0.796 0.6053 -0.6053 -0.796 424.8363 156.8688)" clip-path="url(#SVGID_5_)" fill="#6CB194" width="2.129" height="83.026"/>
				
					<rect x="186.616" y="107.216" transform="matrix(-0.7961 0.6052 -0.6052 -0.7961 427.1 153.5379)" clip-path="url(#SVGID_5_)" fill="#6CB193" width="2.129" height="83.026"/>
				
					<rect x="188.311" y="105.928" transform="matrix(-0.7961 0.6052 -0.6052 -0.7961 429.3641 150.21)" clip-path="url(#SVGID_5_)" fill="#6DB293" width="2.129" height="83.026"/>
				
					<rect x="190.006" y="104.639" transform="matrix(-0.796 0.6053 -0.6053 -0.796 431.6286 146.8486)" clip-path="url(#SVGID_5_)" fill="#6DB292" width="2.129" height="83.026"/>
				
					<rect x="191.701" y="103.351" transform="matrix(-0.7961 0.6052 -0.6052 -0.7961 433.8926 143.5178)" clip-path="url(#SVGID_5_)" fill="#6FB292" width="2.129" height="83.026"/>
				
					<rect x="193.396" y="102.062" transform="matrix(-0.7961 0.6052 -0.6052 -0.7961 436.157 140.1899)" clip-path="url(#SVGID_5_)" fill="#6FB391" width="2.129" height="83.026"/>
				
					<rect x="195.091" y="100.774" transform="matrix(-0.796 0.6053 -0.6053 -0.796 438.4208 136.8283)" clip-path="url(#SVGID_5_)" fill="#70B391" width="2.129" height="83.026"/>
				
					<rect x="196.786" y="99.485" transform="matrix(-0.7961 0.6052 -0.6052 -0.7961 440.6852 133.4977)" clip-path="url(#SVGID_5_)" fill="#70B490" width="2.129" height="83.026"/>
				
					<rect x="198.48" y="98.196" transform="matrix(-0.7961 0.6052 -0.6052 -0.7961 442.9494 130.1575)" clip-path="url(#SVGID_5_)" fill="#71B490" width="2.129" height="83.026"/>
				
					<rect x="200.175" y="96.908" transform="matrix(-0.7961 0.6052 -0.6052 -0.7961 445.2137 126.8209)" clip-path="url(#SVGID_5_)" fill="#71B48F" width="2.129" height="83.026"/>
				
					<rect x="201.87" y="95.619" transform="matrix(-0.7961 0.6052 -0.6052 -0.7961 447.4778 123.4775)" clip-path="url(#SVGID_5_)" fill="#72B58F" width="2.129" height="83.026"/>
				
					<rect x="203.565" y="94.331" transform="matrix(-0.7961 0.6052 -0.6052 -0.7961 449.742 120.1374)" clip-path="url(#SVGID_5_)" fill="#72B48E" width="2.129" height="83.026"/>
				
					<rect x="205.26" y="93.042" transform="matrix(-0.7961 0.6052 -0.6052 -0.7961 452.0063 116.7997)" clip-path="url(#SVGID_5_)" fill="#73B58E" width="2.129" height="83.026"/>
				
					<rect x="206.955" y="91.754" transform="matrix(-0.7961 0.6052 -0.6052 -0.7961 454.2703 113.4573)" clip-path="url(#SVGID_5_)" fill="#73B58D" width="2.129" height="83.026"/>
				
					<rect x="208.65" y="90.465" transform="matrix(-0.7961 0.6052 -0.6052 -0.7961 456.5346 110.1173)" clip-path="url(#SVGID_5_)" fill="#74B68D" width="2.129" height="83.026"/>
				
					<rect x="210.344" y="89.177" transform="matrix(-0.796 0.6053 -0.6053 -0.796 458.7978 106.7676)" clip-path="url(#SVGID_5_)" fill="#75B68C" width="2.129" height="83.026"/>
				
					<rect x="212.039" y="87.888" transform="matrix(-0.7961 0.6052 -0.6052 -0.7961 461.0642 103.4496)" clip-path="url(#SVGID_5_)" fill="#76B68C" width="2.129" height="83.026"/>
				
					<rect x="213.734" y="86.6" transform="matrix(-0.7961 0.6052 -0.6052 -0.7961 463.3272 100.0971)" clip-path="url(#SVGID_5_)" fill="#76B78B" width="2.129" height="83.026"/>
				
					<rect x="215.429" y="85.311" transform="matrix(-0.796 0.6053 -0.6053 -0.796 465.5901 96.7474)" clip-path="url(#SVGID_5_)" fill="#77B78B" width="2.129" height="83.026"/>
				
					<rect x="217.124" y="84.022" transform="matrix(-0.7961 0.6052 -0.6052 -0.7961 467.8571 93.4296)" clip-path="url(#SVGID_5_)" fill="#77B78A" width="2.129" height="83.026"/>
				
					<rect x="218.819" y="82.734" transform="matrix(-0.7961 0.6052 -0.6052 -0.7961 470.1197 90.0769)" clip-path="url(#SVGID_5_)" fill="#78B889" width="2.129" height="83.026"/>
				
					<rect x="220.514" y="81.445" transform="matrix(-0.796 0.6053 -0.6053 -0.796 472.3825 86.7272)" clip-path="url(#SVGID_5_)" fill="#78B889" width="2.129" height="83.026"/>
				
					<rect x="222.208" y="80.157" transform="matrix(-0.7961 0.6052 -0.6052 -0.7961 474.65 83.4095)" clip-path="url(#SVGID_5_)" fill="#79B888" width="2.129" height="83.026"/>
				
					<rect x="223.903" y="78.868" transform="matrix(-0.7961 0.6052 -0.6052 -0.7961 476.9123 80.0567)" clip-path="url(#SVGID_5_)" fill="#79B888" width="2.129" height="83.026"/>
				
					<rect x="225.598" y="77.58" transform="matrix(-0.796 0.6053 -0.6053 -0.796 479.1749 76.707)" clip-path="url(#SVGID_5_)" fill="#7AB987" width="2.129" height="83.026"/>
				
					<rect x="227.293" y="76.291" transform="matrix(-0.7961 0.6052 -0.6052 -0.7961 481.4406 73.3766)" clip-path="url(#SVGID_5_)" fill="#7BB987" width="2.129" height="83.026"/>
				
					<rect x="228.988" y="75.003" transform="matrix(-0.7961 0.6052 -0.6052 -0.7961 483.7054 70.0396)" clip-path="url(#SVGID_5_)" fill="#7BBA86" width="2.129" height="83.026"/>
				
					<rect x="230.682" y="73.714" transform="matrix(-0.7961 0.6052 -0.6052 -0.7961 485.969 66.6966)" clip-path="url(#SVGID_5_)" fill="#7CBA86" width="2.129" height="83.026"/>
				
					<rect x="232.377" y="72.426" transform="matrix(-0.7961 0.6052 -0.6052 -0.7961 488.2332 63.3565)" clip-path="url(#SVGID_5_)" fill="#7CBA85" width="2.129" height="83.026"/>
				
					<rect x="234.072" y="71.137" transform="matrix(-0.7961 0.6052 -0.6052 -0.7961 490.498 60.0195)" clip-path="url(#SVGID_5_)" fill="#7DBB84" width="2.129" height="83.026"/>
				
					<rect x="235.767" y="69.848" transform="matrix(-0.7961 0.6052 -0.6052 -0.7961 492.7615 56.6764)" clip-path="url(#SVGID_5_)" fill="#7DBB84" width="2.129" height="83.026"/>
				
					<rect x="237.462" y="68.56" transform="matrix(-0.7961 0.6052 -0.6052 -0.7961 495.0258 53.3364)" clip-path="url(#SVGID_5_)" fill="#7EBC83" width="2.129" height="83.026"/>
				
					<rect x="239.157" y="67.271" transform="matrix(-0.796 0.6053 -0.6053 -0.796 497.2877 49.9863)" clip-path="url(#SVGID_5_)" fill="#7FBC83" width="2.129" height="83.026"/>
				
					<rect x="240.852" y="65.983" transform="matrix(-0.7961 0.6052 -0.6052 -0.7961 499.5572 46.6692)" clip-path="url(#SVGID_5_)" fill="#80BC82" width="2.129" height="83.026"/>
				
					<rect x="242.546" y="64.694" transform="matrix(-0.7961 0.6052 -0.6052 -0.7961 501.8184 43.3162)" clip-path="url(#SVGID_5_)" fill="#80BC81" width="2.129" height="83.026"/>
				
					<rect x="244.241" y="63.406" transform="matrix(-0.796 0.6053 -0.6053 -0.796 504.08 39.9661)" clip-path="url(#SVGID_5_)" fill="#80BD81" width="2.129" height="83.026"/>
				
					<rect x="245.936" y="62.117" transform="matrix(-0.7961 0.6052 -0.6052 -0.7961 506.35 36.6492)" clip-path="url(#SVGID_5_)" fill="#80BD80" width="2.129" height="83.026"/>
				
					<rect x="247.631" y="60.829" transform="matrix(-0.7961 0.6052 -0.6052 -0.7961 508.611 33.296)" clip-path="url(#SVGID_5_)" fill="#81BD80" width="2.129" height="83.026"/>
				
					<rect x="249.326" y="59.54" transform="matrix(-0.796 0.6052 -0.6052 -0.796 510.8725 29.9465)" clip-path="url(#SVGID_5_)" fill="#81BE80" width="2.129" height="83.026"/>
				
					<rect x="251.021" y="58.252" transform="matrix(-0.7961 0.6052 -0.6052 -0.7961 513.1393 26.6159)" clip-path="url(#SVGID_5_)" fill="#82BE7F" width="2.129" height="83.026"/>
				
					<rect x="252.716" y="56.963" transform="matrix(-0.7961 0.6052 -0.6052 -0.7961 515.4073 23.289)" clip-path="url(#SVGID_5_)" fill="#82BE7F" width="2.129" height="83.026"/>
				
					<rect x="254.41" y="55.675" transform="matrix(-0.796 0.6053 -0.6053 -0.796 517.6646 19.925)" clip-path="url(#SVGID_5_)" fill="#83BF7E" width="2.129" height="83.026"/>
				
					<rect x="256.105" y="54.386" transform="matrix(-0.7961 0.6052 -0.6052 -0.7961 519.9318 16.5957)" clip-path="url(#SVGID_5_)" fill="#83BF7D" width="2.129" height="83.026"/>
				
					<rect x="257.8" y="53.097" transform="matrix(-0.7961 0.6052 -0.6052 -0.7961 522.2002 13.269)" clip-path="url(#SVGID_5_)" fill="#84C07D" width="2.129" height="83.026"/>
				
					<rect x="259.495" y="51.809" transform="matrix(-0.796 0.6053 -0.6053 -0.796 524.457 9.9054)" clip-path="url(#SVGID_5_)" fill="#84C07D" width="2.129" height="83.026"/>
				
					<rect x="261.19" y="50.52" transform="matrix(-0.7961 0.6052 -0.6052 -0.7961 526.7244 6.5756)" clip-path="url(#SVGID_5_)" fill="#85C07C" width="2.129" height="83.026"/>
				<polygon clip-path="url(#SVGID_5_)" fill="#85C17C" points="237.977,58.342 239.672,57.054 288.719,121.566 288.719,124.062 
					288.226,124.436 				"/>
				<polygon clip-path="url(#SVGID_5_)" fill="#86C17B" points="239.672,57.054 241.367,55.765 288.719,118.048 288.719,121.566 
									"/>
				<polygon clip-path="url(#SVGID_5_)" fill="#86C17A" points="241.367,55.765 243.062,54.477 288.719,114.53 288.719,118.048 				
					"/>
				<polygon clip-path="url(#SVGID_5_)" fill="#87C27A" points="243.062,54.477 244.757,53.188 288.719,111.012 288.719,114.53 				
					"/>
				<polygon clip-path="url(#SVGID_5_)" fill="#88C279" points="244.757,53.188 246.451,51.9 288.719,107.495 288.719,111.012 				
					"/>
				<polygon clip-path="url(#SVGID_5_)" fill="#89C278" points="246.451,51.9 248.146,50.611 288.719,103.977 288.719,107.495 				
					"/>
				<polygon clip-path="url(#SVGID_5_)" fill="#89C277" points="248.146,50.611 249.841,49.322 288.719,100.459 288.719,103.977 
									"/>
				<polygon clip-path="url(#SVGID_5_)" fill="#8AC377" points="249.841,49.322 251.536,48.034 288.719,96.941 288.719,100.459 				
					"/>
				<polygon clip-path="url(#SVGID_5_)" fill="#8AC376" points="251.536,48.034 253.231,46.745 288.719,93.423 288.719,96.941 				
					"/>
				<polygon clip-path="url(#SVGID_5_)" fill="#8BC475" points="253.231,46.745 254.926,45.457 288.719,89.906 288.719,93.423 				
					"/>
				<polygon clip-path="url(#SVGID_5_)" fill="#8BC475" points="254.926,45.457 256.62,44.168 288.719,86.388 288.719,89.906 				
					"/>
				<polygon clip-path="url(#SVGID_5_)" fill="#8CC574" points="256.62,44.168 258.315,42.88 288.719,82.87 288.719,86.388 				"/>
				<polygon clip-path="url(#SVGID_5_)" fill="#8CC573" points="258.315,42.88 260.01,41.591 288.719,79.352 288.719,82.87 				"/>
				<polygon clip-path="url(#SVGID_5_)" fill="#8DC672" points="260.01,41.591 260.648,41.106 262.316,41.106 288.719,75.834 
					288.719,79.352 				"/>
				<polygon clip-path="url(#SVGID_5_)" fill="#8DC572" points="264.991,41.106 288.719,72.316 288.719,75.834 262.316,41.106 				
					"/>
				<polygon clip-path="url(#SVGID_5_)" fill="#8EC771" points="267.665,41.106 288.719,68.799 288.719,72.316 264.991,41.106 				
					"/>
				<polygon clip-path="url(#SVGID_5_)" fill="#8EC770" points="270.339,41.106 288.719,65.281 288.719,68.799 267.665,41.106 				
					"/>
				<polygon clip-path="url(#SVGID_5_)" fill="#8FC76F" points="273.014,41.106 288.719,61.763 288.719,65.281 270.339,41.106 				
					"/>
				<polygon clip-path="url(#SVGID_5_)" fill="#8FC76F" points="288.719,61.763 273.014,41.106 288.719,41.106 				"/>
			</g>
		</g>
		<g>
			<g>
				<defs>
					<path id="SVGID_6_" d="M72.793,341.011l-181.805,181.496c-4.51,4.502-11.816,4.496-16.318-0.014h0
						c-4.502-4.51-4.496-11.816,0.014-16.318L56.488,324.679c4.51-4.502,11.816-4.496,16.318,0.014l0,0
						C77.309,329.203,77.302,336.509,72.793,341.011z"/>
				</defs>
				<clipPath id="SVGID_7_">
					<use xlink:href="#SVGID_6_"  overflow="visible"/>
				</clipPath>
				<polygon clip-path="url(#SVGID_7_)" fill="#00ABD4" points="-129.833,514.224 -120.549,527.01 -129.833,527.01 				"/>
				<polygon clip-path="url(#SVGID_7_)" fill="#00ABD4" points="-129.833,512.149 -119.043,527.01 -120.549,527.01 
					-129.833,514.224 				"/>
				<polygon clip-path="url(#SVGID_7_)" fill="#00AAD4" points="-129.833,510.075 -117.536,527.01 -119.043,527.01 
					-129.833,512.149 				"/>
				<polygon clip-path="url(#SVGID_7_)" fill="#04A9D3" points="-129.833,508 -116.03,527.01 -117.536,527.01 -129.833,510.075 				
					"/>
				<polygon clip-path="url(#SVGID_7_)" fill="#0BA8D2" points="-129.833,505.926 -114.524,527.01 -116.03,527.01 -129.833,508 				
					"/>
				<polygon clip-path="url(#SVGID_7_)" fill="#10A7D1" points="-129.833,503.851 -113.017,527.01 -114.524,527.01 
					-129.833,505.926 				"/>
				<polygon clip-path="url(#SVGID_7_)" fill="#1AA7D1" points="-129.833,501.776 -111.511,527.01 -113.017,527.01 
					-129.833,503.851 				"/>
				<polygon clip-path="url(#SVGID_7_)" fill="#1DA6D0" points="-129.833,499.702 -110.178,526.771 -110.481,527.01 
					-111.511,527.01 -129.833,501.776 				"/>
				<polygon clip-path="url(#SVGID_7_)" fill="#20A4CF" points="-129.833,497.627 -109.221,526.014 -110.178,526.771 
					-129.833,499.702 				"/>
				<polygon clip-path="url(#SVGID_7_)" fill="#22A3CE" points="-129.833,495.553 -108.264,525.257 -109.221,526.014 
					-129.833,497.627 				"/>
				<polygon clip-path="url(#SVGID_7_)" fill="#26A3CE" points="-129.833,493.478 -107.308,524.501 -108.264,525.257 
					-129.833,495.553 				"/>
				<polygon clip-path="url(#SVGID_7_)" fill="#29A2CD" points="-129.833,491.403 -106.351,523.744 -107.308,524.501 
					-129.833,493.478 				"/>
				<polygon clip-path="url(#SVGID_7_)" fill="#2AA1CD" points="-129.833,489.329 -105.394,522.988 -106.351,523.744 
					-129.833,491.403 				"/>
				<polygon clip-path="url(#SVGID_7_)" fill="#2CA0CC" points="-129.833,487.254 -104.437,522.231 -105.394,522.988 
					-129.833,489.329 				"/>
				<polygon clip-path="url(#SVGID_7_)" fill="#2E9FCB" points="-129.833,485.18 -103.48,521.474 -104.437,522.231 
					-129.833,487.254 				"/>
				<polygon clip-path="url(#SVGID_7_)" fill="#319FCB" points="-129.833,483.105 -102.523,520.718 -103.48,521.474 
					-129.833,485.18 				"/>
				<polygon clip-path="url(#SVGID_7_)" fill="#329ECA" points="-129.833,481.03 -101.566,519.961 -102.523,520.718 
					-129.833,483.105 				"/>
				<polygon clip-path="url(#SVGID_7_)" fill="#349DCA" points="-129.833,478.956 -100.609,519.204 -101.566,519.961 
					-129.833,481.03 				"/>
				<polygon clip-path="url(#SVGID_7_)" fill="#359CC9" points="-129.833,476.881 -99.652,518.448 -100.609,519.204 
					-129.833,478.956 				"/>
				<polygon clip-path="url(#SVGID_7_)" fill="#379AC8" points="-129.833,474.807 -98.695,517.691 -99.652,518.448 
					-129.833,476.881 				"/>
				<polygon clip-path="url(#SVGID_7_)" fill="#399AC8" points="-129.833,472.732 -97.738,516.934 -98.695,517.691 
					-129.833,474.807 				"/>
				<polygon clip-path="url(#SVGID_7_)" fill="#3B99C7" points="-129.833,470.658 -96.781,516.178 -97.738,516.934 
					-129.833,472.732 				"/>
				<polygon clip-path="url(#SVGID_7_)" fill="#3C98C7" points="-129.833,468.657 -129.799,468.63 -95.824,515.421 -96.781,516.178 
					-129.833,470.658 				"/>
				<polygon clip-path="url(#SVGID_7_)" fill="#3D97C6" points="-129.799,468.63 -128.842,467.874 -94.867,514.664 -95.824,515.421 
									"/>
				<polygon clip-path="url(#SVGID_7_)" fill="#3E96C6" points="-128.842,467.874 -127.885,467.117 -93.91,513.908 -94.867,514.664 
									"/>
				<polygon clip-path="url(#SVGID_7_)" fill="#4096C5" points="-127.885,467.117 -126.928,466.36 -92.953,513.151 -93.91,513.908 
									"/>
				<polygon clip-path="url(#SVGID_7_)" fill="#4294C4" points="-126.928,466.36 -125.971,465.604 -91.996,512.395 -92.953,513.151 
									"/>
				<polygon clip-path="url(#SVGID_7_)" fill="#4393C3" points="-125.971,465.604 -125.014,464.847 -91.039,511.638 
					-91.996,512.395 				"/>
				<polygon clip-path="url(#SVGID_7_)" fill="#4393C3" points="-125.014,464.847 -124.057,464.09 -90.082,510.881 -91.039,511.638 
									"/>
				<polygon clip-path="url(#SVGID_7_)" fill="#4492C2" points="-124.057,464.09 -123.1,463.334 -89.125,510.125 -90.082,510.881 
									"/>
				<polygon clip-path="url(#SVGID_7_)" fill="#4791C1" points="-123.1,463.334 -122.143,462.577 -88.169,509.368 -89.125,510.125 
									"/>
				<polygon clip-path="url(#SVGID_7_)" fill="#4790C1" points="-122.143,462.577 -121.186,461.82 -87.212,508.611 -88.169,509.368 
									"/>
				<polygon clip-path="url(#SVGID_7_)" fill="#488FC0" points="-121.186,461.82 -120.229,461.064 -86.255,507.855 -87.212,508.611 
									"/>
				<polygon clip-path="url(#SVGID_7_)" fill="#498EC0" points="-120.229,461.064 -119.272,460.307 -85.298,507.098 
					-86.255,507.855 				"/>
				<polygon clip-path="url(#SVGID_7_)" fill="#498EBF" points="-119.272,460.307 -118.315,459.551 -84.341,506.342 
					-85.298,507.098 				"/>
				<polygon clip-path="url(#SVGID_7_)" fill="#4B8DBF" points="-118.315,459.551 -117.358,458.794 -83.384,505.585 
					-84.341,506.342 				"/>
				<polygon clip-path="url(#SVGID_7_)" fill="#4C8CBE" points="-117.358,458.794 -116.401,458.037 -82.427,504.828 
					-83.384,505.585 				"/>
				<polygon clip-path="url(#SVGID_7_)" fill="#4D8BBE" points="-116.401,458.037 -115.444,457.281 -81.47,504.072 -82.427,504.828 
									"/>
				<polygon clip-path="url(#SVGID_7_)" fill="#4D8ABD" points="-115.444,457.281 -114.487,456.524 -80.513,503.315 -81.47,504.072 
									"/>
				<polygon clip-path="url(#SVGID_7_)" fill="#4E8ABC" points="-114.487,456.524 -113.53,455.767 -79.556,502.558 -80.513,503.315 
									"/>
				<polygon clip-path="url(#SVGID_7_)" fill="#5089BC" points="-113.53,455.767 -112.573,455.011 -78.599,501.802 -79.556,502.558 
									"/>
				<polygon clip-path="url(#SVGID_7_)" fill="#5188BB" points="-112.573,455.011 -111.616,454.254 -77.642,501.045 
					-78.599,501.802 				"/>
				<polygon clip-path="url(#SVGID_7_)" fill="#5187BA" points="-111.616,454.254 -110.66,453.498 -76.685,500.288 -77.642,501.045 
									"/>
				<polygon clip-path="url(#SVGID_7_)" fill="#5286BA" points="-110.66,453.498 -109.703,452.741 -75.728,499.532 -76.685,500.288 
									"/>
				<polygon clip-path="url(#SVGID_7_)" fill="#5285B9" points="-109.703,452.741 -108.746,451.984 -74.771,498.775 
					-75.728,499.532 				"/>
				<polygon clip-path="url(#SVGID_7_)" fill="#5485B9" points="-108.746,451.984 -107.789,451.228 -73.814,498.018 
					-74.771,498.775 				"/>
				<polygon clip-path="url(#SVGID_7_)" fill="#5584B8" points="-107.789,451.228 -106.832,450.471 -72.857,497.262 
					-73.814,498.018 				"/>
				<polygon clip-path="url(#SVGID_7_)" fill="#5583B8" points="-106.832,450.471 -105.875,449.714 -71.9,496.505 -72.857,497.262 
									"/>
				<polygon clip-path="url(#SVGID_7_)" fill="#5682B7" points="-105.875,449.714 -104.918,448.958 -70.943,495.749 -71.9,496.505 
									"/>
				<polygon clip-path="url(#SVGID_7_)" fill="#5681B7" points="-104.918,448.958 -103.961,448.201 -69.986,494.992 
					-70.943,495.749 				"/>
				<polygon clip-path="url(#SVGID_7_)" fill="#5881B6" points="-103.961,448.201 -103.004,447.444 -69.03,494.235 -69.986,494.992 
									"/>
				<polygon clip-path="url(#SVGID_7_)" fill="#5880B6" points="-103.004,447.444 -102.047,446.688 -68.073,493.479 -69.03,494.235 
									"/>
				<polygon clip-path="url(#SVGID_7_)" fill="#5880B5" points="-102.047,446.688 -101.09,445.931 -67.116,492.722 -68.073,493.479 
									"/>
				<polygon clip-path="url(#SVGID_7_)" fill="#597FB5" points="-101.09,445.931 -100.133,445.174 -66.159,491.965 -67.116,492.722 
									"/>
				<polygon clip-path="url(#SVGID_7_)" fill="#597EB4" points="-100.133,445.174 -99.176,444.418 -65.202,491.209 -66.159,491.965 
									"/>
				<polygon clip-path="url(#SVGID_7_)" fill="#5A7EB4" points="-99.176,444.418 -98.219,443.661 -64.245,490.452 -65.202,491.209 
									"/>
				<polygon clip-path="url(#SVGID_7_)" fill="#5B7DB3" points="-98.219,443.661 -97.262,442.905 -63.288,489.696 -64.245,490.452 
									"/>
				<polygon clip-path="url(#SVGID_7_)" fill="#5B7DB3" points="-97.262,442.905 -96.305,442.148 -62.331,488.939 -63.288,489.696 
									"/>
				<polygon clip-path="url(#SVGID_7_)" fill="#5C7BB2" points="-96.305,442.148 -95.348,441.391 -61.374,488.182 -62.331,488.939 
									"/>
				<polygon clip-path="url(#SVGID_7_)" fill="#5C7BB2" points="-95.348,441.391 -94.391,440.635 -60.417,487.426 -61.374,488.182 
									"/>
				<polygon clip-path="url(#SVGID_7_)" fill="#5D7AB1" points="-94.391,440.635 -93.434,439.878 -59.46,486.669 -60.417,487.426 
									"/>
				<polygon clip-path="url(#SVGID_7_)" fill="#5D79B1" points="-93.434,439.878 -92.477,439.121 -58.503,485.912 -59.46,486.669 
									"/>
				<polygon clip-path="url(#SVGID_7_)" fill="#5E79B0" points="-92.477,439.121 -91.52,438.365 -57.546,485.156 -58.503,485.912 
									"/>
				<polygon clip-path="url(#SVGID_7_)" fill="#5F78B0" points="-91.52,438.365 -90.564,437.608 -56.589,484.399 -57.546,485.156 
									"/>
				<polygon clip-path="url(#SVGID_7_)" fill="#5F77AF" points="-90.564,437.608 -89.607,436.852 -55.632,483.642 -56.589,484.399 
									"/>
				<polygon clip-path="url(#SVGID_7_)" fill="#5F76AF" points="-89.607,436.852 -88.65,436.095 -54.675,482.886 -55.632,483.642 
									"/>
				<polygon clip-path="url(#SVGID_7_)" fill="#6076AE" points="-88.65,436.095 -87.693,435.338 -53.718,482.129 -54.675,482.886 
									"/>
				<polygon clip-path="url(#SVGID_7_)" fill="#6075AE" points="-87.693,435.338 -86.736,434.582 -52.761,481.372 -53.718,482.129 
									"/>
				<polygon clip-path="url(#SVGID_7_)" fill="#6175AD" points="-86.736,434.582 -85.779,433.825 -51.804,480.616 -52.761,481.372 
									"/>
				<polygon clip-path="url(#SVGID_7_)" fill="#6274AD" points="-85.779,433.825 -84.822,433.068 -50.847,479.859 -51.804,480.616 
									"/>
				<polygon clip-path="url(#SVGID_7_)" fill="#6273AC" points="-84.822,433.068 -83.865,432.312 -49.89,479.103 -50.847,479.859 
									"/>
				<polygon clip-path="url(#SVGID_7_)" fill="#6273AD" points="-83.865,432.312 -82.908,431.555 -48.933,478.346 -49.89,479.103 
									"/>
				<polygon clip-path="url(#SVGID_7_)" fill="#6271AC" points="-82.908,431.555 -81.951,430.798 -47.977,477.589 -48.933,478.346 
									"/>
				<polygon clip-path="url(#SVGID_7_)" fill="#6371AC" points="-81.951,430.798 -80.994,430.042 -47.02,476.833 -47.977,477.589 
									"/>
				<polygon clip-path="url(#SVGID_7_)" fill="#6471AB" points="-80.994,430.042 -80.037,429.285 -46.063,476.076 -47.02,476.833 
									"/>
				<polygon clip-path="url(#SVGID_7_)" fill="#6470AA" points="-80.037,429.285 -79.08,428.529 -45.106,475.319 -46.063,476.076 
									"/>
				<polygon clip-path="url(#SVGID_7_)" fill="#646FAA" points="-79.08,428.529 -78.123,427.772 -44.149,474.563 -45.106,475.319 
									"/>
				<polygon clip-path="url(#SVGID_7_)" fill="#656EAA" points="-78.123,427.772 -77.166,427.015 -43.192,473.806 -44.149,474.563 
									"/>
				<polygon clip-path="url(#SVGID_7_)" fill="#656DA9" points="-77.166,427.015 -76.209,426.259 -42.235,473.049 -43.192,473.806 
									"/>
				<polygon clip-path="url(#SVGID_7_)" fill="#656DA9" points="-76.209,426.259 -75.252,425.502 -41.278,472.293 -42.235,473.049 
									"/>
				<polygon clip-path="url(#SVGID_7_)" fill="#666DA8" points="-75.252,425.502 -74.295,424.745 -40.321,471.536 -41.278,472.293 
									"/>
				<polygon clip-path="url(#SVGID_7_)" fill="#676BA8" points="-74.295,424.745 -73.338,423.989 -39.364,470.78 -40.321,471.536 
									"/>
				<polygon clip-path="url(#SVGID_7_)" fill="#676BA7" points="-73.338,423.989 -72.382,423.232 -38.407,470.023 -39.364,470.78 
									"/>
				<polygon clip-path="url(#SVGID_7_)" fill="#676AA7" points="-72.382,423.232 -71.425,422.475 -37.45,469.266 -38.407,470.023 
									"/>
				<polygon clip-path="url(#SVGID_7_)" fill="#676AA7" points="-71.425,422.475 -70.468,421.719 -36.493,468.51 -37.45,469.266 
									"/>
				<polygon clip-path="url(#SVGID_7_)" fill="#6769A7" points="-70.468,421.719 -69.511,420.962 -35.536,467.753 -36.493,468.51 
									"/>
				<polygon clip-path="url(#SVGID_7_)" fill="#6868A6" points="-69.511,420.962 -68.554,420.206 -34.579,466.996 -35.536,467.753 
									"/>
				<polygon clip-path="url(#SVGID_7_)" fill="#6968A6" points="-68.554,420.206 -67.597,419.449 -33.622,466.24 -34.579,466.996 
									"/>
				<polygon clip-path="url(#SVGID_7_)" fill="#6967A6" points="-67.597,419.449 -66.64,418.692 -32.665,465.483 -33.622,466.24 
									"/>
				<polygon clip-path="url(#SVGID_7_)" fill="#6966A5" points="-66.64,418.692 -65.683,417.936 -31.708,464.727 -32.665,465.483 
									"/>
				<polygon clip-path="url(#SVGID_7_)" fill="#6966A5" points="-65.683,417.936 -64.726,417.179 -30.751,463.97 -31.708,464.727 
									"/>
				<polygon clip-path="url(#SVGID_7_)" fill="#6A65A4" points="-64.726,417.179 -63.769,416.422 -29.794,463.213 -30.751,463.97 
									"/>
				<polygon clip-path="url(#SVGID_7_)" fill="#6A65A4" points="-63.769,416.422 -62.812,415.666 -28.838,462.457 -29.794,463.213 
									"/>
				<polygon clip-path="url(#SVGID_7_)" fill="#6B64A4" points="-62.812,415.666 -61.855,414.909 -27.881,461.7 -28.838,462.457 
									"/>
				<polygon clip-path="url(#SVGID_7_)" fill="#6B63A3" points="-61.855,414.909 -60.898,414.152 -26.924,460.943 -27.881,461.7 
									"/>
				<polygon clip-path="url(#SVGID_7_)" fill="#6B63A3" points="-60.898,414.152 -59.941,413.396 -25.967,460.187 -26.924,460.943 
									"/>
				<polygon clip-path="url(#SVGID_7_)" fill="#6C62A2" points="-59.941,413.396 -58.984,412.639 -25.01,459.43 -25.967,460.187 
									"/>
				<polygon clip-path="url(#SVGID_7_)" fill="#6C61A2" points="-58.984,412.639 -58.027,411.883 -24.053,458.673 -25.01,459.43 
									"/>
				<polygon clip-path="url(#SVGID_7_)" fill="#6C61A2" points="-58.027,411.883 -57.07,411.126 -23.096,457.917 -24.053,458.673 
									"/>
				<polygon clip-path="url(#SVGID_7_)" fill="#6C60A1" points="-57.07,411.126 -56.113,410.369 -22.139,457.16 -23.096,457.917 
									"/>
				<polygon clip-path="url(#SVGID_7_)" fill="#6C5FA1" points="-56.113,410.369 -55.156,409.613 -21.182,456.404 -22.139,457.16 
									"/>
				<polygon clip-path="url(#SVGID_7_)" fill="#6D5FA1" points="-55.156,409.613 -54.199,408.856 -20.225,455.647 -21.182,456.404 
									"/>
				<polygon clip-path="url(#SVGID_7_)" fill="#6D5EA0" points="-54.199,408.856 -53.243,408.099 -19.268,454.89 -20.225,455.647 
									"/>
				<polygon clip-path="url(#SVGID_7_)" fill="#6E5EA0" points="-53.243,408.099 -52.286,407.343 -18.311,454.134 -19.268,454.89 
									"/>
				<polygon clip-path="url(#SVGID_7_)" fill="#6E5DA0" points="-52.286,407.343 -51.329,406.586 -17.354,453.377 -18.311,454.134 
									"/>
				<polygon clip-path="url(#SVGID_7_)" fill="#6E5C9F" points="-51.329,406.586 -50.372,405.83 -16.397,452.62 -17.354,453.377 
									"/>
				<polygon clip-path="url(#SVGID_7_)" fill="#6E5C9F" points="-50.372,405.83 -49.415,405.073 -15.44,451.864 -16.397,452.62 				
					"/>
				<polygon clip-path="url(#SVGID_7_)" fill="#6E5B9F" points="-49.415,405.073 -48.458,404.316 -14.483,451.107 -15.44,451.864 
									"/>
				<polygon clip-path="url(#SVGID_7_)" fill="#6F5B9E" points="-48.458,404.316 -47.501,403.56 -13.526,450.35 -14.483,451.107 
									"/>
				<polygon clip-path="url(#SVGID_7_)" fill="#6F599E" points="-47.501,403.56 -46.544,402.803 -12.569,449.594 -13.526,450.35 
									"/>
				<polygon clip-path="url(#SVGID_7_)" fill="#6F599D" points="-46.544,402.803 -45.587,402.046 -11.612,448.837 -12.569,449.594 
									"/>
				<polygon clip-path="url(#SVGID_7_)" fill="#70589D" points="-45.587,402.046 -44.63,401.29 -10.656,448.081 -11.612,448.837 
									"/>
				<polygon clip-path="url(#SVGID_7_)" fill="#70589C" points="-44.63,401.29 -43.673,400.533 -9.699,447.324 -10.656,448.081 				
					"/>
				<polygon clip-path="url(#SVGID_7_)" fill="#70579C" points="-43.673,400.533 -42.716,399.776 -8.742,446.567 -9.699,447.324 
									"/>
				<polygon clip-path="url(#SVGID_7_)" fill="#70569C" points="-42.716,399.776 -41.759,399.02 -7.785,445.811 -8.742,446.567 				
					"/>
				<polygon clip-path="url(#SVGID_7_)" fill="#70569B" points="-41.759,399.02 -40.802,398.263 -6.828,445.054 -7.785,445.811 				
					"/>
				<polygon clip-path="url(#SVGID_7_)" fill="#71559B" points="-40.802,398.263 -39.845,397.506 -5.871,444.297 -6.828,445.054 
									"/>
				<polygon clip-path="url(#SVGID_7_)" fill="#71559B" points="-39.845,397.506 -38.888,396.75 -4.914,443.541 -5.871,444.297 				
					"/>
				<polygon clip-path="url(#SVGID_7_)" fill="#71549B" points="-38.888,396.75 -37.931,395.993 -3.957,442.784 -4.914,443.541 				
					"/>
				<polygon clip-path="url(#SVGID_7_)" fill="#72539B" points="-37.931,395.993 -36.974,395.237 -3,442.027 -3.957,442.784 				"/>
				<polygon clip-path="url(#SVGID_7_)" fill="#72539A" points="-36.974,395.237 -36.017,394.48 -2.043,441.271 -3,442.027 				"/>
				<polygon clip-path="url(#SVGID_7_)" fill="#72529A" points="-36.017,394.48 -35.061,393.723 -1.086,440.514 -2.043,441.271 				
					"/>
				<polygon clip-path="url(#SVGID_7_)" fill="#72529A" points="-35.061,393.723 -34.104,392.967 -0.129,439.757 -1.086,440.514 
									"/>
				<polygon clip-path="url(#SVGID_7_)" fill="#725199" points="-34.104,392.967 -33.147,392.21 0.828,439.001 -0.129,439.757 				
					"/>
				<polygon clip-path="url(#SVGID_7_)" fill="#725099" points="-33.147,392.21 -32.19,391.453 1.785,438.244 0.828,439.001 				"/>
				<polygon clip-path="url(#SVGID_7_)" fill="#735099" points="-32.19,391.453 -31.233,390.697 2.742,437.488 1.785,438.244 				
					"/>
				<polygon clip-path="url(#SVGID_7_)" fill="#734F98" points="-31.233,390.697 -30.276,389.94 3.699,436.731 2.742,437.488 				
					"/>
				<polygon clip-path="url(#SVGID_7_)" fill="#734F98" points="-30.276,389.94 -29.319,389.184 4.656,435.974 3.699,436.731 				
					"/>
				<polygon clip-path="url(#SVGID_7_)" fill="#734E98" points="-29.319,389.184 -28.362,388.427 5.613,435.218 4.656,435.974 				
					"/>
				<polygon clip-path="url(#SVGID_7_)" fill="#744E98" points="-28.362,388.427 -27.405,387.67 6.57,434.461 5.613,435.218 				"/>
				<polygon clip-path="url(#SVGID_7_)" fill="#744D97" points="-27.405,387.67 -26.448,386.914 7.527,433.704 6.57,434.461 				"/>
				<polygon clip-path="url(#SVGID_7_)" fill="#744C97" points="-26.448,386.914 -25.491,386.157 8.483,432.948 7.527,433.704 				
					"/>
				<polygon clip-path="url(#SVGID_7_)" fill="#744C97" points="-25.491,386.157 -24.534,385.4 9.44,432.191 8.483,432.948 				"/>
				<polygon clip-path="url(#SVGID_7_)" fill="#744B96" points="-24.534,385.4 -23.577,384.644 10.397,431.435 9.44,432.191 				"/>
				<polygon clip-path="url(#SVGID_7_)" fill="#754A96" points="-23.577,384.644 -22.62,383.887 11.354,430.678 10.397,431.435 				
					"/>
				<polygon clip-path="url(#SVGID_7_)" fill="#754A96" points="-22.62,383.887 -21.663,383.13 12.311,429.921 11.354,430.678 				
					"/>
				<polygon clip-path="url(#SVGID_7_)" fill="#754A96" points="-21.663,383.13 -20.706,382.374 13.268,429.165 12.311,429.921 				
					"/>
				<polygon clip-path="url(#SVGID_7_)" fill="#754995" points="-20.706,382.374 -19.749,381.617 14.225,428.408 13.268,429.165 
									"/>
				<polygon clip-path="url(#SVGID_7_)" fill="#754895" points="-19.749,381.617 -18.792,380.86 15.182,427.651 14.225,428.408 				
					"/>
				<polygon clip-path="url(#SVGID_7_)" fill="#754895" points="-18.792,380.86 -17.835,380.104 16.139,426.895 15.182,427.651 				
					"/>
				<polygon clip-path="url(#SVGID_7_)" fill="#754795" points="-17.835,380.104 -16.878,379.347 17.096,426.138 16.139,426.895 
									"/>
				<polygon clip-path="url(#SVGID_7_)" fill="#754795" points="-16.878,379.347 -15.922,378.591 18.053,425.381 17.096,426.138 
									"/>
				<polygon clip-path="url(#SVGID_7_)" fill="#754694" points="-15.922,378.591 -14.965,377.834 19.01,424.625 18.053,425.381 				
					"/>
				<polygon clip-path="url(#SVGID_7_)" fill="#764694" points="-14.965,377.834 -14.008,377.077 19.967,423.868 19.01,424.625 				
					"/>
				<polygon clip-path="url(#SVGID_7_)" fill="#764594" points="-14.008,377.077 -13.051,376.321 20.924,423.112 19.967,423.868 
									"/>
				<polygon clip-path="url(#SVGID_7_)" fill="#774493" points="-13.051,376.321 -12.094,375.564 21.881,422.355 20.924,423.112 
									"/>
				<polygon clip-path="url(#SVGID_7_)" fill="#774493" points="-12.094,375.564 -11.137,374.807 22.838,421.598 21.881,422.355 
									"/>
				<polygon clip-path="url(#SVGID_7_)" fill="#774393" points="-11.137,374.807 -10.18,374.051 23.795,420.842 22.838,421.598 				
					"/>
				<polygon clip-path="url(#SVGID_7_)" fill="#774393" points="-10.18,374.051 -9.223,373.294 24.752,420.085 23.795,420.842 				
					"/>
				<polygon clip-path="url(#SVGID_7_)" fill="#774292" points="-9.223,373.294 -8.266,372.538 25.709,419.328 24.752,420.085 				
					"/>
				<polygon clip-path="url(#SVGID_7_)" fill="#774292" points="-8.266,372.538 -7.309,371.781 26.665,418.572 25.709,419.328 				
					"/>
				<polygon clip-path="url(#SVGID_7_)" fill="#774192" points="-7.309,371.781 -6.352,371.024 27.622,417.815 26.665,418.572 				
					"/>
				<polygon clip-path="url(#SVGID_7_)" fill="#774192" points="-6.352,371.024 -5.395,370.268 28.579,417.058 27.622,417.815 				
					"/>
				<polygon clip-path="url(#SVGID_7_)" fill="#774192" points="-5.395,370.268 -4.438,369.511 29.536,416.302 28.579,417.058 				
					"/>
				<polygon clip-path="url(#SVGID_7_)" fill="#774091" points="-4.438,369.511 -3.481,368.754 30.493,415.545 29.536,416.302 				
					"/>
				<polygon clip-path="url(#SVGID_7_)" fill="#773F91" points="-3.481,368.754 -2.524,367.998 31.45,414.789 30.493,415.545 				
					"/>
				<polygon clip-path="url(#SVGID_7_)" fill="#783E91" points="-2.524,367.998 -1.567,367.241 32.407,414.032 31.45,414.789 				
					"/>
				<polygon clip-path="url(#SVGID_7_)" fill="#783E91" points="-1.567,367.241 -0.61,366.484 33.364,413.275 32.407,414.032 				
					"/>
				<polygon clip-path="url(#SVGID_7_)" fill="#783E90" points="-0.61,366.484 0.347,365.728 34.321,412.519 33.364,413.275 				"/>
				<polygon clip-path="url(#SVGID_7_)" fill="#783D90" points="0.347,365.728 1.304,364.971 35.278,411.762 34.321,412.519 				"/>
				<polygon clip-path="url(#SVGID_7_)" fill="#783D90" points="1.304,364.971 2.261,364.215 36.235,411.005 35.278,411.762 				"/>
				<polygon clip-path="url(#SVGID_7_)" fill="#783C90" points="2.261,364.215 3.218,363.458 37.192,410.249 36.235,411.005 				"/>
				<polygon clip-path="url(#SVGID_7_)" fill="#783C90" points="3.218,363.458 4.175,362.701 38.149,409.492 37.192,410.249 				"/>
				<polygon clip-path="url(#SVGID_7_)" fill="#793B8F" points="4.175,362.701 5.131,361.945 39.106,408.735 38.149,409.492 				"/>
				<polygon clip-path="url(#SVGID_7_)" fill="#793B8F" points="5.131,361.945 6.088,361.188 40.063,407.979 39.106,408.735 				"/>
				<polygon clip-path="url(#SVGID_7_)" fill="#793B8F" points="6.088,361.188 7.045,360.431 41.02,407.222 40.063,407.979 				"/>
				<polygon clip-path="url(#SVGID_7_)" fill="#793A8F" points="7.045,360.431 8.002,359.675 41.977,406.466 41.02,407.222 				"/>
				<polygon clip-path="url(#SVGID_7_)" fill="#793A8F" points="8.002,359.675 8.959,358.918 42.934,405.709 41.977,406.466 				"/>
				<polygon clip-path="url(#SVGID_7_)" fill="#79398F" points="8.959,358.918 9.916,358.161 43.891,404.952 42.934,405.709 				"/>
				<polygon clip-path="url(#SVGID_7_)" fill="#79388F" points="9.916,358.161 10.873,357.405 44.848,404.196 43.891,404.952 				
					"/>
				<polygon clip-path="url(#SVGID_7_)" fill="#7A388F" points="10.873,357.405 11.83,356.648 45.804,403.439 44.848,404.196 				
					"/>
				<polygon clip-path="url(#SVGID_7_)" fill="#7A378E" points="11.83,356.648 12.787,355.891 46.762,402.682 45.804,403.439 				
					"/>
				<polygon clip-path="url(#SVGID_7_)" fill="#7A378E" points="12.787,355.891 13.744,355.135 47.718,401.926 46.762,402.682 				
					"/>
				<polygon clip-path="url(#SVGID_7_)" fill="#7A368E" points="13.744,355.135 14.701,354.378 48.675,401.169 47.718,401.926 				
					"/>
				<polygon clip-path="url(#SVGID_7_)" fill="#7A368E" points="14.701,354.378 15.658,353.622 49.632,400.413 48.675,401.169 				
					"/>
				<polygon clip-path="url(#SVGID_7_)" fill="#7A368E" points="15.658,353.622 16.615,352.865 50.589,399.656 49.632,400.413 				
					"/>
				<polygon clip-path="url(#SVGID_7_)" fill="#7A368E" points="16.615,352.865 17.572,352.108 51.546,398.899 50.589,399.656 				
					"/>
				<polygon clip-path="url(#SVGID_7_)" fill="#7A358D" points="17.572,352.108 18.529,351.352 52.503,398.143 51.546,398.899 				
					"/>
				<polygon clip-path="url(#SVGID_7_)" fill="#7A358D" points="18.529,351.352 19.486,350.595 53.46,397.386 52.503,398.143 				
					"/>
				<polygon clip-path="url(#SVGID_7_)" fill="#7A348D" points="19.486,350.595 20.443,349.838 54.417,396.629 53.46,397.386 				
					"/>
				<polygon clip-path="url(#SVGID_7_)" fill="#7A348D" points="20.443,349.838 21.4,349.082 55.374,395.873 54.417,396.629 				"/>
				<polygon clip-path="url(#SVGID_7_)" fill="#7A338D" points="21.4,349.082 22.357,348.325 56.331,395.116 55.374,395.873 				"/>
				<polygon clip-path="url(#SVGID_7_)" fill="#7A338D" points="22.357,348.325 23.314,347.569 57.288,394.359 56.331,395.116 				
					"/>
				<polygon clip-path="url(#SVGID_7_)" fill="#7A328C" points="23.314,347.569 24.27,346.812 58.245,393.603 57.288,394.359 				
					"/>
				<polygon clip-path="url(#SVGID_7_)" fill="#7A328C" points="24.27,346.812 25.227,346.055 59.202,392.846 58.245,393.603 				
					"/>
				<polygon clip-path="url(#SVGID_7_)" fill="#7A328C" points="25.227,346.055 26.184,345.299 60.159,392.089 59.202,392.846 				
					"/>
				<polygon clip-path="url(#SVGID_7_)" fill="#7A318C" points="26.184,345.299 27.141,344.542 61.116,391.333 60.159,392.089 				
					"/>
				<polygon clip-path="url(#SVGID_7_)" fill="#7B318C" points="27.141,344.542 28.098,343.785 62.073,390.576 61.116,391.333 				
					"/>
				<polygon clip-path="url(#SVGID_7_)" fill="#7B308C" points="28.098,343.785 29.055,343.029 63.03,389.82 62.073,390.576 				"/>
				<polygon clip-path="url(#SVGID_7_)" fill="#7B308C" points="29.055,343.029 30.012,342.272 63.987,389.063 63.03,389.82 				"/>
				<polygon clip-path="url(#SVGID_7_)" fill="#7B308C" points="30.012,342.272 30.969,341.515 64.944,388.306 63.987,389.063 				
					"/>
				<polygon clip-path="url(#SVGID_7_)" fill="#7B308B" points="30.969,341.515 31.926,340.759 65.901,387.55 64.944,388.306 				
					"/>
				<polygon clip-path="url(#SVGID_7_)" fill="#7B308B" points="31.926,340.759 32.883,340.002 66.857,386.793 65.901,387.55 				
					"/>
				<polygon clip-path="url(#SVGID_7_)" fill="#7B308B" points="32.883,340.002 33.84,339.245 67.814,386.036 66.857,386.793 				
					"/>
				<polygon clip-path="url(#SVGID_7_)" fill="#7B2F8B" points="33.84,339.245 34.797,338.489 68.771,385.28 67.814,386.036 				"/>
				<polygon clip-path="url(#SVGID_7_)" fill="#7B2F8B" points="34.797,338.489 35.754,337.732 69.728,384.523 68.771,385.28 				
					"/>
				<polygon clip-path="url(#SVGID_7_)" fill="#7B2F8B" points="35.754,337.732 36.711,336.976 70.685,383.767 69.728,384.523 				
					"/>
				<polygon clip-path="url(#SVGID_7_)" fill="#7B2E8B" points="36.711,336.976 37.668,336.219 71.642,383.01 70.685,383.767 				
					"/>
				<polygon clip-path="url(#SVGID_7_)" fill="#7B2E8B" points="37.668,336.219 38.625,335.462 72.599,382.253 71.642,383.01 				
					"/>
				<polygon clip-path="url(#SVGID_7_)" fill="#7B2E8B" points="38.625,335.462 39.582,334.706 73.556,381.497 72.599,382.253 				
					"/>
				<polygon clip-path="url(#SVGID_7_)" fill="#7B2D8A" points="39.582,334.706 40.539,333.949 74.513,380.74 73.556,381.497 				
					"/>
				<polygon clip-path="url(#SVGID_7_)" fill="#7B2D8A" points="40.539,333.949 41.496,333.192 75.47,379.983 74.513,380.74 				"/>
				<polygon clip-path="url(#SVGID_7_)" fill="#7B2D8A" points="41.496,333.192 42.452,332.436 76.427,379.227 75.47,379.983 				
					"/>
				<polygon clip-path="url(#SVGID_7_)" fill="#7B2D8A" points="42.452,332.436 43.409,331.679 77.309,378.367 77.309,378.529 
					76.427,379.227 				"/>
				<polygon clip-path="url(#SVGID_7_)" fill="#7B2C8A" points="43.409,331.679 44.366,330.923 77.309,376.292 77.309,378.367 				
					"/>
				<polygon clip-path="url(#SVGID_7_)" fill="#7B2C8A" points="44.366,330.923 45.323,330.166 77.309,374.217 77.309,376.292 				
					"/>
				<polygon clip-path="url(#SVGID_7_)" fill="#7B2C8A" points="45.323,330.166 46.28,329.409 77.309,372.143 77.309,374.217 				
					"/>
				<polygon clip-path="url(#SVGID_7_)" fill="#7B2C8A" points="46.28,329.409 47.237,328.653 77.309,370.068 77.309,372.143 				
					"/>
				<polygon clip-path="url(#SVGID_7_)" fill="#7B2B8A" points="47.237,328.653 48.194,327.896 77.309,367.994 77.309,370.068 				
					"/>
				<polygon clip-path="url(#SVGID_7_)" fill="#7B2B8A" points="48.194,327.896 49.151,327.139 77.309,365.919 77.309,367.994 				
					"/>
				<polygon clip-path="url(#SVGID_7_)" fill="#7B2B8A" points="49.151,327.139 50.108,326.383 77.309,363.844 77.309,365.919 				
					"/>
				<polygon clip-path="url(#SVGID_7_)" fill="#7B2B8A" points="50.108,326.383 51.065,325.626 77.309,361.77 77.309,363.844 				
					"/>
				<polygon clip-path="url(#SVGID_7_)" fill="#7B2B8A" points="51.065,325.626 52.022,324.869 77.309,359.695 77.309,361.77 				
					"/>
				<polygon clip-path="url(#SVGID_7_)" fill="#7B2B8A" points="52.022,324.869 52.979,324.113 77.309,357.621 77.309,359.695 				
					"/>
				<polygon clip-path="url(#SVGID_7_)" fill="#7C2A8A" points="52.979,324.113 53.936,323.356 77.309,355.546 77.309,357.621 				
					"/>
				<polygon clip-path="url(#SVGID_7_)" fill="#7C2A8A" points="53.936,323.356 54.893,322.6 77.309,353.471 77.309,355.546 				"/>
				<polygon clip-path="url(#SVGID_7_)" fill="#7C2A8A" points="54.893,322.6 55.85,321.843 77.309,351.397 77.309,353.471 				"/>
				<polygon clip-path="url(#SVGID_7_)" fill="#7C2A8A" points="55.85,321.843 56.807,321.086 77.309,349.322 77.309,351.397 				
					"/>
				<polygon clip-path="url(#SVGID_7_)" fill="#7C2A8A" points="56.807,321.086 57.764,320.33 77.309,347.248 77.309,349.322 				
					"/>
				<polygon clip-path="url(#SVGID_7_)" fill="#7C2A8A" points="57.764,320.33 57.956,320.177 59.159,320.177 77.309,345.173 
					77.309,347.248 				"/>
				<polygon clip-path="url(#SVGID_7_)" fill="#7C2A8A" points="60.666,320.177 77.309,343.099 77.309,345.173 59.159,320.177 				
					"/>
				<polygon clip-path="url(#SVGID_7_)" fill="#7C2A8A" points="62.172,320.177 77.309,341.024 77.309,343.099 60.666,320.177 				
					"/>
				<polygon clip-path="url(#SVGID_7_)" fill="#7C2A8A" points="63.678,320.177 77.309,338.949 77.309,341.024 62.172,320.177 				
					"/>
				<polygon clip-path="url(#SVGID_7_)" fill="#7C2A8A" points="65.185,320.177 77.309,336.875 77.309,338.949 63.678,320.177 				
					"/>
				<polygon clip-path="url(#SVGID_7_)" fill="#7C2A8A" points="66.691,320.177 77.309,334.8 77.309,336.875 65.185,320.177 				"/>
				<polygon clip-path="url(#SVGID_7_)" fill="#7C2A8A" points="68.197,320.177 77.309,332.726 77.309,334.8 66.691,320.177 				"/>
				<polygon clip-path="url(#SVGID_7_)" fill="#7C2A8A" points="69.704,320.177 77.309,330.651 77.309,332.726 68.197,320.177 				
					"/>
				<polygon clip-path="url(#SVGID_7_)" fill="#7C2A8A" points="77.309,330.651 69.704,320.177 77.309,320.177 				"/>
			</g>
		</g>
		<g>
			<path fill="#F5D852" d="M49.751,186.906l-151.526,151.268c-4.45,4.442-11.659,4.436-16.101-0.014h0
				c-4.442-4.45-4.436-11.659,0.014-16.101L33.663,170.791c4.45-4.443,11.659-4.436,16.101,0.014l0,0
				C54.207,175.255,54.201,182.464,49.751,186.906z"/>
		</g>
		<g>
			
				<rect x="344.024" y="-183.615" transform="matrix(0.7071 0.7072 -0.7072 0.7071 182.9632 -209.7971)" fill="#F5D852" width="1.36" height="599.102"/>
		</g>
		<g>
			
				<rect x="279.968" y="34.85" transform="matrix(0.7071 0.7072 -0.7072 0.7071 318.6871 -100.5021)" fill="#F5D852" width="1.36" height="599.1"/>
		</g>
		<g>
			
				<rect x="73.455" y="699.4" transform="matrix(0.7071 0.7072 -0.7072 0.7071 553.7243 167.9616)" fill="#F5D852" width="1.36" height="105.837"/>
		</g>
		<g>
			<path fill="#F5D852" d="M-100.945,467.889l-0.962-0.962l4.809-4.81l0.962,0.962L-100.945,467.889z M-86.517,453.461l-0.962-0.962
				l4.809-4.809l0.962,0.962L-86.517,453.461z M-72.089,439.033l-0.962-0.962l4.809-4.809l0.962,0.962L-72.089,439.033z
				 M-57.661,424.605l-0.962-0.962l4.809-4.81l0.962,0.962L-57.661,424.605z M-43.234,410.178l-0.962-0.962l4.809-4.809l0.962,0.962
				L-43.234,410.178z M-28.805,395.75l-0.962-0.962l4.809-4.809l0.962,0.962L-28.805,395.75z M-14.378,381.322l-0.962-0.962
				l4.809-4.809l0.962,0.962L-14.378,381.322z M0.05,366.894l-0.962-0.962l4.81-4.81l0.962,0.962L0.05,366.894z M14.478,352.466
				l-0.962-0.962l4.809-4.809l0.962,0.962L14.478,352.466z M28.906,338.038l-0.962-0.962l4.81-4.809l0.962,0.962L28.906,338.038z
				 M43.334,323.611l-0.962-0.962l4.809-4.81l0.962,0.962L43.334,323.611z M57.762,309.183l-0.962-0.962l4.809-4.809l0.962,0.962
				L57.762,309.183z M72.189,294.755l-0.962-0.962l4.81-4.81l0.962,0.962L72.189,294.755z M86.617,280.327l-0.962-0.962l4.809-4.809
				l0.962,0.962L86.617,280.327z M101.045,265.899l-0.962-0.962l4.809-4.809l0.962,0.962L101.045,265.899z"/>
		</g>
		<g>
			<path fill="#F5D852" d="M-190.898,742.068l-0.962-0.962l4.809-4.809l0.962,0.962L-190.898,742.068z M-176.47,727.641
				l-0.962-0.962l4.81-4.81l0.962,0.962L-176.47,727.641z M-162.042,713.213l-0.962-0.962l4.81-4.81l0.962,0.962L-162.042,713.213z
				 M-147.615,698.786l-0.962-0.962l4.81-4.81l0.962,0.962L-147.615,698.786z M-133.186,684.357l-0.962-0.962l4.809-4.809
				l0.962,0.962L-133.186,684.357z M-118.758,669.929l-0.962-0.962l4.809-4.809l0.962,0.962L-118.758,669.929z M-104.331,655.501
				l-0.962-0.962l4.809-4.809l0.962,0.962L-104.331,655.501z M-89.903,641.074l-0.962-0.962l4.809-4.809l0.962,0.962
				L-89.903,641.074z M-75.475,626.646l-0.962-0.962l4.81-4.81l0.962,0.962L-75.475,626.646z M-61.048,612.219l-0.962-0.962
				l4.81-4.81l0.962,0.962L-61.048,612.219z M-46.619,597.79l-0.962-0.962l4.809-4.809l0.962,0.962L-46.619,597.79z
				 M-32.191,583.362l-0.962-0.962l4.809-4.809l0.962,0.962L-32.191,583.362z M-17.764,568.934l-0.962-0.962l4.809-4.809
				l0.962,0.962L-17.764,568.934z M-3.336,554.507l-0.962-0.962l4.809-4.809l0.962,0.962L-3.336,554.507z M11.092,540.079
				l-0.962-0.962l4.81-4.81l0.962,0.962L11.092,540.079z"/>
		</g>
		<g>
			<path fill="#F5D852" d="M180.437,370.734l-0.962-0.962l4.809-4.809l0.962,0.962L180.437,370.734z M194.865,356.306l-0.962-0.962
				l4.81-4.81l0.962,0.962L194.865,356.306z M209.292,341.879l-0.962-0.962l4.81-4.81l0.962,0.962L209.292,341.879z M223.72,327.451
				l-0.962-0.962l4.81-4.81l0.962,0.962L223.72,327.451z M238.149,313.022l-0.962-0.962l4.809-4.809l0.962,0.962L238.149,313.022z
				 M252.576,298.594l-0.962-0.962l4.809-4.809l0.962,0.962L252.576,298.594z M267.004,284.167l-0.962-0.962l4.809-4.809
				l0.962,0.962L267.004,284.167z M281.432,269.739l-0.962-0.962l4.809-4.809l0.962,0.962L281.432,269.739z M295.859,255.312
				l-0.962-0.962l4.81-4.81l0.962,0.962L295.859,255.312z M310.287,240.884l-0.962-0.962l4.81-4.81l0.962,0.962L310.287,240.884z
				 M324.716,226.455l-0.962-0.962l4.809-4.809l0.962,0.962L324.716,226.455z M339.143,212.027l-0.962-0.962l4.809-4.809
				l0.962,0.962L339.143,212.027z M353.571,197.6l-0.962-0.962l4.809-4.809l0.962,0.962L353.571,197.6z M367.999,183.172
				l-0.962-0.962l4.809-4.809l0.962,0.962L367.999,183.172z M382.426,168.745l-0.962-0.962l4.81-4.81l0.962,0.962L382.426,168.745z"
				/>
		</g>
		<g>
			<g>
				
					<rect x="-11.677" y="176.655" transform="matrix(0.7071 0.7071 -0.7071 0.7071 122.8952 60.0153)" fill="#F5D852" width="1.36" height="3.401"/>
			</g>
			<g>
				<path fill="#F5D852" d="M0.201,168.118l-0.962-0.962l4.758-4.758l0.962,0.962L0.201,168.118z M14.474,153.846l-0.962-0.962
					l4.758-4.758l0.962,0.962L14.474,153.846z M28.747,139.573l-0.962-0.962l4.758-4.758l0.962,0.962L28.747,139.573z
					 M43.019,125.301l-0.962-0.962l4.758-4.758l0.962,0.962L43.019,125.301z M57.292,111.028l-0.962-0.962l4.758-4.758l0.962,0.962
					L57.292,111.028z M71.565,96.755l-0.962-0.962l4.758-4.758l0.962,0.962L71.565,96.755z M85.837,82.482l-0.962-0.962l4.758-4.758
					l0.962,0.962L85.837,82.482z M100.11,68.209l-0.962-0.962l4.758-4.758l0.962,0.962L100.11,68.209z M114.383,53.937l-0.962-0.962
					l4.758-4.758l0.962,0.962L114.383,53.937z M128.656,39.664l-0.962-0.962l4.758-4.758l0.962,0.962L128.656,39.664z
					 M142.928,25.391l-0.962-0.962l4.758-4.758l0.962,0.962L142.928,25.391z M157.201,11.118l-0.962-0.962l4.758-4.758l0.962,0.962
					L157.201,11.118z M171.474-3.155l-0.962-0.962l4.758-4.758l0.962,0.962L171.474-3.155z M185.747-17.427l-0.962-0.962
					l4.757-4.757l0.962,0.962L185.747-17.427z"/>
			</g>
			<g>
				
					<rect x="200.06" y="-35.083" transform="matrix(0.7071 0.7071 -0.7071 0.7071 35.1906 -151.7224)" fill="#F5D852" width="1.36" height="3.401"/>
			</g>
		</g>
		<g>
			
				<rect x="54.234" y="115.448" transform="matrix(0.7072 0.7071 -0.7071 0.7072 175.6796 27.2741)" fill="#F5D852" width="1.36" height="220.549"/>
		</g>
		<g>
			
				<rect x="-82.321" y="33.348" transform="matrix(0.7071 0.7071 -0.7071 0.7071 56.6954 91.1172)" fill="#F5D852" width="1.36" height="161.297"/>
		</g>
	</g>
	<g>
		
			<rect x="2070.258" y="-89.899" transform="matrix(0.7071 0.7072 -0.7072 0.7071 779.7411 -1392.8469)" fill="#F5D852" width="1.519" height="669.224"/>
	</g>
	<g>
		
			<rect x="1998.705" y="154.137" transform="matrix(0.7071 0.7072 -0.7072 0.7071 931.3509 -1270.7593)" fill="#F5D852" width="1.519" height="669.222"/>
	</g>
	<g>
		
			<rect x="1768.02" y="896.469" transform="matrix(0.7071 0.7072 -0.7072 0.7071 1193.8981 -970.8732)" fill="#F5D852" width="1.519" height="118.225"/>
	</g>
	<g>
		<path fill="#F5D852" d="M1573.208,637.861l-1.074-1.074l5.372-5.372l1.074,1.074L1573.208,637.861z M1589.324,621.745
			l-1.074-1.074l5.372-5.372l1.074,1.074L1589.324,621.745z M1605.441,605.628l-1.074-1.074l5.372-5.372l1.074,1.074
			L1605.441,605.628z M1621.557,589.512l-1.074-1.074l5.372-5.372l1.074,1.074L1621.557,589.512z M1637.674,573.395l-1.074-1.074
			l5.372-5.372l1.074,1.074L1637.674,573.395z M1653.791,557.278l-1.074-1.074l5.372-5.372l1.074,1.074L1653.791,557.278z
			 M1669.907,541.162l-1.074-1.074l5.372-5.372l1.074,1.074L1669.907,541.162z M1686.024,525.046l-1.074-1.074l5.372-5.372
			l1.074,1.074L1686.024,525.046z M1702.141,508.929l-1.074-1.074l5.371-5.372l1.074,1.074L1702.141,508.929z M1718.257,492.812
			l-1.074-1.074l5.372-5.372l1.074,1.074L1718.257,492.812z M1734.373,476.696l-1.074-1.074l5.372-5.372l1.074,1.074
			L1734.373,476.696z M1750.49,460.579l-1.074-1.074l5.371-5.372l1.074,1.074L1750.49,460.579z M1766.606,444.463l-1.074-1.074
			l5.372-5.372l1.074,1.074L1766.606,444.463z M1782.723,428.346l-1.074-1.074l5.372-5.372l1.074,1.074L1782.723,428.346z
			 M1798.84,412.229l-1.074-1.074l5.372-5.372l1.074,1.074L1798.84,412.229z"/>
	</g>
	<g>
		<path fill="#F5D852" d="M1472.726,944.132l-1.074-1.074l5.372-5.372l1.074,1.074L1472.726,944.132z M1488.843,928.016
			l-1.074-1.074l5.373-5.373l1.074,1.074L1488.843,928.016z M1504.959,911.9l-1.074-1.074l5.373-5.373l1.074,1.074L1504.959,911.9z
			 M1521.075,895.783l-1.074-1.074l5.373-5.373l1.074,1.074L1521.075,895.783z M1537.193,879.666l-1.074-1.074l5.371-5.372
			l1.074,1.074L1537.193,879.666z M1553.309,863.549l-1.074-1.074l5.372-5.372l1.074,1.074L1553.309,863.549z M1569.426,847.433
			l-1.074-1.074l5.372-5.372l1.074,1.074L1569.426,847.433z M1585.542,831.317l-1.074-1.074l5.372-5.372l1.074,1.074
			L1585.542,831.317z M1601.658,815.2l-1.074-1.074l5.373-5.373l1.074,1.074L1601.658,815.2z M1617.774,799.084l-1.074-1.074
			l5.373-5.373l1.074,1.074L1617.774,799.084z M1633.892,782.966l-1.074-1.074l5.372-5.372l1.074,1.074L1633.892,782.966z
			 M1650.009,766.85l-1.074-1.074l5.371-5.372l1.074,1.074L1650.009,766.85z M1666.125,750.734l-1.074-1.074l5.372-5.372
			l1.074,1.074L1666.125,750.734z M1682.241,734.617l-1.074-1.074l5.372-5.372l1.074,1.074L1682.241,734.617z M1698.357,718.501
			l-1.074-1.074l5.373-5.373l1.074,1.074L1698.357,718.501z"/>
	</g>
	<g>
		<path fill="#F5D852" d="M1887.524,529.334l-1.074-1.074l5.372-5.372l1.074,1.074L1887.524,529.334z M1903.64,513.218l-1.074-1.074
			l5.373-5.373l1.074,1.074L1903.64,513.218z M1919.757,497.102l-1.074-1.074l5.373-5.373l1.074,1.074L1919.757,497.102z
			 M1935.873,480.986l-1.074-1.074l5.373-5.373l1.074,1.074L1935.873,480.986z M1951.991,464.868l-1.074-1.074l5.372-5.372
			l1.074,1.074L1951.991,464.868z M1968.107,448.752l-1.074-1.074l5.372-5.372l1.074,1.074L1968.107,448.752z M1984.223,432.635
			l-1.074-1.074l5.371-5.372l1.074,1.074L1984.223,432.635z M2000.34,416.519l-1.074-1.074l5.372-5.372l1.074,1.074L2000.34,416.519
			z M2016.456,400.403l-1.074-1.074l5.373-5.373l1.074,1.074L2016.456,400.403z M2032.572,384.286l-1.074-1.074l5.373-5.373
			l1.074,1.074L2032.572,384.286z M2048.69,368.169l-1.074-1.074l5.372-5.372l1.074,1.074L2048.69,368.169z M2064.806,352.052
			l-1.074-1.074l5.372-5.372l1.074,1.074L2064.806,352.052z M2080.923,335.936l-1.074-1.074l5.372-5.372l1.074,1.074
			L2080.923,335.936z M2097.039,319.82l-1.074-1.074l5.371-5.372l1.074,1.074L2097.039,319.82z M2113.155,303.703l-1.074-1.074
			l5.373-5.373l1.074,1.074L2113.155,303.703z"/>
	</g>
	<g>
		<g>
			
				<rect x="1672.924" y="312.539" transform="matrix(0.7071 0.7071 -0.7071 0.7071 712.5525 -1091.3757)" fill="#F5D852" width="1.519" height="3.799"/>
		</g>
		<g>
			<path fill="#F5D852" d="M1686.193,303.004l-1.074-1.074l5.314-5.315l1.074,1.074L1686.193,303.004z M1702.136,287.061
				l-1.074-1.074l5.315-5.314l1.074,1.074L1702.136,287.061z M1718.079,271.117l-1.074-1.074l5.315-5.315l1.074,1.074
				L1718.079,271.117z M1734.022,255.174l-1.074-1.074l5.314-5.315l1.074,1.074L1734.022,255.174z M1749.966,239.231l-1.074-1.074
				l5.314-5.315l1.074,1.074L1749.966,239.231z M1765.909,223.288l-1.074-1.074l5.315-5.314l1.074,1.074L1765.909,223.288z
				 M1781.852,207.344l-1.074-1.074l5.315-5.314l1.074,1.074L1781.852,207.344z M1797.795,191.401l-1.074-1.074l5.314-5.315
				l1.074,1.074L1797.795,191.401z M1813.739,175.458l-1.074-1.074l5.314-5.315l1.074,1.074L1813.739,175.458z M1829.682,159.515
				l-1.074-1.074l5.314-5.314l1.074,1.074L1829.682,159.515z M1845.625,143.571l-1.074-1.074l5.315-5.314l1.074,1.074
				L1845.625,143.571z M1861.568,127.628l-1.074-1.074l5.314-5.314l1.074,1.074L1861.568,127.628z M1877.511,111.684l-1.074-1.074
				l5.315-5.315l1.074,1.074L1877.511,111.684z M1893.455,95.741l-1.074-1.074l5.314-5.314l1.074,1.074L1893.455,95.741z"/>
		</g>
		<g>
			
				<rect x="1909.444" y="76.019" transform="matrix(0.7071 0.7071 -0.7071 0.7071 614.5825 -1327.8962)" fill="#F5D852" width="1.519" height="3.799"/>
		</g>
	</g>
	<g>
		
			<rect x="1746.549" y="244.169" transform="matrix(0.7072 0.7071 -0.7071 0.7072 771.4249 -1127.8705)" fill="#F5D852" width="1.519" height="246.363"/>
	</g>
	<g>
		
			<rect x="1594.012" y="152.459" transform="matrix(0.7071 0.7071 -0.7071 0.7071 638.6042 -1056.6334)" fill="#F5D852" width="1.519" height="180.176"/>
	</g>
</g>
</svg>
